%TF.GenerationSoftware,KiCad,Pcbnew,9.0.0-1.fc41*%
%TF.CreationDate,2025-03-28T10:43:55+08:00*%
%TF.ProjectId,st77xxlcd,73743737-7878-46c6-9364-2e6b69636164,V1.0.0*%
%TF.SameCoordinates,PX413b380PY77f8e40*%
%TF.FileFunction,Soldermask,Top*%
%TF.FilePolarity,Negative*%
%FSLAX46Y46*%
G04 Gerber Fmt 4.6, Leading zero omitted, Abs format (unit mm)*
G04 Created by KiCad (PCBNEW 9.0.0-1.fc41) date 2025-03-28 10:43:55*
%MOMM*%
%LPD*%
G01*
G04 APERTURE LIST*
%ADD10R,1.700000X1.700000*%
%ADD11O,1.700000X1.700000*%
%ADD12R,2.200000X1.800000*%
%ADD13R,1.300000X0.300000*%
G04 APERTURE END LIST*
D10*
%TO.C,J7*%
X43800000Y23840000D03*
D11*
X43800000Y21300000D03*
%TD*%
D12*
%TO.C,J1*%
X60950000Y53750000D03*
X60950000Y30450000D03*
D13*
X57700000Y51850000D03*
X57700000Y51350000D03*
X57700000Y50850000D03*
X57700000Y50350000D03*
X57700000Y49850000D03*
X57700000Y49350000D03*
X57700000Y48850000D03*
X57700000Y48350000D03*
X57700000Y47850000D03*
X57700000Y47350000D03*
X57700000Y46850000D03*
X57700000Y46350000D03*
X57700000Y45850000D03*
X57700000Y45350000D03*
X57700000Y44850000D03*
X57700000Y44350000D03*
X57700000Y43850000D03*
X57700000Y43350000D03*
X57700000Y42850000D03*
X57700000Y42350000D03*
X57700000Y41850000D03*
X57700000Y41350000D03*
X57700000Y40850000D03*
X57700000Y40350000D03*
X57700000Y39850000D03*
X57700000Y39350000D03*
X57700000Y38850000D03*
X57700000Y38350000D03*
X57700000Y37850000D03*
X57700000Y37350000D03*
X57700000Y36850000D03*
X57700000Y36350000D03*
X57700000Y35850000D03*
X57700000Y35350000D03*
X57700000Y34850000D03*
X57700000Y34350000D03*
X57700000Y33850000D03*
X57700000Y33350000D03*
X57700000Y32850000D03*
X57700000Y32350000D03*
%TD*%
D10*
%TO.C,J6*%
X61620000Y2200000D03*
D11*
X59080000Y2200000D03*
X56540000Y2200000D03*
X54000000Y2200000D03*
X51460000Y2200000D03*
X48920000Y2200000D03*
X46380000Y2200000D03*
X43840000Y2200000D03*
X41300000Y2200000D03*
X38760000Y2200000D03*
X36220000Y2200000D03*
X33680000Y2200000D03*
X31140000Y2200000D03*
X28600000Y2200000D03*
X26060000Y2200000D03*
X23520000Y2200000D03*
X20980000Y2200000D03*
X18440000Y2200000D03*
X15900000Y2200000D03*
X13360000Y2200000D03*
X10820000Y2200000D03*
X8280000Y2200000D03*
X5740000Y2200000D03*
X3200000Y2200000D03*
%TD*%
D13*
%TO.C,J3*%
X62125000Y9350000D03*
X62125000Y9850000D03*
X62125000Y10350000D03*
X62125000Y10850000D03*
X62125000Y11350000D03*
X62125000Y11850000D03*
X62125000Y12350000D03*
X62125000Y12850000D03*
X62125000Y13350000D03*
X62125000Y13850000D03*
X62125000Y14350000D03*
X62125000Y14850000D03*
X62125000Y15350000D03*
X62125000Y15850000D03*
X62125000Y16350000D03*
X62125000Y16850000D03*
X62125000Y17350000D03*
X62125000Y17850000D03*
X62125000Y18350000D03*
X62125000Y18850000D03*
X62125000Y19350000D03*
X62125000Y19850000D03*
X62125000Y20350000D03*
X62125000Y20850000D03*
D12*
X65375000Y7450000D03*
X65375000Y22750000D03*
%TD*%
D13*
%TO.C,J2*%
X42125000Y54160000D03*
X42125000Y54660000D03*
X42125000Y55160000D03*
X42125000Y55660000D03*
X42125000Y56160000D03*
X42125000Y56660000D03*
D12*
X45375000Y52260000D03*
X45375000Y58560000D03*
%TD*%
D10*
%TO.C,J4*%
X8260000Y56060000D03*
D11*
X10800000Y56060000D03*
X8260000Y53520000D03*
X10800000Y53520000D03*
X8260000Y50980000D03*
X10800000Y50980000D03*
X8260000Y48440000D03*
X10800000Y48440000D03*
X8260000Y45900000D03*
X10800000Y45900000D03*
X8260000Y43360000D03*
X10800000Y43360000D03*
X8260000Y40820000D03*
X10800000Y40820000D03*
X8260000Y38280000D03*
X10800000Y38280000D03*
X8260000Y35740000D03*
X10800000Y35740000D03*
X8260000Y33200000D03*
X10800000Y33200000D03*
X8260000Y30660000D03*
X10800000Y30660000D03*
X8260000Y28120000D03*
X10800000Y28120000D03*
X8260000Y25580000D03*
X10800000Y25580000D03*
X8260000Y23040000D03*
X10800000Y23040000D03*
X8260000Y20500000D03*
X10800000Y20500000D03*
X8260000Y17960000D03*
X10800000Y17960000D03*
X8260000Y15420000D03*
X10800000Y15420000D03*
X8260000Y12880000D03*
X10800000Y12880000D03*
X8260000Y10340000D03*
X10800000Y10340000D03*
X8260000Y7800000D03*
X10800000Y7800000D03*
%TD*%
D10*
%TO.C,J5*%
X22250000Y58200000D03*
D11*
X24790000Y58200000D03*
X27330000Y58200000D03*
X29870000Y58200000D03*
X32410000Y58200000D03*
X34950000Y58200000D03*
%TD*%
M02*
