%TF.GenerationSoftware,KiCad,Pcbnew,9.0.0-1.fc41*%
%TF.CreationDate,2025-03-28T10:43:55+08:00*%
%TF.ProjectId,st77xxlcd,73743737-7878-46c6-9364-2e6b69636164,V1.0.0*%
%TF.SameCoordinates,PX413b380PY77f8e40*%
%TF.FileFunction,Copper,L2,Bot*%
%TF.FilePolarity,Positive*%
%FSLAX46Y46*%
G04 Gerber Fmt 4.6, Leading zero omitted, Abs format (unit mm)*
G04 Created by KiCad (PCBNEW 9.0.0-1.fc41) date 2025-03-28 10:43:55*
%MOMM*%
%LPD*%
G01*
G04 APERTURE LIST*
%TA.AperFunction,ComponentPad*%
%ADD10R,1.700000X1.700000*%
%TD*%
%TA.AperFunction,ComponentPad*%
%ADD11O,1.700000X1.700000*%
%TD*%
%TA.AperFunction,ViaPad*%
%ADD12C,0.600000*%
%TD*%
%TA.AperFunction,Conductor*%
%ADD13C,0.200000*%
%TD*%
G04 APERTURE END LIST*
D10*
%TO.P,J7,1,Pin_1*%
%TO.N,GND*%
X43800000Y23840000D03*
D11*
%TO.P,J7,2,Pin_2*%
X43800000Y21300000D03*
%TD*%
D10*
%TO.P,J6,1,Pin_1*%
%TO.N,Net-(J3-Pin_1)*%
X61620000Y2200000D03*
D11*
%TO.P,J6,2,Pin_2*%
%TO.N,Net-(J3-Pin_2)*%
X59080000Y2200000D03*
%TO.P,J6,3,Pin_3*%
%TO.N,Net-(J3-Pin_3)*%
X56540000Y2200000D03*
%TO.P,J6,4,Pin_4*%
%TO.N,Net-(J3-Pin_4)*%
X54000000Y2200000D03*
%TO.P,J6,5,Pin_5*%
%TO.N,Net-(J3-Pin_5)*%
X51460000Y2200000D03*
%TO.P,J6,6,Pin_6*%
%TO.N,Net-(J3-Pin_6)*%
X48920000Y2200000D03*
%TO.P,J6,7,Pin_7*%
%TO.N,Net-(J3-Pin_7)*%
X46380000Y2200000D03*
%TO.P,J6,8,Pin_8*%
%TO.N,Net-(J3-Pin_8)*%
X43840000Y2200000D03*
%TO.P,J6,9,Pin_9*%
%TO.N,Net-(J3-Pin_9)*%
X41300000Y2200000D03*
%TO.P,J6,10,Pin_10*%
%TO.N,Net-(J3-Pin_10)*%
X38760000Y2200000D03*
%TO.P,J6,11,Pin_11*%
%TO.N,Net-(J3-Pin_11)*%
X36220000Y2200000D03*
%TO.P,J6,12,Pin_12*%
%TO.N,Net-(J3-Pin_12)*%
X33680000Y2200000D03*
%TO.P,J6,13,Pin_13*%
%TO.N,Net-(J3-Pin_13)*%
X31140000Y2200000D03*
%TO.P,J6,14,Pin_14*%
%TO.N,Net-(J3-Pin_14)*%
X28600000Y2200000D03*
%TO.P,J6,15,Pin_15*%
%TO.N,Net-(J3-Pin_15)*%
X26060000Y2200000D03*
%TO.P,J6,16,Pin_16*%
%TO.N,Net-(J3-Pin_16)*%
X23520000Y2200000D03*
%TO.P,J6,17,Pin_17*%
%TO.N,Net-(J3-Pin_17)*%
X20980000Y2200000D03*
%TO.P,J6,18,Pin_18*%
%TO.N,Net-(J3-Pin_18)*%
X18440000Y2200000D03*
%TO.P,J6,19,Pin_19*%
%TO.N,Net-(J3-Pin_19)*%
X15900000Y2200000D03*
%TO.P,J6,20,Pin_20*%
%TO.N,Net-(J3-Pin_20)*%
X13360000Y2200000D03*
%TO.P,J6,21,Pin_21*%
%TO.N,Net-(J3-Pin_21)*%
X10820000Y2200000D03*
%TO.P,J6,22,Pin_22*%
%TO.N,Net-(J3-Pin_22)*%
X8280000Y2200000D03*
%TO.P,J6,23,Pin_23*%
%TO.N,Net-(J3-Pin_23)*%
X5740000Y2200000D03*
%TO.P,J6,24,Pin_24*%
%TO.N,Net-(J3-Pin_24)*%
X3200000Y2200000D03*
%TD*%
D10*
%TO.P,J4,1,Pin_1*%
%TO.N,Net-(J1-Pin_40)*%
X8260000Y56060000D03*
D11*
%TO.P,J4,2,Pin_2*%
%TO.N,Net-(J1-Pin_39)*%
X10800000Y56060000D03*
%TO.P,J4,3,Pin_3*%
%TO.N,Net-(J1-Pin_38)*%
X8260000Y53520000D03*
%TO.P,J4,4,Pin_4*%
%TO.N,Net-(J1-Pin_37)*%
X10800000Y53520000D03*
%TO.P,J4,5,Pin_5*%
%TO.N,Net-(J1-Pin_36)*%
X8260000Y50980000D03*
%TO.P,J4,6,Pin_6*%
%TO.N,Net-(J1-Pin_35)*%
X10800000Y50980000D03*
%TO.P,J4,7,Pin_7*%
%TO.N,Net-(J1-Pin_34)*%
X8260000Y48440000D03*
%TO.P,J4,8,Pin_8*%
%TO.N,Net-(J1-Pin_33)*%
X10800000Y48440000D03*
%TO.P,J4,9,Pin_9*%
%TO.N,Net-(J1-Pin_32)*%
X8260000Y45900000D03*
%TO.P,J4,10,Pin_10*%
%TO.N,Net-(J1-Pin_31)*%
X10800000Y45900000D03*
%TO.P,J4,11,Pin_11*%
%TO.N,Net-(J1-Pin_30)*%
X8260000Y43360000D03*
%TO.P,J4,12,Pin_12*%
%TO.N,Net-(J1-Pin_29)*%
X10800000Y43360000D03*
%TO.P,J4,13,Pin_13*%
%TO.N,Net-(J1-Pin_28)*%
X8260000Y40820000D03*
%TO.P,J4,14,Pin_14*%
%TO.N,Net-(J1-Pin_27)*%
X10800000Y40820000D03*
%TO.P,J4,15,Pin_15*%
%TO.N,Net-(J1-Pin_26)*%
X8260000Y38280000D03*
%TO.P,J4,16,Pin_16*%
%TO.N,Net-(J1-Pin_25)*%
X10800000Y38280000D03*
%TO.P,J4,17,Pin_17*%
%TO.N,Net-(J1-Pin_24)*%
X8260000Y35740000D03*
%TO.P,J4,18,Pin_18*%
%TO.N,Net-(J1-Pin_23)*%
X10800000Y35740000D03*
%TO.P,J4,19,Pin_19*%
%TO.N,Net-(J1-Pin_22)*%
X8260000Y33200000D03*
%TO.P,J4,20,Pin_20*%
%TO.N,Net-(J1-Pin_21)*%
X10800000Y33200000D03*
%TO.P,J4,21,Pin_21*%
%TO.N,Net-(J1-Pin_20)*%
X8260000Y30660000D03*
%TO.P,J4,22,Pin_22*%
%TO.N,Net-(J1-Pin_19)*%
X10800000Y30660000D03*
%TO.P,J4,23,Pin_23*%
%TO.N,Net-(J1-Pin_18)*%
X8260000Y28120000D03*
%TO.P,J4,24,Pin_24*%
%TO.N,Net-(J1-Pin_17)*%
X10800000Y28120000D03*
%TO.P,J4,25,Pin_25*%
%TO.N,Net-(J1-Pin_16)*%
X8260000Y25580000D03*
%TO.P,J4,26,Pin_26*%
%TO.N,Net-(J1-Pin_15)*%
X10800000Y25580000D03*
%TO.P,J4,27,Pin_27*%
%TO.N,Net-(J1-Pin_14)*%
X8260000Y23040000D03*
%TO.P,J4,28,Pin_28*%
%TO.N,Net-(J1-Pin_13)*%
X10800000Y23040000D03*
%TO.P,J4,29,Pin_29*%
%TO.N,Net-(J1-Pin_12)*%
X8260000Y20500000D03*
%TO.P,J4,30,Pin_30*%
%TO.N,Net-(J1-Pin_11)*%
X10800000Y20500000D03*
%TO.P,J4,31,Pin_31*%
%TO.N,Net-(J1-Pin_10)*%
X8260000Y17960000D03*
%TO.P,J4,32,Pin_32*%
%TO.N,Net-(J1-Pin_9)*%
X10800000Y17960000D03*
%TO.P,J4,33,Pin_33*%
%TO.N,Net-(J1-Pin_8)*%
X8260000Y15420000D03*
%TO.P,J4,34,Pin_34*%
%TO.N,Net-(J1-Pin_7)*%
X10800000Y15420000D03*
%TO.P,J4,35,Pin_35*%
%TO.N,Net-(J1-Pin_6)*%
X8260000Y12880000D03*
%TO.P,J4,36,Pin_36*%
%TO.N,Net-(J1-Pin_5)*%
X10800000Y12880000D03*
%TO.P,J4,37,Pin_37*%
%TO.N,Net-(J1-Pin_4)*%
X8260000Y10340000D03*
%TO.P,J4,38,Pin_38*%
%TO.N,Net-(J1-Pin_3)*%
X10800000Y10340000D03*
%TO.P,J4,39,Pin_39*%
%TO.N,Net-(J1-Pin_2)*%
X8260000Y7800000D03*
%TO.P,J4,40,Pin_40*%
%TO.N,Net-(J1-Pin_1)*%
X10800000Y7800000D03*
%TD*%
D10*
%TO.P,J5,1,Pin_1*%
%TO.N,Net-(J2-Pin_1)*%
X22250000Y58200000D03*
D11*
%TO.P,J5,2,Pin_2*%
%TO.N,Net-(J2-Pin_2)*%
X24790000Y58200000D03*
%TO.P,J5,3,Pin_3*%
%TO.N,Net-(J2-Pin_3)*%
X27330000Y58200000D03*
%TO.P,J5,4,Pin_4*%
%TO.N,Net-(J2-Pin_4)*%
X29870000Y58200000D03*
%TO.P,J5,5,Pin_5*%
%TO.N,Net-(J2-Pin_5)*%
X32410000Y58200000D03*
%TO.P,J5,6,Pin_6*%
%TO.N,Net-(J2-Pin_6)*%
X34950000Y58200000D03*
%TD*%
D12*
%TO.N,GND*%
X35050000Y50350000D03*
X45400000Y55500000D03*
X21700000Y15850000D03*
X31650000Y25750000D03*
X61600000Y25800000D03*
X56600000Y25850000D03*
X46600000Y20850000D03*
X46600000Y15850000D03*
X51600000Y20850000D03*
X41650000Y20800000D03*
X36650000Y15800000D03*
X31650000Y15800000D03*
X41650000Y15750000D03*
X26600000Y20850000D03*
X26600000Y15750000D03*
X31600000Y20800000D03*
X36650000Y20800000D03*
X51650000Y30800000D03*
X46650000Y25800000D03*
X41650000Y25800000D03*
X51650000Y25750000D03*
X36600000Y30850000D03*
X36600000Y25750000D03*
X41600000Y30800000D03*
X46650000Y30800000D03*
X31650000Y10850000D03*
X76600000Y15700000D03*
X76600000Y35750000D03*
X3700000Y35950000D03*
X86600000Y40850000D03*
X21650000Y10850000D03*
X66600000Y25800000D03*
X76550000Y10800000D03*
X66550000Y5750000D03*
X71650000Y25750000D03*
X86600000Y30800000D03*
X96550000Y40750000D03*
X71650000Y45800000D03*
X91600000Y50800000D03*
X76600000Y20750000D03*
X66600000Y35800000D03*
X86600000Y50800000D03*
X66550000Y10800000D03*
X61600000Y45800000D03*
X3700000Y55850000D03*
X81600000Y5750000D03*
X96550000Y25800000D03*
X81550000Y50800000D03*
X81650000Y40750000D03*
X61650000Y35750000D03*
X71550000Y40800000D03*
X66600000Y55850000D03*
X81600000Y45800000D03*
X81550000Y30800000D03*
X61650000Y55800000D03*
X96550000Y55800000D03*
X3700000Y20800000D03*
X91600000Y5700000D03*
X76600000Y55750000D03*
X81550000Y10750000D03*
X76550000Y25750000D03*
X71600000Y10800000D03*
X66550000Y30750000D03*
X91600000Y55800000D03*
X86600000Y15700000D03*
X26650000Y10900000D03*
X71650000Y55750000D03*
X91600000Y20750000D03*
X81600000Y35800000D03*
X66600000Y15750000D03*
X3700000Y25850000D03*
X71600000Y50850000D03*
X66600000Y45800000D03*
X71650000Y5800000D03*
X91600000Y15750000D03*
X86600000Y20850000D03*
X76550000Y30850000D03*
X91600000Y35800000D03*
X91600000Y25750000D03*
X3700000Y45900000D03*
X96550000Y20750000D03*
X71650000Y15750000D03*
X71650000Y20800000D03*
X86600000Y5750000D03*
X3600000Y40900000D03*
X81600000Y25800000D03*
X56600000Y55800000D03*
X76550000Y5700000D03*
X3700000Y10850000D03*
X76600000Y40750000D03*
X3700000Y30900000D03*
X86600000Y45800000D03*
X3650000Y50950000D03*
X16700000Y10900000D03*
X71650000Y35850000D03*
X96600000Y10750000D03*
X36650000Y10900000D03*
X66700000Y50750000D03*
X86600000Y35750000D03*
X96550000Y35800000D03*
X96600000Y50800000D03*
X91600000Y45750000D03*
X81650000Y20750000D03*
X96600000Y30800000D03*
X96550000Y45800000D03*
X81600000Y55800000D03*
X86600000Y10750000D03*
X76550000Y50850000D03*
X61600000Y40800000D03*
X81600000Y15750000D03*
X76550000Y45750000D03*
X3700000Y5800000D03*
X66600000Y40800000D03*
X61600000Y50800000D03*
X96550000Y5750000D03*
X91600000Y40750000D03*
X86600000Y55750000D03*
X91600000Y10750000D03*
X66600000Y20800000D03*
X86600000Y25800000D03*
X71650000Y30800000D03*
X96550000Y15750000D03*
X3600000Y15800000D03*
X91600000Y30800000D03*
%TD*%
D13*
%TO.N,Net-(J1-Pin_5)*%
X10800000Y12880000D02*
X11088000Y13168000D01*
%TD*%
%TA.AperFunction,Conductor*%
%TO.N,GND*%
G36*
X21146412Y59493262D02*
G01*
X21168501Y59491682D01*
X21179284Y59483610D01*
X21192206Y59479815D01*
X21206705Y59463082D01*
X21224434Y59449810D01*
X21229141Y59437190D01*
X21237961Y59427011D01*
X21241112Y59405094D01*
X21248851Y59384346D01*
X21245988Y59371186D01*
X21247905Y59357853D01*
X21238705Y59337710D01*
X21233999Y59316073D01*
X21220730Y59298348D01*
X21218880Y59294297D01*
X21212848Y59287819D01*
X21147794Y59222766D01*
X21102415Y59119994D01*
X21102415Y59119992D01*
X21099500Y59094869D01*
X21099500Y57305144D01*
X21099502Y57305118D01*
X21102413Y57280013D01*
X21102415Y57280009D01*
X21147793Y57177236D01*
X21147794Y57177235D01*
X21227235Y57097794D01*
X21330009Y57052415D01*
X21355135Y57049500D01*
X23144864Y57049501D01*
X23144879Y57049503D01*
X23144882Y57049503D01*
X23169987Y57052414D01*
X23169988Y57052415D01*
X23169991Y57052415D01*
X23272765Y57097794D01*
X23352206Y57177235D01*
X23397585Y57280009D01*
X23400500Y57305135D01*
X23400499Y58042875D01*
X23420183Y58109911D01*
X23472987Y58155666D01*
X23542146Y58165610D01*
X23605702Y58136585D01*
X23643476Y58077807D01*
X23646972Y58062271D01*
X23667829Y57930590D01*
X23723787Y57758364D01*
X23723788Y57758361D01*
X23806006Y57597003D01*
X23912441Y57450506D01*
X23912445Y57450501D01*
X24040500Y57322446D01*
X24040505Y57322442D01*
X24168287Y57229604D01*
X24187006Y57216004D01*
X24263094Y57177235D01*
X24348360Y57133789D01*
X24348363Y57133788D01*
X24434476Y57105809D01*
X24520591Y57077829D01*
X24603429Y57064709D01*
X24699449Y57049500D01*
X24699454Y57049500D01*
X24880551Y57049500D01*
X24967259Y57063235D01*
X25059409Y57077829D01*
X25231639Y57133789D01*
X25392994Y57216004D01*
X25539501Y57322447D01*
X25667553Y57450499D01*
X25773996Y57597006D01*
X25856211Y57758361D01*
X25912171Y57930591D01*
X25927156Y58025203D01*
X25937527Y58090679D01*
X25967456Y58153814D01*
X26026768Y58190745D01*
X26096630Y58189747D01*
X26154863Y58151137D01*
X26182473Y58090679D01*
X26207829Y57930590D01*
X26263787Y57758364D01*
X26263788Y57758361D01*
X26346006Y57597003D01*
X26452441Y57450506D01*
X26452445Y57450501D01*
X26580500Y57322446D01*
X26580505Y57322442D01*
X26708287Y57229604D01*
X26727006Y57216004D01*
X26803094Y57177235D01*
X26888360Y57133789D01*
X26888363Y57133788D01*
X26974476Y57105809D01*
X27060591Y57077829D01*
X27143429Y57064709D01*
X27239449Y57049500D01*
X27239454Y57049500D01*
X27420551Y57049500D01*
X27507259Y57063235D01*
X27599409Y57077829D01*
X27771639Y57133789D01*
X27932994Y57216004D01*
X28079501Y57322447D01*
X28207553Y57450499D01*
X28313996Y57597006D01*
X28396211Y57758361D01*
X28452171Y57930591D01*
X28467156Y58025203D01*
X28477527Y58090679D01*
X28507456Y58153814D01*
X28566768Y58190745D01*
X28636630Y58189747D01*
X28694863Y58151137D01*
X28722473Y58090679D01*
X28747829Y57930590D01*
X28803787Y57758364D01*
X28803788Y57758361D01*
X28886006Y57597003D01*
X28992441Y57450506D01*
X28992445Y57450501D01*
X29120500Y57322446D01*
X29120505Y57322442D01*
X29248287Y57229604D01*
X29267006Y57216004D01*
X29343094Y57177235D01*
X29428360Y57133789D01*
X29428363Y57133788D01*
X29514476Y57105809D01*
X29600591Y57077829D01*
X29683429Y57064709D01*
X29779449Y57049500D01*
X29779454Y57049500D01*
X29960551Y57049500D01*
X30047259Y57063235D01*
X30139409Y57077829D01*
X30311639Y57133789D01*
X30472994Y57216004D01*
X30619501Y57322447D01*
X30747553Y57450499D01*
X30853996Y57597006D01*
X30936211Y57758361D01*
X30992171Y57930591D01*
X31007156Y58025203D01*
X31017527Y58090679D01*
X31047456Y58153814D01*
X31106768Y58190745D01*
X31176630Y58189747D01*
X31234863Y58151137D01*
X31262473Y58090679D01*
X31287829Y57930590D01*
X31343787Y57758364D01*
X31343788Y57758361D01*
X31426006Y57597003D01*
X31532441Y57450506D01*
X31532445Y57450501D01*
X31660500Y57322446D01*
X31660505Y57322442D01*
X31788287Y57229604D01*
X31807006Y57216004D01*
X31883094Y57177235D01*
X31968360Y57133789D01*
X31968363Y57133788D01*
X32054476Y57105809D01*
X32140591Y57077829D01*
X32223429Y57064709D01*
X32319449Y57049500D01*
X32319454Y57049500D01*
X32500551Y57049500D01*
X32587259Y57063235D01*
X32679409Y57077829D01*
X32851639Y57133789D01*
X33012994Y57216004D01*
X33159501Y57322447D01*
X33287553Y57450499D01*
X33393996Y57597006D01*
X33476211Y57758361D01*
X33532171Y57930591D01*
X33547156Y58025203D01*
X33557527Y58090679D01*
X33587456Y58153814D01*
X33646768Y58190745D01*
X33716630Y58189747D01*
X33774863Y58151137D01*
X33802473Y58090679D01*
X33827829Y57930590D01*
X33883787Y57758364D01*
X33883788Y57758361D01*
X33966006Y57597003D01*
X34072441Y57450506D01*
X34072445Y57450501D01*
X34200500Y57322446D01*
X34200505Y57322442D01*
X34328287Y57229604D01*
X34347006Y57216004D01*
X34423094Y57177235D01*
X34508360Y57133789D01*
X34508363Y57133788D01*
X34594476Y57105809D01*
X34680591Y57077829D01*
X34763429Y57064709D01*
X34859449Y57049500D01*
X34859454Y57049500D01*
X35040551Y57049500D01*
X35127259Y57063235D01*
X35219409Y57077829D01*
X35391639Y57133789D01*
X35552994Y57216004D01*
X35699501Y57322447D01*
X35827553Y57450499D01*
X35933996Y57597006D01*
X36016211Y57758361D01*
X36072171Y57930591D01*
X36087156Y58025203D01*
X36100500Y58109449D01*
X36100500Y58290552D01*
X36084019Y58394603D01*
X36072171Y58469409D01*
X36044191Y58555524D01*
X36016212Y58641637D01*
X36016211Y58641640D01*
X35977701Y58717218D01*
X35933996Y58802994D01*
X35920396Y58821713D01*
X35827558Y58949495D01*
X35827554Y58949500D01*
X35699499Y59077555D01*
X35699494Y59077559D01*
X35552997Y59183994D01*
X35552996Y59183995D01*
X35552994Y59183996D01*
X35452476Y59235213D01*
X35393987Y59265015D01*
X35343191Y59312990D01*
X35326396Y59380811D01*
X35348934Y59446946D01*
X35403649Y59490397D01*
X35450282Y59499500D01*
X97434108Y59499500D01*
X97495933Y59499500D01*
X97504043Y59499235D01*
X97752895Y59482925D01*
X97768953Y59480810D01*
X97939198Y59446946D01*
X98009535Y59432955D01*
X98025202Y59428757D01*
X98166447Y59380811D01*
X98257481Y59349909D01*
X98272458Y59343706D01*
X98432028Y59265015D01*
X98492460Y59235213D01*
X98506508Y59227103D01*
X98710464Y59090823D01*
X98723325Y59080955D01*
X98838040Y58980352D01*
X98907749Y58919219D01*
X98919218Y58907750D01*
X99080951Y58723329D01*
X99090825Y58710461D01*
X99227102Y58506508D01*
X99235212Y58492461D01*
X99343702Y58272466D01*
X99349909Y58257480D01*
X99428756Y58025203D01*
X99432954Y58009536D01*
X99480807Y57768965D01*
X99482925Y57752884D01*
X99499235Y57504044D01*
X99499500Y57495934D01*
X99499500Y2504067D01*
X99499235Y2495957D01*
X99482925Y2247117D01*
X99480807Y2231036D01*
X99432954Y1990465D01*
X99428756Y1974798D01*
X99349909Y1742521D01*
X99343702Y1727535D01*
X99235212Y1507540D01*
X99227102Y1493493D01*
X99090825Y1289540D01*
X99080951Y1276672D01*
X98919218Y1092251D01*
X98907749Y1080782D01*
X98723328Y919049D01*
X98710460Y909175D01*
X98506507Y772898D01*
X98492460Y764788D01*
X98272465Y656298D01*
X98257479Y650091D01*
X98025202Y571244D01*
X98009535Y567046D01*
X97768964Y519193D01*
X97752883Y517075D01*
X97504043Y500765D01*
X97495933Y500500D01*
X2504067Y500500D01*
X2495957Y500765D01*
X2247116Y517075D01*
X2231035Y519193D01*
X1990464Y567046D01*
X1974797Y571244D01*
X1742520Y650091D01*
X1727534Y656298D01*
X1507539Y764788D01*
X1493492Y772898D01*
X1289539Y909175D01*
X1276671Y919049D01*
X1092250Y1080782D01*
X1080781Y1092251D01*
X1006251Y1177236D01*
X919045Y1276675D01*
X909174Y1289540D01*
X898765Y1305118D01*
X772897Y1493493D01*
X764787Y1507540D01*
X658855Y1722348D01*
X656294Y1727542D01*
X650090Y1742521D01*
X571243Y1974798D01*
X567045Y1990465D01*
X547111Y2090679D01*
X519190Y2231047D01*
X517075Y2247107D01*
X514228Y2290552D01*
X2049500Y2290552D01*
X2049500Y2109449D01*
X2077829Y1930590D01*
X2133787Y1758364D01*
X2133788Y1758361D01*
X2216006Y1597003D01*
X2322441Y1450506D01*
X2322445Y1450501D01*
X2450500Y1322446D01*
X2450505Y1322442D01*
X2513503Y1276672D01*
X2597006Y1216004D01*
X2673094Y1177235D01*
X2758360Y1133789D01*
X2758363Y1133788D01*
X2844476Y1105809D01*
X2930591Y1077829D01*
X3013429Y1064709D01*
X3109449Y1049500D01*
X3109454Y1049500D01*
X3290551Y1049500D01*
X3377259Y1063235D01*
X3469409Y1077829D01*
X3641639Y1133789D01*
X3802994Y1216004D01*
X3949501Y1322447D01*
X4077553Y1450499D01*
X4183996Y1597006D01*
X4266211Y1758361D01*
X4322171Y1930591D01*
X4343027Y2062271D01*
X4347527Y2090679D01*
X4377456Y2153814D01*
X4436768Y2190745D01*
X4506630Y2189747D01*
X4564863Y2151137D01*
X4592473Y2090679D01*
X4617829Y1930590D01*
X4673787Y1758364D01*
X4673788Y1758361D01*
X4756006Y1597003D01*
X4862441Y1450506D01*
X4862445Y1450501D01*
X4990500Y1322446D01*
X4990505Y1322442D01*
X5053503Y1276672D01*
X5137006Y1216004D01*
X5213094Y1177235D01*
X5298360Y1133789D01*
X5298363Y1133788D01*
X5384476Y1105809D01*
X5470591Y1077829D01*
X5553429Y1064709D01*
X5649449Y1049500D01*
X5649454Y1049500D01*
X5830551Y1049500D01*
X5917259Y1063235D01*
X6009409Y1077829D01*
X6181639Y1133789D01*
X6342994Y1216004D01*
X6489501Y1322447D01*
X6617553Y1450499D01*
X6723996Y1597006D01*
X6806211Y1758361D01*
X6862171Y1930591D01*
X6883027Y2062271D01*
X6887527Y2090679D01*
X6917456Y2153814D01*
X6976768Y2190745D01*
X7046630Y2189747D01*
X7104863Y2151137D01*
X7132473Y2090679D01*
X7157829Y1930590D01*
X7213787Y1758364D01*
X7213788Y1758361D01*
X7296006Y1597003D01*
X7402441Y1450506D01*
X7402445Y1450501D01*
X7530500Y1322446D01*
X7530505Y1322442D01*
X7593503Y1276672D01*
X7677006Y1216004D01*
X7753094Y1177235D01*
X7838360Y1133789D01*
X7838363Y1133788D01*
X7924476Y1105809D01*
X8010591Y1077829D01*
X8093429Y1064709D01*
X8189449Y1049500D01*
X8189454Y1049500D01*
X8370551Y1049500D01*
X8457259Y1063235D01*
X8549409Y1077829D01*
X8721639Y1133789D01*
X8882994Y1216004D01*
X9029501Y1322447D01*
X9157553Y1450499D01*
X9263996Y1597006D01*
X9346211Y1758361D01*
X9402171Y1930591D01*
X9423027Y2062271D01*
X9427527Y2090679D01*
X9457456Y2153814D01*
X9516768Y2190745D01*
X9586630Y2189747D01*
X9644863Y2151137D01*
X9672473Y2090679D01*
X9697829Y1930590D01*
X9753787Y1758364D01*
X9753788Y1758361D01*
X9836006Y1597003D01*
X9942441Y1450506D01*
X9942445Y1450501D01*
X10070500Y1322446D01*
X10070505Y1322442D01*
X10133503Y1276672D01*
X10217006Y1216004D01*
X10293094Y1177235D01*
X10378360Y1133789D01*
X10378363Y1133788D01*
X10464476Y1105809D01*
X10550591Y1077829D01*
X10633429Y1064709D01*
X10729449Y1049500D01*
X10729454Y1049500D01*
X10910551Y1049500D01*
X10997259Y1063235D01*
X11089409Y1077829D01*
X11261639Y1133789D01*
X11422994Y1216004D01*
X11569501Y1322447D01*
X11697553Y1450499D01*
X11803996Y1597006D01*
X11886211Y1758361D01*
X11942171Y1930591D01*
X11963027Y2062271D01*
X11967527Y2090679D01*
X11997456Y2153814D01*
X12056768Y2190745D01*
X12126630Y2189747D01*
X12184863Y2151137D01*
X12212473Y2090679D01*
X12237829Y1930590D01*
X12293787Y1758364D01*
X12293788Y1758361D01*
X12376006Y1597003D01*
X12482441Y1450506D01*
X12482445Y1450501D01*
X12610500Y1322446D01*
X12610505Y1322442D01*
X12673503Y1276672D01*
X12757006Y1216004D01*
X12833094Y1177235D01*
X12918360Y1133789D01*
X12918363Y1133788D01*
X13004476Y1105809D01*
X13090591Y1077829D01*
X13173429Y1064709D01*
X13269449Y1049500D01*
X13269454Y1049500D01*
X13450551Y1049500D01*
X13537259Y1063235D01*
X13629409Y1077829D01*
X13801639Y1133789D01*
X13962994Y1216004D01*
X14109501Y1322447D01*
X14237553Y1450499D01*
X14343996Y1597006D01*
X14426211Y1758361D01*
X14482171Y1930591D01*
X14503027Y2062271D01*
X14507527Y2090679D01*
X14537456Y2153814D01*
X14596768Y2190745D01*
X14666630Y2189747D01*
X14724863Y2151137D01*
X14752473Y2090679D01*
X14777829Y1930590D01*
X14833787Y1758364D01*
X14833788Y1758361D01*
X14916006Y1597003D01*
X15022441Y1450506D01*
X15022445Y1450501D01*
X15150500Y1322446D01*
X15150505Y1322442D01*
X15213503Y1276672D01*
X15297006Y1216004D01*
X15373094Y1177235D01*
X15458360Y1133789D01*
X15458363Y1133788D01*
X15544476Y1105809D01*
X15630591Y1077829D01*
X15713429Y1064709D01*
X15809449Y1049500D01*
X15809454Y1049500D01*
X15990551Y1049500D01*
X16077259Y1063235D01*
X16169409Y1077829D01*
X16341639Y1133789D01*
X16502994Y1216004D01*
X16649501Y1322447D01*
X16777553Y1450499D01*
X16883996Y1597006D01*
X16966211Y1758361D01*
X17022171Y1930591D01*
X17043027Y2062271D01*
X17047527Y2090679D01*
X17077456Y2153814D01*
X17136768Y2190745D01*
X17206630Y2189747D01*
X17264863Y2151137D01*
X17292473Y2090679D01*
X17317829Y1930590D01*
X17373787Y1758364D01*
X17373788Y1758361D01*
X17456006Y1597003D01*
X17562441Y1450506D01*
X17562445Y1450501D01*
X17690500Y1322446D01*
X17690505Y1322442D01*
X17753503Y1276672D01*
X17837006Y1216004D01*
X17913094Y1177235D01*
X17998360Y1133789D01*
X17998363Y1133788D01*
X18084476Y1105809D01*
X18170591Y1077829D01*
X18253429Y1064709D01*
X18349449Y1049500D01*
X18349454Y1049500D01*
X18530551Y1049500D01*
X18617259Y1063235D01*
X18709409Y1077829D01*
X18881639Y1133789D01*
X19042994Y1216004D01*
X19189501Y1322447D01*
X19317553Y1450499D01*
X19423996Y1597006D01*
X19506211Y1758361D01*
X19562171Y1930591D01*
X19583027Y2062271D01*
X19587527Y2090679D01*
X19617456Y2153814D01*
X19676768Y2190745D01*
X19746630Y2189747D01*
X19804863Y2151137D01*
X19832473Y2090679D01*
X19857829Y1930590D01*
X19913787Y1758364D01*
X19913788Y1758361D01*
X19996006Y1597003D01*
X20102441Y1450506D01*
X20102445Y1450501D01*
X20230500Y1322446D01*
X20230505Y1322442D01*
X20293503Y1276672D01*
X20377006Y1216004D01*
X20453094Y1177235D01*
X20538360Y1133789D01*
X20538363Y1133788D01*
X20624476Y1105809D01*
X20710591Y1077829D01*
X20793429Y1064709D01*
X20889449Y1049500D01*
X20889454Y1049500D01*
X21070551Y1049500D01*
X21157259Y1063235D01*
X21249409Y1077829D01*
X21421639Y1133789D01*
X21582994Y1216004D01*
X21729501Y1322447D01*
X21857553Y1450499D01*
X21963996Y1597006D01*
X22046211Y1758361D01*
X22102171Y1930591D01*
X22123027Y2062271D01*
X22127527Y2090679D01*
X22157456Y2153814D01*
X22216768Y2190745D01*
X22286630Y2189747D01*
X22344863Y2151137D01*
X22372473Y2090679D01*
X22397829Y1930590D01*
X22453787Y1758364D01*
X22453788Y1758361D01*
X22536006Y1597003D01*
X22642441Y1450506D01*
X22642445Y1450501D01*
X22770500Y1322446D01*
X22770505Y1322442D01*
X22833503Y1276672D01*
X22917006Y1216004D01*
X22993094Y1177235D01*
X23078360Y1133789D01*
X23078363Y1133788D01*
X23164476Y1105809D01*
X23250591Y1077829D01*
X23333429Y1064709D01*
X23429449Y1049500D01*
X23429454Y1049500D01*
X23610551Y1049500D01*
X23697259Y1063235D01*
X23789409Y1077829D01*
X23961639Y1133789D01*
X24122994Y1216004D01*
X24269501Y1322447D01*
X24397553Y1450499D01*
X24503996Y1597006D01*
X24586211Y1758361D01*
X24642171Y1930591D01*
X24663027Y2062271D01*
X24667527Y2090679D01*
X24697456Y2153814D01*
X24756768Y2190745D01*
X24826630Y2189747D01*
X24884863Y2151137D01*
X24912473Y2090679D01*
X24937829Y1930590D01*
X24993787Y1758364D01*
X24993788Y1758361D01*
X25076006Y1597003D01*
X25182441Y1450506D01*
X25182445Y1450501D01*
X25310500Y1322446D01*
X25310505Y1322442D01*
X25373503Y1276672D01*
X25457006Y1216004D01*
X25533094Y1177235D01*
X25618360Y1133789D01*
X25618363Y1133788D01*
X25704476Y1105809D01*
X25790591Y1077829D01*
X25873429Y1064709D01*
X25969449Y1049500D01*
X25969454Y1049500D01*
X26150551Y1049500D01*
X26237259Y1063235D01*
X26329409Y1077829D01*
X26501639Y1133789D01*
X26662994Y1216004D01*
X26809501Y1322447D01*
X26937553Y1450499D01*
X27043996Y1597006D01*
X27126211Y1758361D01*
X27182171Y1930591D01*
X27203027Y2062271D01*
X27207527Y2090679D01*
X27237456Y2153814D01*
X27296768Y2190745D01*
X27366630Y2189747D01*
X27424863Y2151137D01*
X27452473Y2090679D01*
X27477829Y1930590D01*
X27533787Y1758364D01*
X27533788Y1758361D01*
X27616006Y1597003D01*
X27722441Y1450506D01*
X27722445Y1450501D01*
X27850500Y1322446D01*
X27850505Y1322442D01*
X27913503Y1276672D01*
X27997006Y1216004D01*
X28073094Y1177235D01*
X28158360Y1133789D01*
X28158363Y1133788D01*
X28244476Y1105809D01*
X28330591Y1077829D01*
X28413429Y1064709D01*
X28509449Y1049500D01*
X28509454Y1049500D01*
X28690551Y1049500D01*
X28777259Y1063235D01*
X28869409Y1077829D01*
X29041639Y1133789D01*
X29202994Y1216004D01*
X29349501Y1322447D01*
X29477553Y1450499D01*
X29583996Y1597006D01*
X29666211Y1758361D01*
X29722171Y1930591D01*
X29743027Y2062271D01*
X29747527Y2090679D01*
X29777456Y2153814D01*
X29836768Y2190745D01*
X29906630Y2189747D01*
X29964863Y2151137D01*
X29992473Y2090679D01*
X30017829Y1930590D01*
X30073787Y1758364D01*
X30073788Y1758361D01*
X30156006Y1597003D01*
X30262441Y1450506D01*
X30262445Y1450501D01*
X30390500Y1322446D01*
X30390505Y1322442D01*
X30453503Y1276672D01*
X30537006Y1216004D01*
X30613094Y1177235D01*
X30698360Y1133789D01*
X30698363Y1133788D01*
X30784476Y1105809D01*
X30870591Y1077829D01*
X30953429Y1064709D01*
X31049449Y1049500D01*
X31049454Y1049500D01*
X31230551Y1049500D01*
X31317259Y1063235D01*
X31409409Y1077829D01*
X31581639Y1133789D01*
X31742994Y1216004D01*
X31889501Y1322447D01*
X32017553Y1450499D01*
X32123996Y1597006D01*
X32206211Y1758361D01*
X32262171Y1930591D01*
X32283027Y2062271D01*
X32287527Y2090679D01*
X32317456Y2153814D01*
X32376768Y2190745D01*
X32446630Y2189747D01*
X32504863Y2151137D01*
X32532473Y2090679D01*
X32557829Y1930590D01*
X32613787Y1758364D01*
X32613788Y1758361D01*
X32696006Y1597003D01*
X32802441Y1450506D01*
X32802445Y1450501D01*
X32930500Y1322446D01*
X32930505Y1322442D01*
X32993503Y1276672D01*
X33077006Y1216004D01*
X33153094Y1177235D01*
X33238360Y1133789D01*
X33238363Y1133788D01*
X33324476Y1105809D01*
X33410591Y1077829D01*
X33493429Y1064709D01*
X33589449Y1049500D01*
X33589454Y1049500D01*
X33770551Y1049500D01*
X33857259Y1063235D01*
X33949409Y1077829D01*
X34121639Y1133789D01*
X34282994Y1216004D01*
X34429501Y1322447D01*
X34557553Y1450499D01*
X34663996Y1597006D01*
X34746211Y1758361D01*
X34802171Y1930591D01*
X34823027Y2062271D01*
X34827527Y2090679D01*
X34857456Y2153814D01*
X34916768Y2190745D01*
X34986630Y2189747D01*
X35044863Y2151137D01*
X35072473Y2090679D01*
X35097829Y1930590D01*
X35153787Y1758364D01*
X35153788Y1758361D01*
X35236006Y1597003D01*
X35342441Y1450506D01*
X35342445Y1450501D01*
X35470500Y1322446D01*
X35470505Y1322442D01*
X35533503Y1276672D01*
X35617006Y1216004D01*
X35693094Y1177235D01*
X35778360Y1133789D01*
X35778363Y1133788D01*
X35864476Y1105809D01*
X35950591Y1077829D01*
X36033429Y1064709D01*
X36129449Y1049500D01*
X36129454Y1049500D01*
X36310551Y1049500D01*
X36397259Y1063235D01*
X36489409Y1077829D01*
X36661639Y1133789D01*
X36822994Y1216004D01*
X36969501Y1322447D01*
X37097553Y1450499D01*
X37203996Y1597006D01*
X37286211Y1758361D01*
X37342171Y1930591D01*
X37363027Y2062271D01*
X37367527Y2090679D01*
X37397456Y2153814D01*
X37456768Y2190745D01*
X37526630Y2189747D01*
X37584863Y2151137D01*
X37612473Y2090679D01*
X37637829Y1930590D01*
X37693787Y1758364D01*
X37693788Y1758361D01*
X37776006Y1597003D01*
X37882441Y1450506D01*
X37882445Y1450501D01*
X38010500Y1322446D01*
X38010505Y1322442D01*
X38073503Y1276672D01*
X38157006Y1216004D01*
X38233094Y1177235D01*
X38318360Y1133789D01*
X38318363Y1133788D01*
X38404476Y1105809D01*
X38490591Y1077829D01*
X38573429Y1064709D01*
X38669449Y1049500D01*
X38669454Y1049500D01*
X38850551Y1049500D01*
X38937259Y1063235D01*
X39029409Y1077829D01*
X39201639Y1133789D01*
X39362994Y1216004D01*
X39509501Y1322447D01*
X39637553Y1450499D01*
X39743996Y1597006D01*
X39826211Y1758361D01*
X39882171Y1930591D01*
X39903027Y2062271D01*
X39907527Y2090679D01*
X39937456Y2153814D01*
X39996768Y2190745D01*
X40066630Y2189747D01*
X40124863Y2151137D01*
X40152473Y2090679D01*
X40177829Y1930590D01*
X40233787Y1758364D01*
X40233788Y1758361D01*
X40316006Y1597003D01*
X40422441Y1450506D01*
X40422445Y1450501D01*
X40550500Y1322446D01*
X40550505Y1322442D01*
X40613503Y1276672D01*
X40697006Y1216004D01*
X40773094Y1177235D01*
X40858360Y1133789D01*
X40858363Y1133788D01*
X40944476Y1105809D01*
X41030591Y1077829D01*
X41113429Y1064709D01*
X41209449Y1049500D01*
X41209454Y1049500D01*
X41390551Y1049500D01*
X41477259Y1063235D01*
X41569409Y1077829D01*
X41741639Y1133789D01*
X41902994Y1216004D01*
X42049501Y1322447D01*
X42177553Y1450499D01*
X42283996Y1597006D01*
X42366211Y1758361D01*
X42422171Y1930591D01*
X42443027Y2062271D01*
X42447527Y2090679D01*
X42477456Y2153814D01*
X42536768Y2190745D01*
X42606630Y2189747D01*
X42664863Y2151137D01*
X42692473Y2090679D01*
X42717829Y1930590D01*
X42773787Y1758364D01*
X42773788Y1758361D01*
X42856006Y1597003D01*
X42962441Y1450506D01*
X42962445Y1450501D01*
X43090500Y1322446D01*
X43090505Y1322442D01*
X43153503Y1276672D01*
X43237006Y1216004D01*
X43313094Y1177235D01*
X43398360Y1133789D01*
X43398363Y1133788D01*
X43484476Y1105809D01*
X43570591Y1077829D01*
X43653429Y1064709D01*
X43749449Y1049500D01*
X43749454Y1049500D01*
X43930551Y1049500D01*
X44017259Y1063235D01*
X44109409Y1077829D01*
X44281639Y1133789D01*
X44442994Y1216004D01*
X44589501Y1322447D01*
X44717553Y1450499D01*
X44823996Y1597006D01*
X44906211Y1758361D01*
X44962171Y1930591D01*
X44983027Y2062271D01*
X44987527Y2090679D01*
X45017456Y2153814D01*
X45076768Y2190745D01*
X45146630Y2189747D01*
X45204863Y2151137D01*
X45232473Y2090679D01*
X45257829Y1930590D01*
X45313787Y1758364D01*
X45313788Y1758361D01*
X45396006Y1597003D01*
X45502441Y1450506D01*
X45502445Y1450501D01*
X45630500Y1322446D01*
X45630505Y1322442D01*
X45693503Y1276672D01*
X45777006Y1216004D01*
X45853094Y1177235D01*
X45938360Y1133789D01*
X45938363Y1133788D01*
X46024476Y1105809D01*
X46110591Y1077829D01*
X46193429Y1064709D01*
X46289449Y1049500D01*
X46289454Y1049500D01*
X46470551Y1049500D01*
X46557259Y1063235D01*
X46649409Y1077829D01*
X46821639Y1133789D01*
X46982994Y1216004D01*
X47129501Y1322447D01*
X47257553Y1450499D01*
X47363996Y1597006D01*
X47446211Y1758361D01*
X47502171Y1930591D01*
X47523027Y2062271D01*
X47527527Y2090679D01*
X47557456Y2153814D01*
X47616768Y2190745D01*
X47686630Y2189747D01*
X47744863Y2151137D01*
X47772473Y2090679D01*
X47797829Y1930590D01*
X47853787Y1758364D01*
X47853788Y1758361D01*
X47936006Y1597003D01*
X48042441Y1450506D01*
X48042445Y1450501D01*
X48170500Y1322446D01*
X48170505Y1322442D01*
X48233503Y1276672D01*
X48317006Y1216004D01*
X48393094Y1177235D01*
X48478360Y1133789D01*
X48478363Y1133788D01*
X48564476Y1105809D01*
X48650591Y1077829D01*
X48733429Y1064709D01*
X48829449Y1049500D01*
X48829454Y1049500D01*
X49010551Y1049500D01*
X49097259Y1063235D01*
X49189409Y1077829D01*
X49361639Y1133789D01*
X49522994Y1216004D01*
X49669501Y1322447D01*
X49797553Y1450499D01*
X49903996Y1597006D01*
X49986211Y1758361D01*
X50042171Y1930591D01*
X50063027Y2062271D01*
X50067527Y2090679D01*
X50097456Y2153814D01*
X50156768Y2190745D01*
X50226630Y2189747D01*
X50284863Y2151137D01*
X50312473Y2090679D01*
X50337829Y1930590D01*
X50393787Y1758364D01*
X50393788Y1758361D01*
X50476006Y1597003D01*
X50582441Y1450506D01*
X50582445Y1450501D01*
X50710500Y1322446D01*
X50710505Y1322442D01*
X50773503Y1276672D01*
X50857006Y1216004D01*
X50933094Y1177235D01*
X51018360Y1133789D01*
X51018363Y1133788D01*
X51104476Y1105809D01*
X51190591Y1077829D01*
X51273429Y1064709D01*
X51369449Y1049500D01*
X51369454Y1049500D01*
X51550551Y1049500D01*
X51637259Y1063235D01*
X51729409Y1077829D01*
X51901639Y1133789D01*
X52062994Y1216004D01*
X52209501Y1322447D01*
X52337553Y1450499D01*
X52443996Y1597006D01*
X52526211Y1758361D01*
X52582171Y1930591D01*
X52603027Y2062271D01*
X52607527Y2090679D01*
X52637456Y2153814D01*
X52696768Y2190745D01*
X52766630Y2189747D01*
X52824863Y2151137D01*
X52852473Y2090679D01*
X52877829Y1930590D01*
X52933787Y1758364D01*
X52933788Y1758361D01*
X53016006Y1597003D01*
X53122441Y1450506D01*
X53122445Y1450501D01*
X53250500Y1322446D01*
X53250505Y1322442D01*
X53313503Y1276672D01*
X53397006Y1216004D01*
X53473094Y1177235D01*
X53558360Y1133789D01*
X53558363Y1133788D01*
X53644476Y1105809D01*
X53730591Y1077829D01*
X53813429Y1064709D01*
X53909449Y1049500D01*
X53909454Y1049500D01*
X54090551Y1049500D01*
X54177259Y1063235D01*
X54269409Y1077829D01*
X54441639Y1133789D01*
X54602994Y1216004D01*
X54749501Y1322447D01*
X54877553Y1450499D01*
X54983996Y1597006D01*
X55066211Y1758361D01*
X55122171Y1930591D01*
X55143027Y2062271D01*
X55147527Y2090679D01*
X55177456Y2153814D01*
X55236768Y2190745D01*
X55306630Y2189747D01*
X55364863Y2151137D01*
X55392473Y2090679D01*
X55417829Y1930590D01*
X55473787Y1758364D01*
X55473788Y1758361D01*
X55556006Y1597003D01*
X55662441Y1450506D01*
X55662445Y1450501D01*
X55790500Y1322446D01*
X55790505Y1322442D01*
X55853503Y1276672D01*
X55937006Y1216004D01*
X56013094Y1177235D01*
X56098360Y1133789D01*
X56098363Y1133788D01*
X56184476Y1105809D01*
X56270591Y1077829D01*
X56353429Y1064709D01*
X56449449Y1049500D01*
X56449454Y1049500D01*
X56630551Y1049500D01*
X56717259Y1063235D01*
X56809409Y1077829D01*
X56981639Y1133789D01*
X57142994Y1216004D01*
X57289501Y1322447D01*
X57417553Y1450499D01*
X57523996Y1597006D01*
X57606211Y1758361D01*
X57662171Y1930591D01*
X57683027Y2062271D01*
X57687527Y2090679D01*
X57717456Y2153814D01*
X57776768Y2190745D01*
X57846630Y2189747D01*
X57904863Y2151137D01*
X57932473Y2090679D01*
X57957829Y1930590D01*
X58013787Y1758364D01*
X58013788Y1758361D01*
X58096006Y1597003D01*
X58202441Y1450506D01*
X58202445Y1450501D01*
X58330500Y1322446D01*
X58330505Y1322442D01*
X58393503Y1276672D01*
X58477006Y1216004D01*
X58553094Y1177235D01*
X58638360Y1133789D01*
X58638363Y1133788D01*
X58724476Y1105809D01*
X58810591Y1077829D01*
X58893429Y1064709D01*
X58989449Y1049500D01*
X58989454Y1049500D01*
X59170551Y1049500D01*
X59257259Y1063235D01*
X59349409Y1077829D01*
X59521639Y1133789D01*
X59682994Y1216004D01*
X59829501Y1322447D01*
X59957553Y1450499D01*
X60063996Y1597006D01*
X60146211Y1758361D01*
X60202171Y1930591D01*
X60223027Y2062271D01*
X60252956Y2125405D01*
X60312267Y2162337D01*
X60382130Y2161339D01*
X60440363Y2122729D01*
X60468477Y2058766D01*
X60469500Y2042873D01*
X60469500Y1305144D01*
X60469502Y1305118D01*
X60472413Y1280013D01*
X60472415Y1280009D01*
X60517793Y1177236D01*
X60517794Y1177235D01*
X60597235Y1097794D01*
X60700009Y1052415D01*
X60725135Y1049500D01*
X62514864Y1049501D01*
X62514879Y1049503D01*
X62514882Y1049503D01*
X62539987Y1052414D01*
X62539988Y1052415D01*
X62539991Y1052415D01*
X62642765Y1097794D01*
X62722206Y1177235D01*
X62767585Y1280009D01*
X62770500Y1305135D01*
X62770499Y3094864D01*
X62770497Y3094883D01*
X62767586Y3119988D01*
X62767585Y3119990D01*
X62767585Y3119991D01*
X62722206Y3222765D01*
X62642765Y3302206D01*
X62642763Y3302207D01*
X62539992Y3347585D01*
X62514865Y3350500D01*
X60725143Y3350500D01*
X60725117Y3350498D01*
X60700012Y3347587D01*
X60700008Y3347585D01*
X60597235Y3302207D01*
X60517794Y3222766D01*
X60472415Y3119994D01*
X60472415Y3119992D01*
X60469500Y3094869D01*
X60469500Y2357129D01*
X60449815Y2290090D01*
X60397011Y2244335D01*
X60327853Y2234391D01*
X60264297Y2263416D01*
X60226523Y2322194D01*
X60223027Y2337731D01*
X60216107Y2381415D01*
X60202171Y2469409D01*
X60146211Y2641639D01*
X60146211Y2641640D01*
X60117740Y2697516D01*
X60063996Y2802994D01*
X60050396Y2821713D01*
X59957558Y2949495D01*
X59957554Y2949500D01*
X59829499Y3077555D01*
X59829494Y3077559D01*
X59682997Y3183994D01*
X59682996Y3183995D01*
X59682994Y3183996D01*
X59606906Y3222765D01*
X59521639Y3266212D01*
X59521636Y3266213D01*
X59349410Y3322171D01*
X59170551Y3350500D01*
X59170546Y3350500D01*
X58989454Y3350500D01*
X58989449Y3350500D01*
X58810589Y3322171D01*
X58638363Y3266213D01*
X58638360Y3266212D01*
X58477002Y3183994D01*
X58330505Y3077559D01*
X58330500Y3077555D01*
X58202445Y2949500D01*
X58202441Y2949495D01*
X58096006Y2802998D01*
X58013788Y2641640D01*
X58013787Y2641637D01*
X57957829Y2469411D01*
X57932473Y2309322D01*
X57902544Y2246187D01*
X57843232Y2209256D01*
X57773369Y2210254D01*
X57715137Y2248864D01*
X57687527Y2309322D01*
X57673740Y2396361D01*
X57662171Y2469409D01*
X57606211Y2641639D01*
X57606211Y2641640D01*
X57577740Y2697516D01*
X57523996Y2802994D01*
X57510396Y2821713D01*
X57417558Y2949495D01*
X57417554Y2949500D01*
X57289499Y3077555D01*
X57289494Y3077559D01*
X57142997Y3183994D01*
X57142996Y3183995D01*
X57142994Y3183996D01*
X57066906Y3222765D01*
X56981639Y3266212D01*
X56981636Y3266213D01*
X56809410Y3322171D01*
X56630551Y3350500D01*
X56630546Y3350500D01*
X56449454Y3350500D01*
X56449449Y3350500D01*
X56270589Y3322171D01*
X56098363Y3266213D01*
X56098360Y3266212D01*
X55937002Y3183994D01*
X55790505Y3077559D01*
X55790500Y3077555D01*
X55662445Y2949500D01*
X55662441Y2949495D01*
X55556006Y2802998D01*
X55473788Y2641640D01*
X55473787Y2641637D01*
X55417829Y2469411D01*
X55392473Y2309322D01*
X55362544Y2246187D01*
X55303232Y2209256D01*
X55233369Y2210254D01*
X55175137Y2248864D01*
X55147527Y2309322D01*
X55133740Y2396361D01*
X55122171Y2469409D01*
X55066211Y2641639D01*
X55066211Y2641640D01*
X55037740Y2697516D01*
X54983996Y2802994D01*
X54970396Y2821713D01*
X54877558Y2949495D01*
X54877554Y2949500D01*
X54749499Y3077555D01*
X54749494Y3077559D01*
X54602997Y3183994D01*
X54602996Y3183995D01*
X54602994Y3183996D01*
X54526906Y3222765D01*
X54441639Y3266212D01*
X54441636Y3266213D01*
X54269410Y3322171D01*
X54090551Y3350500D01*
X54090546Y3350500D01*
X53909454Y3350500D01*
X53909449Y3350500D01*
X53730589Y3322171D01*
X53558363Y3266213D01*
X53558360Y3266212D01*
X53397002Y3183994D01*
X53250505Y3077559D01*
X53250500Y3077555D01*
X53122445Y2949500D01*
X53122441Y2949495D01*
X53016006Y2802998D01*
X52933788Y2641640D01*
X52933787Y2641637D01*
X52877829Y2469411D01*
X52852473Y2309322D01*
X52822544Y2246187D01*
X52763232Y2209256D01*
X52693369Y2210254D01*
X52635137Y2248864D01*
X52607527Y2309322D01*
X52593740Y2396361D01*
X52582171Y2469409D01*
X52526211Y2641639D01*
X52526211Y2641640D01*
X52497740Y2697516D01*
X52443996Y2802994D01*
X52430396Y2821713D01*
X52337558Y2949495D01*
X52337554Y2949500D01*
X52209499Y3077555D01*
X52209494Y3077559D01*
X52062997Y3183994D01*
X52062996Y3183995D01*
X52062994Y3183996D01*
X51986906Y3222765D01*
X51901639Y3266212D01*
X51901636Y3266213D01*
X51729410Y3322171D01*
X51550551Y3350500D01*
X51550546Y3350500D01*
X51369454Y3350500D01*
X51369449Y3350500D01*
X51190589Y3322171D01*
X51018363Y3266213D01*
X51018360Y3266212D01*
X50857002Y3183994D01*
X50710505Y3077559D01*
X50710500Y3077555D01*
X50582445Y2949500D01*
X50582441Y2949495D01*
X50476006Y2802998D01*
X50393788Y2641640D01*
X50393787Y2641637D01*
X50337829Y2469411D01*
X50312473Y2309322D01*
X50282544Y2246187D01*
X50223232Y2209256D01*
X50153369Y2210254D01*
X50095137Y2248864D01*
X50067527Y2309322D01*
X50053740Y2396361D01*
X50042171Y2469409D01*
X49986211Y2641639D01*
X49986211Y2641640D01*
X49957740Y2697516D01*
X49903996Y2802994D01*
X49890396Y2821713D01*
X49797558Y2949495D01*
X49797554Y2949500D01*
X49669499Y3077555D01*
X49669494Y3077559D01*
X49522997Y3183994D01*
X49522996Y3183995D01*
X49522994Y3183996D01*
X49446906Y3222765D01*
X49361639Y3266212D01*
X49361636Y3266213D01*
X49189410Y3322171D01*
X49010551Y3350500D01*
X49010546Y3350500D01*
X48829454Y3350500D01*
X48829449Y3350500D01*
X48650589Y3322171D01*
X48478363Y3266213D01*
X48478360Y3266212D01*
X48317002Y3183994D01*
X48170505Y3077559D01*
X48170500Y3077555D01*
X48042445Y2949500D01*
X48042441Y2949495D01*
X47936006Y2802998D01*
X47853788Y2641640D01*
X47853787Y2641637D01*
X47797829Y2469411D01*
X47772473Y2309322D01*
X47742544Y2246187D01*
X47683232Y2209256D01*
X47613369Y2210254D01*
X47555137Y2248864D01*
X47527527Y2309322D01*
X47513740Y2396361D01*
X47502171Y2469409D01*
X47446211Y2641639D01*
X47446211Y2641640D01*
X47417740Y2697516D01*
X47363996Y2802994D01*
X47350396Y2821713D01*
X47257558Y2949495D01*
X47257554Y2949500D01*
X47129499Y3077555D01*
X47129494Y3077559D01*
X46982997Y3183994D01*
X46982996Y3183995D01*
X46982994Y3183996D01*
X46906906Y3222765D01*
X46821639Y3266212D01*
X46821636Y3266213D01*
X46649410Y3322171D01*
X46470551Y3350500D01*
X46470546Y3350500D01*
X46289454Y3350500D01*
X46289449Y3350500D01*
X46110589Y3322171D01*
X45938363Y3266213D01*
X45938360Y3266212D01*
X45777002Y3183994D01*
X45630505Y3077559D01*
X45630500Y3077555D01*
X45502445Y2949500D01*
X45502441Y2949495D01*
X45396006Y2802998D01*
X45313788Y2641640D01*
X45313787Y2641637D01*
X45257829Y2469411D01*
X45232473Y2309322D01*
X45202544Y2246187D01*
X45143232Y2209256D01*
X45073369Y2210254D01*
X45015137Y2248864D01*
X44987527Y2309322D01*
X44973740Y2396361D01*
X44962171Y2469409D01*
X44906211Y2641639D01*
X44906211Y2641640D01*
X44877740Y2697516D01*
X44823996Y2802994D01*
X44810396Y2821713D01*
X44717558Y2949495D01*
X44717554Y2949500D01*
X44589499Y3077555D01*
X44589494Y3077559D01*
X44442997Y3183994D01*
X44442996Y3183995D01*
X44442994Y3183996D01*
X44366906Y3222765D01*
X44281639Y3266212D01*
X44281636Y3266213D01*
X44109410Y3322171D01*
X43930551Y3350500D01*
X43930546Y3350500D01*
X43749454Y3350500D01*
X43749449Y3350500D01*
X43570589Y3322171D01*
X43398363Y3266213D01*
X43398360Y3266212D01*
X43237002Y3183994D01*
X43090505Y3077559D01*
X43090500Y3077555D01*
X42962445Y2949500D01*
X42962441Y2949495D01*
X42856006Y2802998D01*
X42773788Y2641640D01*
X42773787Y2641637D01*
X42717829Y2469411D01*
X42692473Y2309322D01*
X42662544Y2246187D01*
X42603232Y2209256D01*
X42533369Y2210254D01*
X42475137Y2248864D01*
X42447527Y2309322D01*
X42433740Y2396361D01*
X42422171Y2469409D01*
X42366211Y2641639D01*
X42366211Y2641640D01*
X42337740Y2697516D01*
X42283996Y2802994D01*
X42270396Y2821713D01*
X42177558Y2949495D01*
X42177554Y2949500D01*
X42049499Y3077555D01*
X42049494Y3077559D01*
X41902997Y3183994D01*
X41902996Y3183995D01*
X41902994Y3183996D01*
X41826906Y3222765D01*
X41741639Y3266212D01*
X41741636Y3266213D01*
X41569410Y3322171D01*
X41390551Y3350500D01*
X41390546Y3350500D01*
X41209454Y3350500D01*
X41209449Y3350500D01*
X41030589Y3322171D01*
X40858363Y3266213D01*
X40858360Y3266212D01*
X40697002Y3183994D01*
X40550505Y3077559D01*
X40550500Y3077555D01*
X40422445Y2949500D01*
X40422441Y2949495D01*
X40316006Y2802998D01*
X40233788Y2641640D01*
X40233787Y2641637D01*
X40177829Y2469411D01*
X40152473Y2309322D01*
X40122544Y2246187D01*
X40063232Y2209256D01*
X39993369Y2210254D01*
X39935137Y2248864D01*
X39907527Y2309322D01*
X39893740Y2396361D01*
X39882171Y2469409D01*
X39826211Y2641639D01*
X39826211Y2641640D01*
X39797740Y2697516D01*
X39743996Y2802994D01*
X39730396Y2821713D01*
X39637558Y2949495D01*
X39637554Y2949500D01*
X39509499Y3077555D01*
X39509494Y3077559D01*
X39362997Y3183994D01*
X39362996Y3183995D01*
X39362994Y3183996D01*
X39286906Y3222765D01*
X39201639Y3266212D01*
X39201636Y3266213D01*
X39029410Y3322171D01*
X38850551Y3350500D01*
X38850546Y3350500D01*
X38669454Y3350500D01*
X38669449Y3350500D01*
X38490589Y3322171D01*
X38318363Y3266213D01*
X38318360Y3266212D01*
X38157002Y3183994D01*
X38010505Y3077559D01*
X38010500Y3077555D01*
X37882445Y2949500D01*
X37882441Y2949495D01*
X37776006Y2802998D01*
X37693788Y2641640D01*
X37693787Y2641637D01*
X37637829Y2469411D01*
X37612473Y2309322D01*
X37582544Y2246187D01*
X37523232Y2209256D01*
X37453369Y2210254D01*
X37395137Y2248864D01*
X37367527Y2309322D01*
X37353740Y2396361D01*
X37342171Y2469409D01*
X37286211Y2641639D01*
X37286211Y2641640D01*
X37257740Y2697516D01*
X37203996Y2802994D01*
X37190396Y2821713D01*
X37097558Y2949495D01*
X37097554Y2949500D01*
X36969499Y3077555D01*
X36969494Y3077559D01*
X36822997Y3183994D01*
X36822996Y3183995D01*
X36822994Y3183996D01*
X36746906Y3222765D01*
X36661639Y3266212D01*
X36661636Y3266213D01*
X36489410Y3322171D01*
X36310551Y3350500D01*
X36310546Y3350500D01*
X36129454Y3350500D01*
X36129449Y3350500D01*
X35950589Y3322171D01*
X35778363Y3266213D01*
X35778360Y3266212D01*
X35617002Y3183994D01*
X35470505Y3077559D01*
X35470500Y3077555D01*
X35342445Y2949500D01*
X35342441Y2949495D01*
X35236006Y2802998D01*
X35153788Y2641640D01*
X35153787Y2641637D01*
X35097829Y2469411D01*
X35072473Y2309322D01*
X35042544Y2246187D01*
X34983232Y2209256D01*
X34913369Y2210254D01*
X34855137Y2248864D01*
X34827527Y2309322D01*
X34813740Y2396361D01*
X34802171Y2469409D01*
X34746211Y2641639D01*
X34746211Y2641640D01*
X34717740Y2697516D01*
X34663996Y2802994D01*
X34650396Y2821713D01*
X34557558Y2949495D01*
X34557554Y2949500D01*
X34429499Y3077555D01*
X34429494Y3077559D01*
X34282997Y3183994D01*
X34282996Y3183995D01*
X34282994Y3183996D01*
X34206906Y3222765D01*
X34121639Y3266212D01*
X34121636Y3266213D01*
X33949410Y3322171D01*
X33770551Y3350500D01*
X33770546Y3350500D01*
X33589454Y3350500D01*
X33589449Y3350500D01*
X33410589Y3322171D01*
X33238363Y3266213D01*
X33238360Y3266212D01*
X33077002Y3183994D01*
X32930505Y3077559D01*
X32930500Y3077555D01*
X32802445Y2949500D01*
X32802441Y2949495D01*
X32696006Y2802998D01*
X32613788Y2641640D01*
X32613787Y2641637D01*
X32557829Y2469411D01*
X32532473Y2309322D01*
X32502544Y2246187D01*
X32443232Y2209256D01*
X32373369Y2210254D01*
X32315137Y2248864D01*
X32287527Y2309322D01*
X32273740Y2396361D01*
X32262171Y2469409D01*
X32206211Y2641639D01*
X32206211Y2641640D01*
X32177740Y2697516D01*
X32123996Y2802994D01*
X32110396Y2821713D01*
X32017558Y2949495D01*
X32017554Y2949500D01*
X31889499Y3077555D01*
X31889494Y3077559D01*
X31742997Y3183994D01*
X31742996Y3183995D01*
X31742994Y3183996D01*
X31666906Y3222765D01*
X31581639Y3266212D01*
X31581636Y3266213D01*
X31409410Y3322171D01*
X31230551Y3350500D01*
X31230546Y3350500D01*
X31049454Y3350500D01*
X31049449Y3350500D01*
X30870589Y3322171D01*
X30698363Y3266213D01*
X30698360Y3266212D01*
X30537002Y3183994D01*
X30390505Y3077559D01*
X30390500Y3077555D01*
X30262445Y2949500D01*
X30262441Y2949495D01*
X30156006Y2802998D01*
X30073788Y2641640D01*
X30073787Y2641637D01*
X30017829Y2469411D01*
X29992473Y2309322D01*
X29962544Y2246187D01*
X29903232Y2209256D01*
X29833369Y2210254D01*
X29775137Y2248864D01*
X29747527Y2309322D01*
X29733740Y2396361D01*
X29722171Y2469409D01*
X29666211Y2641639D01*
X29666211Y2641640D01*
X29637740Y2697516D01*
X29583996Y2802994D01*
X29570396Y2821713D01*
X29477558Y2949495D01*
X29477554Y2949500D01*
X29349499Y3077555D01*
X29349494Y3077559D01*
X29202997Y3183994D01*
X29202996Y3183995D01*
X29202994Y3183996D01*
X29126906Y3222765D01*
X29041639Y3266212D01*
X29041636Y3266213D01*
X28869410Y3322171D01*
X28690551Y3350500D01*
X28690546Y3350500D01*
X28509454Y3350500D01*
X28509449Y3350500D01*
X28330589Y3322171D01*
X28158363Y3266213D01*
X28158360Y3266212D01*
X27997002Y3183994D01*
X27850505Y3077559D01*
X27850500Y3077555D01*
X27722445Y2949500D01*
X27722441Y2949495D01*
X27616006Y2802998D01*
X27533788Y2641640D01*
X27533787Y2641637D01*
X27477829Y2469411D01*
X27452473Y2309322D01*
X27422544Y2246187D01*
X27363232Y2209256D01*
X27293369Y2210254D01*
X27235137Y2248864D01*
X27207527Y2309322D01*
X27193740Y2396361D01*
X27182171Y2469409D01*
X27126211Y2641639D01*
X27126211Y2641640D01*
X27097740Y2697516D01*
X27043996Y2802994D01*
X27030396Y2821713D01*
X26937558Y2949495D01*
X26937554Y2949500D01*
X26809499Y3077555D01*
X26809494Y3077559D01*
X26662997Y3183994D01*
X26662996Y3183995D01*
X26662994Y3183996D01*
X26586906Y3222765D01*
X26501639Y3266212D01*
X26501636Y3266213D01*
X26329410Y3322171D01*
X26150551Y3350500D01*
X26150546Y3350500D01*
X25969454Y3350500D01*
X25969449Y3350500D01*
X25790589Y3322171D01*
X25618363Y3266213D01*
X25618360Y3266212D01*
X25457002Y3183994D01*
X25310505Y3077559D01*
X25310500Y3077555D01*
X25182445Y2949500D01*
X25182441Y2949495D01*
X25076006Y2802998D01*
X24993788Y2641640D01*
X24993787Y2641637D01*
X24937829Y2469411D01*
X24912473Y2309322D01*
X24882544Y2246187D01*
X24823232Y2209256D01*
X24753369Y2210254D01*
X24695137Y2248864D01*
X24667527Y2309322D01*
X24653740Y2396361D01*
X24642171Y2469409D01*
X24586211Y2641639D01*
X24586211Y2641640D01*
X24557740Y2697516D01*
X24503996Y2802994D01*
X24490396Y2821713D01*
X24397558Y2949495D01*
X24397554Y2949500D01*
X24269499Y3077555D01*
X24269494Y3077559D01*
X24122997Y3183994D01*
X24122996Y3183995D01*
X24122994Y3183996D01*
X24046906Y3222765D01*
X23961639Y3266212D01*
X23961636Y3266213D01*
X23789410Y3322171D01*
X23610551Y3350500D01*
X23610546Y3350500D01*
X23429454Y3350500D01*
X23429449Y3350500D01*
X23250589Y3322171D01*
X23078363Y3266213D01*
X23078360Y3266212D01*
X22917002Y3183994D01*
X22770505Y3077559D01*
X22770500Y3077555D01*
X22642445Y2949500D01*
X22642441Y2949495D01*
X22536006Y2802998D01*
X22453788Y2641640D01*
X22453787Y2641637D01*
X22397829Y2469411D01*
X22372473Y2309322D01*
X22342544Y2246187D01*
X22283232Y2209256D01*
X22213369Y2210254D01*
X22155137Y2248864D01*
X22127527Y2309322D01*
X22113740Y2396361D01*
X22102171Y2469409D01*
X22046211Y2641639D01*
X22046211Y2641640D01*
X22017740Y2697516D01*
X21963996Y2802994D01*
X21950396Y2821713D01*
X21857558Y2949495D01*
X21857554Y2949500D01*
X21729499Y3077555D01*
X21729494Y3077559D01*
X21582997Y3183994D01*
X21582996Y3183995D01*
X21582994Y3183996D01*
X21506906Y3222765D01*
X21421639Y3266212D01*
X21421636Y3266213D01*
X21249410Y3322171D01*
X21070551Y3350500D01*
X21070546Y3350500D01*
X20889454Y3350500D01*
X20889449Y3350500D01*
X20710589Y3322171D01*
X20538363Y3266213D01*
X20538360Y3266212D01*
X20377002Y3183994D01*
X20230505Y3077559D01*
X20230500Y3077555D01*
X20102445Y2949500D01*
X20102441Y2949495D01*
X19996006Y2802998D01*
X19913788Y2641640D01*
X19913787Y2641637D01*
X19857829Y2469411D01*
X19832473Y2309322D01*
X19802544Y2246187D01*
X19743232Y2209256D01*
X19673369Y2210254D01*
X19615137Y2248864D01*
X19587527Y2309322D01*
X19573740Y2396361D01*
X19562171Y2469409D01*
X19506211Y2641639D01*
X19506211Y2641640D01*
X19477740Y2697516D01*
X19423996Y2802994D01*
X19410396Y2821713D01*
X19317558Y2949495D01*
X19317554Y2949500D01*
X19189499Y3077555D01*
X19189494Y3077559D01*
X19042997Y3183994D01*
X19042996Y3183995D01*
X19042994Y3183996D01*
X18966906Y3222765D01*
X18881639Y3266212D01*
X18881636Y3266213D01*
X18709410Y3322171D01*
X18530551Y3350500D01*
X18530546Y3350500D01*
X18349454Y3350500D01*
X18349449Y3350500D01*
X18170589Y3322171D01*
X17998363Y3266213D01*
X17998360Y3266212D01*
X17837002Y3183994D01*
X17690505Y3077559D01*
X17690500Y3077555D01*
X17562445Y2949500D01*
X17562441Y2949495D01*
X17456006Y2802998D01*
X17373788Y2641640D01*
X17373787Y2641637D01*
X17317829Y2469411D01*
X17292473Y2309322D01*
X17262544Y2246187D01*
X17203232Y2209256D01*
X17133369Y2210254D01*
X17075137Y2248864D01*
X17047527Y2309322D01*
X17033740Y2396361D01*
X17022171Y2469409D01*
X16966211Y2641639D01*
X16966211Y2641640D01*
X16937740Y2697516D01*
X16883996Y2802994D01*
X16870396Y2821713D01*
X16777558Y2949495D01*
X16777554Y2949500D01*
X16649499Y3077555D01*
X16649494Y3077559D01*
X16502997Y3183994D01*
X16502996Y3183995D01*
X16502994Y3183996D01*
X16426906Y3222765D01*
X16341639Y3266212D01*
X16341636Y3266213D01*
X16169410Y3322171D01*
X15990551Y3350500D01*
X15990546Y3350500D01*
X15809454Y3350500D01*
X15809449Y3350500D01*
X15630589Y3322171D01*
X15458363Y3266213D01*
X15458360Y3266212D01*
X15297002Y3183994D01*
X15150505Y3077559D01*
X15150500Y3077555D01*
X15022445Y2949500D01*
X15022441Y2949495D01*
X14916006Y2802998D01*
X14833788Y2641640D01*
X14833787Y2641637D01*
X14777829Y2469411D01*
X14752473Y2309322D01*
X14722544Y2246187D01*
X14663232Y2209256D01*
X14593369Y2210254D01*
X14535137Y2248864D01*
X14507527Y2309322D01*
X14493740Y2396361D01*
X14482171Y2469409D01*
X14426211Y2641639D01*
X14426211Y2641640D01*
X14397740Y2697516D01*
X14343996Y2802994D01*
X14330396Y2821713D01*
X14237558Y2949495D01*
X14237554Y2949500D01*
X14109499Y3077555D01*
X14109494Y3077559D01*
X13962997Y3183994D01*
X13962996Y3183995D01*
X13962994Y3183996D01*
X13886906Y3222765D01*
X13801639Y3266212D01*
X13801636Y3266213D01*
X13629410Y3322171D01*
X13450551Y3350500D01*
X13450546Y3350500D01*
X13269454Y3350500D01*
X13269449Y3350500D01*
X13090589Y3322171D01*
X12918363Y3266213D01*
X12918360Y3266212D01*
X12757002Y3183994D01*
X12610505Y3077559D01*
X12610500Y3077555D01*
X12482445Y2949500D01*
X12482441Y2949495D01*
X12376006Y2802998D01*
X12293788Y2641640D01*
X12293787Y2641637D01*
X12237829Y2469411D01*
X12212473Y2309322D01*
X12182544Y2246187D01*
X12123232Y2209256D01*
X12053369Y2210254D01*
X11995137Y2248864D01*
X11967527Y2309322D01*
X11953740Y2396361D01*
X11942171Y2469409D01*
X11886211Y2641639D01*
X11886211Y2641640D01*
X11857740Y2697516D01*
X11803996Y2802994D01*
X11790396Y2821713D01*
X11697558Y2949495D01*
X11697554Y2949500D01*
X11569499Y3077555D01*
X11569494Y3077559D01*
X11422997Y3183994D01*
X11422996Y3183995D01*
X11422994Y3183996D01*
X11346906Y3222765D01*
X11261639Y3266212D01*
X11261636Y3266213D01*
X11089410Y3322171D01*
X10910551Y3350500D01*
X10910546Y3350500D01*
X10729454Y3350500D01*
X10729449Y3350500D01*
X10550589Y3322171D01*
X10378363Y3266213D01*
X10378360Y3266212D01*
X10217002Y3183994D01*
X10070505Y3077559D01*
X10070500Y3077555D01*
X9942445Y2949500D01*
X9942441Y2949495D01*
X9836006Y2802998D01*
X9753788Y2641640D01*
X9753787Y2641637D01*
X9697829Y2469411D01*
X9672473Y2309322D01*
X9642544Y2246187D01*
X9583232Y2209256D01*
X9513369Y2210254D01*
X9455137Y2248864D01*
X9427527Y2309322D01*
X9413740Y2396361D01*
X9402171Y2469409D01*
X9346211Y2641639D01*
X9346211Y2641640D01*
X9317740Y2697516D01*
X9263996Y2802994D01*
X9250396Y2821713D01*
X9157558Y2949495D01*
X9157554Y2949500D01*
X9029499Y3077555D01*
X9029494Y3077559D01*
X8882997Y3183994D01*
X8882996Y3183995D01*
X8882994Y3183996D01*
X8806906Y3222765D01*
X8721639Y3266212D01*
X8721636Y3266213D01*
X8549410Y3322171D01*
X8370551Y3350500D01*
X8370546Y3350500D01*
X8189454Y3350500D01*
X8189449Y3350500D01*
X8010589Y3322171D01*
X7838363Y3266213D01*
X7838360Y3266212D01*
X7677002Y3183994D01*
X7530505Y3077559D01*
X7530500Y3077555D01*
X7402445Y2949500D01*
X7402441Y2949495D01*
X7296006Y2802998D01*
X7213788Y2641640D01*
X7213787Y2641637D01*
X7157829Y2469411D01*
X7132473Y2309322D01*
X7102544Y2246187D01*
X7043232Y2209256D01*
X6973369Y2210254D01*
X6915137Y2248864D01*
X6887527Y2309322D01*
X6873740Y2396361D01*
X6862171Y2469409D01*
X6806211Y2641639D01*
X6806211Y2641640D01*
X6777740Y2697516D01*
X6723996Y2802994D01*
X6710396Y2821713D01*
X6617558Y2949495D01*
X6617554Y2949500D01*
X6489499Y3077555D01*
X6489494Y3077559D01*
X6342997Y3183994D01*
X6342996Y3183995D01*
X6342994Y3183996D01*
X6266906Y3222765D01*
X6181639Y3266212D01*
X6181636Y3266213D01*
X6009410Y3322171D01*
X5830551Y3350500D01*
X5830546Y3350500D01*
X5649454Y3350500D01*
X5649449Y3350500D01*
X5470589Y3322171D01*
X5298363Y3266213D01*
X5298360Y3266212D01*
X5137002Y3183994D01*
X4990505Y3077559D01*
X4990500Y3077555D01*
X4862445Y2949500D01*
X4862441Y2949495D01*
X4756006Y2802998D01*
X4673788Y2641640D01*
X4673787Y2641637D01*
X4617829Y2469411D01*
X4592473Y2309322D01*
X4562544Y2246187D01*
X4503232Y2209256D01*
X4433369Y2210254D01*
X4375137Y2248864D01*
X4347527Y2309322D01*
X4333740Y2396361D01*
X4322171Y2469409D01*
X4266211Y2641639D01*
X4266211Y2641640D01*
X4237740Y2697516D01*
X4183996Y2802994D01*
X4170396Y2821713D01*
X4077558Y2949495D01*
X4077554Y2949500D01*
X3949499Y3077555D01*
X3949494Y3077559D01*
X3802997Y3183994D01*
X3802996Y3183995D01*
X3802994Y3183996D01*
X3726906Y3222765D01*
X3641639Y3266212D01*
X3641636Y3266213D01*
X3469410Y3322171D01*
X3290551Y3350500D01*
X3290546Y3350500D01*
X3109454Y3350500D01*
X3109449Y3350500D01*
X2930589Y3322171D01*
X2758363Y3266213D01*
X2758360Y3266212D01*
X2597002Y3183994D01*
X2450505Y3077559D01*
X2450500Y3077555D01*
X2322445Y2949500D01*
X2322441Y2949495D01*
X2216006Y2802998D01*
X2133788Y2641640D01*
X2133787Y2641637D01*
X2077829Y2469411D01*
X2049500Y2290552D01*
X514228Y2290552D01*
X500765Y2495957D01*
X500500Y2504067D01*
X500500Y56954869D01*
X7109500Y56954869D01*
X7109500Y55165144D01*
X7109502Y55165118D01*
X7112413Y55140013D01*
X7112415Y55140009D01*
X7157793Y55037236D01*
X7157794Y55037235D01*
X7237235Y54957794D01*
X7340009Y54912415D01*
X7365135Y54909500D01*
X8102873Y54909501D01*
X8169910Y54889817D01*
X8215665Y54837013D01*
X8225609Y54767854D01*
X8196584Y54704298D01*
X8137806Y54666524D01*
X8122270Y54663028D01*
X7990589Y54642171D01*
X7818363Y54586213D01*
X7818360Y54586212D01*
X7657002Y54503994D01*
X7510505Y54397559D01*
X7510500Y54397555D01*
X7382445Y54269500D01*
X7382441Y54269495D01*
X7276006Y54122998D01*
X7193788Y53961640D01*
X7193787Y53961637D01*
X7137829Y53789411D01*
X7109500Y53610552D01*
X7109500Y53429449D01*
X7137829Y53250590D01*
X7193787Y53078364D01*
X7193788Y53078361D01*
X7276006Y52917003D01*
X7382441Y52770506D01*
X7382445Y52770501D01*
X7510500Y52642446D01*
X7510505Y52642442D01*
X7638287Y52549604D01*
X7657006Y52536004D01*
X7762484Y52482260D01*
X7818360Y52453789D01*
X7818363Y52453788D01*
X7904476Y52425809D01*
X7990591Y52397829D01*
X8063639Y52386260D01*
X8150678Y52372473D01*
X8213813Y52342544D01*
X8250744Y52283232D01*
X8249746Y52213369D01*
X8211136Y52155137D01*
X8150678Y52127527D01*
X7990589Y52102171D01*
X7818363Y52046213D01*
X7818360Y52046212D01*
X7657002Y51963994D01*
X7510505Y51857559D01*
X7510500Y51857555D01*
X7382445Y51729500D01*
X7382441Y51729495D01*
X7276006Y51582998D01*
X7193788Y51421640D01*
X7193787Y51421637D01*
X7137829Y51249411D01*
X7109500Y51070552D01*
X7109500Y50889449D01*
X7137829Y50710590D01*
X7193787Y50538364D01*
X7193788Y50538361D01*
X7276006Y50377003D01*
X7382441Y50230506D01*
X7382445Y50230501D01*
X7510500Y50102446D01*
X7510505Y50102442D01*
X7638287Y50009604D01*
X7657006Y49996004D01*
X7762484Y49942260D01*
X7818360Y49913789D01*
X7818363Y49913788D01*
X7904476Y49885809D01*
X7990591Y49857829D01*
X8063639Y49846260D01*
X8150678Y49832473D01*
X8213813Y49802544D01*
X8250744Y49743232D01*
X8249746Y49673369D01*
X8211136Y49615137D01*
X8150678Y49587527D01*
X7990589Y49562171D01*
X7818363Y49506213D01*
X7818360Y49506212D01*
X7657002Y49423994D01*
X7510505Y49317559D01*
X7510500Y49317555D01*
X7382445Y49189500D01*
X7382441Y49189495D01*
X7276006Y49042998D01*
X7193788Y48881640D01*
X7193787Y48881637D01*
X7137829Y48709411D01*
X7109500Y48530552D01*
X7109500Y48349449D01*
X7137829Y48170590D01*
X7193787Y47998364D01*
X7193788Y47998361D01*
X7276006Y47837003D01*
X7382441Y47690506D01*
X7382445Y47690501D01*
X7510500Y47562446D01*
X7510505Y47562442D01*
X7638287Y47469604D01*
X7657006Y47456004D01*
X7762484Y47402260D01*
X7818360Y47373789D01*
X7818363Y47373788D01*
X7904476Y47345809D01*
X7990591Y47317829D01*
X8063639Y47306260D01*
X8150678Y47292473D01*
X8213813Y47262544D01*
X8250744Y47203232D01*
X8249746Y47133369D01*
X8211136Y47075137D01*
X8150678Y47047527D01*
X7990589Y47022171D01*
X7818363Y46966213D01*
X7818360Y46966212D01*
X7657002Y46883994D01*
X7510505Y46777559D01*
X7510500Y46777555D01*
X7382445Y46649500D01*
X7382441Y46649495D01*
X7276006Y46502998D01*
X7193788Y46341640D01*
X7193787Y46341637D01*
X7137829Y46169411D01*
X7109500Y45990552D01*
X7109500Y45809449D01*
X7137829Y45630590D01*
X7193787Y45458364D01*
X7193788Y45458361D01*
X7276006Y45297003D01*
X7382441Y45150506D01*
X7382445Y45150501D01*
X7510500Y45022446D01*
X7510505Y45022442D01*
X7638287Y44929604D01*
X7657006Y44916004D01*
X7762484Y44862260D01*
X7818360Y44833789D01*
X7818363Y44833788D01*
X7904476Y44805809D01*
X7990591Y44777829D01*
X8063639Y44766260D01*
X8150678Y44752473D01*
X8213813Y44722544D01*
X8250744Y44663232D01*
X8249746Y44593369D01*
X8211136Y44535137D01*
X8150678Y44507527D01*
X7990589Y44482171D01*
X7818363Y44426213D01*
X7818360Y44426212D01*
X7657002Y44343994D01*
X7510505Y44237559D01*
X7510500Y44237555D01*
X7382445Y44109500D01*
X7382441Y44109495D01*
X7276006Y43962998D01*
X7193788Y43801640D01*
X7193787Y43801637D01*
X7137829Y43629411D01*
X7109500Y43450552D01*
X7109500Y43269449D01*
X7137829Y43090590D01*
X7193787Y42918364D01*
X7193788Y42918361D01*
X7276006Y42757003D01*
X7382441Y42610506D01*
X7382445Y42610501D01*
X7510500Y42482446D01*
X7510505Y42482442D01*
X7638287Y42389604D01*
X7657006Y42376004D01*
X7762484Y42322260D01*
X7818360Y42293789D01*
X7818363Y42293788D01*
X7904476Y42265809D01*
X7990591Y42237829D01*
X8063639Y42226260D01*
X8150678Y42212473D01*
X8213813Y42182544D01*
X8250744Y42123232D01*
X8249746Y42053369D01*
X8211136Y41995137D01*
X8150678Y41967527D01*
X7990589Y41942171D01*
X7818363Y41886213D01*
X7818360Y41886212D01*
X7657002Y41803994D01*
X7510505Y41697559D01*
X7510500Y41697555D01*
X7382445Y41569500D01*
X7382441Y41569495D01*
X7276006Y41422998D01*
X7193788Y41261640D01*
X7193787Y41261637D01*
X7137829Y41089411D01*
X7109500Y40910552D01*
X7109500Y40729449D01*
X7137829Y40550590D01*
X7193787Y40378364D01*
X7193788Y40378361D01*
X7276006Y40217003D01*
X7382441Y40070506D01*
X7382445Y40070501D01*
X7510500Y39942446D01*
X7510505Y39942442D01*
X7638287Y39849604D01*
X7657006Y39836004D01*
X7762484Y39782260D01*
X7818360Y39753789D01*
X7818363Y39753788D01*
X7904476Y39725809D01*
X7990591Y39697829D01*
X8063639Y39686260D01*
X8150678Y39672473D01*
X8213813Y39642544D01*
X8250744Y39583232D01*
X8249746Y39513369D01*
X8211136Y39455137D01*
X8150678Y39427527D01*
X7990589Y39402171D01*
X7818363Y39346213D01*
X7818360Y39346212D01*
X7657002Y39263994D01*
X7510505Y39157559D01*
X7510500Y39157555D01*
X7382445Y39029500D01*
X7382441Y39029495D01*
X7276006Y38882998D01*
X7193788Y38721640D01*
X7193787Y38721637D01*
X7137829Y38549411D01*
X7109500Y38370552D01*
X7109500Y38189449D01*
X7137829Y38010590D01*
X7193787Y37838364D01*
X7193788Y37838361D01*
X7276006Y37677003D01*
X7382441Y37530506D01*
X7382445Y37530501D01*
X7510500Y37402446D01*
X7510505Y37402442D01*
X7638287Y37309604D01*
X7657006Y37296004D01*
X7762484Y37242260D01*
X7818360Y37213789D01*
X7818363Y37213788D01*
X7904476Y37185809D01*
X7990591Y37157829D01*
X8063639Y37146260D01*
X8150678Y37132473D01*
X8213813Y37102544D01*
X8250744Y37043232D01*
X8249746Y36973369D01*
X8211136Y36915137D01*
X8150678Y36887527D01*
X7990589Y36862171D01*
X7818363Y36806213D01*
X7818360Y36806212D01*
X7657002Y36723994D01*
X7510505Y36617559D01*
X7510500Y36617555D01*
X7382445Y36489500D01*
X7382441Y36489495D01*
X7276006Y36342998D01*
X7193788Y36181640D01*
X7193787Y36181637D01*
X7137829Y36009411D01*
X7109500Y35830552D01*
X7109500Y35649449D01*
X7137829Y35470590D01*
X7193787Y35298364D01*
X7193788Y35298361D01*
X7276006Y35137003D01*
X7382441Y34990506D01*
X7382445Y34990501D01*
X7510500Y34862446D01*
X7510505Y34862442D01*
X7638287Y34769604D01*
X7657006Y34756004D01*
X7762484Y34702260D01*
X7818360Y34673789D01*
X7818363Y34673788D01*
X7904476Y34645809D01*
X7990591Y34617829D01*
X8063639Y34606260D01*
X8150678Y34592473D01*
X8213813Y34562544D01*
X8250744Y34503232D01*
X8249746Y34433369D01*
X8211136Y34375137D01*
X8150678Y34347527D01*
X7990589Y34322171D01*
X7818363Y34266213D01*
X7818360Y34266212D01*
X7657002Y34183994D01*
X7510505Y34077559D01*
X7510500Y34077555D01*
X7382445Y33949500D01*
X7382441Y33949495D01*
X7276006Y33802998D01*
X7193788Y33641640D01*
X7193787Y33641637D01*
X7137829Y33469411D01*
X7109500Y33290552D01*
X7109500Y33109449D01*
X7137829Y32930590D01*
X7193787Y32758364D01*
X7193788Y32758361D01*
X7276006Y32597003D01*
X7382441Y32450506D01*
X7382445Y32450501D01*
X7510500Y32322446D01*
X7510505Y32322442D01*
X7638287Y32229604D01*
X7657006Y32216004D01*
X7762484Y32162260D01*
X7818360Y32133789D01*
X7818363Y32133788D01*
X7904476Y32105809D01*
X7990591Y32077829D01*
X8063639Y32066260D01*
X8150678Y32052473D01*
X8213813Y32022544D01*
X8250744Y31963232D01*
X8249746Y31893369D01*
X8211136Y31835137D01*
X8150678Y31807527D01*
X7990589Y31782171D01*
X7818363Y31726213D01*
X7818360Y31726212D01*
X7657002Y31643994D01*
X7510505Y31537559D01*
X7510500Y31537555D01*
X7382445Y31409500D01*
X7382441Y31409495D01*
X7276006Y31262998D01*
X7193788Y31101640D01*
X7193787Y31101637D01*
X7137829Y30929411D01*
X7109500Y30750552D01*
X7109500Y30569449D01*
X7137829Y30390590D01*
X7193787Y30218364D01*
X7193788Y30218361D01*
X7276006Y30057003D01*
X7382441Y29910506D01*
X7382445Y29910501D01*
X7510500Y29782446D01*
X7510505Y29782442D01*
X7638287Y29689604D01*
X7657006Y29676004D01*
X7762484Y29622260D01*
X7818360Y29593789D01*
X7818363Y29593788D01*
X7904476Y29565809D01*
X7990591Y29537829D01*
X8063639Y29526260D01*
X8150678Y29512473D01*
X8213813Y29482544D01*
X8250744Y29423232D01*
X8249746Y29353369D01*
X8211136Y29295137D01*
X8150678Y29267527D01*
X7990589Y29242171D01*
X7818363Y29186213D01*
X7818360Y29186212D01*
X7657002Y29103994D01*
X7510505Y28997559D01*
X7510500Y28997555D01*
X7382445Y28869500D01*
X7382441Y28869495D01*
X7276006Y28722998D01*
X7193788Y28561640D01*
X7193787Y28561637D01*
X7137829Y28389411D01*
X7109500Y28210552D01*
X7109500Y28029449D01*
X7137829Y27850590D01*
X7193787Y27678364D01*
X7193788Y27678361D01*
X7276006Y27517003D01*
X7382441Y27370506D01*
X7382445Y27370501D01*
X7510500Y27242446D01*
X7510505Y27242442D01*
X7638287Y27149604D01*
X7657006Y27136004D01*
X7762484Y27082260D01*
X7818360Y27053789D01*
X7818363Y27053788D01*
X7904476Y27025809D01*
X7990591Y26997829D01*
X8063639Y26986260D01*
X8150678Y26972473D01*
X8213813Y26942544D01*
X8250744Y26883232D01*
X8249746Y26813369D01*
X8211136Y26755137D01*
X8150678Y26727527D01*
X7990589Y26702171D01*
X7818363Y26646213D01*
X7818360Y26646212D01*
X7657002Y26563994D01*
X7510505Y26457559D01*
X7510500Y26457555D01*
X7382445Y26329500D01*
X7382441Y26329495D01*
X7276006Y26182998D01*
X7193788Y26021640D01*
X7193787Y26021637D01*
X7137829Y25849411D01*
X7109500Y25670552D01*
X7109500Y25489449D01*
X7137829Y25310590D01*
X7193787Y25138364D01*
X7193788Y25138361D01*
X7276006Y24977003D01*
X7382441Y24830506D01*
X7382445Y24830501D01*
X7510500Y24702446D01*
X7510505Y24702442D01*
X7638287Y24609604D01*
X7657006Y24596004D01*
X7762484Y24542260D01*
X7818360Y24513789D01*
X7818363Y24513788D01*
X7904476Y24485809D01*
X7990591Y24457829D01*
X8063639Y24446260D01*
X8150678Y24432473D01*
X8213813Y24402544D01*
X8250744Y24343232D01*
X8249746Y24273369D01*
X8211136Y24215137D01*
X8150678Y24187527D01*
X7990589Y24162171D01*
X7818363Y24106213D01*
X7818360Y24106212D01*
X7657002Y24023994D01*
X7510505Y23917559D01*
X7510500Y23917555D01*
X7382445Y23789500D01*
X7382441Y23789495D01*
X7276006Y23642998D01*
X7193788Y23481640D01*
X7193787Y23481637D01*
X7137829Y23309411D01*
X7109500Y23130552D01*
X7109500Y22949449D01*
X7137829Y22770590D01*
X7193787Y22598364D01*
X7193788Y22598361D01*
X7276006Y22437003D01*
X7382441Y22290506D01*
X7382445Y22290501D01*
X7510500Y22162446D01*
X7510505Y22162442D01*
X7638287Y22069604D01*
X7657006Y22056004D01*
X7752086Y22007558D01*
X7818360Y21973789D01*
X7818363Y21973788D01*
X7904476Y21945809D01*
X7990591Y21917829D01*
X8063639Y21906260D01*
X8150678Y21892473D01*
X8213813Y21862544D01*
X8250744Y21803232D01*
X8249746Y21733369D01*
X8211136Y21675137D01*
X8150678Y21647527D01*
X7990589Y21622171D01*
X7818363Y21566213D01*
X7818360Y21566212D01*
X7657002Y21483994D01*
X7510505Y21377559D01*
X7510500Y21377555D01*
X7382445Y21249500D01*
X7382441Y21249495D01*
X7276006Y21102998D01*
X7193788Y20941640D01*
X7193787Y20941637D01*
X7137829Y20769411D01*
X7109500Y20590552D01*
X7109500Y20409449D01*
X7137829Y20230590D01*
X7193787Y20058364D01*
X7193788Y20058361D01*
X7276006Y19897003D01*
X7382441Y19750506D01*
X7382445Y19750501D01*
X7510500Y19622446D01*
X7510505Y19622442D01*
X7638287Y19529604D01*
X7657006Y19516004D01*
X7762484Y19462260D01*
X7818360Y19433789D01*
X7818363Y19433788D01*
X7904476Y19405809D01*
X7990591Y19377829D01*
X8063639Y19366260D01*
X8150678Y19352473D01*
X8213813Y19322544D01*
X8250744Y19263232D01*
X8249746Y19193369D01*
X8211136Y19135137D01*
X8150678Y19107527D01*
X7990589Y19082171D01*
X7818363Y19026213D01*
X7818360Y19026212D01*
X7657002Y18943994D01*
X7510505Y18837559D01*
X7510500Y18837555D01*
X7382445Y18709500D01*
X7382441Y18709495D01*
X7276006Y18562998D01*
X7193788Y18401640D01*
X7193787Y18401637D01*
X7137829Y18229411D01*
X7109500Y18050552D01*
X7109500Y17869449D01*
X7137829Y17690590D01*
X7193787Y17518364D01*
X7193788Y17518361D01*
X7276006Y17357003D01*
X7382441Y17210506D01*
X7382445Y17210501D01*
X7510500Y17082446D01*
X7510505Y17082442D01*
X7638287Y16989604D01*
X7657006Y16976004D01*
X7762484Y16922260D01*
X7818360Y16893789D01*
X7818363Y16893788D01*
X7904476Y16865809D01*
X7990591Y16837829D01*
X8063639Y16826260D01*
X8150678Y16812473D01*
X8213813Y16782544D01*
X8250744Y16723232D01*
X8249746Y16653369D01*
X8211136Y16595137D01*
X8150678Y16567527D01*
X7990589Y16542171D01*
X7818363Y16486213D01*
X7818360Y16486212D01*
X7657002Y16403994D01*
X7510505Y16297559D01*
X7510500Y16297555D01*
X7382445Y16169500D01*
X7382441Y16169495D01*
X7276006Y16022998D01*
X7193788Y15861640D01*
X7193787Y15861637D01*
X7137829Y15689411D01*
X7109500Y15510552D01*
X7109500Y15329449D01*
X7137829Y15150590D01*
X7193787Y14978364D01*
X7193788Y14978361D01*
X7276006Y14817003D01*
X7382441Y14670506D01*
X7382445Y14670501D01*
X7510500Y14542446D01*
X7510505Y14542442D01*
X7638287Y14449604D01*
X7657006Y14436004D01*
X7762484Y14382260D01*
X7818360Y14353789D01*
X7818363Y14353788D01*
X7904476Y14325809D01*
X7990591Y14297829D01*
X8063639Y14286260D01*
X8150678Y14272473D01*
X8213813Y14242544D01*
X8250744Y14183232D01*
X8249746Y14113369D01*
X8211136Y14055137D01*
X8150678Y14027527D01*
X7990589Y14002171D01*
X7818363Y13946213D01*
X7818360Y13946212D01*
X7657002Y13863994D01*
X7510505Y13757559D01*
X7510500Y13757555D01*
X7382445Y13629500D01*
X7382441Y13629495D01*
X7276006Y13482998D01*
X7193788Y13321640D01*
X7193787Y13321637D01*
X7137829Y13149411D01*
X7109500Y12970552D01*
X7109500Y12789449D01*
X7137829Y12610590D01*
X7193787Y12438364D01*
X7193788Y12438361D01*
X7276006Y12277003D01*
X7382441Y12130506D01*
X7382445Y12130501D01*
X7510500Y12002446D01*
X7510505Y12002442D01*
X7638287Y11909604D01*
X7657006Y11896004D01*
X7762484Y11842260D01*
X7818360Y11813789D01*
X7818363Y11813788D01*
X7904476Y11785809D01*
X7990591Y11757829D01*
X8063639Y11746260D01*
X8150678Y11732473D01*
X8213813Y11702544D01*
X8250744Y11643232D01*
X8249746Y11573369D01*
X8211136Y11515137D01*
X8150678Y11487527D01*
X7990589Y11462171D01*
X7818363Y11406213D01*
X7818360Y11406212D01*
X7657002Y11323994D01*
X7510505Y11217559D01*
X7510500Y11217555D01*
X7382445Y11089500D01*
X7382441Y11089495D01*
X7276006Y10942998D01*
X7193788Y10781640D01*
X7193787Y10781637D01*
X7137829Y10609411D01*
X7109500Y10430552D01*
X7109500Y10249449D01*
X7137829Y10070590D01*
X7193787Y9898364D01*
X7193788Y9898361D01*
X7276006Y9737003D01*
X7382441Y9590506D01*
X7382445Y9590501D01*
X7510500Y9462446D01*
X7510505Y9462442D01*
X7638287Y9369604D01*
X7657006Y9356004D01*
X7762484Y9302260D01*
X7818360Y9273789D01*
X7818363Y9273788D01*
X7904476Y9245809D01*
X7990591Y9217829D01*
X8063639Y9206260D01*
X8150678Y9192473D01*
X8213813Y9162544D01*
X8250744Y9103232D01*
X8249746Y9033369D01*
X8211136Y8975137D01*
X8150678Y8947527D01*
X7990589Y8922171D01*
X7818363Y8866213D01*
X7818360Y8866212D01*
X7657002Y8783994D01*
X7510505Y8677559D01*
X7510500Y8677555D01*
X7382445Y8549500D01*
X7382441Y8549495D01*
X7276006Y8402998D01*
X7193788Y8241640D01*
X7193787Y8241637D01*
X7137829Y8069411D01*
X7109500Y7890552D01*
X7109500Y7709449D01*
X7137829Y7530590D01*
X7193787Y7358364D01*
X7193788Y7358361D01*
X7276006Y7197003D01*
X7382441Y7050506D01*
X7382445Y7050501D01*
X7510500Y6922446D01*
X7510505Y6922442D01*
X7638287Y6829604D01*
X7657006Y6816004D01*
X7762484Y6762260D01*
X7818360Y6733789D01*
X7818363Y6733788D01*
X7904476Y6705809D01*
X7990591Y6677829D01*
X8073429Y6664709D01*
X8169449Y6649500D01*
X8169454Y6649500D01*
X8350551Y6649500D01*
X8437259Y6663235D01*
X8529409Y6677829D01*
X8701639Y6733789D01*
X8862994Y6816004D01*
X9009501Y6922447D01*
X9137553Y7050499D01*
X9243996Y7197006D01*
X9326211Y7358361D01*
X9382171Y7530591D01*
X9396422Y7620575D01*
X9407527Y7690679D01*
X9437456Y7753814D01*
X9496768Y7790745D01*
X9566630Y7789747D01*
X9624863Y7751137D01*
X9652473Y7690679D01*
X9677829Y7530590D01*
X9733787Y7358364D01*
X9733788Y7358361D01*
X9816006Y7197003D01*
X9922441Y7050506D01*
X9922445Y7050501D01*
X10050500Y6922446D01*
X10050505Y6922442D01*
X10178287Y6829604D01*
X10197006Y6816004D01*
X10302484Y6762260D01*
X10358360Y6733789D01*
X10358363Y6733788D01*
X10444476Y6705809D01*
X10530591Y6677829D01*
X10613429Y6664709D01*
X10709449Y6649500D01*
X10709454Y6649500D01*
X10890551Y6649500D01*
X10977259Y6663235D01*
X11069409Y6677829D01*
X11241639Y6733789D01*
X11402994Y6816004D01*
X11549501Y6922447D01*
X11677553Y7050499D01*
X11783996Y7197006D01*
X11866211Y7358361D01*
X11922171Y7530591D01*
X11936765Y7622741D01*
X11950500Y7709449D01*
X11950500Y7890552D01*
X11934019Y7994603D01*
X11922171Y8069409D01*
X11866211Y8241639D01*
X11866211Y8241640D01*
X11837740Y8297516D01*
X11783996Y8402994D01*
X11770396Y8421713D01*
X11677558Y8549495D01*
X11677554Y8549500D01*
X11549499Y8677555D01*
X11549494Y8677559D01*
X11402997Y8783994D01*
X11402996Y8783995D01*
X11402994Y8783996D01*
X11351300Y8810336D01*
X11241639Y8866212D01*
X11241636Y8866213D01*
X11069410Y8922171D01*
X10909321Y8947527D01*
X10846186Y8977456D01*
X10809255Y9036768D01*
X10810253Y9106630D01*
X10848863Y9164863D01*
X10909321Y9192473D01*
X10979425Y9203578D01*
X11069409Y9217829D01*
X11241639Y9273789D01*
X11402994Y9356004D01*
X11549501Y9462447D01*
X11677553Y9590499D01*
X11783996Y9737006D01*
X11866211Y9898361D01*
X11922171Y10070591D01*
X11936765Y10162741D01*
X11950500Y10249449D01*
X11950500Y10430552D01*
X11934019Y10534603D01*
X11922171Y10609409D01*
X11866211Y10781639D01*
X11866211Y10781640D01*
X11837740Y10837516D01*
X11783996Y10942994D01*
X11770396Y10961713D01*
X11677558Y11089495D01*
X11677554Y11089500D01*
X11549499Y11217555D01*
X11549494Y11217559D01*
X11402997Y11323994D01*
X11402996Y11323995D01*
X11402994Y11323996D01*
X11351300Y11350336D01*
X11241639Y11406212D01*
X11241636Y11406213D01*
X11069410Y11462171D01*
X10909321Y11487527D01*
X10846186Y11517456D01*
X10809255Y11576768D01*
X10810253Y11646630D01*
X10848863Y11704863D01*
X10909321Y11732473D01*
X10979425Y11743578D01*
X11069409Y11757829D01*
X11241639Y11813789D01*
X11402994Y11896004D01*
X11549501Y12002447D01*
X11677553Y12130499D01*
X11783996Y12277006D01*
X11866211Y12438361D01*
X11922171Y12610591D01*
X11936765Y12702741D01*
X11950500Y12789449D01*
X11950500Y12970552D01*
X11934019Y13074603D01*
X11922171Y13149409D01*
X11866211Y13321639D01*
X11866211Y13321640D01*
X11837740Y13377516D01*
X11783996Y13482994D01*
X11770396Y13501713D01*
X11677558Y13629495D01*
X11677554Y13629500D01*
X11549499Y13757555D01*
X11549494Y13757559D01*
X11402997Y13863994D01*
X11402996Y13863995D01*
X11402994Y13863996D01*
X11351300Y13890336D01*
X11241639Y13946212D01*
X11241636Y13946213D01*
X11069410Y14002171D01*
X10909321Y14027527D01*
X10846186Y14057456D01*
X10809255Y14116768D01*
X10810253Y14186630D01*
X10848863Y14244863D01*
X10909321Y14272473D01*
X10979425Y14283578D01*
X11069409Y14297829D01*
X11241639Y14353789D01*
X11402994Y14436004D01*
X11549501Y14542447D01*
X11677553Y14670499D01*
X11783996Y14817006D01*
X11866211Y14978361D01*
X11922171Y15150591D01*
X11936765Y15242741D01*
X11950500Y15329449D01*
X11950500Y15510552D01*
X11934019Y15614603D01*
X11922171Y15689409D01*
X11866211Y15861639D01*
X11866211Y15861640D01*
X11837740Y15917516D01*
X11783996Y16022994D01*
X11770396Y16041713D01*
X11677558Y16169495D01*
X11677554Y16169500D01*
X11549499Y16297555D01*
X11549494Y16297559D01*
X11402997Y16403994D01*
X11402996Y16403995D01*
X11402994Y16403996D01*
X11351300Y16430336D01*
X11241639Y16486212D01*
X11241636Y16486213D01*
X11069410Y16542171D01*
X10909321Y16567527D01*
X10846186Y16597456D01*
X10809255Y16656768D01*
X10810253Y16726630D01*
X10848863Y16784863D01*
X10909321Y16812473D01*
X10979425Y16823578D01*
X11069409Y16837829D01*
X11241639Y16893789D01*
X11402994Y16976004D01*
X11549501Y17082447D01*
X11677553Y17210499D01*
X11783996Y17357006D01*
X11866211Y17518361D01*
X11922171Y17690591D01*
X11936765Y17782741D01*
X11950500Y17869449D01*
X11950500Y18050552D01*
X11934019Y18154603D01*
X11922171Y18229409D01*
X11866211Y18401639D01*
X11866211Y18401640D01*
X11837740Y18457516D01*
X11783996Y18562994D01*
X11770396Y18581713D01*
X11677558Y18709495D01*
X11677554Y18709500D01*
X11549499Y18837555D01*
X11549494Y18837559D01*
X11402997Y18943994D01*
X11402996Y18943995D01*
X11402994Y18943996D01*
X11351300Y18970336D01*
X11241639Y19026212D01*
X11241636Y19026213D01*
X11069410Y19082171D01*
X10909321Y19107527D01*
X10846186Y19137456D01*
X10809255Y19196768D01*
X10810253Y19266630D01*
X10848863Y19324863D01*
X10909321Y19352473D01*
X10979425Y19363578D01*
X11069409Y19377829D01*
X11241639Y19433789D01*
X11402994Y19516004D01*
X11549501Y19622447D01*
X11677553Y19750499D01*
X11783996Y19897006D01*
X11866211Y20058361D01*
X11922171Y20230591D01*
X11936765Y20322741D01*
X11950500Y20409449D01*
X11950500Y20590552D01*
X11922171Y20769408D01*
X11917608Y20783452D01*
X11917607Y20783455D01*
X11912231Y20799999D01*
X42542985Y20799999D01*
X42548903Y20781785D01*
X42645379Y20592443D01*
X42770272Y20420541D01*
X42770276Y20420536D01*
X42920535Y20270277D01*
X42920540Y20270273D01*
X43092442Y20145380D01*
X43281784Y20048904D01*
X43299998Y20042986D01*
X43300000Y20042987D01*
X44300000Y20042987D01*
X44300001Y20042986D01*
X44318215Y20048904D01*
X44507557Y20145380D01*
X44679459Y20270273D01*
X44679464Y20270277D01*
X44829723Y20420536D01*
X44829727Y20420541D01*
X44954620Y20592443D01*
X45051096Y20781785D01*
X45057014Y20799999D01*
X45057014Y20800000D01*
X44300000Y20800000D01*
X44300000Y20042987D01*
X43300000Y20042987D01*
X43300000Y20800000D01*
X42542986Y20800000D01*
X42542985Y20799999D01*
X11912231Y20799999D01*
X11912231Y20800000D01*
X11866211Y20941639D01*
X11866211Y20941640D01*
X11837740Y20997516D01*
X11783996Y21102994D01*
X11688689Y21234174D01*
X11677558Y21249495D01*
X11677554Y21249500D01*
X11561228Y21365826D01*
X43300000Y21365826D01*
X43300000Y21234174D01*
X43334075Y21107007D01*
X43399901Y20992993D01*
X43492993Y20899901D01*
X43607007Y20834075D01*
X43734174Y20800000D01*
X43865826Y20800000D01*
X43992993Y20834075D01*
X44107007Y20899901D01*
X44200099Y20992993D01*
X44265925Y21107007D01*
X44300000Y21234174D01*
X44300000Y21365826D01*
X44265925Y21492993D01*
X44200099Y21607007D01*
X44107007Y21700099D01*
X43992993Y21765925D01*
X43865826Y21800000D01*
X44300000Y21800000D01*
X45057014Y21800000D01*
X45057014Y21800002D01*
X45051096Y21818216D01*
X44954620Y22007558D01*
X44829727Y22179460D01*
X44829723Y22179465D01*
X44715665Y22293523D01*
X44682180Y22354846D01*
X44687164Y22424538D01*
X44729036Y22480471D01*
X44760013Y22497386D01*
X44892086Y22546646D01*
X44892093Y22546650D01*
X45007187Y22632810D01*
X45007190Y22632813D01*
X45093350Y22747907D01*
X45093354Y22747914D01*
X45143596Y22882621D01*
X45143598Y22882628D01*
X45149999Y22942156D01*
X45150000Y22942173D01*
X45150000Y23340000D01*
X44300000Y23340000D01*
X44300000Y21800000D01*
X43865826Y21800000D01*
X43734174Y21800000D01*
X43607007Y21765925D01*
X43492993Y21700099D01*
X43399901Y21607007D01*
X43334075Y21492993D01*
X43300000Y21365826D01*
X11561228Y21365826D01*
X11549499Y21377555D01*
X11549494Y21377559D01*
X11402997Y21483994D01*
X11402996Y21483995D01*
X11402994Y21483996D01*
X11351300Y21510336D01*
X11241639Y21566212D01*
X11241636Y21566213D01*
X11069410Y21622171D01*
X10909321Y21647527D01*
X10846186Y21677456D01*
X10809255Y21736768D01*
X10810253Y21806630D01*
X10848863Y21864863D01*
X10909321Y21892473D01*
X10979425Y21903578D01*
X11069409Y21917829D01*
X11241639Y21973789D01*
X11402994Y22056004D01*
X11549501Y22162447D01*
X11677553Y22290499D01*
X11783996Y22437006D01*
X11866211Y22598361D01*
X11922171Y22770591D01*
X11939916Y22882628D01*
X11949345Y22942156D01*
X42450000Y22942156D01*
X42456401Y22882628D01*
X42456403Y22882621D01*
X42506645Y22747914D01*
X42506649Y22747907D01*
X42592809Y22632813D01*
X42592812Y22632810D01*
X42707906Y22546650D01*
X42707913Y22546646D01*
X42839986Y22497386D01*
X42895920Y22455515D01*
X42920337Y22390051D01*
X42905486Y22321778D01*
X42884335Y22293523D01*
X42770271Y22179459D01*
X42645379Y22007558D01*
X42548903Y21818216D01*
X42542985Y21800002D01*
X42542986Y21800000D01*
X43300000Y21800000D01*
X43300000Y23340000D01*
X42450000Y23340000D01*
X42450000Y22942156D01*
X11949345Y22942156D01*
X11950500Y22949449D01*
X11950500Y23130552D01*
X11922170Y23309413D01*
X11907994Y23353045D01*
X11866212Y23481637D01*
X11866211Y23481640D01*
X11837740Y23537516D01*
X11783996Y23642994D01*
X11688689Y23774174D01*
X11677558Y23789495D01*
X11677554Y23789500D01*
X11561228Y23905826D01*
X43300000Y23905826D01*
X43300000Y23774174D01*
X43334075Y23647007D01*
X43399901Y23532993D01*
X43492993Y23439901D01*
X43607007Y23374075D01*
X43734174Y23340000D01*
X43865826Y23340000D01*
X43992993Y23374075D01*
X44107007Y23439901D01*
X44200099Y23532993D01*
X44265925Y23647007D01*
X44300000Y23774174D01*
X44300000Y23905826D01*
X44265925Y24032993D01*
X44200099Y24147007D01*
X44107007Y24240099D01*
X43992993Y24305925D01*
X43865826Y24340000D01*
X44300000Y24340000D01*
X45150000Y24340000D01*
X45150000Y24737828D01*
X45149999Y24737845D01*
X45143598Y24797373D01*
X45143596Y24797380D01*
X45093354Y24932087D01*
X45093350Y24932094D01*
X45007190Y25047188D01*
X45007187Y25047191D01*
X44892093Y25133351D01*
X44892086Y25133355D01*
X44757379Y25183597D01*
X44757372Y25183599D01*
X44697844Y25190000D01*
X44300000Y25190000D01*
X44300000Y24340000D01*
X43865826Y24340000D01*
X43734174Y24340000D01*
X43607007Y24305925D01*
X43492993Y24240099D01*
X43399901Y24147007D01*
X43334075Y24032993D01*
X43300000Y23905826D01*
X11561228Y23905826D01*
X11549499Y23917555D01*
X11549494Y23917559D01*
X11402997Y24023994D01*
X11402996Y24023995D01*
X11402994Y24023996D01*
X11351300Y24050336D01*
X11241639Y24106212D01*
X11241636Y24106213D01*
X11069410Y24162171D01*
X10909321Y24187527D01*
X10846186Y24217456D01*
X10809255Y24276768D01*
X10810253Y24346630D01*
X10848863Y24404863D01*
X10909321Y24432473D01*
X10979425Y24443578D01*
X11069409Y24457829D01*
X11241639Y24513789D01*
X11402994Y24596004D01*
X11549501Y24702447D01*
X11584899Y24737845D01*
X42450000Y24737845D01*
X42450000Y24340000D01*
X43300000Y24340000D01*
X43300000Y25190000D01*
X42902155Y25190000D01*
X42842627Y25183599D01*
X42842620Y25183597D01*
X42707913Y25133355D01*
X42707906Y25133351D01*
X42592812Y25047191D01*
X42592809Y25047188D01*
X42506649Y24932094D01*
X42506645Y24932087D01*
X42456403Y24797380D01*
X42456401Y24797373D01*
X42450000Y24737845D01*
X11584899Y24737845D01*
X11677553Y24830499D01*
X11783996Y24977006D01*
X11866211Y25138361D01*
X11922171Y25310591D01*
X11936765Y25402741D01*
X11950500Y25489449D01*
X11950500Y25670552D01*
X11934019Y25774603D01*
X11922171Y25849409D01*
X11866211Y26021639D01*
X11866211Y26021640D01*
X11837740Y26077516D01*
X11783996Y26182994D01*
X11770396Y26201713D01*
X11677558Y26329495D01*
X11677554Y26329500D01*
X11549499Y26457555D01*
X11549494Y26457559D01*
X11402997Y26563994D01*
X11402996Y26563995D01*
X11402994Y26563996D01*
X11351300Y26590336D01*
X11241639Y26646212D01*
X11241636Y26646213D01*
X11069410Y26702171D01*
X10909321Y26727527D01*
X10846186Y26757456D01*
X10809255Y26816768D01*
X10810253Y26886630D01*
X10848863Y26944863D01*
X10909321Y26972473D01*
X10979425Y26983578D01*
X11069409Y26997829D01*
X11241639Y27053789D01*
X11402994Y27136004D01*
X11549501Y27242447D01*
X11677553Y27370499D01*
X11783996Y27517006D01*
X11866211Y27678361D01*
X11922171Y27850591D01*
X11936765Y27942741D01*
X11950500Y28029449D01*
X11950500Y28210552D01*
X11934019Y28314603D01*
X11922171Y28389409D01*
X11866211Y28561639D01*
X11866211Y28561640D01*
X11837740Y28617516D01*
X11783996Y28722994D01*
X11770396Y28741713D01*
X11677558Y28869495D01*
X11677554Y28869500D01*
X11549499Y28997555D01*
X11549494Y28997559D01*
X11402997Y29103994D01*
X11402996Y29103995D01*
X11402994Y29103996D01*
X11351300Y29130336D01*
X11241639Y29186212D01*
X11241636Y29186213D01*
X11069410Y29242171D01*
X10909321Y29267527D01*
X10846186Y29297456D01*
X10809255Y29356768D01*
X10810253Y29426630D01*
X10848863Y29484863D01*
X10909321Y29512473D01*
X10979425Y29523578D01*
X11069409Y29537829D01*
X11241639Y29593789D01*
X11402994Y29676004D01*
X11549501Y29782447D01*
X11677553Y29910499D01*
X11783996Y30057006D01*
X11866211Y30218361D01*
X11922171Y30390591D01*
X11936765Y30482741D01*
X11950500Y30569449D01*
X11950500Y30750552D01*
X11934019Y30854603D01*
X11922171Y30929409D01*
X11866211Y31101639D01*
X11866211Y31101640D01*
X11837740Y31157516D01*
X11783996Y31262994D01*
X11770396Y31281713D01*
X11677558Y31409495D01*
X11677554Y31409500D01*
X11549499Y31537555D01*
X11549494Y31537559D01*
X11402997Y31643994D01*
X11402996Y31643995D01*
X11402994Y31643996D01*
X11351300Y31670336D01*
X11241639Y31726212D01*
X11241636Y31726213D01*
X11069410Y31782171D01*
X10909321Y31807527D01*
X10846186Y31837456D01*
X10809255Y31896768D01*
X10810253Y31966630D01*
X10848863Y32024863D01*
X10909321Y32052473D01*
X10979425Y32063578D01*
X11069409Y32077829D01*
X11241639Y32133789D01*
X11402994Y32216004D01*
X11549501Y32322447D01*
X11677553Y32450499D01*
X11783996Y32597006D01*
X11866211Y32758361D01*
X11922171Y32930591D01*
X11936765Y33022741D01*
X11950500Y33109449D01*
X11950500Y33290552D01*
X11934019Y33394603D01*
X11922171Y33469409D01*
X11866211Y33641639D01*
X11866211Y33641640D01*
X11837740Y33697516D01*
X11783996Y33802994D01*
X11770396Y33821713D01*
X11677558Y33949495D01*
X11677554Y33949500D01*
X11549499Y34077555D01*
X11549494Y34077559D01*
X11402997Y34183994D01*
X11402996Y34183995D01*
X11402994Y34183996D01*
X11351300Y34210336D01*
X11241639Y34266212D01*
X11241636Y34266213D01*
X11069410Y34322171D01*
X10909321Y34347527D01*
X10846186Y34377456D01*
X10809255Y34436768D01*
X10810253Y34506630D01*
X10848863Y34564863D01*
X10909321Y34592473D01*
X10979425Y34603578D01*
X11069409Y34617829D01*
X11241639Y34673789D01*
X11402994Y34756004D01*
X11549501Y34862447D01*
X11677553Y34990499D01*
X11783996Y35137006D01*
X11866211Y35298361D01*
X11922171Y35470591D01*
X11936765Y35562741D01*
X11950500Y35649449D01*
X11950500Y35830552D01*
X11934019Y35934603D01*
X11922171Y36009409D01*
X11866211Y36181639D01*
X11866211Y36181640D01*
X11837740Y36237516D01*
X11783996Y36342994D01*
X11770396Y36361713D01*
X11677558Y36489495D01*
X11677554Y36489500D01*
X11549499Y36617555D01*
X11549494Y36617559D01*
X11402997Y36723994D01*
X11402996Y36723995D01*
X11402994Y36723996D01*
X11351300Y36750336D01*
X11241639Y36806212D01*
X11241636Y36806213D01*
X11069410Y36862171D01*
X10909321Y36887527D01*
X10846186Y36917456D01*
X10809255Y36976768D01*
X10810253Y37046630D01*
X10848863Y37104863D01*
X10909321Y37132473D01*
X10979425Y37143578D01*
X11069409Y37157829D01*
X11241639Y37213789D01*
X11402994Y37296004D01*
X11549501Y37402447D01*
X11677553Y37530499D01*
X11783996Y37677006D01*
X11866211Y37838361D01*
X11922171Y38010591D01*
X11936765Y38102741D01*
X11950500Y38189449D01*
X11950500Y38370552D01*
X11934019Y38474603D01*
X11922171Y38549409D01*
X11866211Y38721639D01*
X11866211Y38721640D01*
X11837740Y38777516D01*
X11783996Y38882994D01*
X11770396Y38901713D01*
X11677558Y39029495D01*
X11677554Y39029500D01*
X11549499Y39157555D01*
X11549494Y39157559D01*
X11402997Y39263994D01*
X11402996Y39263995D01*
X11402994Y39263996D01*
X11351300Y39290336D01*
X11241639Y39346212D01*
X11241636Y39346213D01*
X11069410Y39402171D01*
X10909321Y39427527D01*
X10846186Y39457456D01*
X10809255Y39516768D01*
X10810253Y39586630D01*
X10848863Y39644863D01*
X10909321Y39672473D01*
X10979425Y39683578D01*
X11069409Y39697829D01*
X11241639Y39753789D01*
X11402994Y39836004D01*
X11549501Y39942447D01*
X11677553Y40070499D01*
X11783996Y40217006D01*
X11866211Y40378361D01*
X11922171Y40550591D01*
X11936765Y40642741D01*
X11950500Y40729449D01*
X11950500Y40910552D01*
X11934019Y41014603D01*
X11922171Y41089409D01*
X11866211Y41261639D01*
X11866211Y41261640D01*
X11837740Y41317516D01*
X11783996Y41422994D01*
X11770396Y41441713D01*
X11677558Y41569495D01*
X11677554Y41569500D01*
X11549499Y41697555D01*
X11549494Y41697559D01*
X11402997Y41803994D01*
X11402996Y41803995D01*
X11402994Y41803996D01*
X11351300Y41830336D01*
X11241639Y41886212D01*
X11241636Y41886213D01*
X11069410Y41942171D01*
X10909321Y41967527D01*
X10846186Y41997456D01*
X10809255Y42056768D01*
X10810253Y42126630D01*
X10848863Y42184863D01*
X10909321Y42212473D01*
X10979425Y42223578D01*
X11069409Y42237829D01*
X11241639Y42293789D01*
X11402994Y42376004D01*
X11549501Y42482447D01*
X11677553Y42610499D01*
X11783996Y42757006D01*
X11866211Y42918361D01*
X11922171Y43090591D01*
X11936765Y43182741D01*
X11950500Y43269449D01*
X11950500Y43450552D01*
X11934019Y43554603D01*
X11922171Y43629409D01*
X11866211Y43801639D01*
X11866211Y43801640D01*
X11837740Y43857516D01*
X11783996Y43962994D01*
X11770396Y43981713D01*
X11677558Y44109495D01*
X11677554Y44109500D01*
X11549499Y44237555D01*
X11549494Y44237559D01*
X11402997Y44343994D01*
X11402996Y44343995D01*
X11402994Y44343996D01*
X11351300Y44370336D01*
X11241639Y44426212D01*
X11241636Y44426213D01*
X11069410Y44482171D01*
X10909321Y44507527D01*
X10846186Y44537456D01*
X10809255Y44596768D01*
X10810253Y44666630D01*
X10848863Y44724863D01*
X10909321Y44752473D01*
X10979425Y44763578D01*
X11069409Y44777829D01*
X11241639Y44833789D01*
X11402994Y44916004D01*
X11549501Y45022447D01*
X11677553Y45150499D01*
X11783996Y45297006D01*
X11866211Y45458361D01*
X11922171Y45630591D01*
X11936765Y45722741D01*
X11950500Y45809449D01*
X11950500Y45990552D01*
X11934019Y46094603D01*
X11922171Y46169409D01*
X11866211Y46341639D01*
X11866211Y46341640D01*
X11837740Y46397516D01*
X11783996Y46502994D01*
X11770396Y46521713D01*
X11677558Y46649495D01*
X11677554Y46649500D01*
X11549499Y46777555D01*
X11549494Y46777559D01*
X11402997Y46883994D01*
X11402996Y46883995D01*
X11402994Y46883996D01*
X11351300Y46910336D01*
X11241639Y46966212D01*
X11241636Y46966213D01*
X11069410Y47022171D01*
X10909321Y47047527D01*
X10846186Y47077456D01*
X10809255Y47136768D01*
X10810253Y47206630D01*
X10848863Y47264863D01*
X10909321Y47292473D01*
X10979425Y47303578D01*
X11069409Y47317829D01*
X11241639Y47373789D01*
X11402994Y47456004D01*
X11549501Y47562447D01*
X11677553Y47690499D01*
X11783996Y47837006D01*
X11866211Y47998361D01*
X11922171Y48170591D01*
X11936765Y48262741D01*
X11950500Y48349449D01*
X11950500Y48530552D01*
X11934019Y48634603D01*
X11922171Y48709409D01*
X11866211Y48881639D01*
X11866211Y48881640D01*
X11837740Y48937516D01*
X11783996Y49042994D01*
X11770396Y49061713D01*
X11677558Y49189495D01*
X11677554Y49189500D01*
X11549499Y49317555D01*
X11549494Y49317559D01*
X11402997Y49423994D01*
X11402996Y49423995D01*
X11402994Y49423996D01*
X11351300Y49450336D01*
X11241639Y49506212D01*
X11241636Y49506213D01*
X11069410Y49562171D01*
X10909321Y49587527D01*
X10846186Y49617456D01*
X10809255Y49676768D01*
X10810253Y49746630D01*
X10848863Y49804863D01*
X10909321Y49832473D01*
X10979425Y49843578D01*
X11069409Y49857829D01*
X11241639Y49913789D01*
X11402994Y49996004D01*
X11549501Y50102447D01*
X11677553Y50230499D01*
X11783996Y50377006D01*
X11866211Y50538361D01*
X11922171Y50710591D01*
X11936765Y50802741D01*
X11950500Y50889449D01*
X11950500Y51070552D01*
X11934019Y51174603D01*
X11922171Y51249409D01*
X11866211Y51421639D01*
X11866211Y51421640D01*
X11837740Y51477516D01*
X11783996Y51582994D01*
X11770396Y51601713D01*
X11677558Y51729495D01*
X11677554Y51729500D01*
X11549499Y51857555D01*
X11549494Y51857559D01*
X11402997Y51963994D01*
X11402996Y51963995D01*
X11402994Y51963996D01*
X11351300Y51990336D01*
X11241639Y52046212D01*
X11241636Y52046213D01*
X11069410Y52102171D01*
X10909321Y52127527D01*
X10846186Y52157456D01*
X10809255Y52216768D01*
X10810253Y52286630D01*
X10848863Y52344863D01*
X10909321Y52372473D01*
X10979425Y52383578D01*
X11069409Y52397829D01*
X11241639Y52453789D01*
X11402994Y52536004D01*
X11549501Y52642447D01*
X11677553Y52770499D01*
X11783996Y52917006D01*
X11866211Y53078361D01*
X11922171Y53250591D01*
X11936765Y53342741D01*
X11950500Y53429449D01*
X11950500Y53610552D01*
X11934019Y53714603D01*
X11922171Y53789409D01*
X11866211Y53961639D01*
X11866211Y53961640D01*
X11837740Y54017516D01*
X11783996Y54122994D01*
X11770396Y54141713D01*
X11677558Y54269495D01*
X11677554Y54269500D01*
X11549499Y54397555D01*
X11549494Y54397559D01*
X11402997Y54503994D01*
X11402996Y54503995D01*
X11402994Y54503996D01*
X11351300Y54530336D01*
X11241639Y54586212D01*
X11241636Y54586213D01*
X11069410Y54642171D01*
X10909321Y54667527D01*
X10846186Y54697456D01*
X10809255Y54756768D01*
X10810253Y54826630D01*
X10848863Y54884863D01*
X10909321Y54912473D01*
X10979425Y54923578D01*
X11069409Y54937829D01*
X11241639Y54993789D01*
X11402994Y55076004D01*
X11549501Y55182447D01*
X11677553Y55310499D01*
X11783996Y55457006D01*
X11866211Y55618361D01*
X11922171Y55790591D01*
X11936765Y55882741D01*
X11950500Y55969449D01*
X11950500Y56150552D01*
X11934019Y56254603D01*
X11922171Y56329409D01*
X11866211Y56501639D01*
X11866211Y56501640D01*
X11837740Y56557516D01*
X11783996Y56662994D01*
X11770396Y56681713D01*
X11677558Y56809495D01*
X11677554Y56809500D01*
X11549499Y56937555D01*
X11549494Y56937559D01*
X11402997Y57043994D01*
X11402996Y57043995D01*
X11402994Y57043996D01*
X11351300Y57070336D01*
X11241639Y57126212D01*
X11241636Y57126213D01*
X11069410Y57182171D01*
X10890551Y57210500D01*
X10890546Y57210500D01*
X10709454Y57210500D01*
X10709449Y57210500D01*
X10530589Y57182171D01*
X10358363Y57126213D01*
X10358360Y57126212D01*
X10197002Y57043994D01*
X10050505Y56937559D01*
X10050500Y56937555D01*
X9922445Y56809500D01*
X9922441Y56809495D01*
X9816006Y56662998D01*
X9733788Y56501640D01*
X9733787Y56501637D01*
X9677829Y56329411D01*
X9656972Y56197729D01*
X9627042Y56134595D01*
X9567731Y56097664D01*
X9497868Y56098662D01*
X9439636Y56137272D01*
X9411522Y56201236D01*
X9410499Y56217128D01*
X9410499Y56954857D01*
X9410499Y56954864D01*
X9410497Y56954883D01*
X9407586Y56979988D01*
X9407585Y56979990D01*
X9407585Y56979991D01*
X9362206Y57082765D01*
X9282765Y57162206D01*
X9282763Y57162207D01*
X9179992Y57207585D01*
X9154865Y57210500D01*
X7365143Y57210500D01*
X7365117Y57210498D01*
X7340012Y57207587D01*
X7340008Y57207585D01*
X7237235Y57162207D01*
X7157794Y57082766D01*
X7112415Y56979994D01*
X7112415Y56979992D01*
X7109500Y56954869D01*
X500500Y56954869D01*
X500500Y57495934D01*
X500765Y57504044D01*
X506858Y57597006D01*
X517075Y57752898D01*
X519190Y57768952D01*
X567045Y58009538D01*
X571243Y58025203D01*
X613992Y58151137D01*
X650093Y58257488D01*
X656291Y58272453D01*
X764790Y58492467D01*
X772893Y58506502D01*
X909182Y58710473D01*
X919039Y58723319D01*
X1080786Y58907756D01*
X1092244Y58919214D01*
X1276681Y59080961D01*
X1289527Y59090818D01*
X1493498Y59227107D01*
X1507533Y59235210D01*
X1727547Y59343709D01*
X1742512Y59349907D01*
X1935740Y59415499D01*
X1974797Y59428757D01*
X1990464Y59432955D01*
X2011755Y59437190D01*
X2231048Y59480810D01*
X2247102Y59482925D01*
X2495957Y59499235D01*
X2504067Y59499500D01*
X2565892Y59499500D01*
X21125167Y59499500D01*
X21146412Y59493262D01*
G37*
%TD.AperFunction*%
%TD*%
M02*
