M48
; DRILL file {KiCad 9.0.0-1.fc41} date 2025-03-28T10:44:22+0800
; FORMAT={-:-/ absolute / metric / decimal}
; #@! TF.CreationDate,2025-03-28T10:44:22+08:00
; #@! TF.GenerationSoftware,Kicad,Pcbnew,9.0.0-1.fc41
; #@! TF.FileFunction,Plated,1,2,PTH
FMAT,2
METRIC
; #@! TA.AperFunction,Plated,PTH,ViaDrill
T1C0.300
; #@! TA.AperFunction,Plated,PTH,ComponentDrill
T2C1.000
%
G90
G05
T1
X3.6Y40.9
X3.6Y15.8
X3.65Y50.95
X3.7Y55.85
X3.7Y45.9
X3.7Y35.95
X3.7Y30.9
X3.7Y25.85
X3.7Y20.8
X3.7Y10.85
X3.7Y5.8
X16.7Y10.9
X21.65Y10.85
X21.7Y15.85
X26.6Y20.85
X26.6Y15.75
X26.65Y10.9
X31.6Y20.8
X31.65Y25.75
X31.65Y15.8
X31.65Y10.85
X35.05Y50.35
X36.6Y30.85
X36.6Y25.75
X36.65Y20.8
X36.65Y15.8
X36.65Y10.9
X41.6Y30.8
X41.65Y25.8
X41.65Y20.8
X41.65Y15.75
X45.4Y55.5
X46.6Y20.85
X46.6Y15.85
X46.65Y30.8
X46.65Y25.8
X51.6Y20.85
X51.65Y30.8
X51.65Y25.75
X56.6Y55.8
X56.6Y25.85
X61.6Y50.8
X61.6Y45.8
X61.6Y40.8
X61.6Y25.8
X61.65Y55.8
X61.65Y35.75
X66.55Y30.75
X66.55Y10.8
X66.55Y5.75
X66.6Y55.85
X66.6Y45.8
X66.6Y40.8
X66.6Y35.8
X66.6Y25.8
X66.6Y20.8
X66.6Y15.75
X66.7Y50.75
X71.55Y40.8
X71.6Y50.85
X71.6Y10.8
X71.65Y55.75
X71.65Y45.8
X71.65Y35.85
X71.65Y30.8
X71.65Y25.75
X71.65Y20.8
X71.65Y15.75
X71.65Y5.8
X76.55Y50.85
X76.55Y45.75
X76.55Y30.85
X76.55Y25.75
X76.55Y10.8
X76.55Y5.7
X76.6Y55.75
X76.6Y40.75
X76.6Y35.75
X76.6Y20.75
X76.6Y15.7
X81.55Y50.8
X81.55Y30.8
X81.55Y10.75
X81.6Y55.8
X81.6Y45.8
X81.6Y35.8
X81.6Y25.8
X81.6Y15.75
X81.6Y5.75
X81.65Y40.75
X81.65Y20.75
X86.6Y55.75
X86.6Y50.8
X86.6Y45.8
X86.6Y40.85
X86.6Y35.75
X86.6Y30.8
X86.6Y25.8
X86.6Y20.85
X86.6Y15.7
X86.6Y10.75
X86.6Y5.75
X91.6Y55.8
X91.6Y50.8
X91.6Y45.75
X91.6Y40.75
X91.6Y35.8
X91.6Y30.8
X91.6Y25.75
X91.6Y20.75
X91.6Y15.75
X91.6Y10.75
X91.6Y5.7
X96.55Y55.8
X96.55Y45.8
X96.55Y40.75
X96.55Y35.8
X96.55Y25.8
X96.55Y20.75
X96.55Y15.75
X96.55Y5.75
X96.6Y50.8
X96.6Y30.8
X96.6Y10.75
T2
X3.2Y2.2
X5.74Y2.2
X8.26Y56.06
X8.26Y53.52
X8.26Y50.98
X8.26Y48.44
X8.26Y45.9
X8.26Y43.36
X8.26Y40.82
X8.26Y38.28
X8.26Y35.74
X8.26Y33.2
X8.26Y30.66
X8.26Y28.12
X8.26Y25.58
X8.26Y23.04
X8.26Y20.5
X8.26Y17.96
X8.26Y15.42
X8.26Y12.88
X8.26Y10.34
X8.26Y7.8
X8.28Y2.2
X10.8Y56.06
X10.8Y53.52
X10.8Y50.98
X10.8Y48.44
X10.8Y45.9
X10.8Y43.36
X10.8Y40.82
X10.8Y38.28
X10.8Y35.74
X10.8Y33.2
X10.8Y30.66
X10.8Y28.12
X10.8Y25.58
X10.8Y23.04
X10.8Y20.5
X10.8Y17.96
X10.8Y15.42
X10.8Y12.88
X10.8Y10.34
X10.8Y7.8
X10.82Y2.2
X13.36Y2.2
X15.9Y2.2
X18.44Y2.2
X20.98Y2.2
X22.25Y58.2
X23.52Y2.2
X24.79Y58.2
X26.06Y2.2
X27.33Y58.2
X28.6Y2.2
X29.87Y58.2
X31.14Y2.2
X32.41Y58.2
X33.68Y2.2
X34.95Y58.2
X36.22Y2.2
X38.76Y2.2
X41.3Y2.2
X43.8Y23.84
X43.8Y21.3
X43.84Y2.2
X46.38Y2.2
X48.92Y2.2
X51.46Y2.2
X54.0Y2.2
X56.54Y2.2
X59.08Y2.2
X61.62Y2.2
M30
