%TF.GenerationSoftware,KiCad,Pcbnew,9.0.0-1.fc41*%
%TF.CreationDate,2025-03-28T10:43:55+08:00*%
%TF.ProjectId,st77xxlcd,73743737-7878-46c6-9364-2e6b69636164,V1.0.0*%
%TF.SameCoordinates,PX413b380PY77f8e40*%
%TF.FileFunction,Soldermask,Bot*%
%TF.FilePolarity,Negative*%
%FSLAX46Y46*%
G04 Gerber Fmt 4.6, Leading zero omitted, Abs format (unit mm)*
G04 Created by KiCad (PCBNEW 9.0.0-1.fc41) date 2025-03-28 10:43:55*
%MOMM*%
%LPD*%
G01*
G04 APERTURE LIST*
%ADD10R,1.700000X1.700000*%
%ADD11O,1.700000X1.700000*%
G04 APERTURE END LIST*
D10*
%TO.C,J7*%
X43800000Y23840000D03*
D11*
X43800000Y21300000D03*
%TD*%
D10*
%TO.C,J6*%
X61620000Y2200000D03*
D11*
X59080000Y2200000D03*
X56540000Y2200000D03*
X54000000Y2200000D03*
X51460000Y2200000D03*
X48920000Y2200000D03*
X46380000Y2200000D03*
X43840000Y2200000D03*
X41300000Y2200000D03*
X38760000Y2200000D03*
X36220000Y2200000D03*
X33680000Y2200000D03*
X31140000Y2200000D03*
X28600000Y2200000D03*
X26060000Y2200000D03*
X23520000Y2200000D03*
X20980000Y2200000D03*
X18440000Y2200000D03*
X15900000Y2200000D03*
X13360000Y2200000D03*
X10820000Y2200000D03*
X8280000Y2200000D03*
X5740000Y2200000D03*
X3200000Y2200000D03*
%TD*%
D10*
%TO.C,J4*%
X8260000Y56060000D03*
D11*
X10800000Y56060000D03*
X8260000Y53520000D03*
X10800000Y53520000D03*
X8260000Y50980000D03*
X10800000Y50980000D03*
X8260000Y48440000D03*
X10800000Y48440000D03*
X8260000Y45900000D03*
X10800000Y45900000D03*
X8260000Y43360000D03*
X10800000Y43360000D03*
X8260000Y40820000D03*
X10800000Y40820000D03*
X8260000Y38280000D03*
X10800000Y38280000D03*
X8260000Y35740000D03*
X10800000Y35740000D03*
X8260000Y33200000D03*
X10800000Y33200000D03*
X8260000Y30660000D03*
X10800000Y30660000D03*
X8260000Y28120000D03*
X10800000Y28120000D03*
X8260000Y25580000D03*
X10800000Y25580000D03*
X8260000Y23040000D03*
X10800000Y23040000D03*
X8260000Y20500000D03*
X10800000Y20500000D03*
X8260000Y17960000D03*
X10800000Y17960000D03*
X8260000Y15420000D03*
X10800000Y15420000D03*
X8260000Y12880000D03*
X10800000Y12880000D03*
X8260000Y10340000D03*
X10800000Y10340000D03*
X8260000Y7800000D03*
X10800000Y7800000D03*
%TD*%
D10*
%TO.C,J5*%
X22250000Y58200000D03*
D11*
X24790000Y58200000D03*
X27330000Y58200000D03*
X29870000Y58200000D03*
X32410000Y58200000D03*
X34950000Y58200000D03*
%TD*%
M02*
