%TF.GenerationSoftware,KiCad,Pcbnew,9.0.0-1.fc41*%
%TF.CreationDate,2025-03-28T10:43:55+08:00*%
%TF.ProjectId,st77xxlcd,73743737-7878-46c6-9364-2e6b69636164,V1.0.0*%
%TF.SameCoordinates,PX413b380PY77f8e40*%
%TF.FileFunction,Copper,L1,Top*%
%TF.FilePolarity,Positive*%
%FSLAX46Y46*%
G04 Gerber Fmt 4.6, Leading zero omitted, Abs format (unit mm)*
G04 Created by KiCad (PCBNEW 9.0.0-1.fc41) date 2025-03-28 10:43:55*
%MOMM*%
%LPD*%
G01*
G04 APERTURE LIST*
%TA.AperFunction,ComponentPad*%
%ADD10R,1.700000X1.700000*%
%TD*%
%TA.AperFunction,ComponentPad*%
%ADD11O,1.700000X1.700000*%
%TD*%
%TA.AperFunction,SMDPad,CuDef*%
%ADD12R,2.200000X1.800000*%
%TD*%
%TA.AperFunction,SMDPad,CuDef*%
%ADD13R,1.300000X0.300000*%
%TD*%
%TA.AperFunction,ViaPad*%
%ADD14C,0.600000*%
%TD*%
%TA.AperFunction,Conductor*%
%ADD15C,0.200000*%
%TD*%
G04 APERTURE END LIST*
D10*
%TO.P,J7,1,Pin_1*%
%TO.N,GND*%
X43800000Y23840000D03*
D11*
%TO.P,J7,2,Pin_2*%
X43800000Y21300000D03*
%TD*%
D12*
%TO.P,J1,MP,MountPin*%
%TO.N,GND*%
X60950000Y53750000D03*
X60950000Y30450000D03*
D13*
%TO.P,J1,40,Pin_40*%
%TO.N,Net-(J1-Pin_40)*%
X57700000Y51850000D03*
%TO.P,J1,39,Pin_39*%
%TO.N,Net-(J1-Pin_39)*%
X57700000Y51350000D03*
%TO.P,J1,38,Pin_38*%
%TO.N,Net-(J1-Pin_38)*%
X57700000Y50850000D03*
%TO.P,J1,37,Pin_37*%
%TO.N,Net-(J1-Pin_37)*%
X57700000Y50350000D03*
%TO.P,J1,36,Pin_36*%
%TO.N,Net-(J1-Pin_36)*%
X57700000Y49850000D03*
%TO.P,J1,35,Pin_35*%
%TO.N,Net-(J1-Pin_35)*%
X57700000Y49350000D03*
%TO.P,J1,34,Pin_34*%
%TO.N,Net-(J1-Pin_34)*%
X57700000Y48850000D03*
%TO.P,J1,33,Pin_33*%
%TO.N,Net-(J1-Pin_33)*%
X57700000Y48350000D03*
%TO.P,J1,32,Pin_32*%
%TO.N,Net-(J1-Pin_32)*%
X57700000Y47850000D03*
%TO.P,J1,31,Pin_31*%
%TO.N,Net-(J1-Pin_31)*%
X57700000Y47350000D03*
%TO.P,J1,30,Pin_30*%
%TO.N,Net-(J1-Pin_30)*%
X57700000Y46850000D03*
%TO.P,J1,29,Pin_29*%
%TO.N,Net-(J1-Pin_29)*%
X57700000Y46350000D03*
%TO.P,J1,28,Pin_28*%
%TO.N,Net-(J1-Pin_28)*%
X57700000Y45850000D03*
%TO.P,J1,27,Pin_27*%
%TO.N,Net-(J1-Pin_27)*%
X57700000Y45350000D03*
%TO.P,J1,26,Pin_26*%
%TO.N,Net-(J1-Pin_26)*%
X57700000Y44850000D03*
%TO.P,J1,25,Pin_25*%
%TO.N,Net-(J1-Pin_25)*%
X57700000Y44350000D03*
%TO.P,J1,24,Pin_24*%
%TO.N,Net-(J1-Pin_24)*%
X57700000Y43850000D03*
%TO.P,J1,23,Pin_23*%
%TO.N,Net-(J1-Pin_23)*%
X57700000Y43350000D03*
%TO.P,J1,22,Pin_22*%
%TO.N,Net-(J1-Pin_22)*%
X57700000Y42850000D03*
%TO.P,J1,21,Pin_21*%
%TO.N,Net-(J1-Pin_21)*%
X57700000Y42350000D03*
%TO.P,J1,20,Pin_20*%
%TO.N,Net-(J1-Pin_20)*%
X57700000Y41850000D03*
%TO.P,J1,19,Pin_19*%
%TO.N,Net-(J1-Pin_19)*%
X57700000Y41350000D03*
%TO.P,J1,18,Pin_18*%
%TO.N,Net-(J1-Pin_18)*%
X57700000Y40850000D03*
%TO.P,J1,17,Pin_17*%
%TO.N,Net-(J1-Pin_17)*%
X57700000Y40350000D03*
%TO.P,J1,16,Pin_16*%
%TO.N,Net-(J1-Pin_16)*%
X57700000Y39850000D03*
%TO.P,J1,15,Pin_15*%
%TO.N,Net-(J1-Pin_15)*%
X57700000Y39350000D03*
%TO.P,J1,14,Pin_14*%
%TO.N,Net-(J1-Pin_14)*%
X57700000Y38850000D03*
%TO.P,J1,13,Pin_13*%
%TO.N,Net-(J1-Pin_13)*%
X57700000Y38350000D03*
%TO.P,J1,12,Pin_12*%
%TO.N,Net-(J1-Pin_12)*%
X57700000Y37850000D03*
%TO.P,J1,11,Pin_11*%
%TO.N,Net-(J1-Pin_11)*%
X57700000Y37350000D03*
%TO.P,J1,10,Pin_10*%
%TO.N,Net-(J1-Pin_10)*%
X57700000Y36850000D03*
%TO.P,J1,9,Pin_9*%
%TO.N,Net-(J1-Pin_9)*%
X57700000Y36350000D03*
%TO.P,J1,8,Pin_8*%
%TO.N,Net-(J1-Pin_8)*%
X57700000Y35850000D03*
%TO.P,J1,7,Pin_7*%
%TO.N,Net-(J1-Pin_7)*%
X57700000Y35350000D03*
%TO.P,J1,6,Pin_6*%
%TO.N,Net-(J1-Pin_6)*%
X57700000Y34850000D03*
%TO.P,J1,5,Pin_5*%
%TO.N,Net-(J1-Pin_5)*%
X57700000Y34350000D03*
%TO.P,J1,4,Pin_4*%
%TO.N,Net-(J1-Pin_4)*%
X57700000Y33850000D03*
%TO.P,J1,3,Pin_3*%
%TO.N,Net-(J1-Pin_3)*%
X57700000Y33350000D03*
%TO.P,J1,2,Pin_2*%
%TO.N,Net-(J1-Pin_2)*%
X57700000Y32850000D03*
%TO.P,J1,1,Pin_1*%
%TO.N,Net-(J1-Pin_1)*%
X57700000Y32350000D03*
%TD*%
D10*
%TO.P,J6,1,Pin_1*%
%TO.N,Net-(J3-Pin_1)*%
X61620000Y2200000D03*
D11*
%TO.P,J6,2,Pin_2*%
%TO.N,Net-(J3-Pin_2)*%
X59080000Y2200000D03*
%TO.P,J6,3,Pin_3*%
%TO.N,Net-(J3-Pin_3)*%
X56540000Y2200000D03*
%TO.P,J6,4,Pin_4*%
%TO.N,Net-(J3-Pin_4)*%
X54000000Y2200000D03*
%TO.P,J6,5,Pin_5*%
%TO.N,Net-(J3-Pin_5)*%
X51460000Y2200000D03*
%TO.P,J6,6,Pin_6*%
%TO.N,Net-(J3-Pin_6)*%
X48920000Y2200000D03*
%TO.P,J6,7,Pin_7*%
%TO.N,Net-(J3-Pin_7)*%
X46380000Y2200000D03*
%TO.P,J6,8,Pin_8*%
%TO.N,Net-(J3-Pin_8)*%
X43840000Y2200000D03*
%TO.P,J6,9,Pin_9*%
%TO.N,Net-(J3-Pin_9)*%
X41300000Y2200000D03*
%TO.P,J6,10,Pin_10*%
%TO.N,Net-(J3-Pin_10)*%
X38760000Y2200000D03*
%TO.P,J6,11,Pin_11*%
%TO.N,Net-(J3-Pin_11)*%
X36220000Y2200000D03*
%TO.P,J6,12,Pin_12*%
%TO.N,Net-(J3-Pin_12)*%
X33680000Y2200000D03*
%TO.P,J6,13,Pin_13*%
%TO.N,Net-(J3-Pin_13)*%
X31140000Y2200000D03*
%TO.P,J6,14,Pin_14*%
%TO.N,Net-(J3-Pin_14)*%
X28600000Y2200000D03*
%TO.P,J6,15,Pin_15*%
%TO.N,Net-(J3-Pin_15)*%
X26060000Y2200000D03*
%TO.P,J6,16,Pin_16*%
%TO.N,Net-(J3-Pin_16)*%
X23520000Y2200000D03*
%TO.P,J6,17,Pin_17*%
%TO.N,Net-(J3-Pin_17)*%
X20980000Y2200000D03*
%TO.P,J6,18,Pin_18*%
%TO.N,Net-(J3-Pin_18)*%
X18440000Y2200000D03*
%TO.P,J6,19,Pin_19*%
%TO.N,Net-(J3-Pin_19)*%
X15900000Y2200000D03*
%TO.P,J6,20,Pin_20*%
%TO.N,Net-(J3-Pin_20)*%
X13360000Y2200000D03*
%TO.P,J6,21,Pin_21*%
%TO.N,Net-(J3-Pin_21)*%
X10820000Y2200000D03*
%TO.P,J6,22,Pin_22*%
%TO.N,Net-(J3-Pin_22)*%
X8280000Y2200000D03*
%TO.P,J6,23,Pin_23*%
%TO.N,Net-(J3-Pin_23)*%
X5740000Y2200000D03*
%TO.P,J6,24,Pin_24*%
%TO.N,Net-(J3-Pin_24)*%
X3200000Y2200000D03*
%TD*%
D13*
%TO.P,J3,1,Pin_1*%
%TO.N,Net-(J3-Pin_1)*%
X62125000Y9350000D03*
%TO.P,J3,2,Pin_2*%
%TO.N,Net-(J3-Pin_2)*%
X62125000Y9850000D03*
%TO.P,J3,3,Pin_3*%
%TO.N,Net-(J3-Pin_3)*%
X62125000Y10350000D03*
%TO.P,J3,4,Pin_4*%
%TO.N,Net-(J3-Pin_4)*%
X62125000Y10850000D03*
%TO.P,J3,5,Pin_5*%
%TO.N,Net-(J3-Pin_5)*%
X62125000Y11350000D03*
%TO.P,J3,6,Pin_6*%
%TO.N,Net-(J3-Pin_6)*%
X62125000Y11850000D03*
%TO.P,J3,7,Pin_7*%
%TO.N,Net-(J3-Pin_7)*%
X62125000Y12350000D03*
%TO.P,J3,8,Pin_8*%
%TO.N,Net-(J3-Pin_8)*%
X62125000Y12850000D03*
%TO.P,J3,9,Pin_9*%
%TO.N,Net-(J3-Pin_9)*%
X62125000Y13350000D03*
%TO.P,J3,10,Pin_10*%
%TO.N,Net-(J3-Pin_10)*%
X62125000Y13850000D03*
%TO.P,J3,11,Pin_11*%
%TO.N,Net-(J3-Pin_11)*%
X62125000Y14350000D03*
%TO.P,J3,12,Pin_12*%
%TO.N,Net-(J3-Pin_12)*%
X62125000Y14850000D03*
%TO.P,J3,13,Pin_13*%
%TO.N,Net-(J3-Pin_13)*%
X62125000Y15350000D03*
%TO.P,J3,14,Pin_14*%
%TO.N,Net-(J3-Pin_14)*%
X62125000Y15850000D03*
%TO.P,J3,15,Pin_15*%
%TO.N,Net-(J3-Pin_15)*%
X62125000Y16350000D03*
%TO.P,J3,16,Pin_16*%
%TO.N,Net-(J3-Pin_16)*%
X62125000Y16850000D03*
%TO.P,J3,17,Pin_17*%
%TO.N,Net-(J3-Pin_17)*%
X62125000Y17350000D03*
%TO.P,J3,18,Pin_18*%
%TO.N,Net-(J3-Pin_18)*%
X62125000Y17850000D03*
%TO.P,J3,19,Pin_19*%
%TO.N,Net-(J3-Pin_19)*%
X62125000Y18350000D03*
%TO.P,J3,20,Pin_20*%
%TO.N,Net-(J3-Pin_20)*%
X62125000Y18850000D03*
%TO.P,J3,21,Pin_21*%
%TO.N,Net-(J3-Pin_21)*%
X62125000Y19350000D03*
%TO.P,J3,22,Pin_22*%
%TO.N,Net-(J3-Pin_22)*%
X62125000Y19850000D03*
%TO.P,J3,23,Pin_23*%
%TO.N,Net-(J3-Pin_23)*%
X62125000Y20350000D03*
%TO.P,J3,24,Pin_24*%
%TO.N,Net-(J3-Pin_24)*%
X62125000Y20850000D03*
D12*
%TO.P,J3,MP,MountPin*%
%TO.N,GND*%
X65375000Y7450000D03*
X65375000Y22750000D03*
%TD*%
D13*
%TO.P,J2,1,Pin_1*%
%TO.N,Net-(J2-Pin_1)*%
X42125000Y54160000D03*
%TO.P,J2,2,Pin_2*%
%TO.N,Net-(J2-Pin_2)*%
X42125000Y54660000D03*
%TO.P,J2,3,Pin_3*%
%TO.N,Net-(J2-Pin_3)*%
X42125000Y55160000D03*
%TO.P,J2,4,Pin_4*%
%TO.N,Net-(J2-Pin_4)*%
X42125000Y55660000D03*
%TO.P,J2,5,Pin_5*%
%TO.N,Net-(J2-Pin_5)*%
X42125000Y56160000D03*
%TO.P,J2,6,Pin_6*%
%TO.N,Net-(J2-Pin_6)*%
X42125000Y56660000D03*
D12*
%TO.P,J2,MP,MountPin*%
%TO.N,GND*%
X45375000Y52260000D03*
X45375000Y58560000D03*
%TD*%
D10*
%TO.P,J4,1,Pin_1*%
%TO.N,Net-(J1-Pin_40)*%
X8260000Y56060000D03*
D11*
%TO.P,J4,2,Pin_2*%
%TO.N,Net-(J1-Pin_39)*%
X10800000Y56060000D03*
%TO.P,J4,3,Pin_3*%
%TO.N,Net-(J1-Pin_38)*%
X8260000Y53520000D03*
%TO.P,J4,4,Pin_4*%
%TO.N,Net-(J1-Pin_37)*%
X10800000Y53520000D03*
%TO.P,J4,5,Pin_5*%
%TO.N,Net-(J1-Pin_36)*%
X8260000Y50980000D03*
%TO.P,J4,6,Pin_6*%
%TO.N,Net-(J1-Pin_35)*%
X10800000Y50980000D03*
%TO.P,J4,7,Pin_7*%
%TO.N,Net-(J1-Pin_34)*%
X8260000Y48440000D03*
%TO.P,J4,8,Pin_8*%
%TO.N,Net-(J1-Pin_33)*%
X10800000Y48440000D03*
%TO.P,J4,9,Pin_9*%
%TO.N,Net-(J1-Pin_32)*%
X8260000Y45900000D03*
%TO.P,J4,10,Pin_10*%
%TO.N,Net-(J1-Pin_31)*%
X10800000Y45900000D03*
%TO.P,J4,11,Pin_11*%
%TO.N,Net-(J1-Pin_30)*%
X8260000Y43360000D03*
%TO.P,J4,12,Pin_12*%
%TO.N,Net-(J1-Pin_29)*%
X10800000Y43360000D03*
%TO.P,J4,13,Pin_13*%
%TO.N,Net-(J1-Pin_28)*%
X8260000Y40820000D03*
%TO.P,J4,14,Pin_14*%
%TO.N,Net-(J1-Pin_27)*%
X10800000Y40820000D03*
%TO.P,J4,15,Pin_15*%
%TO.N,Net-(J1-Pin_26)*%
X8260000Y38280000D03*
%TO.P,J4,16,Pin_16*%
%TO.N,Net-(J1-Pin_25)*%
X10800000Y38280000D03*
%TO.P,J4,17,Pin_17*%
%TO.N,Net-(J1-Pin_24)*%
X8260000Y35740000D03*
%TO.P,J4,18,Pin_18*%
%TO.N,Net-(J1-Pin_23)*%
X10800000Y35740000D03*
%TO.P,J4,19,Pin_19*%
%TO.N,Net-(J1-Pin_22)*%
X8260000Y33200000D03*
%TO.P,J4,20,Pin_20*%
%TO.N,Net-(J1-Pin_21)*%
X10800000Y33200000D03*
%TO.P,J4,21,Pin_21*%
%TO.N,Net-(J1-Pin_20)*%
X8260000Y30660000D03*
%TO.P,J4,22,Pin_22*%
%TO.N,Net-(J1-Pin_19)*%
X10800000Y30660000D03*
%TO.P,J4,23,Pin_23*%
%TO.N,Net-(J1-Pin_18)*%
X8260000Y28120000D03*
%TO.P,J4,24,Pin_24*%
%TO.N,Net-(J1-Pin_17)*%
X10800000Y28120000D03*
%TO.P,J4,25,Pin_25*%
%TO.N,Net-(J1-Pin_16)*%
X8260000Y25580000D03*
%TO.P,J4,26,Pin_26*%
%TO.N,Net-(J1-Pin_15)*%
X10800000Y25580000D03*
%TO.P,J4,27,Pin_27*%
%TO.N,Net-(J1-Pin_14)*%
X8260000Y23040000D03*
%TO.P,J4,28,Pin_28*%
%TO.N,Net-(J1-Pin_13)*%
X10800000Y23040000D03*
%TO.P,J4,29,Pin_29*%
%TO.N,Net-(J1-Pin_12)*%
X8260000Y20500000D03*
%TO.P,J4,30,Pin_30*%
%TO.N,Net-(J1-Pin_11)*%
X10800000Y20500000D03*
%TO.P,J4,31,Pin_31*%
%TO.N,Net-(J1-Pin_10)*%
X8260000Y17960000D03*
%TO.P,J4,32,Pin_32*%
%TO.N,Net-(J1-Pin_9)*%
X10800000Y17960000D03*
%TO.P,J4,33,Pin_33*%
%TO.N,Net-(J1-Pin_8)*%
X8260000Y15420000D03*
%TO.P,J4,34,Pin_34*%
%TO.N,Net-(J1-Pin_7)*%
X10800000Y15420000D03*
%TO.P,J4,35,Pin_35*%
%TO.N,Net-(J1-Pin_6)*%
X8260000Y12880000D03*
%TO.P,J4,36,Pin_36*%
%TO.N,Net-(J1-Pin_5)*%
X10800000Y12880000D03*
%TO.P,J4,37,Pin_37*%
%TO.N,Net-(J1-Pin_4)*%
X8260000Y10340000D03*
%TO.P,J4,38,Pin_38*%
%TO.N,Net-(J1-Pin_3)*%
X10800000Y10340000D03*
%TO.P,J4,39,Pin_39*%
%TO.N,Net-(J1-Pin_2)*%
X8260000Y7800000D03*
%TO.P,J4,40,Pin_40*%
%TO.N,Net-(J1-Pin_1)*%
X10800000Y7800000D03*
%TD*%
D10*
%TO.P,J5,1,Pin_1*%
%TO.N,Net-(J2-Pin_1)*%
X22250000Y58200000D03*
D11*
%TO.P,J5,2,Pin_2*%
%TO.N,Net-(J2-Pin_2)*%
X24790000Y58200000D03*
%TO.P,J5,3,Pin_3*%
%TO.N,Net-(J2-Pin_3)*%
X27330000Y58200000D03*
%TO.P,J5,4,Pin_4*%
%TO.N,Net-(J2-Pin_4)*%
X29870000Y58200000D03*
%TO.P,J5,5,Pin_5*%
%TO.N,Net-(J2-Pin_5)*%
X32410000Y58200000D03*
%TO.P,J5,6,Pin_6*%
%TO.N,Net-(J2-Pin_6)*%
X34950000Y58200000D03*
%TD*%
D14*
%TO.N,GND*%
X35050000Y50350000D03*
X45400000Y55500000D03*
X21700000Y15850000D03*
X31650000Y25750000D03*
X61600000Y25800000D03*
X56600000Y25850000D03*
X46600000Y20850000D03*
X46600000Y15850000D03*
X51600000Y20850000D03*
X41650000Y20800000D03*
X36650000Y15800000D03*
X31650000Y15800000D03*
X41650000Y15750000D03*
X26600000Y20850000D03*
X26600000Y15750000D03*
X31600000Y20800000D03*
X36650000Y20800000D03*
X51650000Y30800000D03*
X46650000Y25800000D03*
X41650000Y25800000D03*
X51650000Y25750000D03*
X36600000Y30850000D03*
X36600000Y25750000D03*
X41600000Y30800000D03*
X46650000Y30800000D03*
X31650000Y10850000D03*
X76600000Y15700000D03*
X76600000Y35750000D03*
X3700000Y35950000D03*
X86600000Y40850000D03*
X21650000Y10850000D03*
X66600000Y25800000D03*
X76550000Y10800000D03*
X66550000Y5750000D03*
X71650000Y25750000D03*
X86600000Y30800000D03*
X96550000Y40750000D03*
X71650000Y45800000D03*
X91600000Y50800000D03*
X76600000Y20750000D03*
X66600000Y35800000D03*
X86600000Y50800000D03*
X66550000Y10800000D03*
X61600000Y45800000D03*
X3700000Y55850000D03*
X81600000Y5750000D03*
X96550000Y25800000D03*
X81550000Y50800000D03*
X81650000Y40750000D03*
X61650000Y35750000D03*
X71550000Y40800000D03*
X66600000Y55850000D03*
X81600000Y45800000D03*
X81550000Y30800000D03*
X61650000Y55800000D03*
X96550000Y55800000D03*
X3700000Y20800000D03*
X91600000Y5700000D03*
X76600000Y55750000D03*
X81550000Y10750000D03*
X76550000Y25750000D03*
X71600000Y10800000D03*
X66550000Y30750000D03*
X91600000Y55800000D03*
X86600000Y15700000D03*
X26650000Y10900000D03*
X71650000Y55750000D03*
X91600000Y20750000D03*
X81600000Y35800000D03*
X66600000Y15750000D03*
X3700000Y25850000D03*
X71600000Y50850000D03*
X66600000Y45800000D03*
X71650000Y5800000D03*
X91600000Y15750000D03*
X86600000Y20850000D03*
X76550000Y30850000D03*
X91600000Y35800000D03*
X91600000Y25750000D03*
X3700000Y45900000D03*
X96550000Y20750000D03*
X71650000Y15750000D03*
X71650000Y20800000D03*
X86600000Y5750000D03*
X3600000Y40900000D03*
X81600000Y25800000D03*
X56600000Y55800000D03*
X76550000Y5700000D03*
X3700000Y10850000D03*
X76600000Y40750000D03*
X3700000Y30900000D03*
X86600000Y45800000D03*
X3650000Y50950000D03*
X16700000Y10900000D03*
X71650000Y35850000D03*
X96600000Y10750000D03*
X36650000Y10900000D03*
X66700000Y50750000D03*
X86600000Y35750000D03*
X96550000Y35800000D03*
X96600000Y50800000D03*
X91600000Y45750000D03*
X81650000Y20750000D03*
X96600000Y30800000D03*
X96550000Y45800000D03*
X81600000Y55800000D03*
X86600000Y10750000D03*
X76550000Y50850000D03*
X61600000Y40800000D03*
X81600000Y15750000D03*
X76550000Y45750000D03*
X3700000Y5800000D03*
X66600000Y40800000D03*
X61600000Y50800000D03*
X96550000Y5750000D03*
X91600000Y40750000D03*
X86600000Y55750000D03*
X91600000Y10750000D03*
X66600000Y20800000D03*
X86600000Y25800000D03*
X71650000Y30800000D03*
X96550000Y15750000D03*
X3600000Y15800000D03*
X91600000Y30800000D03*
%TD*%
D15*
%TO.N,Net-(J1-Pin_1)*%
X57700000Y32350000D02*
X35350000Y32350000D01*
X35350000Y32350000D02*
X10800000Y7800000D01*
%TO.N,Net-(J1-Pin_2)*%
X57700000Y32850000D02*
X34937760Y32850000D01*
X34937760Y32850000D02*
X11276760Y9189000D01*
X11276760Y9189000D02*
X9649000Y9189000D01*
X9649000Y9189000D02*
X8260000Y7800000D01*
%TO.N,Net-(J1-Pin_3)*%
X57700000Y33350000D02*
X33810000Y33350000D01*
X33810000Y33350000D02*
X10800000Y10340000D01*
%TO.N,Net-(J1-Pin_4)*%
X57700000Y33850000D02*
X33400000Y33850000D01*
X33400000Y33850000D02*
X11041000Y11491000D01*
X11041000Y11491000D02*
X9411000Y11491000D01*
X9411000Y11491000D02*
X8260000Y10340000D01*
%TO.N,Net-(J1-Pin_5)*%
X57700000Y34350000D02*
X32270000Y34350000D01*
X32270000Y34350000D02*
X10800000Y12880000D01*
%TO.N,Net-(J1-Pin_6)*%
X57700000Y34850000D02*
X32095760Y34850000D01*
X32095760Y34850000D02*
X11276760Y14031000D01*
X11276760Y14031000D02*
X9411000Y14031000D01*
X9411000Y14031000D02*
X8260000Y12880000D01*
%TO.N,Net-(J1-Pin_7)*%
X57700000Y35350000D02*
X30730000Y35350000D01*
X30730000Y35350000D02*
X10800000Y15420000D01*
%TO.N,Net-(J1-Pin_8)*%
X57700000Y35850000D02*
X30317760Y35850000D01*
X30317760Y35850000D02*
X11217760Y16750000D01*
X11217760Y16750000D02*
X9590000Y16750000D01*
X9590000Y16750000D02*
X8260000Y15420000D01*
%TO.N,Net-(J1-Pin_9)*%
X57700000Y36350000D02*
X29190000Y36350000D01*
X29190000Y36350000D02*
X10800000Y17960000D01*
%TO.N,Net-(J1-Pin_10)*%
X57700000Y36850000D02*
X28777760Y36850000D01*
X28777760Y36850000D02*
X11038760Y19111000D01*
X11038760Y19111000D02*
X9411000Y19111000D01*
X9411000Y19111000D02*
X8260000Y17960000D01*
%TO.N,Net-(J1-Pin_11)*%
X57700000Y37350000D02*
X27650000Y37350000D01*
X27650000Y37350000D02*
X10800000Y20500000D01*
%TO.N,Net-(J1-Pin_12)*%
X57700000Y37850000D02*
X27237760Y37850000D01*
X27237760Y37850000D02*
X11276760Y21889000D01*
X11276760Y21889000D02*
X9649000Y21889000D01*
X9649000Y21889000D02*
X8260000Y20500000D01*
%TO.N,Net-(J1-Pin_13)*%
X57700000Y38350000D02*
X26110000Y38350000D01*
X26110000Y38350000D02*
X10800000Y23040000D01*
%TO.N,Net-(J1-Pin_14)*%
X57700000Y38850000D02*
X25697760Y38850000D01*
X25697760Y38850000D02*
X11038760Y24191000D01*
X11038760Y24191000D02*
X9411000Y24191000D01*
X9411000Y24191000D02*
X8260000Y23040000D01*
%TO.N,Net-(J1-Pin_16)*%
X57700000Y39850000D02*
X24157760Y39850000D01*
X24157760Y39850000D02*
X11257760Y26950000D01*
X9630000Y26950000D02*
X8260000Y25580000D01*
X11257760Y26950000D02*
X9630000Y26950000D01*
%TO.N,Net-(J1-Pin_15)*%
X57700000Y39350000D02*
X24570000Y39350000D01*
X24570000Y39350000D02*
X10800000Y25580000D01*
%TO.N,Net-(J1-Pin_17)*%
X57700000Y40350000D02*
X23030000Y40350000D01*
X23030000Y40350000D02*
X10800000Y28120000D01*
%TO.N,Net-(J1-Pin_18)*%
X57700000Y40850000D02*
X22617760Y40850000D01*
X22617760Y40850000D02*
X11038760Y29271000D01*
X11038760Y29271000D02*
X9411000Y29271000D01*
X9411000Y29271000D02*
X8260000Y28120000D01*
%TO.N,Net-(J1-Pin_19)*%
X57700000Y41350000D02*
X21490000Y41350000D01*
X21490000Y41350000D02*
X10800000Y30660000D01*
%TO.N,Net-(J1-Pin_20)*%
X57700000Y41850000D02*
X21077760Y41850000D01*
X21077760Y41850000D02*
X11038760Y31811000D01*
X11038760Y31811000D02*
X9411000Y31811000D01*
X9411000Y31811000D02*
X8260000Y30660000D01*
%TO.N,Net-(J1-Pin_21)*%
X57700000Y42350000D02*
X19950000Y42350000D01*
X19950000Y42350000D02*
X10800000Y33200000D01*
%TO.N,Net-(J1-Pin_22)*%
X57700000Y42850000D02*
X19775760Y42850000D01*
X19775760Y42850000D02*
X11276760Y34351000D01*
X11276760Y34351000D02*
X9411000Y34351000D01*
X9411000Y34351000D02*
X8260000Y33200000D01*
%TO.N,Net-(J1-Pin_23)*%
X57700000Y43350000D02*
X18410000Y43350000D01*
X18410000Y43350000D02*
X10800000Y35740000D01*
%TO.N,Net-(J1-Pin_24)*%
X57700000Y43850000D02*
X17997760Y43850000D01*
X17997760Y43850000D02*
X11038760Y36891000D01*
X11038760Y36891000D02*
X9411000Y36891000D01*
X9411000Y36891000D02*
X8260000Y35740000D01*
%TO.N,Net-(J1-Pin_25)*%
X57700000Y44350000D02*
X16870000Y44350000D01*
X16870000Y44350000D02*
X10800000Y38280000D01*
%TO.N,Net-(J1-Pin_26)*%
X16803000Y44853400D02*
X11599600Y39650000D01*
X11599600Y39650000D02*
X9630000Y39650000D01*
X9630000Y39650000D02*
X8260000Y38280000D01*
%TO.N,Net-(J1-Pin_27)*%
X57700000Y45350000D02*
X15330000Y45350000D01*
X15330000Y45350000D02*
X10800000Y40820000D01*
%TO.N,Net-(J1-Pin_28)*%
X8260000Y40820000D02*
X9530000Y42090000D01*
X9530000Y42090000D02*
X11390000Y42090000D01*
X11390000Y42090000D02*
X15150000Y45850000D01*
X15150000Y45850000D02*
X57700000Y45850000D01*
%TO.N,Net-(J1-Pin_29)*%
X57700000Y46350000D02*
X13790000Y46350000D01*
X13790000Y46350000D02*
X10800000Y43360000D01*
%TO.N,Net-(J1-Pin_30)*%
X8260000Y43360000D02*
X9411700Y44511700D01*
X9411700Y44511700D02*
X11040500Y44511700D01*
X11040500Y44511700D02*
X13378800Y46850000D01*
X13378800Y46850000D02*
X57700000Y46850000D01*
%TO.N,Net-(J1-Pin_31)*%
X10800000Y45900000D02*
X12250000Y47350000D01*
X12250000Y47350000D02*
X57700000Y47350000D01*
%TO.N,Net-(J1-Pin_32)*%
X57700000Y47850000D02*
X56748000Y47850000D01*
X56748000Y47850000D02*
X56743000Y47844700D01*
X56743000Y47844700D02*
X12044700Y47844700D01*
X12044700Y47844700D02*
X11251700Y47051700D01*
X11251700Y47051700D02*
X9411700Y47051700D01*
X9411700Y47051700D02*
X8260000Y45900000D01*
%TO.N,Net-(J1-Pin_33)*%
X10800000Y48440000D02*
X42192900Y48440000D01*
X47764041Y48247100D02*
X47764100Y48247100D01*
X42192900Y48440000D02*
X42385800Y48247100D01*
X42385800Y48247100D02*
X42718000Y48247100D01*
X42718000Y48247100D02*
X47595850Y48247100D01*
X47764000Y48247059D02*
X47764041Y48247100D01*
X47595850Y48247100D02*
X47764000Y48247059D01*
X47764100Y48247100D02*
X47867500Y48350500D01*
X47867500Y48350500D02*
X47868000Y48350000D01*
X47868000Y48350000D02*
X57700000Y48350000D01*
%TO.N,Net-(J1-Pin_34)*%
X8260000Y48440000D02*
X9422500Y49602500D01*
X9422500Y49602500D02*
X41597500Y49602500D01*
X41597500Y49602500D02*
X42551900Y48648100D01*
X42551900Y48648100D02*
X47598000Y48648100D01*
X47598000Y48648100D02*
X47800000Y48850000D01*
X47800000Y48850000D02*
X57700000Y48850000D01*
%TO.N,Net-(J1-Pin_38)*%
X8260000Y53520000D02*
X9421600Y54681600D01*
X9421600Y54681600D02*
X22740300Y54681600D01*
X24647500Y52774400D02*
X41124000Y52774400D01*
X22740300Y54681600D02*
X24647500Y52774400D01*
X41124000Y52774400D02*
X43644000Y50254900D01*
X43644000Y50254900D02*
X46933000Y50254900D01*
X46933000Y50254900D02*
X47528100Y50850000D01*
X47528100Y50850000D02*
X57700000Y50850000D01*
%TO.N,Net-(J1-Pin_36)*%
X8260000Y50980000D02*
X9421600Y52141600D01*
X47265000Y49451500D02*
X47663500Y49850000D01*
X9421600Y52141600D02*
X24145200Y52141600D01*
X24145200Y52141600D02*
X24315100Y51971700D01*
X24315100Y51971700D02*
X40790800Y51971700D01*
X40790800Y51971700D02*
X43311000Y49451500D01*
X43311000Y49451500D02*
X47265000Y49451500D01*
X47663500Y49850000D02*
X57700000Y49850000D01*
%TO.N,Net-(J1-Pin_35)*%
X10800000Y50980000D02*
X40868800Y50980000D01*
X40868800Y50980000D02*
X42799000Y49049800D01*
X42799000Y49049800D02*
X47432000Y49049800D01*
X47432000Y49049800D02*
X47732000Y49350000D01*
X47732000Y49350000D02*
X57700000Y49350000D01*
%TO.N,Net-(J1-Pin_37)*%
X10800000Y53520000D02*
X23333900Y53520000D01*
X40958000Y52372700D02*
X42335000Y50995700D01*
X23333900Y53520000D02*
X24481200Y52372700D01*
X24481200Y52372700D02*
X40958000Y52372700D01*
X47099000Y49853200D02*
X47595800Y50350000D01*
X42335000Y50995700D02*
X43477000Y49853200D01*
X43477000Y49853200D02*
X47099000Y49853200D01*
X47595800Y50350000D02*
X57700000Y50350000D01*
%TO.N,Net-(J1-Pin_40)*%
X8260000Y56060000D02*
X9468700Y57268700D01*
X9468700Y57268700D02*
X20751800Y57268700D01*
X22223900Y56500000D02*
X25146100Y53577800D01*
X20751800Y57268700D02*
X21520500Y56500000D01*
X21520500Y56500000D02*
X22223900Y56500000D01*
X25146100Y53577800D02*
X41457000Y53577800D01*
X41457000Y53577800D02*
X43976000Y51058300D01*
X43976000Y51058300D02*
X46600000Y51058300D01*
X46600000Y51058300D02*
X47391700Y51850000D01*
X47391700Y51850000D02*
X57700000Y51850000D01*
%TO.N,Net-(J1-Pin_39)*%
X10800000Y56060000D02*
X21930000Y56060000D01*
X21930000Y56060000D02*
X24813900Y53176100D01*
X46766000Y50656600D02*
X47459400Y51350000D01*
X24813900Y53176100D02*
X41290000Y53176100D01*
X41290000Y53176100D02*
X43810000Y50656600D01*
X43810000Y50656600D02*
X46766000Y50656600D01*
X47459400Y51350000D02*
X57700000Y51350000D01*
%TO.N,GND*%
X60950000Y30450000D02*
X60950000Y29849200D01*
X60950000Y53750000D02*
X60950000Y53449600D01*
%TO.N,Net-(J1-Pin_26)*%
X56748000Y44850000D02*
X56745000Y44853400D01*
X57700000Y44850000D02*
X56748000Y44850000D01*
X56745000Y44853400D02*
X16803000Y44853400D01*
%TO.N,Net-(J2-Pin_5)*%
X34450000Y56160000D02*
X32410000Y58200000D01*
X42125000Y56160000D02*
X34450000Y56160000D01*
%TO.N,Net-(J2-Pin_2)*%
X42125000Y54660000D02*
X28330000Y54660000D01*
X28330000Y54660000D02*
X24790000Y58200000D01*
%TO.N,Net-(J2-Pin_3)*%
X42125000Y55160000D02*
X30370000Y55160000D01*
X30370000Y55160000D02*
X27330000Y58200000D01*
%TO.N,Net-(J2-Pin_6)*%
X42125000Y56660000D02*
X36490000Y56660000D01*
X36490000Y56660000D02*
X34950000Y58200000D01*
%TO.N,Net-(J2-Pin_1)*%
X26290000Y54160000D02*
X22250000Y58200000D01*
X42125000Y54160000D02*
X26290000Y54160000D01*
%TO.N,Net-(J2-Pin_4)*%
X42125000Y55660000D02*
X32410000Y55660000D01*
X32410000Y55660000D02*
X29870000Y58200000D01*
%TO.N,Net-(J3-Pin_17)*%
X29012900Y6287000D02*
X29247800Y6522000D01*
X51011000Y9211000D02*
X59150000Y17350000D01*
X26812900Y6060000D02*
X26993900Y6241000D01*
X26993900Y6241000D02*
X28966800Y6241000D01*
X40697000Y8107000D02*
X48589000Y8107000D01*
X31297000Y6598000D02*
X31531900Y6833000D01*
X40228000Y7637000D02*
X40462000Y7872000D01*
X40462000Y7872000D02*
X40697000Y8107000D01*
X28966800Y6241000D02*
X29012900Y6287000D01*
X31531900Y6833000D02*
X31767000Y7068000D01*
X24840000Y6060000D02*
X26812900Y6060000D01*
X49693000Y9211000D02*
X51011000Y9211000D01*
X31220700Y6522000D02*
X31297000Y6598000D01*
X35948000Y7303000D02*
X36050000Y7405000D01*
X29247800Y6522000D02*
X31220700Y6522000D01*
X39995000Y7405000D02*
X40228000Y7637000D01*
X31767000Y7068000D02*
X32002000Y7303000D01*
X20980000Y2200000D02*
X24840000Y6060000D01*
X36050000Y7405000D02*
X39995000Y7405000D01*
X59150000Y17350000D02*
X62125000Y17350000D01*
X32002000Y7303000D02*
X35948000Y7303000D01*
X48589000Y8107000D02*
X49693000Y9211000D01*
%TO.N,Net-(J3-Pin_15)*%
X59450000Y16350000D02*
X51509000Y8409000D01*
X32099000Y6266000D02*
X31552900Y5720000D01*
X49086000Y7469000D02*
X48921000Y7305000D01*
X32334000Y6501000D02*
X32099000Y6266000D01*
X36382000Y6603000D02*
X36280000Y6501000D01*
X62125000Y16350000D02*
X59450000Y16350000D01*
X50025000Y8409000D02*
X49320000Y7704000D01*
X31552900Y5720000D02*
X29580000Y5720000D01*
X29580000Y5720000D02*
X26060000Y2200000D01*
X40328000Y6603000D02*
X36382000Y6603000D01*
X49320000Y7704000D02*
X49086000Y7469000D01*
X41030000Y7305000D02*
X40328000Y6603000D01*
X51509000Y8409000D02*
X50025000Y8409000D01*
X48921000Y7305000D02*
X41030000Y7305000D01*
X36280000Y6501000D02*
X32334000Y6501000D01*
%TO.N,Net-(J3-Pin_9)*%
X43952000Y4852000D02*
X41300000Y2200000D01*
X60450000Y13350000D02*
X53103000Y6003000D01*
X53103000Y6003000D02*
X51022000Y6003000D01*
X49871000Y4852000D02*
X43952000Y4852000D01*
X51022000Y6003000D02*
X49871000Y4852000D01*
X62125000Y13350000D02*
X60450000Y13350000D01*
%TO.N,Net-(J3-Pin_24)*%
X27804100Y9048000D02*
X25831200Y9048000D01*
X17265600Y8374000D02*
X17030700Y8139000D01*
X25650200Y8867000D02*
X23677300Y8867000D01*
X39535000Y10914000D02*
X38833000Y10212000D01*
X34887000Y10212000D02*
X34785000Y10110000D01*
X48530000Y12018000D02*
X48060000Y11548000D01*
X19369500Y8505000D02*
X19238500Y8374000D01*
X38833000Y10212000D02*
X34887000Y10212000D01*
X23442400Y8632000D02*
X23315300Y8505000D01*
X47826000Y11313000D02*
X47591000Y11078000D01*
X48060000Y11548000D02*
X47826000Y11313000D01*
X28085100Y9329000D02*
X27850200Y9094000D01*
X27850200Y9094000D02*
X27804100Y9048000D01*
X23677300Y8867000D02*
X23442400Y8632000D01*
X17030700Y8139000D02*
X16894600Y8003000D01*
X47591000Y11078000D02*
X47426000Y10914000D01*
X19238500Y8374000D02*
X17265600Y8374000D01*
X16894600Y8003000D02*
X15701700Y8003000D01*
X30134300Y9405000D02*
X30058000Y9329000D01*
X49118000Y12018000D02*
X48530000Y12018000D01*
X23315300Y8505000D02*
X19369500Y8505000D01*
X25831200Y9048000D02*
X25650200Y8867000D01*
X12098700Y4400000D02*
X5400000Y4400000D01*
X47426000Y10914000D02*
X39535000Y10914000D01*
X34785000Y10110000D02*
X30839000Y10110000D01*
X62125000Y20850000D02*
X57950000Y20850000D01*
X30839000Y10110000D02*
X30134300Y9405000D01*
X5400000Y4400000D02*
X3200000Y2200000D01*
X15701700Y8003000D02*
X14997000Y7298000D01*
X30058000Y9329000D02*
X28085100Y9329000D01*
X57950000Y20850000D02*
X49118000Y12018000D01*
X14997000Y7298000D02*
X12098700Y4400000D01*
%TO.N,Net-(J3-Pin_1)*%
X62125000Y2705000D02*
X61620000Y2200000D01*
X62125000Y9350000D02*
X62125000Y2705000D01*
%TO.N,Net-(J3-Pin_18)*%
X40531000Y8508000D02*
X39829000Y7806000D01*
X35781000Y7704000D02*
X31836000Y7704000D01*
X62125000Y17850000D02*
X59050000Y17850000D01*
X24092900Y5880000D02*
X22120000Y5880000D01*
X35883000Y7806000D02*
X35781000Y7704000D01*
X22120000Y5880000D02*
X18440000Y2200000D01*
X26646800Y6461000D02*
X24673900Y6461000D01*
X31054600Y6923000D02*
X29081700Y6923000D01*
X31836000Y7704000D02*
X31054600Y6923000D01*
X59050000Y17850000D02*
X50812000Y9612000D01*
X28800700Y6642000D02*
X26827800Y6642000D01*
X49527000Y9612000D02*
X48423000Y8508000D01*
X48423000Y8508000D02*
X40531000Y8508000D01*
X24673900Y6461000D02*
X24092900Y5880000D01*
X50812000Y9612000D02*
X49527000Y9612000D01*
X29081700Y6923000D02*
X28800700Y6642000D01*
X26827800Y6642000D02*
X26646800Y6461000D01*
X39829000Y7806000D02*
X35883000Y7806000D01*
%TO.N,Net-(J3-Pin_16)*%
X29179000Y5886000D02*
X29132900Y5840000D01*
X36216000Y7004000D02*
X36114000Y6902000D01*
X31698000Y6432000D02*
X31386800Y6121000D01*
X36114000Y6902000D02*
X32168000Y6902000D01*
X48755000Y7706000D02*
X40863000Y7706000D01*
X31386800Y6121000D02*
X29413900Y6121000D01*
X51210000Y8810000D02*
X49859000Y8810000D01*
X59250000Y16850000D02*
X51210000Y8810000D01*
X62125000Y16850000D02*
X59250000Y16850000D01*
X49859000Y8810000D02*
X48755000Y7706000D01*
X29132900Y5840000D02*
X27160000Y5840000D01*
X40628000Y7471000D02*
X40394000Y7236000D01*
X40863000Y7706000D02*
X40628000Y7471000D01*
X29413900Y6121000D02*
X29179000Y5886000D01*
X27160000Y5840000D02*
X23520000Y2200000D01*
X32168000Y6902000D02*
X31698000Y6432000D01*
X40161000Y7004000D02*
X36216000Y7004000D01*
X40394000Y7236000D02*
X40161000Y7004000D01*
%TO.N,Net-(J3-Pin_4)*%
X62125000Y10850000D02*
X61089000Y10850000D01*
X61089000Y10850000D02*
X54000000Y3761000D01*
X54000000Y3761000D02*
X54000000Y2200000D01*
%TO.N,Net-(J3-Pin_5)*%
X51800000Y2200000D02*
X51460000Y2200000D01*
X62125000Y11350000D02*
X60950000Y11350000D01*
X60950000Y11350000D02*
X51800000Y2200000D01*
%TO.N,Net-(J3-Pin_19)*%
X30888500Y7324000D02*
X28915600Y7324000D01*
X26661700Y7043000D02*
X26480700Y6862000D01*
X24272900Y6627000D02*
X24145800Y6500000D01*
X40365000Y8909000D02*
X39663000Y8207000D01*
X39663000Y8207000D02*
X35717000Y8207000D01*
X35615000Y8105000D02*
X31670000Y8105000D01*
X62125000Y18350000D02*
X58950000Y18350000D01*
X31670000Y8105000D02*
X31434600Y7870000D01*
X28634600Y7043000D02*
X26661700Y7043000D01*
X35717000Y8207000D02*
X35615000Y8105000D01*
X26480700Y6862000D02*
X24507800Y6862000D01*
X49361000Y10013000D02*
X48257000Y8909000D01*
X48257000Y8909000D02*
X40365000Y8909000D01*
X20200000Y6500000D02*
X15900000Y2200000D01*
X31434600Y7870000D02*
X30888500Y7324000D01*
X28680700Y7089000D02*
X28634600Y7043000D01*
X50613000Y10013000D02*
X49361000Y10013000D01*
X24145800Y6500000D02*
X20200000Y6500000D01*
X58950000Y18350000D02*
X50613000Y10013000D01*
X24507800Y6862000D02*
X24272900Y6627000D01*
X28915600Y7324000D02*
X28680700Y7089000D01*
%TO.N,Net-(J3-Pin_8)*%
X50037000Y4451000D02*
X46091000Y4451000D01*
X53302000Y5602000D02*
X51188000Y5602000D01*
X46091000Y4451000D02*
X43840000Y2200000D01*
X51188000Y5602000D02*
X50037000Y4451000D01*
X60550000Y12850000D02*
X53302000Y5602000D01*
X62125000Y12850000D02*
X60550000Y12850000D01*
%TO.N,Net-(J3-Pin_22)*%
X16033900Y7201000D02*
X15799000Y6966000D01*
X12366800Y3534000D02*
X10433900Y3534000D01*
X10199000Y3299000D02*
X9379000Y3299000D01*
X28136300Y8246000D02*
X26163400Y8246000D01*
X26163400Y8246000D02*
X25982400Y8065000D01*
X48862000Y11216000D02*
X48628000Y10981000D01*
X17597800Y7572000D02*
X17362900Y7337000D01*
X9379000Y3299000D02*
X8280000Y2200000D01*
X19701700Y7703000D02*
X19570700Y7572000D01*
X23774600Y7830000D02*
X23647500Y7703000D01*
X23647500Y7703000D02*
X19701700Y7703000D01*
X39867000Y10112000D02*
X39165000Y9410000D01*
X19570700Y7572000D02*
X17597800Y7572000D01*
X17362900Y7337000D02*
X17226800Y7201000D01*
X35117000Y9308000D02*
X31171200Y9308000D01*
X10433900Y3534000D02*
X10199000Y3299000D01*
X39165000Y9410000D02*
X35219000Y9410000D01*
X30390200Y8527000D02*
X28417300Y8527000D01*
X28417300Y8527000D02*
X28182400Y8292000D01*
X49816000Y11216000D02*
X48862000Y11216000D01*
X62125000Y19850000D02*
X58450000Y19850000D01*
X17226800Y7201000D02*
X16033900Y7201000D01*
X48628000Y10981000D02*
X47923000Y10276000D01*
X47923000Y10276000D02*
X47758000Y10112000D01*
X28182400Y8292000D02*
X28136300Y8246000D01*
X47758000Y10112000D02*
X39867000Y10112000D01*
X15799000Y6966000D02*
X12366800Y3534000D01*
X24009500Y8065000D02*
X23774600Y7830000D01*
X58450000Y19850000D02*
X49816000Y11216000D01*
X30466500Y8603000D02*
X30390200Y8527000D01*
X35219000Y9410000D02*
X35117000Y9308000D01*
X25982400Y8065000D02*
X24009500Y8065000D01*
X31171200Y9308000D02*
X30466500Y8603000D01*
%TO.N,Net-(J3-Pin_10)*%
X60350000Y13850000D02*
X52904000Y6404000D01*
X49752000Y5300000D02*
X41860000Y5300000D01*
X50856000Y6404000D02*
X49752000Y5300000D01*
X41860000Y5300000D02*
X38760000Y2200000D01*
X52904000Y6404000D02*
X50856000Y6404000D01*
X62125000Y13850000D02*
X60350000Y13850000D01*
%TO.N,Net-(J3-Pin_3)*%
X56540000Y5734000D02*
X56540000Y2200000D01*
X62125000Y10350000D02*
X61156000Y10350000D01*
X61156000Y10350000D02*
X56540000Y5734000D01*
%TO.N,Net-(J3-Pin_13)*%
X36714000Y5801000D02*
X36493000Y5580000D01*
X34520000Y5580000D02*
X31140000Y2200000D01*
X50122000Y7372000D02*
X49888000Y7137000D01*
X50357000Y7607000D02*
X50122000Y7372000D01*
X49253000Y6503000D02*
X41362000Y6503000D01*
X36493000Y5580000D02*
X34520000Y5580000D01*
X49653000Y6902000D02*
X49253000Y6503000D01*
X41362000Y6503000D02*
X40660000Y5801000D01*
X49888000Y7137000D02*
X49653000Y6902000D01*
X59850000Y15350000D02*
X52107000Y7607000D01*
X40660000Y5801000D02*
X36714000Y5801000D01*
X62125000Y15350000D02*
X59850000Y15350000D01*
X52107000Y7607000D02*
X50357000Y7607000D01*
%TO.N,Net-(J3-Pin_6)*%
X62125000Y11850000D02*
X60750000Y11850000D01*
X53700000Y4800000D02*
X51520000Y4800000D01*
X51520000Y4800000D02*
X48920000Y2200000D01*
X60750000Y11850000D02*
X53700000Y4800000D01*
%TO.N,Net-(J3-Pin_14)*%
X36446000Y6100000D02*
X32500000Y6100000D01*
X49486000Y7303000D02*
X49252000Y7068000D01*
X51808000Y8008000D02*
X50191000Y8008000D01*
X49087000Y6904000D02*
X41196000Y6904000D01*
X41196000Y6904000D02*
X40494000Y6202000D01*
X32500000Y6100000D02*
X28600000Y2200000D01*
X40494000Y6202000D02*
X36548000Y6202000D01*
X49252000Y7068000D02*
X49087000Y6904000D01*
X59650000Y15850000D02*
X51808000Y8008000D01*
X62125000Y15850000D02*
X59650000Y15850000D01*
X36548000Y6202000D02*
X36446000Y6100000D01*
X50191000Y8008000D02*
X49486000Y7303000D01*
%TO.N,Net-(J3-Pin_2)*%
X59080000Y7707000D02*
X59080000Y2200000D01*
X62125000Y9850000D02*
X61223000Y9850000D01*
X61223000Y9850000D02*
X59080000Y7707000D01*
%TO.N,Net-(J3-Pin_20)*%
X23979700Y6901000D02*
X20033900Y6901000D01*
X30722400Y7725000D02*
X28749500Y7725000D01*
X24106800Y7028000D02*
X23979700Y6901000D01*
X19902900Y6770000D02*
X17930000Y6770000D01*
X17930000Y6770000D02*
X13360000Y2200000D01*
X62125000Y18850000D02*
X58750000Y18850000D01*
X28749500Y7725000D02*
X28514600Y7490000D01*
X58750000Y18850000D02*
X50314000Y10414000D01*
X24341700Y7263000D02*
X24106800Y7028000D01*
X28514600Y7490000D02*
X28468500Y7444000D01*
X40199000Y9310000D02*
X39497000Y8608000D01*
X35551000Y8608000D02*
X35449000Y8506000D01*
X20033900Y6901000D02*
X19902900Y6770000D01*
X49195000Y10414000D02*
X48091000Y9310000D01*
X39497000Y8608000D02*
X35551000Y8608000D01*
X31503400Y8506000D02*
X31033600Y8036000D01*
X35449000Y8506000D02*
X31503400Y8506000D01*
X26314600Y7263000D02*
X24341700Y7263000D01*
X28468500Y7444000D02*
X26495600Y7444000D01*
X31033600Y8036000D02*
X30722400Y7725000D01*
X50314000Y10414000D02*
X49195000Y10414000D01*
X26495600Y7444000D02*
X26314600Y7263000D01*
X48091000Y9310000D02*
X40199000Y9310000D01*
%TO.N,Net-(J3-Pin_7)*%
X62125000Y12350000D02*
X60650000Y12350000D01*
X48230000Y4050000D02*
X46380000Y2200000D01*
X53501000Y5201000D02*
X51354000Y5201000D01*
X50203000Y4050000D02*
X48230000Y4050000D01*
X60650000Y12350000D02*
X53501000Y5201000D01*
X51354000Y5201000D02*
X50203000Y4050000D01*
%TO.N,Net-(J3-Pin_23)*%
X12200700Y3935000D02*
X10267800Y3935000D01*
X47757000Y10677000D02*
X47592000Y10513000D01*
X58250000Y20350000D02*
X49517000Y11617000D01*
X17060700Y7602000D02*
X15867800Y7602000D01*
X48696000Y11617000D02*
X48226000Y11147000D01*
X10267800Y3935000D02*
X10032900Y3700000D01*
X47992000Y10912000D02*
X47757000Y10677000D01*
X17196800Y7738000D02*
X17060700Y7602000D01*
X19535600Y8104000D02*
X19404600Y7973000D01*
X19404600Y7973000D02*
X17431700Y7973000D01*
X28251200Y8928000D02*
X28016300Y8693000D01*
X15398000Y7132000D02*
X12200700Y3935000D01*
X30224100Y8928000D02*
X28251200Y8928000D01*
X27970200Y8647000D02*
X25997300Y8647000D01*
X39701000Y10513000D02*
X38999000Y9811000D01*
X10032900Y3700000D02*
X7240000Y3700000D01*
X23843400Y8466000D02*
X23608500Y8231000D01*
X38999000Y9811000D02*
X35053000Y9811000D01*
X25816300Y8466000D02*
X23843400Y8466000D01*
X34951000Y9709000D02*
X31005100Y9709000D01*
X35053000Y9811000D02*
X34951000Y9709000D01*
X25997300Y8647000D02*
X25816300Y8466000D01*
X30300400Y9004000D02*
X30224100Y8928000D01*
X23608500Y8231000D02*
X23481400Y8104000D01*
X23481400Y8104000D02*
X19535600Y8104000D01*
X49517000Y11617000D02*
X48696000Y11617000D01*
X7240000Y3700000D02*
X5740000Y2200000D01*
X31005100Y9709000D02*
X30300400Y9004000D01*
X47592000Y10513000D02*
X39701000Y10513000D01*
X17431700Y7973000D02*
X17196800Y7738000D01*
X15867800Y7602000D02*
X15398000Y7132000D01*
X28016300Y8693000D02*
X27970200Y8647000D01*
X62125000Y20350000D02*
X58250000Y20350000D01*
X48226000Y11147000D02*
X47992000Y10912000D01*
%TO.N,Net-(J3-Pin_21)*%
X11600000Y2200000D02*
X10820000Y2200000D01*
X35283000Y8907000D02*
X31337300Y8907000D01*
X19736800Y7171000D02*
X17763900Y7171000D01*
X26329500Y7845000D02*
X26148500Y7664000D01*
X50115000Y10815000D02*
X49028000Y10815000D01*
X35385000Y9009000D02*
X35283000Y8907000D01*
X30556300Y8126000D02*
X28583400Y8126000D01*
X49028000Y10815000D02*
X48794000Y10580000D01*
X31337300Y8907000D02*
X30632600Y8202000D01*
X23940700Y7429000D02*
X23813600Y7302000D01*
X62125000Y19350000D02*
X58650000Y19350000D01*
X47924000Y9711000D02*
X40033000Y9711000D01*
X24175600Y7664000D02*
X23940700Y7429000D01*
X28348500Y7891000D02*
X28302400Y7845000D01*
X26148500Y7664000D02*
X24175600Y7664000D01*
X48794000Y10580000D02*
X48324000Y10110000D01*
X28583400Y8126000D02*
X28348500Y7891000D01*
X16200000Y6800000D02*
X11600000Y2200000D01*
X23813600Y7302000D02*
X19867800Y7302000D01*
X39331000Y9009000D02*
X35385000Y9009000D01*
X17763900Y7171000D02*
X17529000Y6936000D01*
X19867800Y7302000D02*
X19736800Y7171000D01*
X40033000Y9711000D02*
X39331000Y9009000D01*
X30632600Y8202000D02*
X30556300Y8126000D01*
X17529000Y6936000D02*
X17392900Y6800000D01*
X17392900Y6800000D02*
X16200000Y6800000D01*
X48324000Y10110000D02*
X47924000Y9711000D01*
X58650000Y19350000D02*
X50115000Y10815000D01*
X28302400Y7845000D02*
X26329500Y7845000D01*
%TO.N,Net-(J3-Pin_11)*%
X38960000Y4940000D02*
X36220000Y2200000D01*
X40933000Y4940000D02*
X38960000Y4940000D01*
X41694000Y5701000D02*
X40933000Y4940000D01*
X62125000Y14350000D02*
X60150000Y14350000D01*
X50690000Y6805000D02*
X49586000Y5701000D01*
X49586000Y5701000D02*
X41694000Y5701000D01*
X52605000Y6805000D02*
X50690000Y6805000D01*
X60150000Y14350000D02*
X52605000Y6805000D01*
%TO.N,Net-(J3-Pin_12)*%
X50288000Y6971000D02*
X50054000Y6736000D01*
X40826000Y5400000D02*
X36880000Y5400000D01*
X41528000Y6102000D02*
X40826000Y5400000D01*
X50523000Y7206000D02*
X50288000Y6971000D01*
X62125000Y14850000D02*
X60050000Y14850000D01*
X50054000Y6736000D02*
X49419000Y6102000D01*
X52406000Y7206000D02*
X50523000Y7206000D01*
X36880000Y5400000D02*
X33680000Y2200000D01*
X49419000Y6102000D02*
X41528000Y6102000D01*
X60050000Y14850000D02*
X52406000Y7206000D01*
%TD*%
%TA.AperFunction,Conductor*%
%TO.N,GND*%
G36*
X21192206Y59479815D02*
G01*
X21237961Y59427011D01*
X21247905Y59357853D01*
X21218880Y59294297D01*
X21212848Y59287819D01*
X21147794Y59222766D01*
X21102415Y59119994D01*
X21102415Y59119992D01*
X21099500Y59094869D01*
X21099500Y57745189D01*
X21079815Y57678150D01*
X21027011Y57632395D01*
X20957853Y57622451D01*
X20913503Y57637800D01*
X20906391Y57641906D01*
X20906388Y57641907D01*
X20804527Y57669200D01*
X9521427Y57669200D01*
X9415973Y57669200D01*
X9314110Y57641907D01*
X9222787Y57589180D01*
X9222784Y57589178D01*
X8880425Y57246819D01*
X8819102Y57213334D01*
X8792744Y57210500D01*
X7365143Y57210500D01*
X7365117Y57210498D01*
X7340012Y57207587D01*
X7340008Y57207585D01*
X7237235Y57162207D01*
X7157794Y57082766D01*
X7112415Y56979994D01*
X7112415Y56979992D01*
X7109500Y56954869D01*
X7109500Y55165144D01*
X7109502Y55165118D01*
X7112413Y55140013D01*
X7112415Y55140009D01*
X7157793Y55037236D01*
X7157794Y55037235D01*
X7237235Y54957794D01*
X7340009Y54912415D01*
X7365135Y54909500D01*
X8102872Y54909501D01*
X8169910Y54889817D01*
X8215665Y54837013D01*
X8225609Y54767854D01*
X8196584Y54704298D01*
X8137806Y54666524D01*
X8122270Y54663028D01*
X7990589Y54642171D01*
X7818363Y54586213D01*
X7818360Y54586212D01*
X7657002Y54503994D01*
X7510505Y54397559D01*
X7510500Y54397555D01*
X7382445Y54269500D01*
X7382441Y54269495D01*
X7276006Y54122998D01*
X7193788Y53961640D01*
X7193787Y53961637D01*
X7137829Y53789411D01*
X7109500Y53610552D01*
X7109500Y53429449D01*
X7137829Y53250590D01*
X7193787Y53078364D01*
X7193788Y53078361D01*
X7276006Y52917003D01*
X7382441Y52770506D01*
X7382445Y52770501D01*
X7510500Y52642446D01*
X7510505Y52642442D01*
X7558039Y52607907D01*
X7657006Y52536004D01*
X7762484Y52482260D01*
X7818360Y52453789D01*
X7818363Y52453788D01*
X7904476Y52425809D01*
X7990591Y52397829D01*
X8063639Y52386260D01*
X8150678Y52372473D01*
X8213813Y52342544D01*
X8250744Y52283232D01*
X8249746Y52213369D01*
X8211136Y52155137D01*
X8150678Y52127527D01*
X7990589Y52102171D01*
X7818363Y52046213D01*
X7818360Y52046212D01*
X7657002Y51963994D01*
X7510505Y51857559D01*
X7510500Y51857555D01*
X7382445Y51729500D01*
X7382441Y51729495D01*
X7276006Y51582998D01*
X7193788Y51421640D01*
X7193787Y51421637D01*
X7137829Y51249411D01*
X7109500Y51070552D01*
X7109500Y50889449D01*
X7137829Y50710590D01*
X7193787Y50538364D01*
X7193788Y50538361D01*
X7276006Y50377003D01*
X7382441Y50230506D01*
X7382445Y50230501D01*
X7510500Y50102446D01*
X7510505Y50102442D01*
X7638287Y50009604D01*
X7657006Y49996004D01*
X7762484Y49942260D01*
X7818360Y49913789D01*
X7818363Y49913788D01*
X7904476Y49885809D01*
X7990591Y49857829D01*
X8063639Y49846260D01*
X8150678Y49832473D01*
X8213813Y49802544D01*
X8250744Y49743232D01*
X8249746Y49673369D01*
X8211136Y49615137D01*
X8150678Y49587527D01*
X7990589Y49562171D01*
X7818363Y49506213D01*
X7818360Y49506212D01*
X7657002Y49423994D01*
X7510505Y49317559D01*
X7510500Y49317555D01*
X7382445Y49189500D01*
X7382441Y49189495D01*
X7276006Y49042998D01*
X7193788Y48881640D01*
X7193787Y48881637D01*
X7137829Y48709411D01*
X7109500Y48530552D01*
X7109500Y48349449D01*
X7137829Y48170590D01*
X7193787Y47998364D01*
X7193788Y47998361D01*
X7276006Y47837003D01*
X7382441Y47690506D01*
X7382445Y47690501D01*
X7510500Y47562446D01*
X7510505Y47562442D01*
X7638287Y47469604D01*
X7657006Y47456004D01*
X7762484Y47402260D01*
X7818360Y47373789D01*
X7818363Y47373788D01*
X7904476Y47345809D01*
X7990591Y47317829D01*
X8063639Y47306260D01*
X8150678Y47292473D01*
X8213813Y47262544D01*
X8250744Y47203232D01*
X8249746Y47133369D01*
X8211136Y47075137D01*
X8150678Y47047527D01*
X7990589Y47022171D01*
X7818363Y46966213D01*
X7818360Y46966212D01*
X7657002Y46883994D01*
X7510505Y46777559D01*
X7510500Y46777555D01*
X7382445Y46649500D01*
X7382441Y46649495D01*
X7276006Y46502998D01*
X7193788Y46341640D01*
X7193787Y46341637D01*
X7137829Y46169411D01*
X7109500Y45990552D01*
X7109500Y45809449D01*
X7137829Y45630590D01*
X7193787Y45458364D01*
X7193788Y45458361D01*
X7276006Y45297003D01*
X7382441Y45150506D01*
X7382445Y45150501D01*
X7510500Y45022446D01*
X7510505Y45022442D01*
X7637997Y44929815D01*
X7657006Y44916004D01*
X7733534Y44877011D01*
X7818360Y44833789D01*
X7818363Y44833788D01*
X7898185Y44807853D01*
X7990591Y44777829D01*
X8063639Y44766260D01*
X8150678Y44752473D01*
X8213813Y44722544D01*
X8250744Y44663232D01*
X8249746Y44593369D01*
X8211136Y44535137D01*
X8150678Y44507527D01*
X7990589Y44482171D01*
X7818363Y44426213D01*
X7818360Y44426212D01*
X7657002Y44343994D01*
X7510505Y44237559D01*
X7510500Y44237555D01*
X7382445Y44109500D01*
X7382441Y44109495D01*
X7276006Y43962998D01*
X7193788Y43801640D01*
X7193787Y43801637D01*
X7137829Y43629411D01*
X7109500Y43450552D01*
X7109500Y43269449D01*
X7137829Y43090590D01*
X7193787Y42918364D01*
X7193788Y42918361D01*
X7249664Y42808700D01*
X7276003Y42757007D01*
X7276006Y42757003D01*
X7382441Y42610506D01*
X7382445Y42610501D01*
X7510500Y42482446D01*
X7510505Y42482442D01*
X7612945Y42408016D01*
X7657006Y42376004D01*
X7762484Y42322260D01*
X7818360Y42293789D01*
X7818363Y42293788D01*
X7904476Y42265809D01*
X7990591Y42237829D01*
X8063639Y42226260D01*
X8150678Y42212473D01*
X8213813Y42182544D01*
X8250744Y42123232D01*
X8249746Y42053369D01*
X8211136Y41995137D01*
X8150678Y41967527D01*
X7990589Y41942171D01*
X7818363Y41886213D01*
X7818360Y41886212D01*
X7657002Y41803994D01*
X7510505Y41697559D01*
X7510500Y41697555D01*
X7382445Y41569500D01*
X7382441Y41569495D01*
X7276006Y41422998D01*
X7193788Y41261640D01*
X7193787Y41261637D01*
X7137829Y41089411D01*
X7109500Y40910552D01*
X7109500Y40729449D01*
X7137829Y40550590D01*
X7193787Y40378364D01*
X7193788Y40378361D01*
X7249664Y40268700D01*
X7270356Y40228090D01*
X7276006Y40217003D01*
X7382441Y40070506D01*
X7382445Y40070501D01*
X7510500Y39942446D01*
X7510505Y39942442D01*
X7576290Y39894647D01*
X7657006Y39836004D01*
X7762484Y39782260D01*
X7818360Y39753789D01*
X7818363Y39753788D01*
X7867512Y39737819D01*
X7990591Y39697829D01*
X8063639Y39686260D01*
X8150678Y39672473D01*
X8213813Y39642544D01*
X8250744Y39583232D01*
X8249746Y39513369D01*
X8211136Y39455137D01*
X8150678Y39427527D01*
X7990589Y39402171D01*
X7818363Y39346213D01*
X7818360Y39346212D01*
X7657002Y39263994D01*
X7510505Y39157559D01*
X7510500Y39157555D01*
X7382445Y39029500D01*
X7382441Y39029495D01*
X7276006Y38882998D01*
X7193788Y38721640D01*
X7193787Y38721637D01*
X7137829Y38549411D01*
X7109500Y38370552D01*
X7109500Y38189449D01*
X7137829Y38010590D01*
X7193787Y37838364D01*
X7193788Y37838361D01*
X7276006Y37677003D01*
X7382441Y37530506D01*
X7382445Y37530501D01*
X7510500Y37402446D01*
X7510505Y37402442D01*
X7552177Y37372166D01*
X7657006Y37296004D01*
X7719413Y37264206D01*
X7818360Y37213789D01*
X7818363Y37213788D01*
X7904476Y37185809D01*
X7990591Y37157829D01*
X8063639Y37146260D01*
X8150678Y37132473D01*
X8213813Y37102544D01*
X8250744Y37043232D01*
X8249746Y36973369D01*
X8211136Y36915137D01*
X8150678Y36887527D01*
X7990589Y36862171D01*
X7818363Y36806213D01*
X7818360Y36806212D01*
X7657002Y36723994D01*
X7510505Y36617559D01*
X7510500Y36617555D01*
X7382445Y36489500D01*
X7382441Y36489495D01*
X7276006Y36342998D01*
X7193788Y36181640D01*
X7193787Y36181637D01*
X7137829Y36009411D01*
X7109500Y35830552D01*
X7109500Y35649449D01*
X7137829Y35470590D01*
X7193787Y35298364D01*
X7193788Y35298361D01*
X7249664Y35188700D01*
X7266768Y35155132D01*
X7276006Y35137003D01*
X7382441Y34990506D01*
X7382445Y34990501D01*
X7510500Y34862446D01*
X7510505Y34862442D01*
X7629163Y34776233D01*
X7657006Y34756004D01*
X7719413Y34724206D01*
X7818360Y34673789D01*
X7818363Y34673788D01*
X7875773Y34655135D01*
X7990591Y34617829D01*
X8063639Y34606260D01*
X8150678Y34592473D01*
X8213813Y34562544D01*
X8250744Y34503232D01*
X8249746Y34433369D01*
X8211136Y34375137D01*
X8150678Y34347527D01*
X7990589Y34322171D01*
X7818363Y34266213D01*
X7818360Y34266212D01*
X7657002Y34183994D01*
X7510505Y34077559D01*
X7510500Y34077555D01*
X7382445Y33949500D01*
X7382441Y33949495D01*
X7276006Y33802998D01*
X7193788Y33641640D01*
X7193787Y33641637D01*
X7137829Y33469411D01*
X7109500Y33290552D01*
X7109500Y33109449D01*
X7137829Y32930590D01*
X7193787Y32758364D01*
X7193788Y32758361D01*
X7246386Y32655135D01*
X7274478Y32600000D01*
X7276006Y32597003D01*
X7382441Y32450506D01*
X7382445Y32450501D01*
X7510500Y32322446D01*
X7510505Y32322442D01*
X7552177Y32292166D01*
X7657006Y32216004D01*
X7719413Y32184206D01*
X7818360Y32133789D01*
X7818363Y32133788D01*
X7904476Y32105809D01*
X7990591Y32077829D01*
X8063639Y32066260D01*
X8150678Y32052473D01*
X8213813Y32022544D01*
X8250744Y31963232D01*
X8249746Y31893369D01*
X8211136Y31835137D01*
X8150678Y31807527D01*
X7990589Y31782171D01*
X7818363Y31726213D01*
X7818360Y31726212D01*
X7657002Y31643994D01*
X7510505Y31537559D01*
X7510500Y31537555D01*
X7382445Y31409500D01*
X7382441Y31409495D01*
X7276006Y31262998D01*
X7193788Y31101640D01*
X7193787Y31101637D01*
X7137829Y30929411D01*
X7109500Y30750552D01*
X7109500Y30569449D01*
X7137829Y30390590D01*
X7193787Y30218364D01*
X7193788Y30218361D01*
X7276006Y30057003D01*
X7382441Y29910506D01*
X7382445Y29910501D01*
X7510500Y29782446D01*
X7510505Y29782442D01*
X7552177Y29752166D01*
X7657006Y29676004D01*
X7719413Y29644206D01*
X7818360Y29593789D01*
X7818363Y29593788D01*
X7904476Y29565809D01*
X7990591Y29537829D01*
X8063639Y29526260D01*
X8150678Y29512473D01*
X8213813Y29482544D01*
X8250744Y29423232D01*
X8249746Y29353369D01*
X8211136Y29295137D01*
X8150678Y29267527D01*
X7990589Y29242171D01*
X7818363Y29186213D01*
X7818360Y29186212D01*
X7657002Y29103994D01*
X7510505Y28997559D01*
X7510500Y28997555D01*
X7382445Y28869500D01*
X7382441Y28869495D01*
X7276006Y28722998D01*
X7193788Y28561640D01*
X7193787Y28561637D01*
X7137829Y28389411D01*
X7109500Y28210552D01*
X7109500Y28029449D01*
X7137829Y27850590D01*
X7193787Y27678364D01*
X7193788Y27678361D01*
X7249664Y27568700D01*
X7270356Y27528090D01*
X7276006Y27517003D01*
X7382441Y27370506D01*
X7382445Y27370501D01*
X7510500Y27242446D01*
X7510505Y27242442D01*
X7576290Y27194647D01*
X7657006Y27136004D01*
X7762484Y27082260D01*
X7818360Y27053789D01*
X7818363Y27053788D01*
X7904476Y27025809D01*
X7990591Y26997829D01*
X8063639Y26986260D01*
X8150678Y26972473D01*
X8213813Y26942544D01*
X8250744Y26883232D01*
X8249746Y26813369D01*
X8211136Y26755137D01*
X8150678Y26727527D01*
X7990589Y26702171D01*
X7818363Y26646213D01*
X7818360Y26646212D01*
X7657002Y26563994D01*
X7510505Y26457559D01*
X7510500Y26457555D01*
X7382445Y26329500D01*
X7382441Y26329495D01*
X7276006Y26182998D01*
X7193788Y26021640D01*
X7193787Y26021637D01*
X7137829Y25849411D01*
X7109500Y25670552D01*
X7109500Y25489449D01*
X7137829Y25310590D01*
X7193787Y25138364D01*
X7193788Y25138361D01*
X7276006Y24977003D01*
X7382441Y24830506D01*
X7382445Y24830501D01*
X7510500Y24702446D01*
X7510505Y24702442D01*
X7552177Y24672166D01*
X7657006Y24596004D01*
X7719413Y24564206D01*
X7818360Y24513789D01*
X7818363Y24513788D01*
X7904476Y24485809D01*
X7990591Y24457829D01*
X8063639Y24446260D01*
X8150678Y24432473D01*
X8213813Y24402544D01*
X8250744Y24343232D01*
X8249746Y24273369D01*
X8211136Y24215137D01*
X8150678Y24187527D01*
X7990589Y24162171D01*
X7818363Y24106213D01*
X7818360Y24106212D01*
X7657002Y24023994D01*
X7510505Y23917559D01*
X7510500Y23917555D01*
X7382445Y23789500D01*
X7382441Y23789495D01*
X7276006Y23642998D01*
X7193788Y23481640D01*
X7193787Y23481637D01*
X7137829Y23309411D01*
X7109500Y23130552D01*
X7109500Y22949449D01*
X7137829Y22770590D01*
X7193787Y22598364D01*
X7193788Y22598361D01*
X7276006Y22437003D01*
X7382441Y22290506D01*
X7382445Y22290501D01*
X7510500Y22162446D01*
X7510505Y22162442D01*
X7576290Y22114647D01*
X7657006Y22056004D01*
X7752086Y22007558D01*
X7818360Y21973789D01*
X7818363Y21973788D01*
X7904476Y21945809D01*
X7990591Y21917829D01*
X8063639Y21906260D01*
X8150678Y21892473D01*
X8213813Y21862544D01*
X8250744Y21803232D01*
X8249746Y21733369D01*
X8211136Y21675137D01*
X8150678Y21647527D01*
X7990589Y21622171D01*
X7818363Y21566213D01*
X7818360Y21566212D01*
X7657002Y21483994D01*
X7510505Y21377559D01*
X7510500Y21377555D01*
X7382445Y21249500D01*
X7382441Y21249495D01*
X7276006Y21102998D01*
X7193788Y20941640D01*
X7193787Y20941637D01*
X7137829Y20769411D01*
X7109500Y20590552D01*
X7109500Y20409449D01*
X7137829Y20230590D01*
X7193787Y20058364D01*
X7193788Y20058361D01*
X7276006Y19897003D01*
X7382441Y19750506D01*
X7382445Y19750501D01*
X7510500Y19622446D01*
X7510505Y19622442D01*
X7617257Y19544883D01*
X7657006Y19516004D01*
X7719413Y19484206D01*
X7818360Y19433789D01*
X7818363Y19433788D01*
X7904476Y19405809D01*
X7990591Y19377829D01*
X8063639Y19366260D01*
X8150678Y19352473D01*
X8213813Y19322544D01*
X8250744Y19263232D01*
X8249746Y19193369D01*
X8211136Y19135137D01*
X8150678Y19107527D01*
X7990589Y19082171D01*
X7818363Y19026213D01*
X7818360Y19026212D01*
X7657002Y18943994D01*
X7510505Y18837559D01*
X7510500Y18837555D01*
X7382445Y18709500D01*
X7382441Y18709495D01*
X7276006Y18562998D01*
X7193788Y18401640D01*
X7193787Y18401637D01*
X7137829Y18229411D01*
X7109500Y18050552D01*
X7109500Y17869449D01*
X7137829Y17690590D01*
X7193787Y17518364D01*
X7193788Y17518361D01*
X7276006Y17357003D01*
X7382441Y17210506D01*
X7382445Y17210501D01*
X7510500Y17082446D01*
X7510505Y17082442D01*
X7638287Y16989604D01*
X7657006Y16976004D01*
X7762484Y16922260D01*
X7818360Y16893789D01*
X7818363Y16893788D01*
X7904476Y16865809D01*
X7990591Y16837829D01*
X8063639Y16826260D01*
X8150678Y16812473D01*
X8213813Y16782544D01*
X8250744Y16723232D01*
X8249746Y16653369D01*
X8211136Y16595137D01*
X8150678Y16567527D01*
X7990589Y16542171D01*
X7818363Y16486213D01*
X7818360Y16486212D01*
X7657002Y16403994D01*
X7510505Y16297559D01*
X7510500Y16297555D01*
X7382445Y16169500D01*
X7382441Y16169495D01*
X7276006Y16022998D01*
X7193788Y15861640D01*
X7193787Y15861637D01*
X7137829Y15689411D01*
X7109500Y15510552D01*
X7109500Y15329449D01*
X7137829Y15150590D01*
X7193787Y14978364D01*
X7193788Y14978361D01*
X7276006Y14817003D01*
X7382441Y14670506D01*
X7382445Y14670501D01*
X7510500Y14542446D01*
X7510505Y14542442D01*
X7552177Y14512166D01*
X7657006Y14436004D01*
X7719413Y14404206D01*
X7818360Y14353789D01*
X7818363Y14353788D01*
X7904476Y14325809D01*
X7990591Y14297829D01*
X8063639Y14286260D01*
X8150678Y14272473D01*
X8213813Y14242544D01*
X8250744Y14183232D01*
X8249746Y14113369D01*
X8211136Y14055137D01*
X8150678Y14027527D01*
X7990589Y14002171D01*
X7818363Y13946213D01*
X7818360Y13946212D01*
X7657002Y13863994D01*
X7510505Y13757559D01*
X7510500Y13757555D01*
X7382445Y13629500D01*
X7382441Y13629495D01*
X7276006Y13482998D01*
X7193788Y13321640D01*
X7193787Y13321637D01*
X7137829Y13149411D01*
X7109500Y12970552D01*
X7109500Y12789449D01*
X7137829Y12610590D01*
X7193787Y12438364D01*
X7193788Y12438361D01*
X7276006Y12277003D01*
X7382441Y12130506D01*
X7382445Y12130501D01*
X7510500Y12002446D01*
X7510505Y12002442D01*
X7552177Y11972166D01*
X7657006Y11896004D01*
X7719413Y11864206D01*
X7818360Y11813789D01*
X7818363Y11813788D01*
X7879534Y11793913D01*
X7990591Y11757829D01*
X8063639Y11746260D01*
X8150678Y11732473D01*
X8213813Y11702544D01*
X8250744Y11643232D01*
X8249746Y11573369D01*
X8211136Y11515137D01*
X8150678Y11487527D01*
X7990589Y11462171D01*
X7818363Y11406213D01*
X7818360Y11406212D01*
X7657002Y11323994D01*
X7510505Y11217559D01*
X7510500Y11217555D01*
X7382445Y11089500D01*
X7382441Y11089495D01*
X7276006Y10942998D01*
X7193788Y10781640D01*
X7193787Y10781637D01*
X7137829Y10609411D01*
X7109500Y10430552D01*
X7109500Y10249449D01*
X7137829Y10070590D01*
X7193787Y9898364D01*
X7193788Y9898361D01*
X7276006Y9737003D01*
X7382441Y9590506D01*
X7382445Y9590501D01*
X7510500Y9462446D01*
X7510505Y9462442D01*
X7567261Y9421207D01*
X7657006Y9356004D01*
X7759424Y9303819D01*
X7818360Y9273789D01*
X7818363Y9273788D01*
X7878401Y9254281D01*
X7990591Y9217829D01*
X8063639Y9206260D01*
X8150678Y9192473D01*
X8213813Y9162544D01*
X8250744Y9103232D01*
X8249746Y9033369D01*
X8211136Y8975137D01*
X8150678Y8947527D01*
X7990589Y8922171D01*
X7818363Y8866213D01*
X7818360Y8866212D01*
X7657002Y8783994D01*
X7510505Y8677559D01*
X7510500Y8677555D01*
X7382445Y8549500D01*
X7382441Y8549495D01*
X7276006Y8402998D01*
X7193788Y8241640D01*
X7193787Y8241637D01*
X7137829Y8069411D01*
X7109500Y7890552D01*
X7109500Y7709449D01*
X7137829Y7530590D01*
X7193787Y7358364D01*
X7193788Y7358361D01*
X7276006Y7197003D01*
X7382441Y7050506D01*
X7382445Y7050501D01*
X7510500Y6922446D01*
X7510505Y6922442D01*
X7638287Y6829604D01*
X7657006Y6816004D01*
X7762484Y6762260D01*
X7818360Y6733789D01*
X7818363Y6733788D01*
X7904476Y6705809D01*
X7990591Y6677829D01*
X8073429Y6664709D01*
X8169449Y6649500D01*
X8169454Y6649500D01*
X8350551Y6649500D01*
X8437259Y6663235D01*
X8529409Y6677829D01*
X8701639Y6733789D01*
X8862994Y6816004D01*
X9009501Y6922447D01*
X9137553Y7050499D01*
X9243996Y7197006D01*
X9326211Y7358361D01*
X9382171Y7530591D01*
X9396422Y7620575D01*
X9407527Y7690679D01*
X9437456Y7753814D01*
X9496768Y7790745D01*
X9566630Y7789747D01*
X9624863Y7751137D01*
X9652473Y7690679D01*
X9677829Y7530590D01*
X9733787Y7358364D01*
X9733788Y7358361D01*
X9816006Y7197003D01*
X9922441Y7050506D01*
X9922445Y7050501D01*
X10050500Y6922446D01*
X10050505Y6922442D01*
X10178287Y6829604D01*
X10197006Y6816004D01*
X10302484Y6762260D01*
X10358360Y6733789D01*
X10358363Y6733788D01*
X10444476Y6705809D01*
X10530591Y6677829D01*
X10613429Y6664709D01*
X10709449Y6649500D01*
X10709454Y6649500D01*
X10890551Y6649500D01*
X10977259Y6663235D01*
X11069409Y6677829D01*
X11241639Y6733789D01*
X11402994Y6816004D01*
X11549501Y6922447D01*
X11677553Y7050499D01*
X11783996Y7197006D01*
X11866211Y7358361D01*
X11922171Y7530591D01*
X11936765Y7622741D01*
X11950500Y7709449D01*
X11950500Y7890552D01*
X11934019Y7994603D01*
X11922171Y8069409D01*
X11875424Y8213284D01*
X11873429Y8283125D01*
X11905672Y8339281D01*
X24366391Y20799999D01*
X42542985Y20799999D01*
X42548903Y20781785D01*
X42645379Y20592443D01*
X42770272Y20420541D01*
X42770276Y20420536D01*
X42920535Y20270277D01*
X42920540Y20270273D01*
X43092442Y20145380D01*
X43281784Y20048904D01*
X43299998Y20042986D01*
X43300000Y20042987D01*
X44300000Y20042987D01*
X44300001Y20042986D01*
X44318215Y20048904D01*
X44507557Y20145380D01*
X44679459Y20270273D01*
X44679464Y20270277D01*
X44829723Y20420536D01*
X44829727Y20420541D01*
X44954620Y20592443D01*
X45051096Y20781785D01*
X45057014Y20799999D01*
X45057014Y20800000D01*
X44300000Y20800000D01*
X44300000Y20042987D01*
X43300000Y20042987D01*
X43300000Y20800000D01*
X42542986Y20800000D01*
X42542985Y20799999D01*
X24366391Y20799999D01*
X24932218Y21365826D01*
X43300000Y21365826D01*
X43300000Y21234174D01*
X43334075Y21107007D01*
X43399901Y20992993D01*
X43492993Y20899901D01*
X43607007Y20834075D01*
X43734174Y20800000D01*
X43865826Y20800000D01*
X43992993Y20834075D01*
X44107007Y20899901D01*
X44200099Y20992993D01*
X44265925Y21107007D01*
X44300000Y21234174D01*
X44300000Y21365826D01*
X44265925Y21492993D01*
X44200099Y21607007D01*
X44107007Y21700099D01*
X43992993Y21765925D01*
X43865826Y21800000D01*
X44300000Y21800000D01*
X45057014Y21800000D01*
X45057014Y21800002D01*
X45056314Y21802156D01*
X63775000Y21802156D01*
X63781401Y21742628D01*
X63781403Y21742621D01*
X63831645Y21607914D01*
X63831649Y21607907D01*
X63917809Y21492813D01*
X63917812Y21492810D01*
X64032906Y21406650D01*
X64032913Y21406646D01*
X64167620Y21356404D01*
X64167627Y21356402D01*
X64227155Y21350001D01*
X64227172Y21350000D01*
X64875000Y21350000D01*
X65875000Y21350000D01*
X66522828Y21350000D01*
X66522844Y21350001D01*
X66582372Y21356402D01*
X66582379Y21356404D01*
X66717086Y21406646D01*
X66717093Y21406650D01*
X66832187Y21492810D01*
X66832190Y21492813D01*
X66918350Y21607907D01*
X66918354Y21607914D01*
X66968596Y21742621D01*
X66968598Y21742628D01*
X66974999Y21802156D01*
X66975000Y21802173D01*
X66975000Y22250000D01*
X65875000Y22250000D01*
X65875000Y21350000D01*
X64875000Y21350000D01*
X64875000Y22250000D01*
X63775000Y22250000D01*
X63775000Y21802156D01*
X45056314Y21802156D01*
X45051096Y21818216D01*
X44954620Y22007558D01*
X44829727Y22179460D01*
X44829723Y22179465D01*
X44715665Y22293523D01*
X44682180Y22354846D01*
X44687164Y22424538D01*
X44729036Y22480471D01*
X44760013Y22497386D01*
X44892086Y22546646D01*
X44892093Y22546650D01*
X45007187Y22632810D01*
X45007190Y22632813D01*
X45093350Y22747907D01*
X45093354Y22747914D01*
X45143596Y22882621D01*
X45143598Y22882628D01*
X45149999Y22942156D01*
X45150000Y22942173D01*
X45150000Y23340000D01*
X44300000Y23340000D01*
X44300000Y21800000D01*
X43865826Y21800000D01*
X43734174Y21800000D01*
X43607007Y21765925D01*
X43492993Y21700099D01*
X43399901Y21607007D01*
X43334075Y21492993D01*
X43300000Y21365826D01*
X24932218Y21365826D01*
X26508548Y22942156D01*
X42450000Y22942156D01*
X42456401Y22882628D01*
X42456403Y22882621D01*
X42506645Y22747914D01*
X42506649Y22747907D01*
X42592809Y22632813D01*
X42592812Y22632810D01*
X42707906Y22546650D01*
X42707913Y22546646D01*
X42839986Y22497386D01*
X42895920Y22455515D01*
X42920337Y22390051D01*
X42905486Y22321778D01*
X42884335Y22293523D01*
X42770271Y22179459D01*
X42645379Y22007558D01*
X42548903Y21818216D01*
X42542985Y21800002D01*
X42542986Y21800000D01*
X43300000Y21800000D01*
X43300000Y23340000D01*
X42450000Y23340000D01*
X42450000Y22942156D01*
X26508548Y22942156D01*
X27472218Y23905826D01*
X43300000Y23905826D01*
X43300000Y23774174D01*
X43334075Y23647007D01*
X43399901Y23532993D01*
X43492993Y23439901D01*
X43607007Y23374075D01*
X43734174Y23340000D01*
X43865826Y23340000D01*
X43992993Y23374075D01*
X44107007Y23439901D01*
X44200099Y23532993D01*
X44265925Y23647007D01*
X44279547Y23697845D01*
X63775000Y23697845D01*
X63775000Y23250000D01*
X64875000Y23250000D01*
X65875000Y23250000D01*
X66975000Y23250000D01*
X66975000Y23697828D01*
X66974999Y23697845D01*
X66968598Y23757373D01*
X66968596Y23757380D01*
X66918354Y23892087D01*
X66918350Y23892094D01*
X66832190Y24007188D01*
X66832187Y24007191D01*
X66717093Y24093351D01*
X66717086Y24093355D01*
X66582379Y24143597D01*
X66582372Y24143599D01*
X66522844Y24150000D01*
X65875000Y24150000D01*
X65875000Y23250000D01*
X64875000Y23250000D01*
X64875000Y24150000D01*
X64227155Y24150000D01*
X64167627Y24143599D01*
X64167620Y24143597D01*
X64032913Y24093355D01*
X64032906Y24093351D01*
X63917812Y24007191D01*
X63917809Y24007188D01*
X63831649Y23892094D01*
X63831645Y23892087D01*
X63781403Y23757380D01*
X63781401Y23757373D01*
X63775000Y23697845D01*
X44279547Y23697845D01*
X44300000Y23774174D01*
X44300000Y23905826D01*
X44265925Y24032993D01*
X44200099Y24147007D01*
X44107007Y24240099D01*
X43992993Y24305925D01*
X43865826Y24340000D01*
X44300000Y24340000D01*
X45150000Y24340000D01*
X45150000Y24737828D01*
X45149999Y24737845D01*
X45143598Y24797373D01*
X45143596Y24797380D01*
X45093354Y24932087D01*
X45093350Y24932094D01*
X45007190Y25047188D01*
X45007187Y25047191D01*
X44892093Y25133351D01*
X44892086Y25133355D01*
X44757379Y25183597D01*
X44757372Y25183599D01*
X44697844Y25190000D01*
X44300000Y25190000D01*
X44300000Y24340000D01*
X43865826Y24340000D01*
X43734174Y24340000D01*
X43607007Y24305925D01*
X43492993Y24240099D01*
X43399901Y24147007D01*
X43334075Y24032993D01*
X43300000Y23905826D01*
X27472218Y23905826D01*
X28304237Y24737845D01*
X42450000Y24737845D01*
X42450000Y24340000D01*
X43300000Y24340000D01*
X43300000Y25190000D01*
X42902155Y25190000D01*
X42842627Y25183599D01*
X42842620Y25183597D01*
X42707913Y25133355D01*
X42707906Y25133351D01*
X42592812Y25047191D01*
X42592809Y25047188D01*
X42506649Y24932094D01*
X42506645Y24932087D01*
X42456403Y24797380D01*
X42456401Y24797373D01*
X42450000Y24737845D01*
X28304237Y24737845D01*
X33068549Y29502156D01*
X59350000Y29502156D01*
X59356401Y29442628D01*
X59356403Y29442621D01*
X59406645Y29307914D01*
X59406649Y29307907D01*
X59492809Y29192813D01*
X59492812Y29192810D01*
X59607906Y29106650D01*
X59607913Y29106646D01*
X59742620Y29056404D01*
X59742627Y29056402D01*
X59802155Y29050001D01*
X59802172Y29050000D01*
X60450000Y29050000D01*
X61450000Y29050000D01*
X62097828Y29050000D01*
X62097844Y29050001D01*
X62157372Y29056402D01*
X62157379Y29056404D01*
X62292086Y29106646D01*
X62292093Y29106650D01*
X62407187Y29192810D01*
X62407190Y29192813D01*
X62493350Y29307907D01*
X62493354Y29307914D01*
X62543596Y29442621D01*
X62543598Y29442628D01*
X62549999Y29502156D01*
X62550000Y29502173D01*
X62550000Y29950000D01*
X61450000Y29950000D01*
X61450000Y29050000D01*
X60450000Y29050000D01*
X60450000Y29950000D01*
X59350000Y29950000D01*
X59350000Y29502156D01*
X33068549Y29502156D01*
X34964238Y31397845D01*
X59350000Y31397845D01*
X59350000Y30950000D01*
X60450000Y30950000D01*
X61450000Y30950000D01*
X62550000Y30950000D01*
X62550000Y31397828D01*
X62549999Y31397845D01*
X62543598Y31457373D01*
X62543596Y31457380D01*
X62493354Y31592087D01*
X62493350Y31592094D01*
X62407190Y31707188D01*
X62407187Y31707191D01*
X62292093Y31793351D01*
X62292086Y31793355D01*
X62157379Y31843597D01*
X62157372Y31843599D01*
X62097844Y31850000D01*
X61450000Y31850000D01*
X61450000Y30950000D01*
X60450000Y30950000D01*
X60450000Y31850000D01*
X59802155Y31850000D01*
X59742627Y31843599D01*
X59742620Y31843597D01*
X59607913Y31793355D01*
X59607906Y31793351D01*
X59492812Y31707191D01*
X59492809Y31707188D01*
X59406649Y31592094D01*
X59406645Y31592087D01*
X59356403Y31457380D01*
X59356401Y31457373D01*
X59350000Y31397845D01*
X34964238Y31397845D01*
X35479574Y31913181D01*
X35540897Y31946666D01*
X35567255Y31949500D01*
X56847215Y31949500D01*
X56897300Y31938935D01*
X56980009Y31902415D01*
X57005135Y31899500D01*
X58394864Y31899501D01*
X58394879Y31899503D01*
X58394882Y31899503D01*
X58419987Y31902414D01*
X58419988Y31902415D01*
X58419991Y31902415D01*
X58522765Y31947794D01*
X58602206Y32027235D01*
X58647585Y32130009D01*
X58650500Y32155135D01*
X58650499Y32544864D01*
X58650497Y32544883D01*
X58646511Y32579258D01*
X58648280Y32579464D01*
X58648282Y32620540D01*
X58646510Y32620745D01*
X58647585Y32630009D01*
X58650500Y32655135D01*
X58650499Y33044864D01*
X58650497Y33044883D01*
X58646511Y33079258D01*
X58648280Y33079464D01*
X58648282Y33120540D01*
X58646510Y33120745D01*
X58650036Y33151137D01*
X58650500Y33155135D01*
X58650499Y33544864D01*
X58650497Y33544883D01*
X58646511Y33579258D01*
X58648280Y33579464D01*
X58648282Y33620540D01*
X58646510Y33620745D01*
X58648934Y33641640D01*
X58650500Y33655135D01*
X58650499Y34044864D01*
X58650497Y34044883D01*
X58646511Y34079258D01*
X58648280Y34079464D01*
X58648282Y34120540D01*
X58646510Y34120745D01*
X58647585Y34130009D01*
X58650500Y34155135D01*
X58650499Y34544864D01*
X58648180Y34564863D01*
X58646511Y34579258D01*
X58648280Y34579464D01*
X58648282Y34620540D01*
X58646510Y34620745D01*
X58647585Y34630009D01*
X58650500Y34655135D01*
X58650499Y35044864D01*
X58650497Y35044883D01*
X58646511Y35079258D01*
X58648280Y35079464D01*
X58648282Y35120540D01*
X58646510Y35120745D01*
X58648396Y35137003D01*
X58650500Y35155135D01*
X58650499Y35544864D01*
X58650497Y35544883D01*
X58646511Y35579258D01*
X58648280Y35579464D01*
X58648282Y35620540D01*
X58646510Y35620745D01*
X58647585Y35630009D01*
X58650500Y35655135D01*
X58650499Y36044864D01*
X58650497Y36044883D01*
X58646511Y36079258D01*
X58648280Y36079464D01*
X58648282Y36120540D01*
X58646510Y36120745D01*
X58650285Y36153284D01*
X58650500Y36155135D01*
X58650499Y36544864D01*
X58650497Y36544883D01*
X58646511Y36579258D01*
X58648280Y36579464D01*
X58648282Y36620540D01*
X58646510Y36620745D01*
X58647585Y36630009D01*
X58650500Y36655135D01*
X58650499Y37044864D01*
X58650294Y37046630D01*
X58646511Y37079258D01*
X58648280Y37079464D01*
X58648282Y37120540D01*
X58646510Y37120745D01*
X58647585Y37130009D01*
X58650500Y37155135D01*
X58650499Y37544864D01*
X58650497Y37544883D01*
X58646511Y37579258D01*
X58648280Y37579464D01*
X58648282Y37620540D01*
X58646510Y37620745D01*
X58647585Y37630009D01*
X58650500Y37655135D01*
X58650499Y38044864D01*
X58650497Y38044883D01*
X58646511Y38079258D01*
X58648280Y38079464D01*
X58648282Y38120540D01*
X58646510Y38120745D01*
X58647585Y38130009D01*
X58650500Y38155135D01*
X58650499Y38544864D01*
X58649972Y38549411D01*
X58646511Y38579258D01*
X58648280Y38579464D01*
X58648282Y38620540D01*
X58646510Y38620745D01*
X58647585Y38630009D01*
X58650500Y38655135D01*
X58650499Y39044864D01*
X58650497Y39044883D01*
X58646511Y39079258D01*
X58648280Y39079464D01*
X58648282Y39120540D01*
X58646510Y39120745D01*
X58647585Y39130009D01*
X58650500Y39155135D01*
X58650499Y39544864D01*
X58650497Y39544883D01*
X58646511Y39579258D01*
X58648280Y39579464D01*
X58648282Y39620540D01*
X58646510Y39620745D01*
X58649308Y39644863D01*
X58650500Y39655135D01*
X58650499Y40044864D01*
X58650497Y40044883D01*
X58646511Y40079258D01*
X58648280Y40079464D01*
X58648282Y40120540D01*
X58646510Y40120745D01*
X58647585Y40130009D01*
X58650500Y40155135D01*
X58650499Y40544864D01*
X58649835Y40550591D01*
X58646511Y40579258D01*
X58648280Y40579464D01*
X58648282Y40620540D01*
X58646510Y40620745D01*
X58647585Y40630009D01*
X58650500Y40655135D01*
X58650499Y41044864D01*
X58650497Y41044883D01*
X58646511Y41079258D01*
X58648280Y41079464D01*
X58648282Y41120540D01*
X58646510Y41120745D01*
X58647585Y41130009D01*
X58650500Y41155135D01*
X58650499Y41544864D01*
X58650497Y41544883D01*
X58646511Y41579258D01*
X58648280Y41579464D01*
X58648282Y41620540D01*
X58646510Y41620745D01*
X58650273Y41653182D01*
X58650500Y41655135D01*
X58650499Y42044864D01*
X58649513Y42053369D01*
X58646511Y42079258D01*
X58648280Y42079464D01*
X58648282Y42120540D01*
X58646510Y42120745D01*
X58647585Y42130009D01*
X58650500Y42155135D01*
X58650499Y42544864D01*
X58649495Y42553524D01*
X58646511Y42579258D01*
X58648280Y42579464D01*
X58648282Y42620540D01*
X58646510Y42620745D01*
X58647585Y42630009D01*
X58650500Y42655135D01*
X58650499Y43044864D01*
X58650497Y43044883D01*
X58646511Y43079258D01*
X58648280Y43079464D01*
X58648282Y43120540D01*
X58646510Y43120745D01*
X58647585Y43130009D01*
X58650500Y43155135D01*
X58650499Y43544864D01*
X58650497Y43544883D01*
X58646511Y43579258D01*
X58648280Y43579464D01*
X58648282Y43620540D01*
X58646510Y43620745D01*
X58647585Y43630009D01*
X58650500Y43655135D01*
X58650499Y44044864D01*
X58650497Y44044883D01*
X58646511Y44079258D01*
X58648280Y44079464D01*
X58648282Y44120540D01*
X58646510Y44120745D01*
X58647585Y44130009D01*
X58650500Y44155135D01*
X58650499Y44544864D01*
X58650497Y44544883D01*
X58646511Y44579258D01*
X58648280Y44579464D01*
X58648282Y44620540D01*
X58646510Y44620745D01*
X58647585Y44630009D01*
X58650500Y44655135D01*
X58650499Y45044864D01*
X58648447Y45062558D01*
X58646511Y45079258D01*
X58648280Y45079464D01*
X58648282Y45120540D01*
X58646510Y45120745D01*
X58649962Y45150501D01*
X58650500Y45155135D01*
X58650499Y45544864D01*
X58650497Y45544883D01*
X58646511Y45579258D01*
X58648280Y45579464D01*
X58648282Y45620540D01*
X58646510Y45620745D01*
X58647652Y45630590D01*
X58650500Y45655135D01*
X58650499Y46044864D01*
X58650497Y46044883D01*
X58646511Y46079258D01*
X58648280Y46079464D01*
X58648282Y46120540D01*
X58646510Y46120745D01*
X58650398Y46154260D01*
X58650500Y46155135D01*
X58650499Y46544864D01*
X58650497Y46544883D01*
X58646511Y46579258D01*
X58648280Y46579464D01*
X58648282Y46620540D01*
X58646510Y46620745D01*
X58647585Y46630009D01*
X58650500Y46655135D01*
X58650499Y47044864D01*
X58650190Y47047527D01*
X58646511Y47079258D01*
X58648280Y47079464D01*
X58648282Y47120540D01*
X58646510Y47120745D01*
X58647585Y47130009D01*
X58650500Y47155135D01*
X58650499Y47544864D01*
X58650497Y47544883D01*
X58646511Y47579258D01*
X58648280Y47579464D01*
X58648282Y47620540D01*
X58646510Y47620745D01*
X58647585Y47630009D01*
X58650500Y47655135D01*
X58650499Y48044864D01*
X58650497Y48044883D01*
X58646511Y48079258D01*
X58648280Y48079464D01*
X58648282Y48120540D01*
X58646510Y48120745D01*
X58647585Y48130009D01*
X58650500Y48155135D01*
X58650499Y48544864D01*
X58649982Y48549322D01*
X58646511Y48579258D01*
X58648280Y48579464D01*
X58648282Y48620540D01*
X58646510Y48620745D01*
X58647585Y48630009D01*
X58650500Y48655135D01*
X58650499Y49044864D01*
X58650497Y49044883D01*
X58646511Y49079258D01*
X58648280Y49079464D01*
X58648282Y49120540D01*
X58646510Y49120745D01*
X58647585Y49130009D01*
X58650500Y49155135D01*
X58650499Y49544864D01*
X58648492Y49562171D01*
X58646511Y49579258D01*
X58648280Y49579464D01*
X58648282Y49620540D01*
X58646510Y49620745D01*
X58647585Y49630009D01*
X58650500Y49655135D01*
X58650499Y50044864D01*
X58650497Y50044883D01*
X58646511Y50079258D01*
X58648280Y50079464D01*
X58648282Y50120540D01*
X58646510Y50120745D01*
X58649283Y50144647D01*
X58650500Y50155135D01*
X58650499Y50544864D01*
X58650497Y50544883D01*
X58646511Y50579258D01*
X58648280Y50579464D01*
X58648282Y50620540D01*
X58646510Y50620745D01*
X58647585Y50630009D01*
X58650500Y50655135D01*
X58650499Y51044864D01*
X58650497Y51044883D01*
X58646511Y51079258D01*
X58648280Y51079464D01*
X58648282Y51120540D01*
X58646510Y51120745D01*
X58647585Y51130009D01*
X58650500Y51155135D01*
X58650499Y51544864D01*
X58650288Y51546687D01*
X58646511Y51579258D01*
X58648280Y51579464D01*
X58648282Y51620540D01*
X58646510Y51620745D01*
X58647585Y51630009D01*
X58650500Y51655135D01*
X58650499Y52044864D01*
X58650343Y52046213D01*
X58647586Y52069988D01*
X58647585Y52069990D01*
X58647585Y52069991D01*
X58602206Y52172765D01*
X58522765Y52252206D01*
X58452498Y52283232D01*
X58419992Y52297585D01*
X58394865Y52300500D01*
X57005143Y52300500D01*
X57005117Y52300498D01*
X56980012Y52297587D01*
X56980008Y52297586D01*
X56897301Y52261066D01*
X56847215Y52250500D01*
X47338973Y52250500D01*
X47237110Y52223207D01*
X47145787Y52170480D01*
X47145784Y52170478D01*
X46771626Y51796319D01*
X46710303Y51762834D01*
X46683945Y51760000D01*
X43892147Y51760000D01*
X43825108Y51779685D01*
X43804457Y51796327D01*
X42477570Y53123476D01*
X42393218Y53207845D01*
X43775000Y53207845D01*
X43775000Y52760000D01*
X44875000Y52760000D01*
X45875000Y52760000D01*
X46975000Y52760000D01*
X46975000Y52802156D01*
X59350000Y52802156D01*
X59356401Y52742628D01*
X59356403Y52742621D01*
X59406645Y52607914D01*
X59406649Y52607907D01*
X59492809Y52492813D01*
X59492812Y52492810D01*
X59607906Y52406650D01*
X59607913Y52406646D01*
X59742620Y52356404D01*
X59742627Y52356402D01*
X59802155Y52350001D01*
X59802172Y52350000D01*
X60450000Y52350000D01*
X61450000Y52350000D01*
X62097828Y52350000D01*
X62097844Y52350001D01*
X62157372Y52356402D01*
X62157379Y52356404D01*
X62292086Y52406646D01*
X62292093Y52406650D01*
X62407187Y52492810D01*
X62407190Y52492813D01*
X62493350Y52607907D01*
X62493354Y52607914D01*
X62543596Y52742621D01*
X62543598Y52742628D01*
X62549999Y52802156D01*
X62550000Y52802173D01*
X62550000Y53250000D01*
X61450000Y53250000D01*
X61450000Y52350000D01*
X60450000Y52350000D01*
X60450000Y53250000D01*
X59350000Y53250000D01*
X59350000Y52802156D01*
X46975000Y52802156D01*
X46975000Y53207828D01*
X46974999Y53207845D01*
X46968598Y53267377D01*
X46918354Y53402087D01*
X46918350Y53402094D01*
X46832190Y53517188D01*
X46832187Y53517191D01*
X46717093Y53603351D01*
X46717086Y53603355D01*
X46582379Y53653597D01*
X46582372Y53653599D01*
X46522844Y53660000D01*
X45875000Y53660000D01*
X45875000Y52760000D01*
X44875000Y52760000D01*
X44875000Y53660000D01*
X44227155Y53660000D01*
X44167627Y53653599D01*
X44167620Y53653597D01*
X44032913Y53603355D01*
X44032906Y53603351D01*
X43917812Y53517191D01*
X43917809Y53517188D01*
X43831649Y53402094D01*
X43831645Y53402087D01*
X43781403Y53267380D01*
X43781401Y53267373D01*
X43775000Y53207845D01*
X42393218Y53207845D01*
X42350480Y53250591D01*
X42103291Y53497829D01*
X42069813Y53559155D01*
X42074805Y53628846D01*
X42116681Y53684775D01*
X42182148Y53709186D01*
X42190982Y53709501D01*
X42819856Y53709501D01*
X42819864Y53709501D01*
X42819879Y53709503D01*
X42819882Y53709503D01*
X42844987Y53712414D01*
X42844988Y53712415D01*
X42844991Y53712415D01*
X42947765Y53757794D01*
X43027206Y53837235D01*
X43072585Y53940009D01*
X43075500Y53965135D01*
X43075499Y54354864D01*
X43075497Y54354883D01*
X43071511Y54389258D01*
X43073280Y54389464D01*
X43073282Y54430540D01*
X43071510Y54430745D01*
X43072585Y54440009D01*
X43075500Y54465135D01*
X43075499Y54697845D01*
X59350000Y54697845D01*
X59350000Y54250000D01*
X60450000Y54250000D01*
X61450000Y54250000D01*
X62550000Y54250000D01*
X62550000Y54697828D01*
X62549999Y54697845D01*
X62543598Y54757373D01*
X62543596Y54757380D01*
X62493354Y54892087D01*
X62493350Y54892094D01*
X62407190Y55007188D01*
X62407187Y55007191D01*
X62292093Y55093351D01*
X62292086Y55093355D01*
X62157379Y55143597D01*
X62157372Y55143599D01*
X62097844Y55150000D01*
X61450000Y55150000D01*
X61450000Y54250000D01*
X60450000Y54250000D01*
X60450000Y55150000D01*
X59802155Y55150000D01*
X59742627Y55143599D01*
X59742620Y55143597D01*
X59607913Y55093355D01*
X59607906Y55093351D01*
X59492812Y55007191D01*
X59492809Y55007188D01*
X59406649Y54892094D01*
X59406645Y54892087D01*
X59356403Y54757380D01*
X59356401Y54757373D01*
X59350000Y54697845D01*
X43075499Y54697845D01*
X43075499Y54854864D01*
X43072585Y54879991D01*
X43069596Y54886759D01*
X43068988Y54906101D01*
X43073282Y54922632D01*
X43073282Y54930540D01*
X43071510Y54930745D01*
X43074648Y54957795D01*
X43075500Y54965135D01*
X43075499Y55354864D01*
X43075497Y55354883D01*
X43071511Y55389258D01*
X43073280Y55389464D01*
X43073282Y55430540D01*
X43071510Y55430745D01*
X43072585Y55440009D01*
X43075500Y55465135D01*
X43075499Y55854864D01*
X43075497Y55854883D01*
X43071511Y55889258D01*
X43073280Y55889464D01*
X43073282Y55930540D01*
X43071510Y55930745D01*
X43072585Y55940009D01*
X43075500Y55965135D01*
X43075499Y56354864D01*
X43075497Y56354883D01*
X43071511Y56389258D01*
X43073280Y56389464D01*
X43073282Y56430540D01*
X43071510Y56430745D01*
X43074962Y56460500D01*
X43075500Y56465135D01*
X43075499Y56854864D01*
X43074535Y56863177D01*
X43072586Y56879988D01*
X43072585Y56879990D01*
X43072585Y56879991D01*
X43027206Y56982765D01*
X42947765Y57062206D01*
X42912380Y57077830D01*
X42844992Y57107585D01*
X42819865Y57110500D01*
X41430143Y57110500D01*
X41430117Y57110498D01*
X41405012Y57107587D01*
X41405008Y57107586D01*
X41322301Y57071066D01*
X41272215Y57060500D01*
X36707255Y57060500D01*
X36640216Y57080185D01*
X36619574Y57096819D01*
X36104237Y57612156D01*
X43775000Y57612156D01*
X43781401Y57552628D01*
X43781403Y57552621D01*
X43831645Y57417914D01*
X43831649Y57417907D01*
X43917809Y57302813D01*
X43917812Y57302810D01*
X44032906Y57216650D01*
X44032913Y57216646D01*
X44167620Y57166404D01*
X44167627Y57166402D01*
X44227155Y57160001D01*
X44227172Y57160000D01*
X44875000Y57160000D01*
X45875000Y57160000D01*
X46522828Y57160000D01*
X46522844Y57160001D01*
X46582372Y57166402D01*
X46582379Y57166404D01*
X46717086Y57216646D01*
X46717093Y57216650D01*
X46832187Y57302810D01*
X46832190Y57302813D01*
X46918350Y57417907D01*
X46918354Y57417914D01*
X46968596Y57552621D01*
X46968598Y57552628D01*
X46974999Y57612156D01*
X46975000Y57612173D01*
X46975000Y58060000D01*
X45875000Y58060000D01*
X45875000Y57160000D01*
X44875000Y57160000D01*
X44875000Y58060000D01*
X43775000Y58060000D01*
X43775000Y57612156D01*
X36104237Y57612156D01*
X36055674Y57660719D01*
X36022189Y57722042D01*
X36025423Y57786716D01*
X36072171Y57930591D01*
X36084675Y58009536D01*
X36100500Y58109449D01*
X36100500Y58290552D01*
X36084019Y58394603D01*
X36072171Y58469409D01*
X36044191Y58555524D01*
X36016212Y58641637D01*
X36016211Y58641640D01*
X35977701Y58717218D01*
X35933996Y58802994D01*
X35920396Y58821713D01*
X35827558Y58949495D01*
X35827554Y58949500D01*
X35699499Y59077555D01*
X35699494Y59077559D01*
X35552997Y59183994D01*
X35552996Y59183995D01*
X35552994Y59183996D01*
X35452476Y59235213D01*
X35393987Y59265015D01*
X35343191Y59312990D01*
X35326396Y59380811D01*
X35348934Y59446946D01*
X35403649Y59490397D01*
X35450282Y59499500D01*
X43651000Y59499500D01*
X43718039Y59479815D01*
X43763794Y59427011D01*
X43775000Y59375500D01*
X43775000Y59060000D01*
X46975000Y59060000D01*
X46975000Y59375500D01*
X46994685Y59442539D01*
X47047489Y59488294D01*
X47099000Y59499500D01*
X97434108Y59499500D01*
X97495933Y59499500D01*
X97504043Y59499235D01*
X97752895Y59482925D01*
X97768953Y59480810D01*
X97939198Y59446946D01*
X98009535Y59432955D01*
X98025202Y59428757D01*
X98149570Y59386540D01*
X98257481Y59349909D01*
X98272458Y59343706D01*
X98432028Y59265015D01*
X98492460Y59235213D01*
X98506508Y59227103D01*
X98710464Y59090823D01*
X98723325Y59080955D01*
X98747219Y59060000D01*
X98907749Y58919219D01*
X98919218Y58907750D01*
X99080951Y58723329D01*
X99090825Y58710461D01*
X99227102Y58506508D01*
X99235212Y58492461D01*
X99343702Y58272466D01*
X99349909Y58257480D01*
X99428756Y58025203D01*
X99432954Y58009536D01*
X99480807Y57768965D01*
X99482925Y57752884D01*
X99499235Y57504044D01*
X99499500Y57495934D01*
X99499500Y2504067D01*
X99499235Y2495957D01*
X99482925Y2247117D01*
X99480807Y2231036D01*
X99432954Y1990465D01*
X99428756Y1974798D01*
X99349909Y1742521D01*
X99343702Y1727535D01*
X99235212Y1507540D01*
X99227102Y1493493D01*
X99090825Y1289540D01*
X99080951Y1276672D01*
X98919218Y1092251D01*
X98907749Y1080782D01*
X98723328Y919049D01*
X98710460Y909175D01*
X98506507Y772898D01*
X98492460Y764788D01*
X98272465Y656298D01*
X98257479Y650091D01*
X98025202Y571244D01*
X98009535Y567046D01*
X97768964Y519193D01*
X97752883Y517075D01*
X97504043Y500765D01*
X97495933Y500500D01*
X2504067Y500500D01*
X2495957Y500765D01*
X2247116Y517075D01*
X2231035Y519193D01*
X1990464Y567046D01*
X1974797Y571244D01*
X1742520Y650091D01*
X1727534Y656298D01*
X1507539Y764788D01*
X1493492Y772898D01*
X1289539Y909175D01*
X1276671Y919049D01*
X1092250Y1080782D01*
X1080781Y1092251D01*
X1006251Y1177236D01*
X919045Y1276675D01*
X909174Y1289540D01*
X898765Y1305118D01*
X772897Y1493493D01*
X764787Y1507540D01*
X658855Y1722348D01*
X656294Y1727542D01*
X650090Y1742521D01*
X571243Y1974798D01*
X567045Y1990465D01*
X552762Y2062271D01*
X519190Y2231047D01*
X517075Y2247107D01*
X514228Y2290552D01*
X2049500Y2290552D01*
X2049500Y2109449D01*
X2077829Y1930590D01*
X2133787Y1758364D01*
X2133788Y1758361D01*
X2216006Y1597003D01*
X2322441Y1450506D01*
X2322445Y1450501D01*
X2450500Y1322446D01*
X2450505Y1322442D01*
X2513503Y1276672D01*
X2597006Y1216004D01*
X2673094Y1177235D01*
X2758360Y1133789D01*
X2758363Y1133788D01*
X2844476Y1105809D01*
X2930591Y1077829D01*
X3013429Y1064709D01*
X3109449Y1049500D01*
X3109454Y1049500D01*
X3290551Y1049500D01*
X3377259Y1063235D01*
X3469409Y1077829D01*
X3641639Y1133789D01*
X3802994Y1216004D01*
X3949501Y1322447D01*
X4077553Y1450499D01*
X4183996Y1597006D01*
X4266211Y1758361D01*
X4322171Y1930591D01*
X4343027Y2062271D01*
X4347527Y2090679D01*
X4377456Y2153814D01*
X4436768Y2190745D01*
X4506630Y2189747D01*
X4564863Y2151137D01*
X4592473Y2090679D01*
X4617829Y1930590D01*
X4673787Y1758364D01*
X4673788Y1758361D01*
X4756006Y1597003D01*
X4862441Y1450506D01*
X4862445Y1450501D01*
X4990500Y1322446D01*
X4990505Y1322442D01*
X5053503Y1276672D01*
X5137006Y1216004D01*
X5213094Y1177235D01*
X5298360Y1133789D01*
X5298363Y1133788D01*
X5384476Y1105809D01*
X5470591Y1077829D01*
X5553429Y1064709D01*
X5649449Y1049500D01*
X5649454Y1049500D01*
X5830551Y1049500D01*
X5917259Y1063235D01*
X6009409Y1077829D01*
X6181639Y1133789D01*
X6342994Y1216004D01*
X6489501Y1322447D01*
X6617553Y1450499D01*
X6723996Y1597006D01*
X6806211Y1758361D01*
X6862171Y1930591D01*
X6883027Y2062271D01*
X6887527Y2090679D01*
X6917456Y2153814D01*
X6976768Y2190745D01*
X7046630Y2189747D01*
X7104863Y2151137D01*
X7132473Y2090679D01*
X7157829Y1930590D01*
X7213787Y1758364D01*
X7213788Y1758361D01*
X7296006Y1597003D01*
X7402441Y1450506D01*
X7402445Y1450501D01*
X7530500Y1322446D01*
X7530505Y1322442D01*
X7593503Y1276672D01*
X7677006Y1216004D01*
X7753094Y1177235D01*
X7838360Y1133789D01*
X7838363Y1133788D01*
X7924476Y1105809D01*
X8010591Y1077829D01*
X8093429Y1064709D01*
X8189449Y1049500D01*
X8189454Y1049500D01*
X8370551Y1049500D01*
X8457259Y1063235D01*
X8549409Y1077829D01*
X8721639Y1133789D01*
X8882994Y1216004D01*
X9029501Y1322447D01*
X9157553Y1450499D01*
X9263996Y1597006D01*
X9346211Y1758361D01*
X9402171Y1930591D01*
X9423027Y2062271D01*
X9427527Y2090679D01*
X9457456Y2153814D01*
X9516768Y2190745D01*
X9586630Y2189747D01*
X9644863Y2151137D01*
X9672473Y2090679D01*
X9697829Y1930590D01*
X9753787Y1758364D01*
X9753788Y1758361D01*
X9836006Y1597003D01*
X9942441Y1450506D01*
X9942445Y1450501D01*
X10070500Y1322446D01*
X10070505Y1322442D01*
X10133503Y1276672D01*
X10217006Y1216004D01*
X10293094Y1177235D01*
X10378360Y1133789D01*
X10378363Y1133788D01*
X10464476Y1105809D01*
X10550591Y1077829D01*
X10633429Y1064709D01*
X10729449Y1049500D01*
X10729454Y1049500D01*
X10910551Y1049500D01*
X10997259Y1063235D01*
X11089409Y1077829D01*
X11261639Y1133789D01*
X11422994Y1216004D01*
X11569501Y1322447D01*
X11697553Y1450499D01*
X11803996Y1597006D01*
X11886211Y1758361D01*
X11942171Y1930591D01*
X11944371Y1944485D01*
X11953488Y1963720D01*
X11958013Y1984519D01*
X11972553Y2003943D01*
X11974296Y2007619D01*
X11979145Y2012753D01*
X12019143Y2052752D01*
X12080464Y2086235D01*
X12150156Y2081251D01*
X12206089Y2039379D01*
X12229295Y1984468D01*
X12237829Y1930590D01*
X12293787Y1758364D01*
X12293788Y1758361D01*
X12376006Y1597003D01*
X12482441Y1450506D01*
X12482445Y1450501D01*
X12610500Y1322446D01*
X12610505Y1322442D01*
X12673503Y1276672D01*
X12757006Y1216004D01*
X12833094Y1177235D01*
X12918360Y1133789D01*
X12918363Y1133788D01*
X13004476Y1105809D01*
X13090591Y1077829D01*
X13173429Y1064709D01*
X13269449Y1049500D01*
X13269454Y1049500D01*
X13450551Y1049500D01*
X13537259Y1063235D01*
X13629409Y1077829D01*
X13801639Y1133789D01*
X13962994Y1216004D01*
X14109501Y1322447D01*
X14237553Y1450499D01*
X14343996Y1597006D01*
X14426211Y1758361D01*
X14482171Y1930591D01*
X14503027Y2062271D01*
X14507527Y2090679D01*
X14537456Y2153814D01*
X14596768Y2190745D01*
X14666630Y2189747D01*
X14724863Y2151137D01*
X14752473Y2090679D01*
X14777829Y1930590D01*
X14833787Y1758364D01*
X14833788Y1758361D01*
X14916006Y1597003D01*
X15022441Y1450506D01*
X15022445Y1450501D01*
X15150500Y1322446D01*
X15150505Y1322442D01*
X15213503Y1276672D01*
X15297006Y1216004D01*
X15373094Y1177235D01*
X15458360Y1133789D01*
X15458363Y1133788D01*
X15544476Y1105809D01*
X15630591Y1077829D01*
X15713429Y1064709D01*
X15809449Y1049500D01*
X15809454Y1049500D01*
X15990551Y1049500D01*
X16077259Y1063235D01*
X16169409Y1077829D01*
X16341639Y1133789D01*
X16502994Y1216004D01*
X16649501Y1322447D01*
X16777553Y1450499D01*
X16883996Y1597006D01*
X16966211Y1758361D01*
X17022171Y1930591D01*
X17043027Y2062271D01*
X17047527Y2090679D01*
X17077456Y2153814D01*
X17136768Y2190745D01*
X17206630Y2189747D01*
X17264863Y2151137D01*
X17292473Y2090679D01*
X17317829Y1930590D01*
X17373787Y1758364D01*
X17373788Y1758361D01*
X17456006Y1597003D01*
X17562441Y1450506D01*
X17562445Y1450501D01*
X17690500Y1322446D01*
X17690505Y1322442D01*
X17753503Y1276672D01*
X17837006Y1216004D01*
X17913094Y1177235D01*
X17998360Y1133789D01*
X17998363Y1133788D01*
X18084476Y1105809D01*
X18170591Y1077829D01*
X18253429Y1064709D01*
X18349449Y1049500D01*
X18349454Y1049500D01*
X18530551Y1049500D01*
X18617259Y1063235D01*
X18709409Y1077829D01*
X18881639Y1133789D01*
X19042994Y1216004D01*
X19189501Y1322447D01*
X19317553Y1450499D01*
X19423996Y1597006D01*
X19506211Y1758361D01*
X19562171Y1930591D01*
X19583027Y2062271D01*
X19587527Y2090679D01*
X19617456Y2153814D01*
X19676768Y2190745D01*
X19746630Y2189747D01*
X19804863Y2151137D01*
X19832473Y2090679D01*
X19857829Y1930590D01*
X19913787Y1758364D01*
X19913788Y1758361D01*
X19996006Y1597003D01*
X20102441Y1450506D01*
X20102445Y1450501D01*
X20230500Y1322446D01*
X20230505Y1322442D01*
X20293503Y1276672D01*
X20377006Y1216004D01*
X20453094Y1177235D01*
X20538360Y1133789D01*
X20538363Y1133788D01*
X20624476Y1105809D01*
X20710591Y1077829D01*
X20793429Y1064709D01*
X20889449Y1049500D01*
X20889454Y1049500D01*
X21070551Y1049500D01*
X21157259Y1063235D01*
X21249409Y1077829D01*
X21421639Y1133789D01*
X21582994Y1216004D01*
X21729501Y1322447D01*
X21857553Y1450499D01*
X21963996Y1597006D01*
X22046211Y1758361D01*
X22102171Y1930591D01*
X22123027Y2062271D01*
X22127527Y2090679D01*
X22157456Y2153814D01*
X22216768Y2190745D01*
X22286630Y2189747D01*
X22344863Y2151137D01*
X22372473Y2090679D01*
X22397829Y1930590D01*
X22453787Y1758364D01*
X22453788Y1758361D01*
X22536006Y1597003D01*
X22642441Y1450506D01*
X22642445Y1450501D01*
X22770500Y1322446D01*
X22770505Y1322442D01*
X22833503Y1276672D01*
X22917006Y1216004D01*
X22993094Y1177235D01*
X23078360Y1133789D01*
X23078363Y1133788D01*
X23164476Y1105809D01*
X23250591Y1077829D01*
X23333429Y1064709D01*
X23429449Y1049500D01*
X23429454Y1049500D01*
X23610551Y1049500D01*
X23697259Y1063235D01*
X23789409Y1077829D01*
X23961639Y1133789D01*
X24122994Y1216004D01*
X24269501Y1322447D01*
X24397553Y1450499D01*
X24503996Y1597006D01*
X24586211Y1758361D01*
X24642171Y1930591D01*
X24663027Y2062271D01*
X24667527Y2090679D01*
X24697456Y2153814D01*
X24756768Y2190745D01*
X24826630Y2189747D01*
X24884863Y2151137D01*
X24912473Y2090679D01*
X24937829Y1930590D01*
X24993787Y1758364D01*
X24993788Y1758361D01*
X25076006Y1597003D01*
X25182441Y1450506D01*
X25182445Y1450501D01*
X25310500Y1322446D01*
X25310505Y1322442D01*
X25373503Y1276672D01*
X25457006Y1216004D01*
X25533094Y1177235D01*
X25618360Y1133789D01*
X25618363Y1133788D01*
X25704476Y1105809D01*
X25790591Y1077829D01*
X25873429Y1064709D01*
X25969449Y1049500D01*
X25969454Y1049500D01*
X26150551Y1049500D01*
X26237259Y1063235D01*
X26329409Y1077829D01*
X26501639Y1133789D01*
X26662994Y1216004D01*
X26809501Y1322447D01*
X26937553Y1450499D01*
X27043996Y1597006D01*
X27126211Y1758361D01*
X27182171Y1930591D01*
X27203027Y2062271D01*
X27207527Y2090679D01*
X27237456Y2153814D01*
X27296768Y2190745D01*
X27366630Y2189747D01*
X27424863Y2151137D01*
X27452473Y2090679D01*
X27477829Y1930590D01*
X27533787Y1758364D01*
X27533788Y1758361D01*
X27616006Y1597003D01*
X27722441Y1450506D01*
X27722445Y1450501D01*
X27850500Y1322446D01*
X27850505Y1322442D01*
X27913503Y1276672D01*
X27997006Y1216004D01*
X28073094Y1177235D01*
X28158360Y1133789D01*
X28158363Y1133788D01*
X28244476Y1105809D01*
X28330591Y1077829D01*
X28413429Y1064709D01*
X28509449Y1049500D01*
X28509454Y1049500D01*
X28690551Y1049500D01*
X28777259Y1063235D01*
X28869409Y1077829D01*
X29041639Y1133789D01*
X29202994Y1216004D01*
X29349501Y1322447D01*
X29477553Y1450499D01*
X29583996Y1597006D01*
X29666211Y1758361D01*
X29722171Y1930591D01*
X29743027Y2062271D01*
X29747527Y2090679D01*
X29777456Y2153814D01*
X29836768Y2190745D01*
X29906630Y2189747D01*
X29964863Y2151137D01*
X29992473Y2090679D01*
X30017829Y1930590D01*
X30073787Y1758364D01*
X30073788Y1758361D01*
X30156006Y1597003D01*
X30262441Y1450506D01*
X30262445Y1450501D01*
X30390500Y1322446D01*
X30390505Y1322442D01*
X30453503Y1276672D01*
X30537006Y1216004D01*
X30613094Y1177235D01*
X30698360Y1133789D01*
X30698363Y1133788D01*
X30784476Y1105809D01*
X30870591Y1077829D01*
X30953429Y1064709D01*
X31049449Y1049500D01*
X31049454Y1049500D01*
X31230551Y1049500D01*
X31317259Y1063235D01*
X31409409Y1077829D01*
X31581639Y1133789D01*
X31742994Y1216004D01*
X31889501Y1322447D01*
X32017553Y1450499D01*
X32123996Y1597006D01*
X32206211Y1758361D01*
X32262171Y1930591D01*
X32283027Y2062271D01*
X32287527Y2090679D01*
X32317456Y2153814D01*
X32376768Y2190745D01*
X32446630Y2189747D01*
X32504863Y2151137D01*
X32532473Y2090679D01*
X32557829Y1930590D01*
X32613787Y1758364D01*
X32613788Y1758361D01*
X32696006Y1597003D01*
X32802441Y1450506D01*
X32802445Y1450501D01*
X32930500Y1322446D01*
X32930505Y1322442D01*
X32993503Y1276672D01*
X33077006Y1216004D01*
X33153094Y1177235D01*
X33238360Y1133789D01*
X33238363Y1133788D01*
X33324476Y1105809D01*
X33410591Y1077829D01*
X33493429Y1064709D01*
X33589449Y1049500D01*
X33589454Y1049500D01*
X33770551Y1049500D01*
X33857259Y1063235D01*
X33949409Y1077829D01*
X34121639Y1133789D01*
X34282994Y1216004D01*
X34429501Y1322447D01*
X34557553Y1450499D01*
X34663996Y1597006D01*
X34746211Y1758361D01*
X34802171Y1930591D01*
X34823027Y2062271D01*
X34827527Y2090679D01*
X34857456Y2153814D01*
X34916768Y2190745D01*
X34986630Y2189747D01*
X35044863Y2151137D01*
X35072473Y2090679D01*
X35097829Y1930590D01*
X35153787Y1758364D01*
X35153788Y1758361D01*
X35236006Y1597003D01*
X35342441Y1450506D01*
X35342445Y1450501D01*
X35470500Y1322446D01*
X35470505Y1322442D01*
X35533503Y1276672D01*
X35617006Y1216004D01*
X35693094Y1177235D01*
X35778360Y1133789D01*
X35778363Y1133788D01*
X35864476Y1105809D01*
X35950591Y1077829D01*
X36033429Y1064709D01*
X36129449Y1049500D01*
X36129454Y1049500D01*
X36310551Y1049500D01*
X36397259Y1063235D01*
X36489409Y1077829D01*
X36661639Y1133789D01*
X36822994Y1216004D01*
X36969501Y1322447D01*
X37097553Y1450499D01*
X37203996Y1597006D01*
X37286211Y1758361D01*
X37342171Y1930591D01*
X37363027Y2062271D01*
X37367527Y2090679D01*
X37397456Y2153814D01*
X37456768Y2190745D01*
X37526630Y2189747D01*
X37584863Y2151137D01*
X37612473Y2090679D01*
X37637829Y1930590D01*
X37693787Y1758364D01*
X37693788Y1758361D01*
X37776006Y1597003D01*
X37882441Y1450506D01*
X37882445Y1450501D01*
X38010500Y1322446D01*
X38010505Y1322442D01*
X38073503Y1276672D01*
X38157006Y1216004D01*
X38233094Y1177235D01*
X38318360Y1133789D01*
X38318363Y1133788D01*
X38404476Y1105809D01*
X38490591Y1077829D01*
X38573429Y1064709D01*
X38669449Y1049500D01*
X38669454Y1049500D01*
X38850551Y1049500D01*
X38937259Y1063235D01*
X39029409Y1077829D01*
X39201639Y1133789D01*
X39362994Y1216004D01*
X39509501Y1322447D01*
X39637553Y1450499D01*
X39743996Y1597006D01*
X39826211Y1758361D01*
X39882171Y1930591D01*
X39903027Y2062271D01*
X39907527Y2090679D01*
X39937456Y2153814D01*
X39996768Y2190745D01*
X40066630Y2189747D01*
X40124863Y2151137D01*
X40152473Y2090679D01*
X40177829Y1930590D01*
X40233787Y1758364D01*
X40233788Y1758361D01*
X40316006Y1597003D01*
X40422441Y1450506D01*
X40422445Y1450501D01*
X40550500Y1322446D01*
X40550505Y1322442D01*
X40613503Y1276672D01*
X40697006Y1216004D01*
X40773094Y1177235D01*
X40858360Y1133789D01*
X40858363Y1133788D01*
X40944476Y1105809D01*
X41030591Y1077829D01*
X41113429Y1064709D01*
X41209449Y1049500D01*
X41209454Y1049500D01*
X41390551Y1049500D01*
X41477259Y1063235D01*
X41569409Y1077829D01*
X41741639Y1133789D01*
X41902994Y1216004D01*
X42049501Y1322447D01*
X42177553Y1450499D01*
X42283996Y1597006D01*
X42366211Y1758361D01*
X42422171Y1930591D01*
X42443027Y2062271D01*
X42447527Y2090679D01*
X42477456Y2153814D01*
X42536768Y2190745D01*
X42606630Y2189747D01*
X42664863Y2151137D01*
X42692473Y2090679D01*
X42717829Y1930590D01*
X42773787Y1758364D01*
X42773788Y1758361D01*
X42856006Y1597003D01*
X42962441Y1450506D01*
X42962445Y1450501D01*
X43090500Y1322446D01*
X43090505Y1322442D01*
X43153503Y1276672D01*
X43237006Y1216004D01*
X43313094Y1177235D01*
X43398360Y1133789D01*
X43398363Y1133788D01*
X43484476Y1105809D01*
X43570591Y1077829D01*
X43653429Y1064709D01*
X43749449Y1049500D01*
X43749454Y1049500D01*
X43930551Y1049500D01*
X44017259Y1063235D01*
X44109409Y1077829D01*
X44281639Y1133789D01*
X44442994Y1216004D01*
X44589501Y1322447D01*
X44717553Y1450499D01*
X44823996Y1597006D01*
X44906211Y1758361D01*
X44962171Y1930591D01*
X44983027Y2062271D01*
X44987527Y2090679D01*
X45017456Y2153814D01*
X45076768Y2190745D01*
X45146630Y2189747D01*
X45204863Y2151137D01*
X45232473Y2090679D01*
X45257829Y1930590D01*
X45313787Y1758364D01*
X45313788Y1758361D01*
X45396006Y1597003D01*
X45502441Y1450506D01*
X45502445Y1450501D01*
X45630500Y1322446D01*
X45630505Y1322442D01*
X45693503Y1276672D01*
X45777006Y1216004D01*
X45853094Y1177235D01*
X45938360Y1133789D01*
X45938363Y1133788D01*
X46024476Y1105809D01*
X46110591Y1077829D01*
X46193429Y1064709D01*
X46289449Y1049500D01*
X46289454Y1049500D01*
X46470551Y1049500D01*
X46557259Y1063235D01*
X46649409Y1077829D01*
X46821639Y1133789D01*
X46982994Y1216004D01*
X47129501Y1322447D01*
X47257553Y1450499D01*
X47363996Y1597006D01*
X47446211Y1758361D01*
X47502171Y1930591D01*
X47523027Y2062271D01*
X47527527Y2090679D01*
X47557456Y2153814D01*
X47616768Y2190745D01*
X47686630Y2189747D01*
X47744863Y2151137D01*
X47772473Y2090679D01*
X47797829Y1930590D01*
X47853787Y1758364D01*
X47853788Y1758361D01*
X47936006Y1597003D01*
X48042441Y1450506D01*
X48042445Y1450501D01*
X48170500Y1322446D01*
X48170505Y1322442D01*
X48233503Y1276672D01*
X48317006Y1216004D01*
X48393094Y1177235D01*
X48478360Y1133789D01*
X48478363Y1133788D01*
X48564476Y1105809D01*
X48650591Y1077829D01*
X48733429Y1064709D01*
X48829449Y1049500D01*
X48829454Y1049500D01*
X49010551Y1049500D01*
X49097259Y1063235D01*
X49189409Y1077829D01*
X49361639Y1133789D01*
X49522994Y1216004D01*
X49669501Y1322447D01*
X49797553Y1450499D01*
X49903996Y1597006D01*
X49986211Y1758361D01*
X50042171Y1930591D01*
X50063027Y2062271D01*
X50067527Y2090679D01*
X50097456Y2153814D01*
X50156768Y2190745D01*
X50226630Y2189747D01*
X50284863Y2151137D01*
X50312473Y2090679D01*
X50337829Y1930590D01*
X50393787Y1758364D01*
X50393788Y1758361D01*
X50476006Y1597003D01*
X50582441Y1450506D01*
X50582445Y1450501D01*
X50710500Y1322446D01*
X50710505Y1322442D01*
X50773503Y1276672D01*
X50857006Y1216004D01*
X50933094Y1177235D01*
X51018360Y1133789D01*
X51018363Y1133788D01*
X51104476Y1105809D01*
X51190591Y1077829D01*
X51273429Y1064709D01*
X51369449Y1049500D01*
X51369454Y1049500D01*
X51550551Y1049500D01*
X51637259Y1063235D01*
X51729409Y1077829D01*
X51901639Y1133789D01*
X52062994Y1216004D01*
X52209501Y1322447D01*
X52337553Y1450499D01*
X52443996Y1597006D01*
X52526211Y1758361D01*
X52582171Y1930591D01*
X52603027Y2062271D01*
X52607527Y2090679D01*
X52637456Y2153814D01*
X52696768Y2190745D01*
X52766630Y2189747D01*
X52824863Y2151137D01*
X52852473Y2090679D01*
X52877829Y1930590D01*
X52933787Y1758364D01*
X52933788Y1758361D01*
X53016006Y1597003D01*
X53122441Y1450506D01*
X53122445Y1450501D01*
X53250500Y1322446D01*
X53250505Y1322442D01*
X53313503Y1276672D01*
X53397006Y1216004D01*
X53473094Y1177235D01*
X53558360Y1133789D01*
X53558363Y1133788D01*
X53644476Y1105809D01*
X53730591Y1077829D01*
X53813429Y1064709D01*
X53909449Y1049500D01*
X53909454Y1049500D01*
X54090551Y1049500D01*
X54177259Y1063235D01*
X54269409Y1077829D01*
X54441639Y1133789D01*
X54602994Y1216004D01*
X54749501Y1322447D01*
X54877553Y1450499D01*
X54983996Y1597006D01*
X55066211Y1758361D01*
X55122171Y1930591D01*
X55143027Y2062271D01*
X55147527Y2090679D01*
X55177456Y2153814D01*
X55236768Y2190745D01*
X55306630Y2189747D01*
X55364863Y2151137D01*
X55392473Y2090679D01*
X55417829Y1930590D01*
X55473787Y1758364D01*
X55473788Y1758361D01*
X55556006Y1597003D01*
X55662441Y1450506D01*
X55662445Y1450501D01*
X55790500Y1322446D01*
X55790505Y1322442D01*
X55853503Y1276672D01*
X55937006Y1216004D01*
X56013094Y1177235D01*
X56098360Y1133789D01*
X56098363Y1133788D01*
X56184476Y1105809D01*
X56270591Y1077829D01*
X56353429Y1064709D01*
X56449449Y1049500D01*
X56449454Y1049500D01*
X56630551Y1049500D01*
X56717259Y1063235D01*
X56809409Y1077829D01*
X56981639Y1133789D01*
X57142994Y1216004D01*
X57289501Y1322447D01*
X57417553Y1450499D01*
X57523996Y1597006D01*
X57606211Y1758361D01*
X57662171Y1930591D01*
X57683027Y2062271D01*
X57687527Y2090679D01*
X57717456Y2153814D01*
X57776768Y2190745D01*
X57846630Y2189747D01*
X57904863Y2151137D01*
X57932473Y2090679D01*
X57957829Y1930590D01*
X58013787Y1758364D01*
X58013788Y1758361D01*
X58096006Y1597003D01*
X58202441Y1450506D01*
X58202445Y1450501D01*
X58330500Y1322446D01*
X58330505Y1322442D01*
X58393503Y1276672D01*
X58477006Y1216004D01*
X58553094Y1177235D01*
X58638360Y1133789D01*
X58638363Y1133788D01*
X58724476Y1105809D01*
X58810591Y1077829D01*
X58893429Y1064709D01*
X58989449Y1049500D01*
X58989454Y1049500D01*
X59170551Y1049500D01*
X59257259Y1063235D01*
X59349409Y1077829D01*
X59521639Y1133789D01*
X59682994Y1216004D01*
X59829501Y1322447D01*
X59957553Y1450499D01*
X60063996Y1597006D01*
X60146211Y1758361D01*
X60202171Y1930591D01*
X60223027Y2062271D01*
X60252956Y2125405D01*
X60312267Y2162337D01*
X60382130Y2161339D01*
X60440363Y2122729D01*
X60468477Y2058766D01*
X60469500Y2042873D01*
X60469500Y1305144D01*
X60469502Y1305118D01*
X60472413Y1280013D01*
X60472415Y1280009D01*
X60517793Y1177236D01*
X60517794Y1177235D01*
X60597235Y1097794D01*
X60700009Y1052415D01*
X60725135Y1049500D01*
X62514864Y1049501D01*
X62514879Y1049503D01*
X62514882Y1049503D01*
X62539987Y1052414D01*
X62539988Y1052415D01*
X62539991Y1052415D01*
X62642765Y1097794D01*
X62722206Y1177235D01*
X62767585Y1280009D01*
X62770500Y1305135D01*
X62770499Y3094864D01*
X62770449Y3095296D01*
X62767586Y3119988D01*
X62767585Y3119990D01*
X62767585Y3119991D01*
X62722206Y3222765D01*
X62642765Y3302206D01*
X62642763Y3302207D01*
X62599413Y3321348D01*
X62546037Y3366434D01*
X62525510Y3433221D01*
X62525500Y3434782D01*
X62525500Y6502156D01*
X63775000Y6502156D01*
X63781401Y6442628D01*
X63781403Y6442621D01*
X63831645Y6307914D01*
X63831649Y6307907D01*
X63917809Y6192813D01*
X63917812Y6192810D01*
X64032906Y6106650D01*
X64032913Y6106646D01*
X64167620Y6056404D01*
X64167627Y6056402D01*
X64227155Y6050001D01*
X64227172Y6050000D01*
X64875000Y6050000D01*
X65875000Y6050000D01*
X66522828Y6050000D01*
X66522844Y6050001D01*
X66582372Y6056402D01*
X66582379Y6056404D01*
X66717086Y6106646D01*
X66717093Y6106650D01*
X66832187Y6192810D01*
X66832190Y6192813D01*
X66918350Y6307907D01*
X66918354Y6307914D01*
X66968596Y6442621D01*
X66968598Y6442628D01*
X66974999Y6502156D01*
X66975000Y6502173D01*
X66975000Y6950000D01*
X65875000Y6950000D01*
X65875000Y6050000D01*
X64875000Y6050000D01*
X64875000Y6950000D01*
X63775000Y6950000D01*
X63775000Y6502156D01*
X62525500Y6502156D01*
X62525500Y8397845D01*
X63775000Y8397845D01*
X63775000Y7950000D01*
X64875000Y7950000D01*
X65875000Y7950000D01*
X66975000Y7950000D01*
X66975000Y8397828D01*
X66974999Y8397845D01*
X66968598Y8457373D01*
X66968596Y8457380D01*
X66918354Y8592087D01*
X66918350Y8592094D01*
X66832190Y8707188D01*
X66832187Y8707191D01*
X66717093Y8793351D01*
X66717086Y8793355D01*
X66582379Y8843597D01*
X66582372Y8843599D01*
X66522844Y8850000D01*
X65875000Y8850000D01*
X65875000Y7950000D01*
X64875000Y7950000D01*
X64875000Y8850000D01*
X64227155Y8850000D01*
X64167627Y8843599D01*
X64167620Y8843597D01*
X64032913Y8793355D01*
X64032906Y8793351D01*
X63917812Y8707191D01*
X63917809Y8707188D01*
X63831649Y8592094D01*
X63831645Y8592087D01*
X63781403Y8457380D01*
X63781401Y8457373D01*
X63775000Y8397845D01*
X62525500Y8397845D01*
X62525500Y8775501D01*
X62545185Y8842540D01*
X62597989Y8888295D01*
X62649500Y8899501D01*
X62819856Y8899501D01*
X62819864Y8899501D01*
X62819879Y8899503D01*
X62819882Y8899503D01*
X62844987Y8902414D01*
X62844988Y8902415D01*
X62844991Y8902415D01*
X62947765Y8947794D01*
X63027206Y9027235D01*
X63072585Y9130009D01*
X63075500Y9155135D01*
X63075499Y9544864D01*
X63073154Y9565088D01*
X63071511Y9579258D01*
X63073280Y9579464D01*
X63073282Y9620540D01*
X63071510Y9620745D01*
X63073325Y9636387D01*
X63075500Y9655135D01*
X63075499Y10044864D01*
X63075497Y10044883D01*
X63071511Y10079258D01*
X63073280Y10079464D01*
X63073282Y10120540D01*
X63071510Y10120745D01*
X63072585Y10130009D01*
X63075500Y10155135D01*
X63075499Y10544864D01*
X63072985Y10566544D01*
X63071511Y10579258D01*
X63073280Y10579464D01*
X63073282Y10620540D01*
X63071510Y10620745D01*
X63072585Y10630009D01*
X63075500Y10655135D01*
X63075499Y11044864D01*
X63075497Y11044883D01*
X63071511Y11079258D01*
X63073280Y11079464D01*
X63073282Y11120540D01*
X63071510Y11120745D01*
X63072585Y11130009D01*
X63075500Y11155135D01*
X63075499Y11544864D01*
X63075497Y11544883D01*
X63071511Y11579258D01*
X63073280Y11579464D01*
X63073282Y11620540D01*
X63071510Y11620745D01*
X63074513Y11646630D01*
X63075500Y11655135D01*
X63075499Y12044864D01*
X63075497Y12044883D01*
X63071511Y12079258D01*
X63073280Y12079464D01*
X63073282Y12120540D01*
X63071510Y12120745D01*
X63072585Y12130009D01*
X63075500Y12155135D01*
X63075499Y12544864D01*
X63075497Y12544883D01*
X63071511Y12579258D01*
X63073280Y12579464D01*
X63073282Y12620540D01*
X63071510Y12620745D01*
X63072585Y12630009D01*
X63075500Y12655135D01*
X63075499Y13044864D01*
X63075497Y13044883D01*
X63071511Y13079258D01*
X63073280Y13079464D01*
X63073282Y13120540D01*
X63071510Y13120745D01*
X63074524Y13146726D01*
X63075500Y13155135D01*
X63075499Y13544864D01*
X63075497Y13544883D01*
X63071511Y13579258D01*
X63073280Y13579464D01*
X63073282Y13620540D01*
X63071510Y13620745D01*
X63072642Y13630500D01*
X63075500Y13655135D01*
X63075499Y14044864D01*
X63074039Y14057456D01*
X63071511Y14079258D01*
X63073280Y14079464D01*
X63073282Y14120540D01*
X63071510Y14120745D01*
X63072585Y14130009D01*
X63075500Y14155135D01*
X63075499Y14544864D01*
X63075497Y14544883D01*
X63071511Y14579258D01*
X63073280Y14579464D01*
X63073282Y14620540D01*
X63071510Y14620745D01*
X63074113Y14643181D01*
X63075500Y14655135D01*
X63075499Y15044864D01*
X63075497Y15044883D01*
X63071511Y15079258D01*
X63073280Y15079464D01*
X63073282Y15120540D01*
X63071510Y15120745D01*
X63072585Y15130009D01*
X63075500Y15155135D01*
X63075499Y15544864D01*
X63075497Y15544883D01*
X63071511Y15579258D01*
X63073280Y15579464D01*
X63073282Y15620540D01*
X63071510Y15620745D01*
X63072585Y15630009D01*
X63075500Y15655135D01*
X63075499Y16044864D01*
X63075497Y16044883D01*
X63071511Y16079258D01*
X63073280Y16079464D01*
X63073282Y16120540D01*
X63071510Y16120745D01*
X63072585Y16130009D01*
X63075500Y16155135D01*
X63075499Y16544864D01*
X63072871Y16567527D01*
X63071511Y16579258D01*
X63073280Y16579464D01*
X63073282Y16620540D01*
X63071510Y16620745D01*
X63072585Y16630009D01*
X63075500Y16655135D01*
X63075499Y17044864D01*
X63075497Y17044883D01*
X63071511Y17079258D01*
X63073280Y17079464D01*
X63073282Y17120540D01*
X63071510Y17120745D01*
X63074962Y17150500D01*
X63075500Y17155135D01*
X63075499Y17544864D01*
X63075497Y17544883D01*
X63071511Y17579258D01*
X63073280Y17579464D01*
X63073282Y17620540D01*
X63071510Y17620745D01*
X63072585Y17630009D01*
X63075500Y17655135D01*
X63075499Y18044864D01*
X63074840Y18050546D01*
X63071511Y18079258D01*
X63073280Y18079464D01*
X63073282Y18120540D01*
X63071510Y18120745D01*
X63072585Y18130009D01*
X63075500Y18155135D01*
X63075499Y18544864D01*
X63075497Y18544883D01*
X63071511Y18579258D01*
X63073280Y18579464D01*
X63073282Y18620540D01*
X63071510Y18620745D01*
X63073513Y18638011D01*
X63075500Y18655135D01*
X63075499Y19044864D01*
X63073086Y19065675D01*
X63071511Y19079258D01*
X63073280Y19079464D01*
X63073282Y19120540D01*
X63071510Y19120745D01*
X63073449Y19137456D01*
X63075500Y19155135D01*
X63075499Y19544864D01*
X63075497Y19544883D01*
X63071511Y19579258D01*
X63073280Y19579464D01*
X63073282Y19620540D01*
X63071510Y19620745D01*
X63072585Y19630009D01*
X63075500Y19655135D01*
X63075499Y20044864D01*
X63075497Y20044883D01*
X63071511Y20079258D01*
X63073280Y20079464D01*
X63073282Y20120540D01*
X63071510Y20120745D01*
X63074368Y20145380D01*
X63075500Y20155135D01*
X63075499Y20544864D01*
X63075035Y20548864D01*
X63071511Y20579258D01*
X63073280Y20579464D01*
X63073282Y20620540D01*
X63071510Y20620745D01*
X63072585Y20630009D01*
X63075500Y20655135D01*
X63075499Y21044864D01*
X63075497Y21044883D01*
X63072586Y21069988D01*
X63072585Y21069990D01*
X63072585Y21069991D01*
X63027206Y21172765D01*
X62947765Y21252206D01*
X62927699Y21261066D01*
X62844992Y21297585D01*
X62819865Y21300500D01*
X61430143Y21300500D01*
X61430117Y21300498D01*
X61405012Y21297587D01*
X61405008Y21297586D01*
X61322301Y21261066D01*
X61272215Y21250500D01*
X57897273Y21250500D01*
X57795410Y21223207D01*
X57704087Y21170480D01*
X57704084Y21170478D01*
X48988426Y12454819D01*
X48927103Y12421334D01*
X48900745Y12418500D01*
X48477273Y12418500D01*
X48375413Y12391207D01*
X48375412Y12391207D01*
X48375410Y12391206D01*
X48375407Y12391205D01*
X48338182Y12369712D01*
X48338181Y12369711D01*
X48311134Y12354096D01*
X48284088Y12338481D01*
X48284085Y12338479D01*
X47819716Y11874111D01*
X47813775Y11868171D01*
X47813405Y11867955D01*
X47776667Y11831061D01*
X47776482Y11830877D01*
X47776482Y11830876D01*
X47734704Y11789098D01*
X47733406Y11787617D01*
X47542670Y11596064D01*
X47308535Y11361929D01*
X47308267Y11361662D01*
X47297089Y11350552D01*
X47235664Y11317254D01*
X47209676Y11314500D01*
X39482273Y11314500D01*
X39380410Y11287207D01*
X39289087Y11234480D01*
X39289084Y11234478D01*
X38703426Y10648819D01*
X38642103Y10615334D01*
X38615745Y10612500D01*
X34834273Y10612500D01*
X34732412Y10585207D01*
X34732409Y10585206D01*
X34686750Y10558845D01*
X34686750Y10558844D01*
X34641087Y10532480D01*
X34641085Y10532479D01*
X34634049Y10528416D01*
X34632561Y10530993D01*
X34580671Y10510930D01*
X34570350Y10510500D01*
X30891682Y10510500D01*
X30891641Y10510511D01*
X30838914Y10510500D01*
X30786259Y10510500D01*
X30786194Y10510491D01*
X30736935Y10497281D01*
X30736911Y10497274D01*
X30684403Y10483205D01*
X30684347Y10483182D01*
X30641432Y10458392D01*
X30641409Y10458379D01*
X30593083Y10430479D01*
X30593030Y10430439D01*
X30557811Y10395205D01*
X30557795Y10395190D01*
X30513067Y10350461D01*
X30512931Y10350307D01*
X29928713Y9765838D01*
X29867397Y9732339D01*
X29841013Y9729500D01*
X28137782Y9729500D01*
X28137741Y9729511D01*
X28085014Y9729500D01*
X28032359Y9729500D01*
X28032294Y9729491D01*
X27983035Y9716281D01*
X27983011Y9716274D01*
X27930503Y9702205D01*
X27930447Y9702182D01*
X27887532Y9677392D01*
X27887509Y9677379D01*
X27839183Y9649479D01*
X27839130Y9649439D01*
X27803954Y9614248D01*
X27803938Y9614233D01*
X27759176Y9569470D01*
X27759032Y9569307D01*
X27734619Y9544883D01*
X27674599Y9484838D01*
X27613285Y9451340D01*
X27586900Y9448500D01*
X25891539Y9448500D01*
X25891523Y9448501D01*
X25883927Y9448501D01*
X25778473Y9448501D01*
X25727756Y9434911D01*
X25676612Y9421207D01*
X25585284Y9368478D01*
X25520626Y9303819D01*
X25459303Y9270334D01*
X25432945Y9267500D01*
X23729982Y9267500D01*
X23729941Y9267511D01*
X23677214Y9267500D01*
X23624559Y9267500D01*
X23624494Y9267491D01*
X23575235Y9254281D01*
X23575211Y9254274D01*
X23522703Y9240205D01*
X23522647Y9240182D01*
X23489949Y9221295D01*
X23483953Y9217830D01*
X23479732Y9215392D01*
X23479709Y9215379D01*
X23431386Y9187480D01*
X23431325Y9187434D01*
X23397319Y9153413D01*
X23397300Y9153394D01*
X23351367Y9107462D01*
X23351231Y9107308D01*
X23185833Y8941838D01*
X23124517Y8908340D01*
X23098133Y8905500D01*
X19316773Y8905500D01*
X19214910Y8878207D01*
X19123587Y8825480D01*
X19123584Y8825478D01*
X19108926Y8810819D01*
X19047603Y8777334D01*
X19021245Y8774500D01*
X17318282Y8774500D01*
X17318241Y8774511D01*
X17265514Y8774500D01*
X17212859Y8774500D01*
X17212794Y8774491D01*
X17163535Y8761281D01*
X17163511Y8761274D01*
X17111003Y8747205D01*
X17110947Y8747182D01*
X17068032Y8722392D01*
X17068009Y8722379D01*
X17019686Y8694480D01*
X17019629Y8694438D01*
X17002758Y8677559D01*
X16984941Y8659735D01*
X16984941Y8659734D01*
X16939667Y8614462D01*
X16939531Y8614308D01*
X16765137Y8439838D01*
X16703821Y8406340D01*
X16677437Y8403500D01*
X15754382Y8403500D01*
X15754341Y8403511D01*
X15701614Y8403500D01*
X15648959Y8403500D01*
X15648894Y8403491D01*
X15599635Y8390281D01*
X15599611Y8390274D01*
X15547108Y8376206D01*
X15547042Y8376179D01*
X15504327Y8351505D01*
X15504305Y8351492D01*
X15455783Y8323479D01*
X15455730Y8323439D01*
X15420511Y8288205D01*
X15420495Y8288190D01*
X15375763Y8243457D01*
X15375635Y8243311D01*
X14716649Y7584043D01*
X14716626Y7584019D01*
X11995508Y4863181D01*
X11969138Y4836814D01*
X11907813Y4803332D01*
X11881461Y4800500D01*
X5347273Y4800500D01*
X5245410Y4773207D01*
X5154087Y4720480D01*
X5154084Y4720478D01*
X3739280Y3305675D01*
X3677957Y3272190D01*
X3613281Y3275425D01*
X3469410Y3322171D01*
X3290551Y3350500D01*
X3290546Y3350500D01*
X3109454Y3350500D01*
X3109449Y3350500D01*
X2930589Y3322171D01*
X2758363Y3266213D01*
X2758360Y3266212D01*
X2597002Y3183994D01*
X2450505Y3077559D01*
X2450500Y3077555D01*
X2322445Y2949500D01*
X2322441Y2949495D01*
X2216006Y2802998D01*
X2133788Y2641640D01*
X2133787Y2641637D01*
X2077829Y2469411D01*
X2049500Y2290552D01*
X514228Y2290552D01*
X500765Y2495957D01*
X500500Y2504067D01*
X500500Y57495934D01*
X500765Y57504044D01*
X504819Y57565892D01*
X517075Y57752898D01*
X519190Y57768952D01*
X567045Y58009538D01*
X571243Y58025203D01*
X613992Y58151137D01*
X650093Y58257488D01*
X656291Y58272453D01*
X764790Y58492467D01*
X772893Y58506502D01*
X909182Y58710473D01*
X919039Y58723319D01*
X1080786Y58907756D01*
X1092244Y58919214D01*
X1276681Y59080961D01*
X1289527Y59090818D01*
X1493498Y59227107D01*
X1507533Y59235210D01*
X1727547Y59343709D01*
X1742512Y59349907D01*
X1935740Y59415499D01*
X1974797Y59428757D01*
X1990464Y59432955D01*
X2231048Y59480810D01*
X2247102Y59482925D01*
X2495957Y59499235D01*
X2504067Y59499500D01*
X2565892Y59499500D01*
X21125167Y59499500D01*
X21192206Y59479815D01*
G37*
%TD.AperFunction*%
%TA.AperFunction,Conductor*%
G36*
X40718584Y50559815D02*
G01*
X40739226Y50543181D01*
X41067726Y50214681D01*
X41101211Y50153358D01*
X41096227Y50083666D01*
X41054355Y50027733D01*
X40988891Y50003316D01*
X40980045Y50003000D01*
X11749416Y50003000D01*
X11682377Y50022685D01*
X11636622Y50075489D01*
X11626678Y50144647D01*
X11655703Y50208203D01*
X11661735Y50214681D01*
X11677553Y50230499D01*
X11783996Y50377006D01*
X11852675Y50511795D01*
X11900650Y50562591D01*
X11963160Y50579500D01*
X40651545Y50579500D01*
X40718584Y50559815D01*
G37*
%TD.AperFunction*%
%TD*%
M02*
