%TF.GenerationSoftware,KiCad,Pcbnew,9.0.0-1.fc41*%
%TF.CreationDate,2025-03-28T10:43:55+08:00*%
%TF.ProjectId,st77xxlcd,73743737-7878-46c6-9364-2e6b69636164,V1.0.0*%
%TF.SameCoordinates,PX413b380PY77f8e40*%
%TF.FileFunction,Paste,Top*%
%TF.FilePolarity,Positive*%
%FSLAX46Y46*%
G04 Gerber Fmt 4.6, Leading zero omitted, Abs format (unit mm)*
G04 Created by KiCad (PCBNEW 9.0.0-1.fc41) date 2025-03-28 10:43:55*
%MOMM*%
%LPD*%
G01*
G04 APERTURE LIST*
%ADD10R,2.200000X1.800000*%
%ADD11R,1.300000X0.300000*%
G04 APERTURE END LIST*
D10*
%TO.C,J1*%
X60950000Y53750000D03*
X60950000Y30450000D03*
D11*
X57700000Y51850000D03*
X57700000Y51350000D03*
X57700000Y50850000D03*
X57700000Y50350000D03*
X57700000Y49850000D03*
X57700000Y49350000D03*
X57700000Y48850000D03*
X57700000Y48350000D03*
X57700000Y47850000D03*
X57700000Y47350000D03*
X57700000Y46850000D03*
X57700000Y46350000D03*
X57700000Y45850000D03*
X57700000Y45350000D03*
X57700000Y44850000D03*
X57700000Y44350000D03*
X57700000Y43850000D03*
X57700000Y43350000D03*
X57700000Y42850000D03*
X57700000Y42350000D03*
X57700000Y41850000D03*
X57700000Y41350000D03*
X57700000Y40850000D03*
X57700000Y40350000D03*
X57700000Y39850000D03*
X57700000Y39350000D03*
X57700000Y38850000D03*
X57700000Y38350000D03*
X57700000Y37850000D03*
X57700000Y37350000D03*
X57700000Y36850000D03*
X57700000Y36350000D03*
X57700000Y35850000D03*
X57700000Y35350000D03*
X57700000Y34850000D03*
X57700000Y34350000D03*
X57700000Y33850000D03*
X57700000Y33350000D03*
X57700000Y32850000D03*
X57700000Y32350000D03*
%TD*%
%TO.C,J3*%
X62125000Y9350000D03*
X62125000Y9850000D03*
X62125000Y10350000D03*
X62125000Y10850000D03*
X62125000Y11350000D03*
X62125000Y11850000D03*
X62125000Y12350000D03*
X62125000Y12850000D03*
X62125000Y13350000D03*
X62125000Y13850000D03*
X62125000Y14350000D03*
X62125000Y14850000D03*
X62125000Y15350000D03*
X62125000Y15850000D03*
X62125000Y16350000D03*
X62125000Y16850000D03*
X62125000Y17350000D03*
X62125000Y17850000D03*
X62125000Y18350000D03*
X62125000Y18850000D03*
X62125000Y19350000D03*
X62125000Y19850000D03*
X62125000Y20350000D03*
X62125000Y20850000D03*
D10*
X65375000Y7450000D03*
X65375000Y22750000D03*
%TD*%
D11*
%TO.C,J2*%
X42125000Y54160000D03*
X42125000Y54660000D03*
X42125000Y55160000D03*
X42125000Y55660000D03*
X42125000Y56160000D03*
X42125000Y56660000D03*
D10*
X45375000Y52260000D03*
X45375000Y58560000D03*
%TD*%
M02*
