%TF.GenerationSoftware,KiCad,Pcbnew,9.0.0-1.fc41*%
%TF.CreationDate,2025-03-28T10:43:55+08:00*%
%TF.ProjectId,st77xxlcd,73743737-7878-46c6-9364-2e6b69636164,V1.0.0*%
%TF.SameCoordinates,PX413b380PY77f8e40*%
%TF.FileFunction,Legend,Top*%
%TF.FilePolarity,Positive*%
%FSLAX46Y46*%
G04 Gerber Fmt 4.6, Leading zero omitted, Abs format (unit mm)*
G04 Created by KiCad (PCBNEW 9.0.0-1.fc41) date 2025-03-28 10:43:55*
%MOMM*%
%LPD*%
G01*
G04 APERTURE LIST*
%ADD10C,0.100000*%
%ADD11C,0.150000*%
%ADD12C,0.120000*%
G04 APERTURE END LIST*
D10*
X51450000Y3850000D02*
X51450000Y8400000D01*
X50756265Y9632343D02*
X50803884Y9679962D01*
X50803884Y9679962D02*
X50899122Y9727581D01*
X50899122Y9727581D02*
X51137217Y9727581D01*
X51137217Y9727581D02*
X51232455Y9679962D01*
X51232455Y9679962D02*
X51280074Y9632343D01*
X51280074Y9632343D02*
X51327693Y9537105D01*
X51327693Y9537105D02*
X51327693Y9441867D01*
X51327693Y9441867D02*
X51280074Y9299010D01*
X51280074Y9299010D02*
X50708646Y8727581D01*
X50708646Y8727581D02*
X51327693Y8727581D01*
X51946741Y9727581D02*
X52041979Y9727581D01*
X52041979Y9727581D02*
X52137217Y9679962D01*
X52137217Y9679962D02*
X52184836Y9632343D01*
X52184836Y9632343D02*
X52232455Y9537105D01*
X52232455Y9537105D02*
X52280074Y9346629D01*
X52280074Y9346629D02*
X52280074Y9108534D01*
X52280074Y9108534D02*
X52232455Y8918058D01*
X52232455Y8918058D02*
X52184836Y8822820D01*
X52184836Y8822820D02*
X52137217Y8775200D01*
X52137217Y8775200D02*
X52041979Y8727581D01*
X52041979Y8727581D02*
X51946741Y8727581D01*
X51946741Y8727581D02*
X51851503Y8775200D01*
X51851503Y8775200D02*
X51803884Y8822820D01*
X51803884Y8822820D02*
X51756265Y8918058D01*
X51756265Y8918058D02*
X51708646Y9108534D01*
X51708646Y9108534D02*
X51708646Y9346629D01*
X51708646Y9346629D02*
X51756265Y9537105D01*
X51756265Y9537105D02*
X51803884Y9632343D01*
X51803884Y9632343D02*
X51851503Y9679962D01*
X51851503Y9679962D02*
X51946741Y9727581D01*
X38800000Y3850000D02*
X38800000Y8400000D01*
X38427693Y8727581D02*
X37856265Y8727581D01*
X38141979Y8727581D02*
X38141979Y9727581D01*
X38141979Y9727581D02*
X38046741Y9584724D01*
X38046741Y9584724D02*
X37951503Y9489486D01*
X37951503Y9489486D02*
X37856265Y9441867D01*
X39332455Y9727581D02*
X38856265Y9727581D01*
X38856265Y9727581D02*
X38808646Y9251391D01*
X38808646Y9251391D02*
X38856265Y9299010D01*
X38856265Y9299010D02*
X38951503Y9346629D01*
X38951503Y9346629D02*
X39189598Y9346629D01*
X39189598Y9346629D02*
X39284836Y9299010D01*
X39284836Y9299010D02*
X39332455Y9251391D01*
X39332455Y9251391D02*
X39380074Y9156153D01*
X39380074Y9156153D02*
X39380074Y8918058D01*
X39380074Y8918058D02*
X39332455Y8822820D01*
X39332455Y8822820D02*
X39284836Y8775200D01*
X39284836Y8775200D02*
X39189598Y8727581D01*
X39189598Y8727581D02*
X38951503Y8727581D01*
X38951503Y8727581D02*
X38856265Y8775200D01*
X38856265Y8775200D02*
X38808646Y8822820D01*
X25827693Y8727581D02*
X25256265Y8727581D01*
X25541979Y8727581D02*
X25541979Y9727581D01*
X25541979Y9727581D02*
X25446741Y9584724D01*
X25446741Y9584724D02*
X25351503Y9489486D01*
X25351503Y9489486D02*
X25256265Y9441867D01*
X26446741Y9727581D02*
X26541979Y9727581D01*
X26541979Y9727581D02*
X26637217Y9679962D01*
X26637217Y9679962D02*
X26684836Y9632343D01*
X26684836Y9632343D02*
X26732455Y9537105D01*
X26732455Y9537105D02*
X26780074Y9346629D01*
X26780074Y9346629D02*
X26780074Y9108534D01*
X26780074Y9108534D02*
X26732455Y8918058D01*
X26732455Y8918058D02*
X26684836Y8822820D01*
X26684836Y8822820D02*
X26637217Y8775200D01*
X26637217Y8775200D02*
X26541979Y8727581D01*
X26541979Y8727581D02*
X26446741Y8727581D01*
X26446741Y8727581D02*
X26351503Y8775200D01*
X26351503Y8775200D02*
X26303884Y8822820D01*
X26303884Y8822820D02*
X26256265Y8918058D01*
X26256265Y8918058D02*
X26208646Y9108534D01*
X26208646Y9108534D02*
X26208646Y9346629D01*
X26208646Y9346629D02*
X26256265Y9537105D01*
X26256265Y9537105D02*
X26303884Y9632343D01*
X26303884Y9632343D02*
X26351503Y9679962D01*
X26351503Y9679962D02*
X26446741Y9727581D01*
X13282455Y51627581D02*
X13091979Y51627581D01*
X13091979Y51627581D02*
X12996741Y51579962D01*
X12996741Y51579962D02*
X12949122Y51532343D01*
X12949122Y51532343D02*
X12853884Y51389486D01*
X12853884Y51389486D02*
X12806265Y51199010D01*
X12806265Y51199010D02*
X12806265Y50818058D01*
X12806265Y50818058D02*
X12853884Y50722820D01*
X12853884Y50722820D02*
X12901503Y50675200D01*
X12901503Y50675200D02*
X12996741Y50627581D01*
X12996741Y50627581D02*
X13187217Y50627581D01*
X13187217Y50627581D02*
X13282455Y50675200D01*
X13282455Y50675200D02*
X13330074Y50722820D01*
X13330074Y50722820D02*
X13377693Y50818058D01*
X13377693Y50818058D02*
X13377693Y51056153D01*
X13377693Y51056153D02*
X13330074Y51151391D01*
X13330074Y51151391D02*
X13282455Y51199010D01*
X13282455Y51199010D02*
X13187217Y51246629D01*
X13187217Y51246629D02*
X12996741Y51246629D01*
X12996741Y51246629D02*
X12901503Y51199010D01*
X12901503Y51199010D02*
X12853884Y51151391D01*
X12853884Y51151391D02*
X12806265Y51056153D01*
X13277693Y37977581D02*
X12706265Y37977581D01*
X12991979Y37977581D02*
X12991979Y38977581D01*
X12991979Y38977581D02*
X12896741Y38834724D01*
X12896741Y38834724D02*
X12801503Y38739486D01*
X12801503Y38739486D02*
X12706265Y38691867D01*
X14134836Y38977581D02*
X13944360Y38977581D01*
X13944360Y38977581D02*
X13849122Y38929962D01*
X13849122Y38929962D02*
X13801503Y38882343D01*
X13801503Y38882343D02*
X13706265Y38739486D01*
X13706265Y38739486D02*
X13658646Y38549010D01*
X13658646Y38549010D02*
X13658646Y38168058D01*
X13658646Y38168058D02*
X13706265Y38072820D01*
X13706265Y38072820D02*
X13753884Y38025200D01*
X13753884Y38025200D02*
X13849122Y37977581D01*
X13849122Y37977581D02*
X14039598Y37977581D01*
X14039598Y37977581D02*
X14134836Y38025200D01*
X14134836Y38025200D02*
X14182455Y38072820D01*
X14182455Y38072820D02*
X14230074Y38168058D01*
X14230074Y38168058D02*
X14230074Y38406153D01*
X14230074Y38406153D02*
X14182455Y38501391D01*
X14182455Y38501391D02*
X14134836Y38549010D01*
X14134836Y38549010D02*
X14039598Y38596629D01*
X14039598Y38596629D02*
X13849122Y38596629D01*
X13849122Y38596629D02*
X13753884Y38549010D01*
X13753884Y38549010D02*
X13706265Y38501391D01*
X13706265Y38501391D02*
X13658646Y38406153D01*
X12706265Y26182343D02*
X12753884Y26229962D01*
X12753884Y26229962D02*
X12849122Y26277581D01*
X12849122Y26277581D02*
X13087217Y26277581D01*
X13087217Y26277581D02*
X13182455Y26229962D01*
X13182455Y26229962D02*
X13230074Y26182343D01*
X13230074Y26182343D02*
X13277693Y26087105D01*
X13277693Y26087105D02*
X13277693Y25991867D01*
X13277693Y25991867D02*
X13230074Y25849010D01*
X13230074Y25849010D02*
X12658646Y25277581D01*
X12658646Y25277581D02*
X13277693Y25277581D01*
X14134836Y26277581D02*
X13944360Y26277581D01*
X13944360Y26277581D02*
X13849122Y26229962D01*
X13849122Y26229962D02*
X13801503Y26182343D01*
X13801503Y26182343D02*
X13706265Y26039486D01*
X13706265Y26039486D02*
X13658646Y25849010D01*
X13658646Y25849010D02*
X13658646Y25468058D01*
X13658646Y25468058D02*
X13706265Y25372820D01*
X13706265Y25372820D02*
X13753884Y25325200D01*
X13753884Y25325200D02*
X13849122Y25277581D01*
X13849122Y25277581D02*
X14039598Y25277581D01*
X14039598Y25277581D02*
X14134836Y25325200D01*
X14134836Y25325200D02*
X14182455Y25372820D01*
X14182455Y25372820D02*
X14230074Y25468058D01*
X14230074Y25468058D02*
X14230074Y25706153D01*
X14230074Y25706153D02*
X14182455Y25801391D01*
X14182455Y25801391D02*
X14134836Y25849010D01*
X14134836Y25849010D02*
X14039598Y25896629D01*
X14039598Y25896629D02*
X13849122Y25896629D01*
X13849122Y25896629D02*
X13753884Y25849010D01*
X13753884Y25849010D02*
X13706265Y25801391D01*
X13706265Y25801391D02*
X13658646Y25706153D01*
X12758646Y13577581D02*
X13377693Y13577581D01*
X13377693Y13577581D02*
X13044360Y13196629D01*
X13044360Y13196629D02*
X13187217Y13196629D01*
X13187217Y13196629D02*
X13282455Y13149010D01*
X13282455Y13149010D02*
X13330074Y13101391D01*
X13330074Y13101391D02*
X13377693Y13006153D01*
X13377693Y13006153D02*
X13377693Y12768058D01*
X13377693Y12768058D02*
X13330074Y12672820D01*
X13330074Y12672820D02*
X13282455Y12625200D01*
X13282455Y12625200D02*
X13187217Y12577581D01*
X13187217Y12577581D02*
X12901503Y12577581D01*
X12901503Y12577581D02*
X12806265Y12625200D01*
X12806265Y12625200D02*
X12758646Y12672820D01*
X14234836Y13577581D02*
X14044360Y13577581D01*
X14044360Y13577581D02*
X13949122Y13529962D01*
X13949122Y13529962D02*
X13901503Y13482343D01*
X13901503Y13482343D02*
X13806265Y13339486D01*
X13806265Y13339486D02*
X13758646Y13149010D01*
X13758646Y13149010D02*
X13758646Y12768058D01*
X13758646Y12768058D02*
X13806265Y12672820D01*
X13806265Y12672820D02*
X13853884Y12625200D01*
X13853884Y12625200D02*
X13949122Y12577581D01*
X13949122Y12577581D02*
X14139598Y12577581D01*
X14139598Y12577581D02*
X14234836Y12625200D01*
X14234836Y12625200D02*
X14282455Y12672820D01*
X14282455Y12672820D02*
X14330074Y12768058D01*
X14330074Y12768058D02*
X14330074Y13006153D01*
X14330074Y13006153D02*
X14282455Y13101391D01*
X14282455Y13101391D02*
X14234836Y13149010D01*
X14234836Y13149010D02*
X14139598Y13196629D01*
X14139598Y13196629D02*
X13949122Y13196629D01*
X13949122Y13196629D02*
X13853884Y13149010D01*
X13853884Y13149010D02*
X13806265Y13101391D01*
X13806265Y13101391D02*
X13758646Y13006153D01*
X4858646Y18427581D02*
X5477693Y18427581D01*
X5477693Y18427581D02*
X5144360Y18046629D01*
X5144360Y18046629D02*
X5287217Y18046629D01*
X5287217Y18046629D02*
X5382455Y17999010D01*
X5382455Y17999010D02*
X5430074Y17951391D01*
X5430074Y17951391D02*
X5477693Y17856153D01*
X5477693Y17856153D02*
X5477693Y17618058D01*
X5477693Y17618058D02*
X5430074Y17522820D01*
X5430074Y17522820D02*
X5382455Y17475200D01*
X5382455Y17475200D02*
X5287217Y17427581D01*
X5287217Y17427581D02*
X5001503Y17427581D01*
X5001503Y17427581D02*
X4906265Y17475200D01*
X4906265Y17475200D02*
X4858646Y17522820D01*
X6430074Y17427581D02*
X5858646Y17427581D01*
X6144360Y17427581D02*
X6144360Y18427581D01*
X6144360Y18427581D02*
X6049122Y18284724D01*
X6049122Y18284724D02*
X5953884Y18189486D01*
X5953884Y18189486D02*
X5858646Y18141867D01*
X4856265Y31082343D02*
X4903884Y31129962D01*
X4903884Y31129962D02*
X4999122Y31177581D01*
X4999122Y31177581D02*
X5237217Y31177581D01*
X5237217Y31177581D02*
X5332455Y31129962D01*
X5332455Y31129962D02*
X5380074Y31082343D01*
X5380074Y31082343D02*
X5427693Y30987105D01*
X5427693Y30987105D02*
X5427693Y30891867D01*
X5427693Y30891867D02*
X5380074Y30749010D01*
X5380074Y30749010D02*
X4808646Y30177581D01*
X4808646Y30177581D02*
X5427693Y30177581D01*
X6380074Y30177581D02*
X5808646Y30177581D01*
X6094360Y30177581D02*
X6094360Y31177581D01*
X6094360Y31177581D02*
X5999122Y31034724D01*
X5999122Y31034724D02*
X5903884Y30939486D01*
X5903884Y30939486D02*
X5808646Y30891867D01*
X5477693Y42777581D02*
X4906265Y42777581D01*
X5191979Y42777581D02*
X5191979Y43777581D01*
X5191979Y43777581D02*
X5096741Y43634724D01*
X5096741Y43634724D02*
X5001503Y43539486D01*
X5001503Y43539486D02*
X4906265Y43491867D01*
X6430074Y42777581D02*
X5858646Y42777581D01*
X6144360Y42777581D02*
X6144360Y43777581D01*
X6144360Y43777581D02*
X6049122Y43634724D01*
X6049122Y43634724D02*
X5953884Y43539486D01*
X5953884Y43539486D02*
X5858646Y43491867D01*
X46027693Y24279962D02*
X45932455Y24327581D01*
X45932455Y24327581D02*
X45789598Y24327581D01*
X45789598Y24327581D02*
X45646741Y24279962D01*
X45646741Y24279962D02*
X45551503Y24184724D01*
X45551503Y24184724D02*
X45503884Y24089486D01*
X45503884Y24089486D02*
X45456265Y23899010D01*
X45456265Y23899010D02*
X45456265Y23756153D01*
X45456265Y23756153D02*
X45503884Y23565677D01*
X45503884Y23565677D02*
X45551503Y23470439D01*
X45551503Y23470439D02*
X45646741Y23375200D01*
X45646741Y23375200D02*
X45789598Y23327581D01*
X45789598Y23327581D02*
X45884836Y23327581D01*
X45884836Y23327581D02*
X46027693Y23375200D01*
X46027693Y23375200D02*
X46075312Y23422820D01*
X46075312Y23422820D02*
X46075312Y23756153D01*
X46075312Y23756153D02*
X45884836Y23756153D01*
X46503884Y23327581D02*
X46503884Y24327581D01*
X46503884Y24327581D02*
X47075312Y23327581D01*
X47075312Y23327581D02*
X47075312Y24327581D01*
X47551503Y23327581D02*
X47551503Y24327581D01*
X47551503Y24327581D02*
X47789598Y24327581D01*
X47789598Y24327581D02*
X47932455Y24279962D01*
X47932455Y24279962D02*
X48027693Y24184724D01*
X48027693Y24184724D02*
X48075312Y24089486D01*
X48075312Y24089486D02*
X48122931Y23899010D01*
X48122931Y23899010D02*
X48122931Y23756153D01*
X48122931Y23756153D02*
X48075312Y23565677D01*
X48075312Y23565677D02*
X48027693Y23470439D01*
X48027693Y23470439D02*
X47932455Y23375200D01*
X47932455Y23375200D02*
X47789598Y23327581D01*
X47789598Y23327581D02*
X47551503Y23327581D01*
X46027693Y21779962D02*
X45932455Y21827581D01*
X45932455Y21827581D02*
X45789598Y21827581D01*
X45789598Y21827581D02*
X45646741Y21779962D01*
X45646741Y21779962D02*
X45551503Y21684724D01*
X45551503Y21684724D02*
X45503884Y21589486D01*
X45503884Y21589486D02*
X45456265Y21399010D01*
X45456265Y21399010D02*
X45456265Y21256153D01*
X45456265Y21256153D02*
X45503884Y21065677D01*
X45503884Y21065677D02*
X45551503Y20970439D01*
X45551503Y20970439D02*
X45646741Y20875200D01*
X45646741Y20875200D02*
X45789598Y20827581D01*
X45789598Y20827581D02*
X45884836Y20827581D01*
X45884836Y20827581D02*
X46027693Y20875200D01*
X46027693Y20875200D02*
X46075312Y20922820D01*
X46075312Y20922820D02*
X46075312Y21256153D01*
X46075312Y21256153D02*
X45884836Y21256153D01*
X46503884Y20827581D02*
X46503884Y21827581D01*
X46503884Y21827581D02*
X47075312Y20827581D01*
X47075312Y20827581D02*
X47075312Y21827581D01*
X47551503Y20827581D02*
X47551503Y21827581D01*
X47551503Y21827581D02*
X47789598Y21827581D01*
X47789598Y21827581D02*
X47932455Y21779962D01*
X47932455Y21779962D02*
X48027693Y21684724D01*
X48027693Y21684724D02*
X48075312Y21589486D01*
X48075312Y21589486D02*
X48122931Y21399010D01*
X48122931Y21399010D02*
X48122931Y21256153D01*
X48122931Y21256153D02*
X48075312Y21065677D01*
X48075312Y21065677D02*
X48027693Y20970439D01*
X48027693Y20970439D02*
X47932455Y20875200D01*
X47932455Y20875200D02*
X47789598Y20827581D01*
X47789598Y20827581D02*
X47551503Y20827581D01*
X67672419Y37496742D02*
X66672419Y37496742D01*
X67148609Y37496742D02*
X67148609Y38068170D01*
X67672419Y38068170D02*
X66672419Y38068170D01*
X67672419Y38544361D02*
X66672419Y38544361D01*
X66672419Y38544361D02*
X66672419Y38782456D01*
X66672419Y38782456D02*
X66720038Y38925313D01*
X66720038Y38925313D02*
X66815276Y39020551D01*
X66815276Y39020551D02*
X66910514Y39068170D01*
X66910514Y39068170D02*
X67100990Y39115789D01*
X67100990Y39115789D02*
X67243847Y39115789D01*
X67243847Y39115789D02*
X67434323Y39068170D01*
X67434323Y39068170D02*
X67529561Y39020551D01*
X67529561Y39020551D02*
X67624800Y38925313D01*
X67624800Y38925313D02*
X67672419Y38782456D01*
X67672419Y38782456D02*
X67672419Y38544361D01*
X66672419Y39449123D02*
X66672419Y40068170D01*
X66672419Y40068170D02*
X67053371Y39734837D01*
X67053371Y39734837D02*
X67053371Y39877694D01*
X67053371Y39877694D02*
X67100990Y39972932D01*
X67100990Y39972932D02*
X67148609Y40020551D01*
X67148609Y40020551D02*
X67243847Y40068170D01*
X67243847Y40068170D02*
X67481942Y40068170D01*
X67481942Y40068170D02*
X67577180Y40020551D01*
X67577180Y40020551D02*
X67624800Y39972932D01*
X67624800Y39972932D02*
X67672419Y39877694D01*
X67672419Y39877694D02*
X67672419Y39591980D01*
X67672419Y39591980D02*
X67624800Y39496742D01*
X67624800Y39496742D02*
X67577180Y39449123D01*
X66672419Y40687218D02*
X66672419Y40782456D01*
X66672419Y40782456D02*
X66720038Y40877694D01*
X66720038Y40877694D02*
X66767657Y40925313D01*
X66767657Y40925313D02*
X66862895Y40972932D01*
X66862895Y40972932D02*
X67053371Y41020551D01*
X67053371Y41020551D02*
X67291466Y41020551D01*
X67291466Y41020551D02*
X67481942Y40972932D01*
X67481942Y40972932D02*
X67577180Y40925313D01*
X67577180Y40925313D02*
X67624800Y40877694D01*
X67624800Y40877694D02*
X67672419Y40782456D01*
X67672419Y40782456D02*
X67672419Y40687218D01*
X67672419Y40687218D02*
X67624800Y40591980D01*
X67624800Y40591980D02*
X67577180Y40544361D01*
X67577180Y40544361D02*
X67481942Y40496742D01*
X67481942Y40496742D02*
X67291466Y40449123D01*
X67291466Y40449123D02*
X67053371Y40449123D01*
X67053371Y40449123D02*
X66862895Y40496742D01*
X66862895Y40496742D02*
X66767657Y40544361D01*
X66767657Y40544361D02*
X66720038Y40591980D01*
X66720038Y40591980D02*
X66672419Y40687218D01*
X66672419Y41639599D02*
X66672419Y41734837D01*
X66672419Y41734837D02*
X66720038Y41830075D01*
X66720038Y41830075D02*
X66767657Y41877694D01*
X66767657Y41877694D02*
X66862895Y41925313D01*
X66862895Y41925313D02*
X67053371Y41972932D01*
X67053371Y41972932D02*
X67291466Y41972932D01*
X67291466Y41972932D02*
X67481942Y41925313D01*
X67481942Y41925313D02*
X67577180Y41877694D01*
X67577180Y41877694D02*
X67624800Y41830075D01*
X67624800Y41830075D02*
X67672419Y41734837D01*
X67672419Y41734837D02*
X67672419Y41639599D01*
X67672419Y41639599D02*
X67624800Y41544361D01*
X67624800Y41544361D02*
X67577180Y41496742D01*
X67577180Y41496742D02*
X67481942Y41449123D01*
X67481942Y41449123D02*
X67291466Y41401504D01*
X67291466Y41401504D02*
X67053371Y41401504D01*
X67053371Y41401504D02*
X66862895Y41449123D01*
X66862895Y41449123D02*
X66767657Y41496742D01*
X66767657Y41496742D02*
X66720038Y41544361D01*
X66720038Y41544361D02*
X66672419Y41639599D01*
X67672419Y42925313D02*
X67672419Y42353885D01*
X67672419Y42639599D02*
X66672419Y42639599D01*
X66672419Y42639599D02*
X66815276Y42544361D01*
X66815276Y42544361D02*
X66910514Y42449123D01*
X66910514Y42449123D02*
X66958133Y42353885D01*
X67005752Y43782456D02*
X67672419Y43782456D01*
X66624800Y43544361D02*
X67339085Y43306266D01*
X67339085Y43306266D02*
X67339085Y43925313D01*
X67577180Y44877694D02*
X67624800Y44830075D01*
X67624800Y44830075D02*
X67672419Y44687218D01*
X67672419Y44687218D02*
X67672419Y44591980D01*
X67672419Y44591980D02*
X67624800Y44449123D01*
X67624800Y44449123D02*
X67529561Y44353885D01*
X67529561Y44353885D02*
X67434323Y44306266D01*
X67434323Y44306266D02*
X67243847Y44258647D01*
X67243847Y44258647D02*
X67100990Y44258647D01*
X67100990Y44258647D02*
X66910514Y44306266D01*
X66910514Y44306266D02*
X66815276Y44353885D01*
X66815276Y44353885D02*
X66720038Y44449123D01*
X66720038Y44449123D02*
X66672419Y44591980D01*
X66672419Y44591980D02*
X66672419Y44687218D01*
X66672419Y44687218D02*
X66720038Y44830075D01*
X66720038Y44830075D02*
X66767657Y44877694D01*
X67005752Y45734837D02*
X67672419Y45734837D01*
X66624800Y45496742D02*
X67339085Y45258647D01*
X67339085Y45258647D02*
X67339085Y45877694D01*
X66672419Y46449123D02*
X66672419Y46544361D01*
X66672419Y46544361D02*
X66720038Y46639599D01*
X66720038Y46639599D02*
X66767657Y46687218D01*
X66767657Y46687218D02*
X66862895Y46734837D01*
X66862895Y46734837D02*
X67053371Y46782456D01*
X67053371Y46782456D02*
X67291466Y46782456D01*
X67291466Y46782456D02*
X67481942Y46734837D01*
X67481942Y46734837D02*
X67577180Y46687218D01*
X67577180Y46687218D02*
X67624800Y46639599D01*
X67624800Y46639599D02*
X67672419Y46544361D01*
X67672419Y46544361D02*
X67672419Y46449123D01*
X67672419Y46449123D02*
X67624800Y46353885D01*
X67624800Y46353885D02*
X67577180Y46306266D01*
X67577180Y46306266D02*
X67481942Y46258647D01*
X67481942Y46258647D02*
X67291466Y46211028D01*
X67291466Y46211028D02*
X67053371Y46211028D01*
X67053371Y46211028D02*
X66862895Y46258647D01*
X66862895Y46258647D02*
X66767657Y46306266D01*
X66767657Y46306266D02*
X66720038Y46353885D01*
X66720038Y46353885D02*
X66672419Y46449123D01*
X71067657Y40187217D02*
X71020038Y40091979D01*
X71020038Y40091979D02*
X70924800Y39996741D01*
X70924800Y39996741D02*
X70781942Y39853884D01*
X70781942Y39853884D02*
X70734323Y39758646D01*
X70734323Y39758646D02*
X70734323Y39663408D01*
X70972419Y39711027D02*
X70924800Y39615789D01*
X70924800Y39615789D02*
X70829561Y39520551D01*
X70829561Y39520551D02*
X70639085Y39472932D01*
X70639085Y39472932D02*
X70305752Y39472932D01*
X70305752Y39472932D02*
X70115276Y39520551D01*
X70115276Y39520551D02*
X70020038Y39615789D01*
X70020038Y39615789D02*
X69972419Y39711027D01*
X69972419Y39711027D02*
X69972419Y39901503D01*
X69972419Y39901503D02*
X70020038Y39996741D01*
X70020038Y39996741D02*
X70115276Y40091979D01*
X70115276Y40091979D02*
X70305752Y40139598D01*
X70305752Y40139598D02*
X70639085Y40139598D01*
X70639085Y40139598D02*
X70829561Y40091979D01*
X70829561Y40091979D02*
X70924800Y39996741D01*
X70924800Y39996741D02*
X70972419Y39901503D01*
X70972419Y39901503D02*
X70972419Y39711027D01*
X69972419Y40425313D02*
X69972419Y40996741D01*
X70972419Y40711027D02*
X69972419Y40711027D01*
X70305752Y41758646D02*
X70972419Y41758646D01*
X69924800Y41520551D02*
X70639085Y41282456D01*
X70639085Y41282456D02*
X70639085Y41901503D01*
X69972419Y42758646D02*
X69972419Y42282456D01*
X69972419Y42282456D02*
X70448609Y42234837D01*
X70448609Y42234837D02*
X70400990Y42282456D01*
X70400990Y42282456D02*
X70353371Y42377694D01*
X70353371Y42377694D02*
X70353371Y42615789D01*
X70353371Y42615789D02*
X70400990Y42711027D01*
X70400990Y42711027D02*
X70448609Y42758646D01*
X70448609Y42758646D02*
X70543847Y42806265D01*
X70543847Y42806265D02*
X70781942Y42806265D01*
X70781942Y42806265D02*
X70877180Y42758646D01*
X70877180Y42758646D02*
X70924800Y42711027D01*
X70924800Y42711027D02*
X70972419Y42615789D01*
X70972419Y42615789D02*
X70972419Y42377694D01*
X70972419Y42377694D02*
X70924800Y42282456D01*
X70924800Y42282456D02*
X70877180Y42234837D01*
X69972419Y43425313D02*
X69972419Y43520551D01*
X69972419Y43520551D02*
X70020038Y43615789D01*
X70020038Y43615789D02*
X70067657Y43663408D01*
X70067657Y43663408D02*
X70162895Y43711027D01*
X70162895Y43711027D02*
X70353371Y43758646D01*
X70353371Y43758646D02*
X70591466Y43758646D01*
X70591466Y43758646D02*
X70781942Y43711027D01*
X70781942Y43711027D02*
X70877180Y43663408D01*
X70877180Y43663408D02*
X70924800Y43615789D01*
X70924800Y43615789D02*
X70972419Y43520551D01*
X70972419Y43520551D02*
X70972419Y43425313D01*
X70972419Y43425313D02*
X70924800Y43330075D01*
X70924800Y43330075D02*
X70877180Y43282456D01*
X70877180Y43282456D02*
X70781942Y43234837D01*
X70781942Y43234837D02*
X70591466Y43187218D01*
X70591466Y43187218D02*
X70353371Y43187218D01*
X70353371Y43187218D02*
X70162895Y43234837D01*
X70162895Y43234837D02*
X70067657Y43282456D01*
X70067657Y43282456D02*
X70020038Y43330075D01*
X70020038Y43330075D02*
X69972419Y43425313D01*
X70448609Y44520551D02*
X70496228Y44663408D01*
X70496228Y44663408D02*
X70543847Y44711027D01*
X70543847Y44711027D02*
X70639085Y44758646D01*
X70639085Y44758646D02*
X70781942Y44758646D01*
X70781942Y44758646D02*
X70877180Y44711027D01*
X70877180Y44711027D02*
X70924800Y44663408D01*
X70924800Y44663408D02*
X70972419Y44568170D01*
X70972419Y44568170D02*
X70972419Y44187218D01*
X70972419Y44187218D02*
X69972419Y44187218D01*
X69972419Y44187218D02*
X69972419Y44520551D01*
X69972419Y44520551D02*
X70020038Y44615789D01*
X70020038Y44615789D02*
X70067657Y44663408D01*
X70067657Y44663408D02*
X70162895Y44711027D01*
X70162895Y44711027D02*
X70258133Y44711027D01*
X70258133Y44711027D02*
X70353371Y44663408D01*
X70353371Y44663408D02*
X70400990Y44615789D01*
X70400990Y44615789D02*
X70448609Y44520551D01*
X70448609Y44520551D02*
X70448609Y44187218D01*
X30506265Y4675200D02*
X30649122Y4627581D01*
X30649122Y4627581D02*
X30887217Y4627581D01*
X30887217Y4627581D02*
X30982455Y4675200D01*
X30982455Y4675200D02*
X31030074Y4722820D01*
X31030074Y4722820D02*
X31077693Y4818058D01*
X31077693Y4818058D02*
X31077693Y4913296D01*
X31077693Y4913296D02*
X31030074Y5008534D01*
X31030074Y5008534D02*
X30982455Y5056153D01*
X30982455Y5056153D02*
X30887217Y5103772D01*
X30887217Y5103772D02*
X30696741Y5151391D01*
X30696741Y5151391D02*
X30601503Y5199010D01*
X30601503Y5199010D02*
X30553884Y5246629D01*
X30553884Y5246629D02*
X30506265Y5341867D01*
X30506265Y5341867D02*
X30506265Y5437105D01*
X30506265Y5437105D02*
X30553884Y5532343D01*
X30553884Y5532343D02*
X30601503Y5579962D01*
X30601503Y5579962D02*
X30696741Y5627581D01*
X30696741Y5627581D02*
X30934836Y5627581D01*
X30934836Y5627581D02*
X31077693Y5579962D01*
X32030074Y4627581D02*
X31458646Y4627581D01*
X31744360Y4627581D02*
X31744360Y5627581D01*
X31744360Y5627581D02*
X31649122Y5484724D01*
X31649122Y5484724D02*
X31553884Y5389486D01*
X31553884Y5389486D02*
X31458646Y5341867D01*
X32315789Y5008534D02*
X32363408Y5056153D01*
X32363408Y5056153D02*
X32458646Y5103772D01*
X32458646Y5103772D02*
X32649122Y5008534D01*
X32649122Y5008534D02*
X32744360Y5056153D01*
X32744360Y5056153D02*
X32791979Y5103772D01*
X33125313Y4675200D02*
X33268170Y4627581D01*
X33268170Y4627581D02*
X33506265Y4627581D01*
X33506265Y4627581D02*
X33601503Y4675200D01*
X33601503Y4675200D02*
X33649122Y4722820D01*
X33649122Y4722820D02*
X33696741Y4818058D01*
X33696741Y4818058D02*
X33696741Y4913296D01*
X33696741Y4913296D02*
X33649122Y5008534D01*
X33649122Y5008534D02*
X33601503Y5056153D01*
X33601503Y5056153D02*
X33506265Y5103772D01*
X33506265Y5103772D02*
X33315789Y5151391D01*
X33315789Y5151391D02*
X33220551Y5199010D01*
X33220551Y5199010D02*
X33172932Y5246629D01*
X33172932Y5246629D02*
X33125313Y5341867D01*
X33125313Y5341867D02*
X33125313Y5437105D01*
X33125313Y5437105D02*
X33172932Y5532343D01*
X33172932Y5532343D02*
X33220551Y5579962D01*
X33220551Y5579962D02*
X33315789Y5627581D01*
X33315789Y5627581D02*
X33553884Y5627581D01*
X33553884Y5627581D02*
X33696741Y5579962D01*
X34649122Y4627581D02*
X34077694Y4627581D01*
X34363408Y4627581D02*
X34363408Y5627581D01*
X34363408Y5627581D02*
X34268170Y5484724D01*
X34268170Y5484724D02*
X34172932Y5389486D01*
X34172932Y5389486D02*
X34077694Y5341867D01*
X34982456Y5627581D02*
X35601503Y5627581D01*
X35601503Y5627581D02*
X35268170Y5246629D01*
X35268170Y5246629D02*
X35411027Y5246629D01*
X35411027Y5246629D02*
X35506265Y5199010D01*
X35506265Y5199010D02*
X35553884Y5151391D01*
X35553884Y5151391D02*
X35601503Y5056153D01*
X35601503Y5056153D02*
X35601503Y4818058D01*
X35601503Y4818058D02*
X35553884Y4722820D01*
X35553884Y4722820D02*
X35506265Y4675200D01*
X35506265Y4675200D02*
X35411027Y4627581D01*
X35411027Y4627581D02*
X35125313Y4627581D01*
X35125313Y4627581D02*
X35030075Y4675200D01*
X35030075Y4675200D02*
X34982456Y4722820D01*
X28020038Y4427694D02*
X27972419Y4332456D01*
X27972419Y4332456D02*
X27972419Y4189599D01*
X27972419Y4189599D02*
X28020038Y4046742D01*
X28020038Y4046742D02*
X28115276Y3951504D01*
X28115276Y3951504D02*
X28210514Y3903885D01*
X28210514Y3903885D02*
X28400990Y3856266D01*
X28400990Y3856266D02*
X28543847Y3856266D01*
X28543847Y3856266D02*
X28734323Y3903885D01*
X28734323Y3903885D02*
X28829561Y3951504D01*
X28829561Y3951504D02*
X28924800Y4046742D01*
X28924800Y4046742D02*
X28972419Y4189599D01*
X28972419Y4189599D02*
X28972419Y4284837D01*
X28972419Y4284837D02*
X28924800Y4427694D01*
X28924800Y4427694D02*
X28877180Y4475313D01*
X28877180Y4475313D02*
X28543847Y4475313D01*
X28543847Y4475313D02*
X28543847Y4284837D01*
X28972419Y4903885D02*
X27972419Y4903885D01*
X27972419Y4903885D02*
X28972419Y5475313D01*
X28972419Y5475313D02*
X27972419Y5475313D01*
X28972419Y5951504D02*
X27972419Y5951504D01*
X27972419Y5951504D02*
X27972419Y6189599D01*
X27972419Y6189599D02*
X28020038Y6332456D01*
X28020038Y6332456D02*
X28115276Y6427694D01*
X28115276Y6427694D02*
X28210514Y6475313D01*
X28210514Y6475313D02*
X28400990Y6522932D01*
X28400990Y6522932D02*
X28543847Y6522932D01*
X28543847Y6522932D02*
X28734323Y6475313D01*
X28734323Y6475313D02*
X28829561Y6427694D01*
X28829561Y6427694D02*
X28924800Y6332456D01*
X28924800Y6332456D02*
X28972419Y6189599D01*
X28972419Y6189599D02*
X28972419Y5951504D01*
X26472419Y4280075D02*
X26472419Y3803885D01*
X26472419Y3803885D02*
X25472419Y3803885D01*
X25948609Y4613409D02*
X25948609Y4946742D01*
X26472419Y5089599D02*
X26472419Y4613409D01*
X26472419Y4613409D02*
X25472419Y4613409D01*
X25472419Y4613409D02*
X25472419Y5089599D01*
X26472419Y5518171D02*
X25472419Y5518171D01*
X25472419Y5518171D02*
X25472419Y5756266D01*
X25472419Y5756266D02*
X25520038Y5899123D01*
X25520038Y5899123D02*
X25615276Y5994361D01*
X25615276Y5994361D02*
X25710514Y6041980D01*
X25710514Y6041980D02*
X25900990Y6089599D01*
X25900990Y6089599D02*
X26043847Y6089599D01*
X26043847Y6089599D02*
X26234323Y6041980D01*
X26234323Y6041980D02*
X26329561Y5994361D01*
X26329561Y5994361D02*
X26424800Y5899123D01*
X26424800Y5899123D02*
X26472419Y5756266D01*
X26472419Y5756266D02*
X26472419Y5518171D01*
X26567657Y6280075D02*
X26567657Y7041980D01*
X26186704Y7232457D02*
X26186704Y7708647D01*
X26472419Y7137219D02*
X25472419Y7470552D01*
X25472419Y7470552D02*
X26472419Y7803885D01*
X23922419Y4280075D02*
X23922419Y3803885D01*
X23922419Y3803885D02*
X22922419Y3803885D01*
X23398609Y4613409D02*
X23398609Y4946742D01*
X23922419Y5089599D02*
X23922419Y4613409D01*
X23922419Y4613409D02*
X22922419Y4613409D01*
X22922419Y4613409D02*
X22922419Y5089599D01*
X23922419Y5518171D02*
X22922419Y5518171D01*
X22922419Y5518171D02*
X22922419Y5756266D01*
X22922419Y5756266D02*
X22970038Y5899123D01*
X22970038Y5899123D02*
X23065276Y5994361D01*
X23065276Y5994361D02*
X23160514Y6041980D01*
X23160514Y6041980D02*
X23350990Y6089599D01*
X23350990Y6089599D02*
X23493847Y6089599D01*
X23493847Y6089599D02*
X23684323Y6041980D01*
X23684323Y6041980D02*
X23779561Y5994361D01*
X23779561Y5994361D02*
X23874800Y5899123D01*
X23874800Y5899123D02*
X23922419Y5756266D01*
X23922419Y5756266D02*
X23922419Y5518171D01*
X24017657Y6280075D02*
X24017657Y7041980D01*
X23922419Y7280076D02*
X22922419Y7280076D01*
X23922419Y7851504D02*
X23350990Y7422933D01*
X22922419Y7851504D02*
X23493847Y7280076D01*
X20470038Y4427694D02*
X20422419Y4332456D01*
X20422419Y4332456D02*
X20422419Y4189599D01*
X20422419Y4189599D02*
X20470038Y4046742D01*
X20470038Y4046742D02*
X20565276Y3951504D01*
X20565276Y3951504D02*
X20660514Y3903885D01*
X20660514Y3903885D02*
X20850990Y3856266D01*
X20850990Y3856266D02*
X20993847Y3856266D01*
X20993847Y3856266D02*
X21184323Y3903885D01*
X21184323Y3903885D02*
X21279561Y3951504D01*
X21279561Y3951504D02*
X21374800Y4046742D01*
X21374800Y4046742D02*
X21422419Y4189599D01*
X21422419Y4189599D02*
X21422419Y4284837D01*
X21422419Y4284837D02*
X21374800Y4427694D01*
X21374800Y4427694D02*
X21327180Y4475313D01*
X21327180Y4475313D02*
X20993847Y4475313D01*
X20993847Y4475313D02*
X20993847Y4284837D01*
X21422419Y4903885D02*
X20422419Y4903885D01*
X20422419Y4903885D02*
X21422419Y5475313D01*
X21422419Y5475313D02*
X20422419Y5475313D01*
X21422419Y5951504D02*
X20422419Y5951504D01*
X20422419Y5951504D02*
X20422419Y6189599D01*
X20422419Y6189599D02*
X20470038Y6332456D01*
X20470038Y6332456D02*
X20565276Y6427694D01*
X20565276Y6427694D02*
X20660514Y6475313D01*
X20660514Y6475313D02*
X20850990Y6522932D01*
X20850990Y6522932D02*
X20993847Y6522932D01*
X20993847Y6522932D02*
X21184323Y6475313D01*
X21184323Y6475313D02*
X21279561Y6427694D01*
X21279561Y6427694D02*
X21374800Y6332456D01*
X21374800Y6332456D02*
X21422419Y6189599D01*
X21422419Y6189599D02*
X21422419Y5951504D01*
X18774800Y3906266D02*
X18822419Y4049123D01*
X18822419Y4049123D02*
X18822419Y4287218D01*
X18822419Y4287218D02*
X18774800Y4382456D01*
X18774800Y4382456D02*
X18727180Y4430075D01*
X18727180Y4430075D02*
X18631942Y4477694D01*
X18631942Y4477694D02*
X18536704Y4477694D01*
X18536704Y4477694D02*
X18441466Y4430075D01*
X18441466Y4430075D02*
X18393847Y4382456D01*
X18393847Y4382456D02*
X18346228Y4287218D01*
X18346228Y4287218D02*
X18298609Y4096742D01*
X18298609Y4096742D02*
X18250990Y4001504D01*
X18250990Y4001504D02*
X18203371Y3953885D01*
X18203371Y3953885D02*
X18108133Y3906266D01*
X18108133Y3906266D02*
X18012895Y3906266D01*
X18012895Y3906266D02*
X17917657Y3953885D01*
X17917657Y3953885D02*
X17870038Y4001504D01*
X17870038Y4001504D02*
X17822419Y4096742D01*
X17822419Y4096742D02*
X17822419Y4334837D01*
X17822419Y4334837D02*
X17870038Y4477694D01*
X18822419Y4906266D02*
X17822419Y4906266D01*
X17822419Y4906266D02*
X17822419Y5144361D01*
X17822419Y5144361D02*
X17870038Y5287218D01*
X17870038Y5287218D02*
X17965276Y5382456D01*
X17965276Y5382456D02*
X18060514Y5430075D01*
X18060514Y5430075D02*
X18250990Y5477694D01*
X18250990Y5477694D02*
X18393847Y5477694D01*
X18393847Y5477694D02*
X18584323Y5430075D01*
X18584323Y5430075D02*
X18679561Y5382456D01*
X18679561Y5382456D02*
X18774800Y5287218D01*
X18774800Y5287218D02*
X18822419Y5144361D01*
X18822419Y5144361D02*
X18822419Y4906266D01*
X18536704Y5858647D02*
X18536704Y6334837D01*
X18822419Y5763409D02*
X17822419Y6096742D01*
X17822419Y6096742D02*
X18822419Y6430075D01*
X15522419Y3811028D02*
X16522419Y4144361D01*
X16522419Y4144361D02*
X15522419Y4477694D01*
X16522419Y4811028D02*
X15522419Y4811028D01*
X15522419Y4811028D02*
X15522419Y5049123D01*
X15522419Y5049123D02*
X15570038Y5191980D01*
X15570038Y5191980D02*
X15665276Y5287218D01*
X15665276Y5287218D02*
X15760514Y5334837D01*
X15760514Y5334837D02*
X15950990Y5382456D01*
X15950990Y5382456D02*
X16093847Y5382456D01*
X16093847Y5382456D02*
X16284323Y5334837D01*
X16284323Y5334837D02*
X16379561Y5287218D01*
X16379561Y5287218D02*
X16474800Y5191980D01*
X16474800Y5191980D02*
X16522419Y5049123D01*
X16522419Y5049123D02*
X16522419Y4811028D01*
X16522419Y5811028D02*
X15522419Y5811028D01*
X15522419Y5811028D02*
X15522419Y6049123D01*
X15522419Y6049123D02*
X15570038Y6191980D01*
X15570038Y6191980D02*
X15665276Y6287218D01*
X15665276Y6287218D02*
X15760514Y6334837D01*
X15760514Y6334837D02*
X15950990Y6382456D01*
X15950990Y6382456D02*
X16093847Y6382456D01*
X16093847Y6382456D02*
X16284323Y6334837D01*
X16284323Y6334837D02*
X16379561Y6287218D01*
X16379561Y6287218D02*
X16474800Y6191980D01*
X16474800Y6191980D02*
X16522419Y6049123D01*
X16522419Y6049123D02*
X16522419Y5811028D01*
X16522419Y6811028D02*
X15522419Y6811028D01*
X12972419Y3811028D02*
X13972419Y4144361D01*
X13972419Y4144361D02*
X12972419Y4477694D01*
X13972419Y4811028D02*
X12972419Y4811028D01*
X12972419Y4811028D02*
X12972419Y5049123D01*
X12972419Y5049123D02*
X13020038Y5191980D01*
X13020038Y5191980D02*
X13115276Y5287218D01*
X13115276Y5287218D02*
X13210514Y5334837D01*
X13210514Y5334837D02*
X13400990Y5382456D01*
X13400990Y5382456D02*
X13543847Y5382456D01*
X13543847Y5382456D02*
X13734323Y5334837D01*
X13734323Y5334837D02*
X13829561Y5287218D01*
X13829561Y5287218D02*
X13924800Y5191980D01*
X13924800Y5191980D02*
X13972419Y5049123D01*
X13972419Y5049123D02*
X13972419Y4811028D01*
X13972419Y5811028D02*
X12972419Y5811028D01*
X12972419Y5811028D02*
X12972419Y6049123D01*
X12972419Y6049123D02*
X13020038Y6191980D01*
X13020038Y6191980D02*
X13115276Y6287218D01*
X13115276Y6287218D02*
X13210514Y6334837D01*
X13210514Y6334837D02*
X13400990Y6382456D01*
X13400990Y6382456D02*
X13543847Y6382456D01*
X13543847Y6382456D02*
X13734323Y6334837D01*
X13734323Y6334837D02*
X13829561Y6287218D01*
X13829561Y6287218D02*
X13924800Y6191980D01*
X13924800Y6191980D02*
X13972419Y6049123D01*
X13972419Y6049123D02*
X13972419Y5811028D01*
X11177180Y4375313D02*
X11224800Y4327694D01*
X11224800Y4327694D02*
X11272419Y4184837D01*
X11272419Y4184837D02*
X11272419Y4089599D01*
X11272419Y4089599D02*
X11224800Y3946742D01*
X11224800Y3946742D02*
X11129561Y3851504D01*
X11129561Y3851504D02*
X11034323Y3803885D01*
X11034323Y3803885D02*
X10843847Y3756266D01*
X10843847Y3756266D02*
X10700990Y3756266D01*
X10700990Y3756266D02*
X10510514Y3803885D01*
X10510514Y3803885D02*
X10415276Y3851504D01*
X10415276Y3851504D02*
X10320038Y3946742D01*
X10320038Y3946742D02*
X10272419Y4089599D01*
X10272419Y4089599D02*
X10272419Y4184837D01*
X10272419Y4184837D02*
X10320038Y4327694D01*
X10320038Y4327694D02*
X10367657Y4375313D01*
X11224800Y4756266D02*
X11272419Y4899123D01*
X11272419Y4899123D02*
X11272419Y5137218D01*
X11272419Y5137218D02*
X11224800Y5232456D01*
X11224800Y5232456D02*
X11177180Y5280075D01*
X11177180Y5280075D02*
X11081942Y5327694D01*
X11081942Y5327694D02*
X10986704Y5327694D01*
X10986704Y5327694D02*
X10891466Y5280075D01*
X10891466Y5280075D02*
X10843847Y5232456D01*
X10843847Y5232456D02*
X10796228Y5137218D01*
X10796228Y5137218D02*
X10748609Y4946742D01*
X10748609Y4946742D02*
X10700990Y4851504D01*
X10700990Y4851504D02*
X10653371Y4803885D01*
X10653371Y4803885D02*
X10558133Y4756266D01*
X10558133Y4756266D02*
X10462895Y4756266D01*
X10462895Y4756266D02*
X10367657Y4803885D01*
X10367657Y4803885D02*
X10320038Y4851504D01*
X10320038Y4851504D02*
X10272419Y4946742D01*
X10272419Y4946742D02*
X10272419Y5184837D01*
X10272419Y5184837D02*
X10320038Y5327694D01*
X8722419Y3703885D02*
X7722419Y3703885D01*
X7722419Y3703885D02*
X7722419Y3941980D01*
X7722419Y3941980D02*
X7770038Y4084837D01*
X7770038Y4084837D02*
X7865276Y4180075D01*
X7865276Y4180075D02*
X7960514Y4227694D01*
X7960514Y4227694D02*
X8150990Y4275313D01*
X8150990Y4275313D02*
X8293847Y4275313D01*
X8293847Y4275313D02*
X8484323Y4227694D01*
X8484323Y4227694D02*
X8579561Y4180075D01*
X8579561Y4180075D02*
X8674800Y4084837D01*
X8674800Y4084837D02*
X8722419Y3941980D01*
X8722419Y3941980D02*
X8722419Y3703885D01*
X7674800Y5418170D02*
X8960514Y4561028D01*
X8627180Y6322932D02*
X8674800Y6275313D01*
X8674800Y6275313D02*
X8722419Y6132456D01*
X8722419Y6132456D02*
X8722419Y6037218D01*
X8722419Y6037218D02*
X8674800Y5894361D01*
X8674800Y5894361D02*
X8579561Y5799123D01*
X8579561Y5799123D02*
X8484323Y5751504D01*
X8484323Y5751504D02*
X8293847Y5703885D01*
X8293847Y5703885D02*
X8150990Y5703885D01*
X8150990Y5703885D02*
X7960514Y5751504D01*
X7960514Y5751504D02*
X7865276Y5799123D01*
X7865276Y5799123D02*
X7770038Y5894361D01*
X7770038Y5894361D02*
X7722419Y6037218D01*
X7722419Y6037218D02*
X7722419Y6132456D01*
X7722419Y6132456D02*
X7770038Y6275313D01*
X7770038Y6275313D02*
X7817657Y6322932D01*
X6124800Y3806266D02*
X6172419Y3949123D01*
X6172419Y3949123D02*
X6172419Y4187218D01*
X6172419Y4187218D02*
X6124800Y4282456D01*
X6124800Y4282456D02*
X6077180Y4330075D01*
X6077180Y4330075D02*
X5981942Y4377694D01*
X5981942Y4377694D02*
X5886704Y4377694D01*
X5886704Y4377694D02*
X5791466Y4330075D01*
X5791466Y4330075D02*
X5743847Y4282456D01*
X5743847Y4282456D02*
X5696228Y4187218D01*
X5696228Y4187218D02*
X5648609Y3996742D01*
X5648609Y3996742D02*
X5600990Y3901504D01*
X5600990Y3901504D02*
X5553371Y3853885D01*
X5553371Y3853885D02*
X5458133Y3806266D01*
X5458133Y3806266D02*
X5362895Y3806266D01*
X5362895Y3806266D02*
X5267657Y3853885D01*
X5267657Y3853885D02*
X5220038Y3901504D01*
X5220038Y3901504D02*
X5172419Y3996742D01*
X5172419Y3996742D02*
X5172419Y4234837D01*
X5172419Y4234837D02*
X5220038Y4377694D01*
X6077180Y5377694D02*
X6124800Y5330075D01*
X6124800Y5330075D02*
X6172419Y5187218D01*
X6172419Y5187218D02*
X6172419Y5091980D01*
X6172419Y5091980D02*
X6124800Y4949123D01*
X6124800Y4949123D02*
X6029561Y4853885D01*
X6029561Y4853885D02*
X5934323Y4806266D01*
X5934323Y4806266D02*
X5743847Y4758647D01*
X5743847Y4758647D02*
X5600990Y4758647D01*
X5600990Y4758647D02*
X5410514Y4806266D01*
X5410514Y4806266D02*
X5315276Y4853885D01*
X5315276Y4853885D02*
X5220038Y4949123D01*
X5220038Y4949123D02*
X5172419Y5091980D01*
X5172419Y5091980D02*
X5172419Y5187218D01*
X5172419Y5187218D02*
X5220038Y5330075D01*
X5220038Y5330075D02*
X5267657Y5377694D01*
X6172419Y6282456D02*
X6172419Y5806266D01*
X6172419Y5806266D02*
X5172419Y5806266D01*
X3672419Y4325313D02*
X3196228Y3991980D01*
X3672419Y3753885D02*
X2672419Y3753885D01*
X2672419Y3753885D02*
X2672419Y4134837D01*
X2672419Y4134837D02*
X2720038Y4230075D01*
X2720038Y4230075D02*
X2767657Y4277694D01*
X2767657Y4277694D02*
X2862895Y4325313D01*
X2862895Y4325313D02*
X3005752Y4325313D01*
X3005752Y4325313D02*
X3100990Y4277694D01*
X3100990Y4277694D02*
X3148609Y4230075D01*
X3148609Y4230075D02*
X3196228Y4134837D01*
X3196228Y4134837D02*
X3196228Y3753885D01*
X3624800Y4706266D02*
X3672419Y4849123D01*
X3672419Y4849123D02*
X3672419Y5087218D01*
X3672419Y5087218D02*
X3624800Y5182456D01*
X3624800Y5182456D02*
X3577180Y5230075D01*
X3577180Y5230075D02*
X3481942Y5277694D01*
X3481942Y5277694D02*
X3386704Y5277694D01*
X3386704Y5277694D02*
X3291466Y5230075D01*
X3291466Y5230075D02*
X3243847Y5182456D01*
X3243847Y5182456D02*
X3196228Y5087218D01*
X3196228Y5087218D02*
X3148609Y4896742D01*
X3148609Y4896742D02*
X3100990Y4801504D01*
X3100990Y4801504D02*
X3053371Y4753885D01*
X3053371Y4753885D02*
X2958133Y4706266D01*
X2958133Y4706266D02*
X2862895Y4706266D01*
X2862895Y4706266D02*
X2767657Y4753885D01*
X2767657Y4753885D02*
X2720038Y4801504D01*
X2720038Y4801504D02*
X2672419Y4896742D01*
X2672419Y4896742D02*
X2672419Y5134837D01*
X2672419Y5134837D02*
X2720038Y5277694D01*
X2672419Y5563409D02*
X2672419Y6134837D01*
X3672419Y5849123D02*
X2672419Y5849123D01*
X20027693Y56227581D02*
X19456265Y56227581D01*
X19741979Y56227581D02*
X19741979Y57227581D01*
X19741979Y57227581D02*
X19646741Y57084724D01*
X19646741Y57084724D02*
X19551503Y56989486D01*
X19551503Y56989486D02*
X19456265Y56941867D01*
X20500000Y56400000D02*
X36750000Y56400000D01*
X36750000Y52450000D01*
X20500000Y52450000D01*
X20500000Y56400000D01*
X13332455Y7944248D02*
X13332455Y7277581D01*
X13094360Y8325200D02*
X12856265Y7610915D01*
X12856265Y7610915D02*
X13475312Y7610915D01*
X14046741Y8277581D02*
X14141979Y8277581D01*
X14141979Y8277581D02*
X14237217Y8229962D01*
X14237217Y8229962D02*
X14284836Y8182343D01*
X14284836Y8182343D02*
X14332455Y8087105D01*
X14332455Y8087105D02*
X14380074Y7896629D01*
X14380074Y7896629D02*
X14380074Y7658534D01*
X14380074Y7658534D02*
X14332455Y7468058D01*
X14332455Y7468058D02*
X14284836Y7372820D01*
X14284836Y7372820D02*
X14237217Y7325200D01*
X14237217Y7325200D02*
X14141979Y7277581D01*
X14141979Y7277581D02*
X14046741Y7277581D01*
X14046741Y7277581D02*
X13951503Y7325200D01*
X13951503Y7325200D02*
X13903884Y7372820D01*
X13903884Y7372820D02*
X13856265Y7468058D01*
X13856265Y7468058D02*
X13808646Y7658534D01*
X13808646Y7658534D02*
X13808646Y7896629D01*
X13808646Y7896629D02*
X13856265Y8087105D01*
X13856265Y8087105D02*
X13903884Y8182343D01*
X13903884Y8182343D02*
X13951503Y8229962D01*
X13951503Y8229962D02*
X14046741Y8277581D01*
X73122419Y11303885D02*
X72122419Y11303885D01*
X72598609Y11303885D02*
X72598609Y11875313D01*
X73122419Y11875313D02*
X72122419Y11875313D01*
X73122419Y12351504D02*
X72122419Y12351504D01*
X72122419Y12351504D02*
X72122419Y12589599D01*
X72122419Y12589599D02*
X72170038Y12732456D01*
X72170038Y12732456D02*
X72265276Y12827694D01*
X72265276Y12827694D02*
X72360514Y12875313D01*
X72360514Y12875313D02*
X72550990Y12922932D01*
X72550990Y12922932D02*
X72693847Y12922932D01*
X72693847Y12922932D02*
X72884323Y12875313D01*
X72884323Y12875313D02*
X72979561Y12827694D01*
X72979561Y12827694D02*
X73074800Y12732456D01*
X73074800Y12732456D02*
X73122419Y12589599D01*
X73122419Y12589599D02*
X73122419Y12351504D01*
X73122419Y13875313D02*
X73122419Y13303885D01*
X73122419Y13589599D02*
X72122419Y13589599D01*
X72122419Y13589599D02*
X72265276Y13494361D01*
X72265276Y13494361D02*
X72360514Y13399123D01*
X72360514Y13399123D02*
X72408133Y13303885D01*
X73122419Y14351504D02*
X73122419Y14541980D01*
X73122419Y14541980D02*
X73074800Y14637218D01*
X73074800Y14637218D02*
X73027180Y14684837D01*
X73027180Y14684837D02*
X72884323Y14780075D01*
X72884323Y14780075D02*
X72693847Y14827694D01*
X72693847Y14827694D02*
X72312895Y14827694D01*
X72312895Y14827694D02*
X72217657Y14780075D01*
X72217657Y14780075D02*
X72170038Y14732456D01*
X72170038Y14732456D02*
X72122419Y14637218D01*
X72122419Y14637218D02*
X72122419Y14446742D01*
X72122419Y14446742D02*
X72170038Y14351504D01*
X72170038Y14351504D02*
X72217657Y14303885D01*
X72217657Y14303885D02*
X72312895Y14256266D01*
X72312895Y14256266D02*
X72550990Y14256266D01*
X72550990Y14256266D02*
X72646228Y14303885D01*
X72646228Y14303885D02*
X72693847Y14351504D01*
X72693847Y14351504D02*
X72741466Y14446742D01*
X72741466Y14446742D02*
X72741466Y14637218D01*
X72741466Y14637218D02*
X72693847Y14732456D01*
X72693847Y14732456D02*
X72646228Y14780075D01*
X72646228Y14780075D02*
X72550990Y14827694D01*
X72122419Y15446742D02*
X72122419Y15541980D01*
X72122419Y15541980D02*
X72170038Y15637218D01*
X72170038Y15637218D02*
X72217657Y15684837D01*
X72217657Y15684837D02*
X72312895Y15732456D01*
X72312895Y15732456D02*
X72503371Y15780075D01*
X72503371Y15780075D02*
X72741466Y15780075D01*
X72741466Y15780075D02*
X72931942Y15732456D01*
X72931942Y15732456D02*
X73027180Y15684837D01*
X73027180Y15684837D02*
X73074800Y15637218D01*
X73074800Y15637218D02*
X73122419Y15541980D01*
X73122419Y15541980D02*
X73122419Y15446742D01*
X73122419Y15446742D02*
X73074800Y15351504D01*
X73074800Y15351504D02*
X73027180Y15303885D01*
X73027180Y15303885D02*
X72931942Y15256266D01*
X72931942Y15256266D02*
X72741466Y15208647D01*
X72741466Y15208647D02*
X72503371Y15208647D01*
X72503371Y15208647D02*
X72312895Y15256266D01*
X72312895Y15256266D02*
X72217657Y15303885D01*
X72217657Y15303885D02*
X72170038Y15351504D01*
X72170038Y15351504D02*
X72122419Y15446742D01*
X72122419Y16399123D02*
X72122419Y16494361D01*
X72122419Y16494361D02*
X72170038Y16589599D01*
X72170038Y16589599D02*
X72217657Y16637218D01*
X72217657Y16637218D02*
X72312895Y16684837D01*
X72312895Y16684837D02*
X72503371Y16732456D01*
X72503371Y16732456D02*
X72741466Y16732456D01*
X72741466Y16732456D02*
X72931942Y16684837D01*
X72931942Y16684837D02*
X73027180Y16637218D01*
X73027180Y16637218D02*
X73074800Y16589599D01*
X73074800Y16589599D02*
X73122419Y16494361D01*
X73122419Y16494361D02*
X73122419Y16399123D01*
X73122419Y16399123D02*
X73074800Y16303885D01*
X73074800Y16303885D02*
X73027180Y16256266D01*
X73027180Y16256266D02*
X72931942Y16208647D01*
X72931942Y16208647D02*
X72741466Y16161028D01*
X72741466Y16161028D02*
X72503371Y16161028D01*
X72503371Y16161028D02*
X72312895Y16208647D01*
X72312895Y16208647D02*
X72217657Y16256266D01*
X72217657Y16256266D02*
X72170038Y16303885D01*
X72170038Y16303885D02*
X72122419Y16399123D01*
X72550990Y17303885D02*
X72503371Y17208647D01*
X72503371Y17208647D02*
X72455752Y17161028D01*
X72455752Y17161028D02*
X72360514Y17113409D01*
X72360514Y17113409D02*
X72312895Y17113409D01*
X72312895Y17113409D02*
X72217657Y17161028D01*
X72217657Y17161028D02*
X72170038Y17208647D01*
X72170038Y17208647D02*
X72122419Y17303885D01*
X72122419Y17303885D02*
X72122419Y17494361D01*
X72122419Y17494361D02*
X72170038Y17589599D01*
X72170038Y17589599D02*
X72217657Y17637218D01*
X72217657Y17637218D02*
X72312895Y17684837D01*
X72312895Y17684837D02*
X72360514Y17684837D01*
X72360514Y17684837D02*
X72455752Y17637218D01*
X72455752Y17637218D02*
X72503371Y17589599D01*
X72503371Y17589599D02*
X72550990Y17494361D01*
X72550990Y17494361D02*
X72550990Y17303885D01*
X72550990Y17303885D02*
X72598609Y17208647D01*
X72598609Y17208647D02*
X72646228Y17161028D01*
X72646228Y17161028D02*
X72741466Y17113409D01*
X72741466Y17113409D02*
X72931942Y17113409D01*
X72931942Y17113409D02*
X73027180Y17161028D01*
X73027180Y17161028D02*
X73074800Y17208647D01*
X73074800Y17208647D02*
X73122419Y17303885D01*
X73122419Y17303885D02*
X73122419Y17494361D01*
X73122419Y17494361D02*
X73074800Y17589599D01*
X73074800Y17589599D02*
X73027180Y17637218D01*
X73027180Y17637218D02*
X72931942Y17684837D01*
X72931942Y17684837D02*
X72741466Y17684837D01*
X72741466Y17684837D02*
X72646228Y17637218D01*
X72646228Y17637218D02*
X72598609Y17589599D01*
X72598609Y17589599D02*
X72550990Y17494361D01*
X73027180Y18684837D02*
X73074800Y18637218D01*
X73074800Y18637218D02*
X73122419Y18494361D01*
X73122419Y18494361D02*
X73122419Y18399123D01*
X73122419Y18399123D02*
X73074800Y18256266D01*
X73074800Y18256266D02*
X72979561Y18161028D01*
X72979561Y18161028D02*
X72884323Y18113409D01*
X72884323Y18113409D02*
X72693847Y18065790D01*
X72693847Y18065790D02*
X72550990Y18065790D01*
X72550990Y18065790D02*
X72360514Y18113409D01*
X72360514Y18113409D02*
X72265276Y18161028D01*
X72265276Y18161028D02*
X72170038Y18256266D01*
X72170038Y18256266D02*
X72122419Y18399123D01*
X72122419Y18399123D02*
X72122419Y18494361D01*
X72122419Y18494361D02*
X72170038Y18637218D01*
X72170038Y18637218D02*
X72217657Y18684837D01*
X72217657Y19065790D02*
X72170038Y19113409D01*
X72170038Y19113409D02*
X72122419Y19208647D01*
X72122419Y19208647D02*
X72122419Y19446742D01*
X72122419Y19446742D02*
X72170038Y19541980D01*
X72170038Y19541980D02*
X72217657Y19589599D01*
X72217657Y19589599D02*
X72312895Y19637218D01*
X72312895Y19637218D02*
X72408133Y19637218D01*
X72408133Y19637218D02*
X72550990Y19589599D01*
X72550990Y19589599D02*
X73122419Y19018171D01*
X73122419Y19018171D02*
X73122419Y19637218D01*
X72455752Y20494361D02*
X73122419Y20494361D01*
X72074800Y20256266D02*
X72789085Y20018171D01*
X72789085Y20018171D02*
X72789085Y20637218D01*
X40677693Y52977581D02*
X40106265Y52977581D01*
X40391979Y52977581D02*
X40391979Y53977581D01*
X40391979Y53977581D02*
X40296741Y53834724D01*
X40296741Y53834724D02*
X40201503Y53739486D01*
X40201503Y53739486D02*
X40106265Y53691867D01*
X33052419Y54230076D02*
X32052419Y54230076D01*
X33052419Y54706266D02*
X32052419Y54706266D01*
X32052419Y54706266D02*
X33052419Y55277694D01*
X33052419Y55277694D02*
X32052419Y55277694D01*
X32052419Y55611028D02*
X32052419Y56182456D01*
X33052419Y55896742D02*
X32052419Y55896742D01*
X54932455Y31094248D02*
X54932455Y30427581D01*
X54694360Y31475200D02*
X54456265Y30760915D01*
X54456265Y30760915D02*
X55075312Y30760915D01*
X55646741Y31427581D02*
X55741979Y31427581D01*
X55741979Y31427581D02*
X55837217Y31379962D01*
X55837217Y31379962D02*
X55884836Y31332343D01*
X55884836Y31332343D02*
X55932455Y31237105D01*
X55932455Y31237105D02*
X55980074Y31046629D01*
X55980074Y31046629D02*
X55980074Y30808534D01*
X55980074Y30808534D02*
X55932455Y30618058D01*
X55932455Y30618058D02*
X55884836Y30522820D01*
X55884836Y30522820D02*
X55837217Y30475200D01*
X55837217Y30475200D02*
X55741979Y30427581D01*
X55741979Y30427581D02*
X55646741Y30427581D01*
X55646741Y30427581D02*
X55551503Y30475200D01*
X55551503Y30475200D02*
X55503884Y30522820D01*
X55503884Y30522820D02*
X55456265Y30618058D01*
X55456265Y30618058D02*
X55408646Y30808534D01*
X55408646Y30808534D02*
X55408646Y31046629D01*
X55408646Y31046629D02*
X55456265Y31237105D01*
X55456265Y31237105D02*
X55503884Y31332343D01*
X55503884Y31332343D02*
X55551503Y31379962D01*
X55551503Y31379962D02*
X55646741Y31427581D01*
X56027693Y52627581D02*
X55456265Y52627581D01*
X55741979Y52627581D02*
X55741979Y53627581D01*
X55741979Y53627581D02*
X55646741Y53484724D01*
X55646741Y53484724D02*
X55551503Y53389486D01*
X55551503Y53389486D02*
X55456265Y53341867D01*
X1427693Y2027581D02*
X856265Y2027581D01*
X1141979Y2027581D02*
X1141979Y3027581D01*
X1141979Y3027581D02*
X1046741Y2884724D01*
X1046741Y2884724D02*
X951503Y2789486D01*
X951503Y2789486D02*
X856265Y2741867D01*
X21820038Y53991980D02*
X21772419Y53896742D01*
X21772419Y53896742D02*
X21772419Y53753885D01*
X21772419Y53753885D02*
X21820038Y53611028D01*
X21820038Y53611028D02*
X21915276Y53515790D01*
X21915276Y53515790D02*
X22010514Y53468171D01*
X22010514Y53468171D02*
X22200990Y53420552D01*
X22200990Y53420552D02*
X22343847Y53420552D01*
X22343847Y53420552D02*
X22534323Y53468171D01*
X22534323Y53468171D02*
X22629561Y53515790D01*
X22629561Y53515790D02*
X22724800Y53611028D01*
X22724800Y53611028D02*
X22772419Y53753885D01*
X22772419Y53753885D02*
X22772419Y53849123D01*
X22772419Y53849123D02*
X22724800Y53991980D01*
X22724800Y53991980D02*
X22677180Y54039599D01*
X22677180Y54039599D02*
X22343847Y54039599D01*
X22343847Y54039599D02*
X22343847Y53849123D01*
X22772419Y54468171D02*
X21772419Y54468171D01*
X21772419Y54468171D02*
X22772419Y55039599D01*
X22772419Y55039599D02*
X21772419Y55039599D01*
X22772419Y55515790D02*
X21772419Y55515790D01*
X21772419Y55515790D02*
X21772419Y55753885D01*
X21772419Y55753885D02*
X21820038Y55896742D01*
X21820038Y55896742D02*
X21915276Y55991980D01*
X21915276Y55991980D02*
X22010514Y56039599D01*
X22010514Y56039599D02*
X22200990Y56087218D01*
X22200990Y56087218D02*
X22343847Y56087218D01*
X22343847Y56087218D02*
X22534323Y56039599D01*
X22534323Y56039599D02*
X22629561Y55991980D01*
X22629561Y55991980D02*
X22724800Y55896742D01*
X22724800Y55896742D02*
X22772419Y55753885D01*
X22772419Y55753885D02*
X22772419Y55515790D01*
X35622419Y53372932D02*
X35146228Y53039599D01*
X35622419Y52801504D02*
X34622419Y52801504D01*
X34622419Y52801504D02*
X34622419Y53182456D01*
X34622419Y53182456D02*
X34670038Y53277694D01*
X34670038Y53277694D02*
X34717657Y53325313D01*
X34717657Y53325313D02*
X34812895Y53372932D01*
X34812895Y53372932D02*
X34955752Y53372932D01*
X34955752Y53372932D02*
X35050990Y53325313D01*
X35050990Y53325313D02*
X35098609Y53277694D01*
X35098609Y53277694D02*
X35146228Y53182456D01*
X35146228Y53182456D02*
X35146228Y52801504D01*
X35574800Y53753885D02*
X35622419Y53896742D01*
X35622419Y53896742D02*
X35622419Y54134837D01*
X35622419Y54134837D02*
X35574800Y54230075D01*
X35574800Y54230075D02*
X35527180Y54277694D01*
X35527180Y54277694D02*
X35431942Y54325313D01*
X35431942Y54325313D02*
X35336704Y54325313D01*
X35336704Y54325313D02*
X35241466Y54277694D01*
X35241466Y54277694D02*
X35193847Y54230075D01*
X35193847Y54230075D02*
X35146228Y54134837D01*
X35146228Y54134837D02*
X35098609Y53944361D01*
X35098609Y53944361D02*
X35050990Y53849123D01*
X35050990Y53849123D02*
X35003371Y53801504D01*
X35003371Y53801504D02*
X34908133Y53753885D01*
X34908133Y53753885D02*
X34812895Y53753885D01*
X34812895Y53753885D02*
X34717657Y53801504D01*
X34717657Y53801504D02*
X34670038Y53849123D01*
X34670038Y53849123D02*
X34622419Y53944361D01*
X34622419Y53944361D02*
X34622419Y54182456D01*
X34622419Y54182456D02*
X34670038Y54325313D01*
X34622419Y54611028D02*
X34622419Y55182456D01*
X35622419Y54896742D02*
X34622419Y54896742D01*
X35098609Y55849123D02*
X35146228Y55991980D01*
X35146228Y55991980D02*
X35193847Y56039599D01*
X35193847Y56039599D02*
X35289085Y56087218D01*
X35289085Y56087218D02*
X35431942Y56087218D01*
X35431942Y56087218D02*
X35527180Y56039599D01*
X35527180Y56039599D02*
X35574800Y55991980D01*
X35574800Y55991980D02*
X35622419Y55896742D01*
X35622419Y55896742D02*
X35622419Y55515790D01*
X35622419Y55515790D02*
X34622419Y55515790D01*
X34622419Y55515790D02*
X34622419Y55849123D01*
X34622419Y55849123D02*
X34670038Y55944361D01*
X34670038Y55944361D02*
X34717657Y55991980D01*
X34717657Y55991980D02*
X34812895Y56039599D01*
X34812895Y56039599D02*
X34908133Y56039599D01*
X34908133Y56039599D02*
X35003371Y55991980D01*
X35003371Y55991980D02*
X35050990Y55944361D01*
X35050990Y55944361D02*
X35098609Y55849123D01*
X35098609Y55849123D02*
X35098609Y55515790D01*
X65356265Y2382343D02*
X65403884Y2429962D01*
X65403884Y2429962D02*
X65499122Y2477581D01*
X65499122Y2477581D02*
X65737217Y2477581D01*
X65737217Y2477581D02*
X65832455Y2429962D01*
X65832455Y2429962D02*
X65880074Y2382343D01*
X65880074Y2382343D02*
X65927693Y2287105D01*
X65927693Y2287105D02*
X65927693Y2191867D01*
X65927693Y2191867D02*
X65880074Y2049010D01*
X65880074Y2049010D02*
X65308646Y1477581D01*
X65308646Y1477581D02*
X65927693Y1477581D01*
X66784836Y2144248D02*
X66784836Y1477581D01*
X66546741Y2525200D02*
X66308646Y1810915D01*
X66308646Y1810915D02*
X66927693Y1810915D01*
X6277693Y55677581D02*
X5706265Y55677581D01*
X5991979Y55677581D02*
X5991979Y56677581D01*
X5991979Y56677581D02*
X5896741Y56534724D01*
X5896741Y56534724D02*
X5801503Y56439486D01*
X5801503Y56439486D02*
X5706265Y56391867D01*
X60677693Y20877581D02*
X60106265Y20877581D01*
X60391979Y20877581D02*
X60391979Y21877581D01*
X60391979Y21877581D02*
X60296741Y21734724D01*
X60296741Y21734724D02*
X60201503Y21639486D01*
X60201503Y21639486D02*
X60106265Y21591867D01*
X29482419Y53515790D02*
X30482419Y53849123D01*
X30482419Y53849123D02*
X29482419Y54182456D01*
X30482419Y54515790D02*
X29482419Y54515790D01*
X29482419Y54515790D02*
X29482419Y54753885D01*
X29482419Y54753885D02*
X29530038Y54896742D01*
X29530038Y54896742D02*
X29625276Y54991980D01*
X29625276Y54991980D02*
X29720514Y55039599D01*
X29720514Y55039599D02*
X29910990Y55087218D01*
X29910990Y55087218D02*
X30053847Y55087218D01*
X30053847Y55087218D02*
X30244323Y55039599D01*
X30244323Y55039599D02*
X30339561Y54991980D01*
X30339561Y54991980D02*
X30434800Y54896742D01*
X30434800Y54896742D02*
X30482419Y54753885D01*
X30482419Y54753885D02*
X30482419Y54515790D01*
X30482419Y55515790D02*
X29482419Y55515790D01*
X29482419Y55515790D02*
X29482419Y55753885D01*
X29482419Y55753885D02*
X29530038Y55896742D01*
X29530038Y55896742D02*
X29625276Y55991980D01*
X29625276Y55991980D02*
X29720514Y56039599D01*
X29720514Y56039599D02*
X29910990Y56087218D01*
X29910990Y56087218D02*
X30053847Y56087218D01*
X30053847Y56087218D02*
X30244323Y56039599D01*
X30244323Y56039599D02*
X30339561Y55991980D01*
X30339561Y55991980D02*
X30434800Y55896742D01*
X30434800Y55896742D02*
X30482419Y55753885D01*
X30482419Y55753885D02*
X30482419Y55515790D01*
X40382455Y57977581D02*
X40191979Y57977581D01*
X40191979Y57977581D02*
X40096741Y57929962D01*
X40096741Y57929962D02*
X40049122Y57882343D01*
X40049122Y57882343D02*
X39953884Y57739486D01*
X39953884Y57739486D02*
X39906265Y57549010D01*
X39906265Y57549010D02*
X39906265Y57168058D01*
X39906265Y57168058D02*
X39953884Y57072820D01*
X39953884Y57072820D02*
X40001503Y57025200D01*
X40001503Y57025200D02*
X40096741Y56977581D01*
X40096741Y56977581D02*
X40287217Y56977581D01*
X40287217Y56977581D02*
X40382455Y57025200D01*
X40382455Y57025200D02*
X40430074Y57072820D01*
X40430074Y57072820D02*
X40477693Y57168058D01*
X40477693Y57168058D02*
X40477693Y57406153D01*
X40477693Y57406153D02*
X40430074Y57501391D01*
X40430074Y57501391D02*
X40382455Y57549010D01*
X40382455Y57549010D02*
X40287217Y57596629D01*
X40287217Y57596629D02*
X40096741Y57596629D01*
X40096741Y57596629D02*
X40001503Y57549010D01*
X40001503Y57549010D02*
X39953884Y57501391D01*
X39953884Y57501391D02*
X39906265Y57406153D01*
X4758646Y8127581D02*
X5377693Y8127581D01*
X5377693Y8127581D02*
X5044360Y7746629D01*
X5044360Y7746629D02*
X5187217Y7746629D01*
X5187217Y7746629D02*
X5282455Y7699010D01*
X5282455Y7699010D02*
X5330074Y7651391D01*
X5330074Y7651391D02*
X5377693Y7556153D01*
X5377693Y7556153D02*
X5377693Y7318058D01*
X5377693Y7318058D02*
X5330074Y7222820D01*
X5330074Y7222820D02*
X5282455Y7175200D01*
X5282455Y7175200D02*
X5187217Y7127581D01*
X5187217Y7127581D02*
X4901503Y7127581D01*
X4901503Y7127581D02*
X4806265Y7175200D01*
X4806265Y7175200D02*
X4758646Y7222820D01*
X5853884Y7127581D02*
X6044360Y7127581D01*
X6044360Y7127581D02*
X6139598Y7175200D01*
X6139598Y7175200D02*
X6187217Y7222820D01*
X6187217Y7222820D02*
X6282455Y7365677D01*
X6282455Y7365677D02*
X6330074Y7556153D01*
X6330074Y7556153D02*
X6330074Y7937105D01*
X6330074Y7937105D02*
X6282455Y8032343D01*
X6282455Y8032343D02*
X6234836Y8079962D01*
X6234836Y8079962D02*
X6139598Y8127581D01*
X6139598Y8127581D02*
X5949122Y8127581D01*
X5949122Y8127581D02*
X5853884Y8079962D01*
X5853884Y8079962D02*
X5806265Y8032343D01*
X5806265Y8032343D02*
X5758646Y7937105D01*
X5758646Y7937105D02*
X5758646Y7699010D01*
X5758646Y7699010D02*
X5806265Y7603772D01*
X5806265Y7603772D02*
X5853884Y7556153D01*
X5853884Y7556153D02*
X5949122Y7508534D01*
X5949122Y7508534D02*
X6139598Y7508534D01*
X6139598Y7508534D02*
X6234836Y7556153D01*
X6234836Y7556153D02*
X6282455Y7603772D01*
X6282455Y7603772D02*
X6330074Y7699010D01*
X27864800Y53706266D02*
X27912419Y53849123D01*
X27912419Y53849123D02*
X27912419Y54087218D01*
X27912419Y54087218D02*
X27864800Y54182456D01*
X27864800Y54182456D02*
X27817180Y54230075D01*
X27817180Y54230075D02*
X27721942Y54277694D01*
X27721942Y54277694D02*
X27626704Y54277694D01*
X27626704Y54277694D02*
X27531466Y54230075D01*
X27531466Y54230075D02*
X27483847Y54182456D01*
X27483847Y54182456D02*
X27436228Y54087218D01*
X27436228Y54087218D02*
X27388609Y53896742D01*
X27388609Y53896742D02*
X27340990Y53801504D01*
X27340990Y53801504D02*
X27293371Y53753885D01*
X27293371Y53753885D02*
X27198133Y53706266D01*
X27198133Y53706266D02*
X27102895Y53706266D01*
X27102895Y53706266D02*
X27007657Y53753885D01*
X27007657Y53753885D02*
X26960038Y53801504D01*
X26960038Y53801504D02*
X26912419Y53896742D01*
X26912419Y53896742D02*
X26912419Y54134837D01*
X26912419Y54134837D02*
X26960038Y54277694D01*
X27817180Y55277694D02*
X27864800Y55230075D01*
X27864800Y55230075D02*
X27912419Y55087218D01*
X27912419Y55087218D02*
X27912419Y54991980D01*
X27912419Y54991980D02*
X27864800Y54849123D01*
X27864800Y54849123D02*
X27769561Y54753885D01*
X27769561Y54753885D02*
X27674323Y54706266D01*
X27674323Y54706266D02*
X27483847Y54658647D01*
X27483847Y54658647D02*
X27340990Y54658647D01*
X27340990Y54658647D02*
X27150514Y54706266D01*
X27150514Y54706266D02*
X27055276Y54753885D01*
X27055276Y54753885D02*
X26960038Y54849123D01*
X26960038Y54849123D02*
X26912419Y54991980D01*
X26912419Y54991980D02*
X26912419Y55087218D01*
X26912419Y55087218D02*
X26960038Y55230075D01*
X26960038Y55230075D02*
X27007657Y55277694D01*
X27912419Y56182456D02*
X27912419Y55706266D01*
X27912419Y55706266D02*
X26912419Y55706266D01*
X59306265Y8982343D02*
X59353884Y9029962D01*
X59353884Y9029962D02*
X59449122Y9077581D01*
X59449122Y9077581D02*
X59687217Y9077581D01*
X59687217Y9077581D02*
X59782455Y9029962D01*
X59782455Y9029962D02*
X59830074Y8982343D01*
X59830074Y8982343D02*
X59877693Y8887105D01*
X59877693Y8887105D02*
X59877693Y8791867D01*
X59877693Y8791867D02*
X59830074Y8649010D01*
X59830074Y8649010D02*
X59258646Y8077581D01*
X59258646Y8077581D02*
X59877693Y8077581D01*
X60734836Y8744248D02*
X60734836Y8077581D01*
X60496741Y9125200D02*
X60258646Y8410915D01*
X60258646Y8410915D02*
X60877693Y8410915D01*
X25294800Y53658647D02*
X25342419Y53801504D01*
X25342419Y53801504D02*
X25342419Y54039599D01*
X25342419Y54039599D02*
X25294800Y54134837D01*
X25294800Y54134837D02*
X25247180Y54182456D01*
X25247180Y54182456D02*
X25151942Y54230075D01*
X25151942Y54230075D02*
X25056704Y54230075D01*
X25056704Y54230075D02*
X24961466Y54182456D01*
X24961466Y54182456D02*
X24913847Y54134837D01*
X24913847Y54134837D02*
X24866228Y54039599D01*
X24866228Y54039599D02*
X24818609Y53849123D01*
X24818609Y53849123D02*
X24770990Y53753885D01*
X24770990Y53753885D02*
X24723371Y53706266D01*
X24723371Y53706266D02*
X24628133Y53658647D01*
X24628133Y53658647D02*
X24532895Y53658647D01*
X24532895Y53658647D02*
X24437657Y53706266D01*
X24437657Y53706266D02*
X24390038Y53753885D01*
X24390038Y53753885D02*
X24342419Y53849123D01*
X24342419Y53849123D02*
X24342419Y54087218D01*
X24342419Y54087218D02*
X24390038Y54230075D01*
X25342419Y54658647D02*
X24342419Y54658647D01*
X24342419Y54658647D02*
X24342419Y54896742D01*
X24342419Y54896742D02*
X24390038Y55039599D01*
X24390038Y55039599D02*
X24485276Y55134837D01*
X24485276Y55134837D02*
X24580514Y55182456D01*
X24580514Y55182456D02*
X24770990Y55230075D01*
X24770990Y55230075D02*
X24913847Y55230075D01*
X24913847Y55230075D02*
X25104323Y55182456D01*
X25104323Y55182456D02*
X25199561Y55134837D01*
X25199561Y55134837D02*
X25294800Y55039599D01*
X25294800Y55039599D02*
X25342419Y54896742D01*
X25342419Y54896742D02*
X25342419Y54658647D01*
X25056704Y55611028D02*
X25056704Y56087218D01*
X25342419Y55515790D02*
X24342419Y55849123D01*
X24342419Y55849123D02*
X25342419Y56182456D01*
X12856265Y56582343D02*
X12903884Y56629962D01*
X12903884Y56629962D02*
X12999122Y56677581D01*
X12999122Y56677581D02*
X13237217Y56677581D01*
X13237217Y56677581D02*
X13332455Y56629962D01*
X13332455Y56629962D02*
X13380074Y56582343D01*
X13380074Y56582343D02*
X13427693Y56487105D01*
X13427693Y56487105D02*
X13427693Y56391867D01*
X13427693Y56391867D02*
X13380074Y56249010D01*
X13380074Y56249010D02*
X12808646Y55677581D01*
X12808646Y55677581D02*
X13427693Y55677581D01*
D11*
X43466666Y26715181D02*
X43466666Y26000896D01*
X43466666Y26000896D02*
X43419047Y25858039D01*
X43419047Y25858039D02*
X43323809Y25762800D01*
X43323809Y25762800D02*
X43180952Y25715181D01*
X43180952Y25715181D02*
X43085714Y25715181D01*
X43847619Y26715181D02*
X44514285Y26715181D01*
X44514285Y26715181D02*
X44085714Y25715181D01*
X64904819Y41766667D02*
X65619104Y41766667D01*
X65619104Y41766667D02*
X65761961Y41719048D01*
X65761961Y41719048D02*
X65857200Y41623810D01*
X65857200Y41623810D02*
X65904819Y41480953D01*
X65904819Y41480953D02*
X65904819Y41385715D01*
X65904819Y42766667D02*
X65904819Y42195239D01*
X65904819Y42480953D02*
X64904819Y42480953D01*
X64904819Y42480953D02*
X65047676Y42385715D01*
X65047676Y42385715D02*
X65142914Y42290477D01*
X65142914Y42290477D02*
X65190533Y42195239D01*
X63404819Y1866667D02*
X64119104Y1866667D01*
X64119104Y1866667D02*
X64261961Y1819048D01*
X64261961Y1819048D02*
X64357200Y1723810D01*
X64357200Y1723810D02*
X64404819Y1580953D01*
X64404819Y1580953D02*
X64404819Y1485715D01*
X63404819Y2771429D02*
X63404819Y2580953D01*
X63404819Y2580953D02*
X63452438Y2485715D01*
X63452438Y2485715D02*
X63500057Y2438096D01*
X63500057Y2438096D02*
X63642914Y2342858D01*
X63642914Y2342858D02*
X63833390Y2295239D01*
X63833390Y2295239D02*
X64214342Y2295239D01*
X64214342Y2295239D02*
X64309580Y2342858D01*
X64309580Y2342858D02*
X64357200Y2390477D01*
X64357200Y2390477D02*
X64404819Y2485715D01*
X64404819Y2485715D02*
X64404819Y2676191D01*
X64404819Y2676191D02*
X64357200Y2771429D01*
X64357200Y2771429D02*
X64309580Y2819048D01*
X64309580Y2819048D02*
X64214342Y2866667D01*
X64214342Y2866667D02*
X63976247Y2866667D01*
X63976247Y2866667D02*
X63881009Y2819048D01*
X63881009Y2819048D02*
X63833390Y2771429D01*
X63833390Y2771429D02*
X63785771Y2676191D01*
X63785771Y2676191D02*
X63785771Y2485715D01*
X63785771Y2485715D02*
X63833390Y2390477D01*
X63833390Y2390477D02*
X63881009Y2342858D01*
X63881009Y2342858D02*
X63976247Y2295239D01*
X69454819Y14766667D02*
X70169104Y14766667D01*
X70169104Y14766667D02*
X70311961Y14719048D01*
X70311961Y14719048D02*
X70407200Y14623810D01*
X70407200Y14623810D02*
X70454819Y14480953D01*
X70454819Y14480953D02*
X70454819Y14385715D01*
X69454819Y15147620D02*
X69454819Y15766667D01*
X69454819Y15766667D02*
X69835771Y15433334D01*
X69835771Y15433334D02*
X69835771Y15576191D01*
X69835771Y15576191D02*
X69883390Y15671429D01*
X69883390Y15671429D02*
X69931009Y15719048D01*
X69931009Y15719048D02*
X70026247Y15766667D01*
X70026247Y15766667D02*
X70264342Y15766667D01*
X70264342Y15766667D02*
X70359580Y15719048D01*
X70359580Y15719048D02*
X70407200Y15671429D01*
X70407200Y15671429D02*
X70454819Y15576191D01*
X70454819Y15576191D02*
X70454819Y15290477D01*
X70454819Y15290477D02*
X70407200Y15195239D01*
X70407200Y15195239D02*
X70359580Y15147620D01*
X49329819Y55076667D02*
X50044104Y55076667D01*
X50044104Y55076667D02*
X50186961Y55029048D01*
X50186961Y55029048D02*
X50282200Y54933810D01*
X50282200Y54933810D02*
X50329819Y54790953D01*
X50329819Y54790953D02*
X50329819Y54695715D01*
X49425057Y55505239D02*
X49377438Y55552858D01*
X49377438Y55552858D02*
X49329819Y55648096D01*
X49329819Y55648096D02*
X49329819Y55886191D01*
X49329819Y55886191D02*
X49377438Y55981429D01*
X49377438Y55981429D02*
X49425057Y56029048D01*
X49425057Y56029048D02*
X49520295Y56076667D01*
X49520295Y56076667D02*
X49615533Y56076667D01*
X49615533Y56076667D02*
X49758390Y56029048D01*
X49758390Y56029048D02*
X50329819Y55457620D01*
X50329819Y55457620D02*
X50329819Y56076667D01*
X9196666Y58935181D02*
X9196666Y58220896D01*
X9196666Y58220896D02*
X9149047Y58078039D01*
X9149047Y58078039D02*
X9053809Y57982800D01*
X9053809Y57982800D02*
X8910952Y57935181D01*
X8910952Y57935181D02*
X8815714Y57935181D01*
X10101428Y58601848D02*
X10101428Y57935181D01*
X9863333Y58982800D02*
X9625238Y58268515D01*
X9625238Y58268515D02*
X10244285Y58268515D01*
X19374819Y57866667D02*
X20089104Y57866667D01*
X20089104Y57866667D02*
X20231961Y57819048D01*
X20231961Y57819048D02*
X20327200Y57723810D01*
X20327200Y57723810D02*
X20374819Y57580953D01*
X20374819Y57580953D02*
X20374819Y57485715D01*
X19374819Y58819048D02*
X19374819Y58342858D01*
X19374819Y58342858D02*
X19851009Y58295239D01*
X19851009Y58295239D02*
X19803390Y58342858D01*
X19803390Y58342858D02*
X19755771Y58438096D01*
X19755771Y58438096D02*
X19755771Y58676191D01*
X19755771Y58676191D02*
X19803390Y58771429D01*
X19803390Y58771429D02*
X19851009Y58819048D01*
X19851009Y58819048D02*
X19946247Y58866667D01*
X19946247Y58866667D02*
X20184342Y58866667D01*
X20184342Y58866667D02*
X20279580Y58819048D01*
X20279580Y58819048D02*
X20327200Y58771429D01*
X20327200Y58771429D02*
X20374819Y58676191D01*
X20374819Y58676191D02*
X20374819Y58438096D01*
X20374819Y58438096D02*
X20327200Y58342858D01*
X20327200Y58342858D02*
X20279580Y58295239D01*
D12*
%TO.C,J7*%
X42470000Y25170000D02*
X43800000Y25170000D01*
X42470000Y23840000D02*
X42470000Y25170000D01*
X42470000Y22570000D02*
X42470000Y19970000D01*
X42470000Y22570000D02*
X45130000Y22570000D01*
X42470000Y19970000D02*
X45130000Y19970000D01*
X45130000Y22570000D02*
X45130000Y19970000D01*
%TO.C,J1*%
X64050000Y30450000D02*
X64050000Y53750000D01*
X64050000Y53750000D02*
X62310000Y53750000D01*
X62310000Y30450000D02*
X64050000Y30450000D01*
X58250000Y30450000D02*
X59590000Y30450000D01*
X58250000Y31940000D02*
X58250000Y30450000D01*
X58250000Y31940000D02*
X57050000Y31940000D01*
X58250000Y52260000D02*
X58250000Y53750000D01*
X58250000Y53750000D02*
X59590000Y53750000D01*
%TO.C,J6*%
X1870000Y3530000D02*
X1870000Y870000D01*
X60350000Y3530000D02*
X1870000Y3530000D01*
X60350000Y3530000D02*
X60350000Y870000D01*
X60350000Y870000D02*
X1870000Y870000D01*
X61620000Y3530000D02*
X62950000Y3530000D01*
X62950000Y3530000D02*
X62950000Y2200000D01*
%TO.C,J3*%
X62675000Y22750000D02*
X64015000Y22750000D01*
X62675000Y21260000D02*
X62675000Y22750000D01*
X62675000Y8940000D02*
X61475000Y8940000D01*
X62675000Y8940000D02*
X62675000Y7450000D01*
X62675000Y7450000D02*
X64015000Y7450000D01*
X66735000Y7450000D02*
X68475000Y7450000D01*
X68475000Y22750000D02*
X66735000Y22750000D01*
X68475000Y7450000D02*
X68475000Y22750000D01*
%TO.C,J2*%
X42675000Y58560000D02*
X44015000Y58560000D01*
X42675000Y57070000D02*
X42675000Y58560000D01*
X42675000Y53750000D02*
X41475000Y53750000D01*
X42675000Y53750000D02*
X42675000Y52260000D01*
X42675000Y52260000D02*
X44015000Y52260000D01*
X46735000Y52260000D02*
X48475000Y52260000D01*
X48475000Y58560000D02*
X46735000Y58560000D01*
X48475000Y52260000D02*
X48475000Y58560000D01*
%TO.C,J4*%
X6930000Y57390000D02*
X8260000Y57390000D01*
X6930000Y56060000D02*
X6930000Y57390000D01*
X6930000Y54790000D02*
X6930000Y6470000D01*
X6930000Y54790000D02*
X9530000Y54790000D01*
X6930000Y6470000D02*
X12130000Y6470000D01*
X9530000Y57390000D02*
X12130000Y57390000D01*
X9530000Y54790000D02*
X9530000Y57390000D01*
X12130000Y57390000D02*
X12130000Y6470000D01*
%TO.C,J5*%
X20920000Y56870000D02*
X20920000Y58200000D01*
X22250000Y56870000D02*
X20920000Y56870000D01*
X23520000Y59530000D02*
X36280000Y59530000D01*
X23520000Y56870000D02*
X23520000Y59530000D01*
X23520000Y56870000D02*
X36280000Y56870000D01*
X36280000Y56870000D02*
X36280000Y59530000D01*
%TD*%
M02*
